<svg id="tabliczka" xmlns="http://www.w3.org/2000/svg" width="565.059" height="87.32" viewBox="0 0 565.059 87.32">
  <g id="Warstwa_1-2" transform="translate(5.958)">
    <path id="Path_9" data-name="Path 9" d="M557.2,72.373c-2.827,7.96-8.482,7.258-12.993,7.1C379.148,68.705,216.563,82.909,62.968,74.48c-4.67-.234-38.82,0-43.489.7-9.753,1.483-14.454.234-16.868-6.946C1.5,64.881.45,60.276.577,52.628c.1-6.712.381-11,.6-17.794.381-10.38.858-24.115,3.939-29.188C8.615-.207,76.758.175,78.283.565c83.731,7.467,92.948-2.489,171.16,6.8,27.256,3.2,43.839,5.229,67.982,3.9,74.431-3.98,148.925,1.951,223.324-3.122,3.3-.234,13.946-1.093,17.472,13.267,1.112,4.6,1.271,9.6,1.4,16.155A189.617,189.617,0,0,1,557.2,72.373Z" transform="translate(-0.567 -0.371)" fill="#b37f27"/>
  </g>
  <g id="Warstwa_1-2-2" data-name="Warstwa_1-2" transform="translate(0 4.872)" opacity="0.41">
    <path id="Path_9-2" data-name="Path 9" d="M557.654,71.1c-2.827,8.34-17.186,8.825-21.7,8.662C325.7,80.586,216,86.476,62.4,77.645c-4.67-.245-33.164,1.385-37.834,2.121C14.815,81.319,4.458,78.626,2.044,71.1.932,67.588-.117,62.763.01,54.75c.1-7.032.381-11.529.6-18.643C1,25.232,1.472,10.841,4.553,5.527,8.048-.606,76.191-.206,77.716.2c83.731,7.823,92.948-2.608,171.16,7.122,27.256,3.352,43.839,5.478,67.982,4.088,74.431-4.17,148.925,2.044,223.324-3.271,3.3-.245,13.946-1.145,17.472,13.9,1.112,4.824,1.271,10.057,1.4,16.926C559.4,54.832,558.861,63.336,557.654,71.1Z" transform="translate(0 0)" fill="#b37f27"/>
  </g>
</svg>
