<svg xmlns="http://www.w3.org/2000/svg" width="772.202" height="509.685" viewBox="0 0 772.202 509.685">
  <g id="background" transform="translate(-573.899 -285.157)">
    <g id="Warstwa_1-2" transform="translate(596.899 311.157)">
      <path id="Path_10" data-name="Path 10" d="M706.274,449.273c-6.635,2.488-14.929,3.2-22.393,3.555-134.835,5.806-248.7,8.412-354.149-2.844-62.678-9.6-131.991-15.521-193.484-12.915C107.1,438.135,93.593,439.32,68,442.519c-15.166,1.9-28.792,4.147-40.4,6.28C16.934,451.406,3.309,449.865.939,436.832-.483,431.145.11,424.984.584,419.178c2.133-22.157,3.791-48.815,3.91-73.579C5.441,311.713.584,280.2.7,246.547c.474-60.782,17.773-126.185,8.649-188.271-1.3-8.886-3.318-18.128-5.332-26.3C-1.786,14.081-.009,1.285,22.622,1.048c146.8,14.1,244.2-7.7,381.045,3.081,64.218,4.147,115.4,15.521,187.2,8.175,31.161-3.791,63.744-8.412,94.55-11.019,34.123-5.924,38.152,10.782,41,40.877,4.147,40.64-8.649,79.977-6.872,120.38-.474,90.64-7.938,147.276,0,247.75,1.3,14.573,4.265,34.123-13.152,38.863h-.237Z" transform="translate(-0.048 -0.1)" fill="#b37f27"/>
    </g>
    <g id="Warstwa_1-2-2" data-name="Warstwa_1-2" transform="translate(577.898 317.282) rotate(-2)" opacity="0.41">
      <path id="Path_10-2" data-name="Path 10" d="M726.979,462.372c-6.83,2.561-15.368,3.293-23.052,3.659-138.8,5.976-256.006,8.66-364.555-2.927-64.52-9.879-135.87-15.977-199.17-13.294-30,1.1-43.908,2.317-70.252,5.61-15.612,1.951-29.638,4.269-41.59,6.464-10.977,2.683-25,1.1-27.442-12.319-1.464-5.854-.854-12.2-.366-18.173,2.2-22.808,3.9-50.25,4.025-75.741C5.552,320.77.552,288.327.674,253.689c.488-62.568,18.295-129.893,8.9-193.8C8.235,50.738,6.162,41.224,4.089,32.809-1.888,14.392-.058,1.22,23.237.976,174.353,15.49,274.609-6.952,415.479,4.147c66.105,4.269,118.795,15.978,192.706,8.416C640.262,8.659,673.8,3.9,705.513,1.22c35.126-6.1,39.273,11.1,42.2,42.078,4.269,41.834-8.9,82.327-7.074,123.917-.488,93.3-8.172,151.6,0,255.03,1.342,15,4.391,35.126-13.538,40h-.244Z" transform="translate(0 0)" fill="#b37f27"/>
    </g>
    <g id="Warstwa_1-2-3" data-name="Warstwa_1-2" transform="translate(598.557 285.157) rotate(3)" opacity="0.41">
      <path id="Path_10-3" data-name="Path 10" d="M726.979,462.372c-6.83,2.561-15.368,3.293-23.052,3.659-138.8,5.976-256.006,8.66-364.555-2.927-64.52-9.879-135.87-15.977-199.17-13.294-30,1.1-43.908,2.317-70.252,5.61-15.612,1.951-29.638,4.269-41.59,6.464-10.977,2.683-25,1.1-27.442-12.319-1.464-5.854-.854-12.2-.366-18.173,2.2-22.808,3.9-50.25,4.025-75.741C5.552,320.77.552,288.327.674,253.689c.488-62.568,18.295-129.893,8.9-193.8C8.235,50.738,6.162,41.224,4.089,32.809-1.888,14.392-.058,1.22,23.237.976,174.353,15.49,274.609-6.952,415.479,4.147c66.105,4.269,118.795,15.978,192.706,8.416C640.262,8.659,673.8,3.9,705.513,1.22c35.126-6.1,39.273,11.1,42.2,42.078,4.269,41.834-8.9,82.327-7.074,123.917-.488,93.3-8.172,151.6,0,255.03,1.342,15,4.391,35.126-13.538,40h-.244Z" transform="translate(0 0)" fill="#b37f27"/>
    </g>
    <g id="skull">
      <g id="Warstwa_1-2-4" data-name="Warstwa_1-2" transform="matrix(0.891, 0.454, -0.454, 0.891, 1103.344, 468.762)" opacity="0.05" style="mix-blend-mode: screen;isolation: isolate">
        <path id="Path_14" data-name="Path 14" d="M195,124.526C229.046-47.586-38.641-38.51,4.828,134.633,3.16,151.118-.52,167.211,16.26,176.091c25.366,9.714,21.539,19.036,27.917,39.643,12.707,13.59,17.663-13.394,22.912-12.609,2.649,7.261-3.287,20.361,4.514,27.524,16.976,13.836,26.1-7.114,25.267-22.127,7.9-18.546,1.864,41.753,27.622,24.139,12.854-4.906,6.967-18.987,9.322-28.6,2.551-1.03,7.065,11.235,9.469,13.2,16.338,12.756,14.081-20.214,21.539-27.426,27.868-15.5,34.687-34.344,30.223-65.4ZM55.51,144.544c-30.125,5.593-38.269-40.722-11.383-51.418C78.03,78.75,89.609,139.49,55.51,144.544Zm59.562,19.527c-3.287,6.133-10.647,8.046-12.069,8.39-4.612,1.079-12.266,1.128-15.847-2.993-7.458-8.684,4.563-34.246,14.67-34.05,8.292.147,19.085,17.712,13.2,28.7ZM153,144.4c-29.683,6.476-42.587-39.741-15.5-51.761C166,79.781,188.667,136.448,153,144.4Z" transform="translate(0 0)" fill="#fff"/>
      </g>
      <g id="Warstwa_1-2-5" data-name="Warstwa_1-2" transform="translate(761.997 369.689) rotate(-13)" opacity="0.05" style="mix-blend-mode: screen;isolation: isolate">
        <path id="Path_14-2" data-name="Path 14" d="M195,124.526C229.046-47.586-38.641-38.51,4.828,134.633,3.16,151.118-.52,167.211,16.26,176.091c25.366,9.714,21.539,19.036,27.917,39.643,12.707,13.59,17.663-13.394,22.912-12.609,2.649,7.261-3.287,20.361,4.514,27.524,16.976,13.836,26.1-7.114,25.267-22.127,7.9-18.546,1.864,41.753,27.622,24.139,12.854-4.906,6.967-18.987,9.322-28.6,2.551-1.03,7.065,11.235,9.469,13.2,16.338,12.756,14.081-20.214,21.539-27.426,27.868-15.5,34.687-34.344,30.223-65.4ZM55.51,144.544c-30.125,5.593-38.269-40.722-11.383-51.418C78.03,78.75,89.609,139.49,55.51,144.544Zm59.562,19.527c-3.287,6.133-10.647,8.046-12.069,8.39-4.612,1.079-12.266,1.128-15.847-2.993-7.458-8.684,4.563-34.246,14.67-34.05,8.292.147,19.085,17.712,13.2,28.7ZM153,144.4c-29.683,6.476-42.587-39.741-15.5-51.761C166,79.781,188.667,136.448,153,144.4Z" transform="translate(0 0)" fill="#fff"/>
      </g>
    </g>
  </g>
</svg>
