<?xml version="1.0" encoding="UTF-8"?><svg id="Warstwa_2" xmlns="http://www.w3.org/2000/svg" xmlns:xlink="http://www.w3.org/1999/xlink" viewBox="0 0 263.584196 263.584196"><defs><radialGradient id="Nowa_próbka_gradientu_3" cx="131.792087" cy="131.792089" fx="131.792087" fy="131.792089" r="127.629074" gradientTransform="translate(0 -922.544622) scale(1 8)" gradientUnits="userSpaceOnUse"><stop offset=".00455" stop-color="#8c6239"/><stop offset=".48127" stop-color="#895f36"/><stop offset=".786046" stop-color="#80572e"/><stop offset="1" stop-color="#754c24"/></radialGradient><radialGradient id="Gradient_bez_nazwy_707" cx="142.72452" cy="134.861243" fx="142.72452" fy="134.861243" r="154.163019" gradientTransform="translate(-689.831437 -295.265664) rotate(-55) scale(.850861 6.806884)" gradientUnits="userSpaceOnUse"><stop offset="0" stop-color="#ffcb7e"/><stop offset=".224789" stop-color="#fac77b"/><stop offset=".462631" stop-color="#eebd75"/><stop offset=".706468" stop-color="#d8ac6a"/><stop offset=".953006" stop-color="#bb955c"/><stop offset="1" stop-color="#b59059"/></radialGradient><radialGradient id="Gradient_bez_nazwy_707-2" cx="142.724291" cy="134.86134" fx="142.724291" fy="134.86134" r="131.677775" gradientTransform="translate(-689.832058 -295.266118) rotate(-55) scale(.850861 6.806884)" xlink:href="#Gradient_bez_nazwy_707"/></defs><g id="Warstwa_4"><g id="Minimap"><g id="betweenFill"><path d="M131.792148,21.180181c29.545532,0,57.32251,11.505676,78.214355,32.397522,20.891846,20.891785,32.397461,48.668884,32.397461,78.214417s-11.505615,57.32251-32.397461,78.214355-48.668823,32.397461-78.214355,32.397461-57.322632-11.505615-78.214478-32.397461-32.397461-48.668884-32.397461-78.214355,11.505615-57.322632,32.397461-78.214417c20.891846-20.891846,48.668945-32.397522,78.214478-32.397522M131.792148,4.16303C61.304477,4.16303,4.162997,61.304509,4.162997,131.792119s57.141479,127.629028,127.62915,127.629028,127.629028-57.141479,127.629028-127.629028S202.279696,4.16303,131.792148,4.16303h0Z" style="fill:url(#Nowa_próbka_gradientu_3);"/></g><g id="border"><circle cx="131.792098" cy="131.792098" r="127.629079" style="fill:none; stroke:url(#Gradient_bez_nazwy_707); stroke-width:8.326039px;"/><path d="M131.791903,242.768743c-61.192383,0-110.976562-49.78418-110.976562-110.976562S70.599521,20.815618,131.791903,20.815618s110.976562,49.78418,110.976562,110.976562-49.78418,110.976562-110.976562,110.976562Z" style="fill:none; stroke:url(#Gradient_bez_nazwy_707-2); stroke-width:2.498314px;"/></g></g></g></svg>