<?xml version="1.0" encoding="UTF-8"?><svg id="Warstwa_2" xmlns="http://www.w3.org/2000/svg" xmlns:xlink="http://www.w3.org/1999/xlink" viewBox="0 0 255.258158 255.258158"><defs><filter id="luminosity-noclip" x="0" y="0" width="202.086612" height="240.61556" color-interpolation-filters="sRGB" filterUnits="userSpaceOnUse"><feFlood flood-color="#fff" result="bg"/><feBlend in="SourceGraphic" in2="bg"/></filter><filter id="luminosity-noclip-2" x="0" y="-8103.935802" width="202.086612" height="32766" color-interpolation-filters="sRGB" filterUnits="userSpaceOnUse"><feFlood flood-color="#fff" result="bg"/><feBlend in="SourceGraphic" in2="bg"/></filter><mask id="mask-1" x="0" y="-8103.935802" width="202.086612" height="32766" maskUnits="userSpaceOnUse"/><linearGradient id="linear-gradient" x1="145.262925" y1="248.991882" x2="40.800146" y2="-140.132296" gradientUnits="userSpaceOnUse"><stop offset="0" stop-color="#333"/><stop offset="1" stop-color="#fff"/></linearGradient><mask id="mask" x="0" y="0" width="202.086612" height="240.61556" maskUnits="userSpaceOnUse"><g style="filter:url(#luminosity-noclip);"><g style="mask:url(#mask-1);"><path d="M156.244497,65.637105c14.222714-15.035942,29.606797-28.874983,45.842115-41.67095C181.129581,8.886582,155.41845,0,127.629079,0,57.141363,0,0,57.141394,0,127.629079c0,49.041951,27.665456,91.615414,68.236659,112.986481.876199-6.263608,1.934789-12.507875,3.220751-18.726728,12.156585-58.779094,43.540069-112.645987,84.787087-156.251727Z" style="fill:url(#linear-gradient); mix-blend-mode:multiply;"/></g></g></mask><linearGradient id="linear-gradient-2" x1="145.262925" y1="248.991882" x2="40.800146" y2="-140.132296" gradientUnits="userSpaceOnUse"><stop offset="0" stop-color="#fff"/><stop offset="1" stop-color="#fff"/></linearGradient></defs><g id="Warstwa_4"><g id="Minimap"><g style="mask:url(#mask);"><path id="glass02" d="M156.244497,65.637105c14.222714-15.035942,29.606797-28.874983,45.842115-41.67095C181.129581,8.886582,155.41845,0,127.629079,0,57.141363,0,0,57.141394,0,127.629079c0,49.041951,27.665456,91.615414,68.236659,112.986481.876199-6.263608,1.934789-12.507875,3.220751-18.726728,12.156585-58.779094,43.540069-112.645987,84.787087-156.251727Z" style="fill:url(#linear-gradient-2); opacity:.5;"/></g><path id="glass01" d="M202.086612,23.966155c-16.235318,12.795968-31.619401,26.635008-45.842115,41.67095-41.247019,43.60574-72.630502,97.472633-84.787087,156.251727-1.285961,6.218853-2.344552,12.46312-3.220751,18.726728,17.741485,9.345147,37.946879,14.642597,59.39242,14.642597,70.48765,0,127.629079-57.141394,127.629079-127.629079,0-42.698055-20.971461-80.493805-53.171546-103.662924Z" style="fill:#fff; opacity:.1;"/></g></g></svg>