<?xml version="1.0" encoding="UTF-8"?><svg id="Warstwa_2" xmlns="http://www.w3.org/2000/svg" xmlns:xlink="http://www.w3.org/1999/xlink" viewBox="0 0 21.015207 28.12814"><defs><style>.cls-1{fill:url(#Nowa_próbka_gradientu_3);}.cls-2{fill:url(#MENU_BORDER_SQUARE);}.cls-3{fill:url(#Nowa_próbka_gradientu_3-2);}</style><radialGradient id="MENU_BORDER_SQUARE" cx="10.507604" cy="14.06407" fx="10.507604" fy="14.06407" r="12.413859" gradientTransform="translate(0 -98.448485) scale(1 8)" gradientUnits="userSpaceOnUse"><stop offset="0" stop-color="#ffcb7e"/><stop offset=".262059" stop-color="#fbc87c"/><stop offset=".482601" stop-color="#f1c077"/><stop offset=".688148" stop-color="#dfb26e"/><stop offset=".883389" stop-color="#c79e62"/><stop offset="1" stop-color="#b59059"/></radialGradient><radialGradient id="Nowa_próbka_gradientu_3" cx="10.507608" cy="14.064068" fx="10.507608" fy="14.064068" r="12.413854" gradientTransform="translate(0 -98.448478) scale(1 8)" gradientUnits="userSpaceOnUse"><stop offset=".00455" stop-color="#8c6239"/><stop offset=".48127" stop-color="#895f36"/><stop offset=".786046" stop-color="#80572e"/><stop offset="1" stop-color="#754c24"/></radialGradient><radialGradient id="Nowa_próbka_gradientu_3-2" cx="10.502552" cy="12.638367" fx="10.502552" fy="12.638367" r="7.204539" gradientTransform="translate(0 -88.46857) scale(1 8)" xlink:href="#Nowa_próbka_gradientu_3"/></defs><g id="Warstwa_4"><path class="cls-2" d="M20.479102.046742c-.608898-.150003-1.280618.088627-1.903039.325382-2.445277.964526-5.399654,2.702215-7.68498,3.272095-1.89218.169071-4.496811-1.636962-6.556239-2.417231C3.017306.540476.732365-.307381.352751.16877c-.610353.379132-.292526,1.471318-.055924,2.132951,1.815151,4.634053,7.898293,21.127757,9.723874,25.436181.432842.772606.881666.232908,1.071542-.205862,1.402966-3.452973,3.057881-8.02542,4.707629-12.301413,1.461957-3.861167,2.690915-7.071952,3.922973-10.338789.626895-2.022501,2.00889-3.985195.834339-4.817376l-.078082-.027721Z"/><path class="cls-1" d="M20.022144,1.001366c.020691.370308-.383667,1.344948-.610535,1.891815-.22229.53582-.451965,1.0896-.634766,1.673149-.68634,1.819695-1.371948,3.622704-2.097656,5.531059-.57312,1.507271-1.171265,3.080276-1.812317,4.773293-.637512,1.65242-1.275818,3.34903-1.900085,5.008392-.869873,2.312149-1.697815,4.512924-2.456848,6.420937-1.329651-3.294441-3.848511-9.990425-5.916687-15.488281C3.151295,6.978432,1.905933,3.667893,1.238392,1.965043c-.169006-.472809-.22229-.756645-.235718-.917046.637573.09478,1.88446.552261,2.870056,1.065826l.05249.027336.055298.020973c.608765.230621,1.283936.565147,1.998718.919319,1.561646.773758,3.176453,1.573868,4.656372,1.573868.116516,0,.231567-.004974.344482-.015068l.077454-.00692.0755-.018822c1.504517-.375175,3.227783-1.198524,4.894348-1.994766,1.032532-.49334,2.007874-.95932,2.904175-1.31295.401062-.15255.786377-.290367,1.090576-.305428M20.075855,0C19.581592,0,19.063709.186631,18.576038.372124c-2.445251.964516-5.399658,2.702217-7.684937,3.272102-.08374.007477-.169067.011101-.255493.011101-1.866394,0-4.332458-1.682602-6.300781-2.428337C3.284717.679795,1.619862.030106.795155.030053c-.209961-.000015-.365356.042091-.442383.138718-.610352.379135-.292542,1.471321-.055969,2.13295,1.815186,4.634056,7.898315,21.127762,9.723877,25.43618.158752.283409.319702.390236.469238.390236.258057,0,.482117-.318275.602295-.596092,1.403015-3.45298,3.057922-8.025421,4.707642-12.301414,1.461975-3.861168,2.690918-7.071953,3.922974-10.338783.626892-2.022507,2.008911-3.985207.834351-4.817383l-.078064-.027718C20.347279.014267,20.212452,0,20.075855,0h0Z"/><path class="cls-3" d="M15.743336,5.519135c-1.039062,2.7407-3.215698,8.469849-3.215515,8.469429-.628052,1.626984-1.263428,3.315475-1.88501,4.967384l-.019836.052689-.130188.34594c-1.096069-2.875282-2.323181-6.136627-3.432739-9.085503l-.129578-.34436c-.589417-1.566925-1.152832-3.064537-1.658691-4.404327,1.634094.804184,3.457031,1.635071,5.364075,1.635071.191711,0,.380737-.008476.566895-.024971l.23291-.020996.038635-.003494.03772-.009415.226196-.056541c1.278992-.318695,2.591431-.866257,4.005127-1.520905M4.356068,4.512391c.61084,1.612793,1.336426,3.541504,2.106445,5.588379,1.303711,3.464851,2.786133,7.406738,4.033691,10.663574.195801-.519043.394043-1.046387.594727-1.57959.627441-1.66748,1.269043-3.373047,1.90332-5.016113,0,0,3.054199-8.039062,3.654785-9.629395-1.680664.802238-3.40918,1.611328-5.031738,2.015617l-.226562.056641-.23291.021004c-.170898.015137-.345215.022949-.521973.022949-1.948242,0-3.858887-.946777-5.544922-1.782227-.251465-.125-.498047-.24707-.734863-.36084h0Z"/></g></svg>