<?xml version="1.0" encoding="UTF-8"?><svg id="Warstwa_2" xmlns="http://www.w3.org/2000/svg" xmlns:xlink="http://www.w3.org/1999/xlink" viewBox="0 0 30 30"><defs><style>.cls-1{fill:url(#Nowa_próbka_gradientu_3);}.cls-2{fill:url(#MENU_BORDER_SQUARE);}.cls-3{fill:url(#Nowa_próbka_gradientu_3-2);}.cls-4{fill:url(#GradientSpecialIcon);}</style><radialGradient id="MENU_BORDER_SQUARE" cx="728.114" cy="-232.114" fx="728.114" fy="-232.114" r="7.032" gradientTransform="translate(1336.431 4233.647) rotate(-45) scale(2.814 16.877)" gradientUnits="userSpaceOnUse"><stop offset="0" stop-color="#ffcb7e"/><stop offset=".262" stop-color="#fbc87c"/><stop offset=".483" stop-color="#f1c077"/><stop offset=".688" stop-color="#dfb26e"/><stop offset=".883" stop-color="#c79e62"/><stop offset="1" stop-color="#b59059"/></radialGradient><radialGradient id="Nowa_próbka_gradientu_3" cx="15" cy="15" fx="15" fy="15" r="15" gradientTransform="translate(0 -.044)" gradientUnits="userSpaceOnUse"><stop offset=".005" stop-color="#8c6239"/><stop offset=".481" stop-color="#895f36"/><stop offset=".786" stop-color="#80572e"/><stop offset="1" stop-color="#754c24"/></radialGradient><radialGradient id="Nowa_próbka_gradientu_3-2" cx="15" cy="15" fx="15" fy="15" r="12.232" xlink:href="#Nowa_próbka_gradientu_3"/><radialGradient id="GradientSpecialIcon" cx="15" cy="15" fx="15" fy="15" r="9.623" gradientUnits="userSpaceOnUse"><stop offset=".005" stop-color="#914918"/><stop offset=".39" stop-color="#8e4716"/><stop offset=".636" stop-color="#854311"/><stop offset=".843" stop-color="#763b09"/><stop offset="1" stop-color="#630"/></radialGradient></defs><g id="Warstwa_3"><g id="healthIcon"><rect class="cls-2" x="1.011" y="1.01" width="27.979" height="27.98"/><path class="cls-1" d="M28.616,1.384v27.232s-27.232,0-27.232,0V1.385s27.232,0,27.232,0M30,0H0s0,30,0,30h29.999s0-30,0-30h0Z"/><path class="cls-3" d="M26.817,3.182v23.635H3.183V3.183s23.634,0,23.634,0M27.232,2.767H2.768s0,24.465,0,24.465h24.464V2.767h0Z"/><g id="Layer_20"><path class="cls-4" d="M20.922,6.49c-2.001-.451-4.494.096-5.922,2.228-1.428-2.132-3.921-2.679-5.922-2.228-2.278.514-4.578,2.462-4.578,5.657,0,5.84,9.857,11.226,10.276,11.453.14.075.308.075.447,0,.42-.226,10.276-5.613,10.276-11.453,0-3.195-2.299-5.144-4.578-5.657Z"/></g></g></g></svg>