<?xml version="1.0" encoding="UTF-8"?><svg id="Warstwa_2" xmlns="http://www.w3.org/2000/svg" xmlns:xlink="http://www.w3.org/1999/xlink" viewBox="0 0 30 30"><defs><style>.cls-1{fill:url(#Nowa_próbka_gradientu_3);}.cls-2{fill:url(#MENU_BORDER_SQUARE);}.cls-3{fill:url(#Nowa_próbka_gradientu_3-2);}.cls-4{fill:url(#GradientSpecialIcon);fill-rule:evenodd;}</style><radialGradient id="MENU_BORDER_SQUARE" cx="736.881" cy="-205.997" fx="736.881" fy="-205.997" r="7.032" gradientTransform="translate(1007.318 3939.412) rotate(-45) scale(2.814 16.877)" gradientUnits="userSpaceOnUse"><stop offset="0" stop-color="#ffcb7e"/><stop offset=".262" stop-color="#fbc87c"/><stop offset=".483" stop-color="#f1c077"/><stop offset=".688" stop-color="#dfb26e"/><stop offset=".883" stop-color="#c79e62"/><stop offset="1" stop-color="#b59059"/></radialGradient><radialGradient id="Nowa_próbka_gradientu_3" cx="15" cy="15" fx="15" fy="15" r="15" gradientTransform="translate(0 -.043)" gradientUnits="userSpaceOnUse"><stop offset=".005" stop-color="#8c6239"/><stop offset=".481" stop-color="#895f36"/><stop offset=".786" stop-color="#80572e"/><stop offset="1" stop-color="#754c24"/></radialGradient><radialGradient id="Nowa_próbka_gradientu_3-2" cx="15" cy="15" fx="15" fy="15" r="12.232" xlink:href="#Nowa_próbka_gradientu_3"/><radialGradient id="GradientSpecialIcon" cx="15" cy="15" fx="15" fy="15" r="9.705" gradientUnits="userSpaceOnUse"><stop offset=".005" stop-color="#914918"/><stop offset=".39" stop-color="#8e4716"/><stop offset=".636" stop-color="#854311"/><stop offset=".843" stop-color="#763b09"/><stop offset="1" stop-color="#630"/></radialGradient></defs><g id="Warstwa_3"><g id="luckyIcon"><rect class="cls-2" x="1.011" y="1.01" width="27.979" height="27.98"/><path class="cls-1" d="M28.616,1.384v27.232s-27.232,0-27.232,0V1.384s27.232,0,27.232,0M30,0H0s0,30,0,30h29.999s0-30,0-30h0Z"/><path class="cls-3" d="M26.817,3.183v23.635H3.183V3.184s23.634,0,23.634,0M27.232,2.767H2.768s0,24.465,0,24.465h24.464V2.767h0Z"/><path class="cls-4" d="M9.099,7.44c-.077-4.437,5.873-3.34,5.5.842.708,5.963-.023,12.359,2.862,16.481l-1.117.735c-1.438-4.711-1.656-6.115-1.533-8.952-.179,1.555-.264,3.745-1.28,4.873-1.66,1.784-4.826.179-4.433-2.177-2.357.392-3.962-2.773-2.177-4.434,2.136-1.547,5.497-1.199,8.078-1.468.268-2.579-.079-5.945,1.468-8.079,1.66-1.783,4.826-.179,4.433,2.177,2.355-.39,3.963,2.773,2.177,4.434-2.135,1.547-5.496,1.2-8.078,1.468.268,2.579-.079,5.946,1.468,8.078,1.66,1.783,4.826.179,4.433-2.177,2.354.391,3.964-2.772,2.177-4.434-2.137-1.547-5.495-1.199-8.078-1.468-2.581-.269-5.943.08-8.078-1.468-1.783-1.659-.181-4.826,2.177-4.434Z"/></g></g></svg>