<?xml version="1.0" encoding="UTF-8"?><svg id="Warstwa_2" xmlns="http://www.w3.org/2000/svg" xmlns:xlink="http://www.w3.org/1999/xlink" viewBox="0 0 30 30"><defs><style>.cls-1{fill:url(#Nowa_próbka_gradientu_3);}.cls-2{fill:url(#MENU_BORDER_SQUARE);}.cls-3{fill:url(#Nowa_próbka_gradientu_3-2);}.cls-4{fill:url(#GradientSpecialIcon);fill-rule:evenodd;}</style><radialGradient id="MENU_BORDER_SQUARE" cx="719.347" cy="-258.231" fx="719.347" fy="-258.231" r="7.032" gradientTransform="translate(1665.545 4527.884) rotate(-45) scale(2.814 16.877)" gradientUnits="userSpaceOnUse"><stop offset="0" stop-color="#ffcb7e"/><stop offset=".262" stop-color="#fbc87c"/><stop offset=".483" stop-color="#f1c077"/><stop offset=".688" stop-color="#dfb26e"/><stop offset=".883" stop-color="#c79e62"/><stop offset="1" stop-color="#b59059"/></radialGradient><radialGradient id="Nowa_próbka_gradientu_3" cx="15" cy="15" fx="15" fy="15" r="15" gradientTransform="translate(0 -.046)" gradientUnits="userSpaceOnUse"><stop offset=".005" stop-color="#8c6239"/><stop offset=".481" stop-color="#895f36"/><stop offset=".786" stop-color="#80572e"/><stop offset="1" stop-color="#754c24"/></radialGradient><radialGradient id="Nowa_próbka_gradientu_3-2" cx="15" cy="15" fx="15" fy="15" r="12.232" xlink:href="#Nowa_próbka_gradientu_3"/><radialGradient id="GradientSpecialIcon" cx="15" cy="15" fx="15" fy="15" r="10.34" gradientUnits="userSpaceOnUse"><stop offset=".005" stop-color="#914918"/><stop offset=".39" stop-color="#8e4716"/><stop offset=".636" stop-color="#854311"/><stop offset=".843" stop-color="#763b09"/><stop offset="1" stop-color="#630"/></radialGradient></defs><g id="Warstwa_3"><g id="strengthIcon"><rect class="cls-2" x="1.011" y="1.01" width="27.979" height="27.98"/><path class="cls-1" d="M28.616,1.384v27.232s-27.232,0-27.232,0V1.385s27.232,0,27.232,0M30,0H0s0,30,0,30h29.999s0-30,0-30h0Z"/><path class="cls-3" d="M26.817,3.183v23.634H3.183s0-23.634,0-23.634h23.633M27.232,2.768H2.768v24.465s24.463,0,24.463,0V2.768h0Z"/><path class="cls-4" d="M24,14.509c-1.127-2.482-2.519-6.271-2.823-8.838-.081-.424-.317-.614-.762-.644-1.155-.064-3.088-.239-3.922-.492-.192-.023-.405-.077-.57.064-.514.516-1.102,1.499-1.577,2.102-.224.321-.339.478-.229.733.13.3.503.818.817.913l.595-.185c.627-.445.695-.964.997-1.519.182-.183.444.076.256.601-.164.575-.5,1.04-.982,1.35-.431.26-1.018.687-.663,1.231.316.587,1.268.371,1.744.063.328-.235,1.153-.61,1.381-.164-.383,1.673-1.121,3.73-.87,5.59.018.384.006.653-.423.446-.529-.26-1.546-.622-2.237-.81-2.939-.764-5.751-.787-8.99-.173-.367.09-.465.203-.494.45-.231,1.236-.475,5.641-.421,7.149.035.732.041.533.6.917.481.287.881.494,1.543.792,4.769,2.164,10.032,1.694,14.772-.435.691-.137,2.041.262,2.623-.561.607-.76.175-1.959.325-2.809.299-1.688,1.006-2.738-.121-4.843-.15-.267-.341-.579-.508-.836l-.058-.091Z"/></g></g></svg>