<svg xmlns="http://www.w3.org/2000/svg" width="367.729" height="653.703" viewBox="0 0 367.729 653.703">
  <g id="Warstwa_1-2" transform="matrix(0.999, 0.035, -0.035, 0.999, 23.166, -1.78)">
    <path id="Path_21" data-name="Path 21" d="M81.3,2.5c-.9,1.8-1.7,3.7-2.5,5.4" fill="none" stroke="#000" stroke-linecap="round" stroke-linejoin="round" stroke-width="5"/>
    <path id="path_left" d="M74.2,19.1C63,47.339,66.1,65.667,71.7,77.542c14.3,30.671,49.6,28.707,68,64.333,9.9,19.169,1,22.255,7.7,66.578,5.3,34.972,10.2,67.513,33.2,96.313,23,28.987,40.3,24.125,50.7,48.624,12,28.426-8.8,42.359-2.6,75.367,6.9,36.188,36.4,44.136,58.6,76.4,15.6,22.629,29.8,60.406,17,125.394" fill="none" stroke="#000" stroke-linecap="round" stroke-linejoin="round" stroke-width="5" stroke-dasharray="0 0 12 12"/>
    <path id="Path_23" data-name="Path 23" d="M303.1,678.8c-.4,1.9-.8,3.9-1.2,5.9" transform="translate(0 -42.453)" fill="none" stroke="#000" stroke-linecap="round" stroke-linejoin="round" stroke-width="5"/>
    <path id="Path_24" data-name="Path 24" d="M2.6,684.4c2-.7,3.9-1.5,5.7-2.2" transform="translate(0 -42.453)" fill="none" stroke="#000" stroke-linecap="round" stroke-linejoin="round" stroke-width="5.1"/>
    <path id="path_right" d="M19.4,634.847c29.8-13.558,41.8-29.267,47.2-41.89,13.7-32.539-12.5-54.887,2.1-93.878,7.9-21.038,16.5-17.2,46.1-54.793,23.3-29.641,45.1-57.224,51.3-94.158,6.3-37.121-9.6-45.162,2.2-70.408,13.6-29.267,39-25.62,60.1-54.419,23.2-31.511,8.7-57.5,18-96.5,6.6-27.49,26-65.172,85.3-105" transform="translate(0 0)" fill="none" stroke="#000" stroke-linecap="round" stroke-linejoin="round" stroke-width="5.1" stroke-dasharray="0 0 12.1 12.1"/>
    <path id="Path_26" data-name="Path 26" d="M336.6,20.3c1.7-1.2,3.3-2.3,5.1-3.5" fill="none" stroke="#000" stroke-linecap="round" stroke-linejoin="round" stroke-width="5.1"/>
  </g>
</svg>
