<?xml version="1.0" encoding="UTF-8"?><svg id="Warstwa_2" xmlns="http://www.w3.org/2000/svg" xmlns:xlink="http://www.w3.org/1999/xlink" viewBox="0 0 30 30"><defs><style>.cls-1{fill:url(#Nowa_próbka_gradientu_2);}.cls-2{fill:url(#MENU_BORDER_SQUARE-2);}.cls-3{fill:url(#MENU_BORDER_SQUARE);}.cls-4{fill:url(#MENU_BORDER_SQUARE-3);}</style><radialGradient id="Nowa_próbka_gradientu_2" cx="452.95" cy="424.864" fx="452.95" fy="424.864" r="7.032" gradientTransform="translate(-5954.258 -4152.07) rotate(-45) scale(2.814 16.87)" gradientUnits="userSpaceOnUse"><stop offset=".005" stop-color="#921c1f"/><stop offset=".381" stop-color="#8f1b1e"/><stop offset=".622" stop-color="#86191c"/><stop offset=".824" stop-color="#771619"/><stop offset="1" stop-color="#641315"/></radialGradient><radialGradient id="MENU_BORDER_SQUARE" cx="15" cy="15" fx="15" fy="15" r="15" gradientTransform="translate(-80.455 -59.242) rotate(-45) scale(1 8)" gradientUnits="userSpaceOnUse"><stop offset="0" stop-color="#ffcb7e"/><stop offset=".262" stop-color="#fbc87c"/><stop offset=".483" stop-color="#f1c077"/><stop offset=".688" stop-color="#dfb26e"/><stop offset=".883" stop-color="#c79e62"/><stop offset="1" stop-color="#b59059"/></radialGradient><radialGradient id="MENU_BORDER_SQUARE-2" cy="15" fy="15" r="12.232" gradientTransform="translate(-80.456 -59.242) rotate(-45) scale(1 8)" xlink:href="#MENU_BORDER_SQUARE"/><radialGradient id="MENU_BORDER_SQUARE-3" cx="15" cy="15" fx="15" fy="15" r="9.665" gradientTransform="translate(0 -105) scale(1 8)" xlink:href="#MENU_BORDER_SQUARE"/></defs><g id="Warstwa_3"><g id="enemyBossIcon"><rect class="cls-1" x="1.011" y="1.011" width="27.979" height="27.979"/><path class="cls-3" d="M28.616,1.384v27.232s-27.232,0-27.232,0V1.384s27.232,0,27.232,0M30,0H0s0,30,0,30h29.999s0-30,0-30h0Z"/><path class="cls-2" d="M26.817,3.183v23.634H3.183V3.183h23.634M27.232,2.768H2.769v24.464s24.463,0,24.463,0V2.768h0Z"/><path class="cls-4" d="M23.087,17.599c-.116-.466-.069-1.215.108-1.663,0,0,.556-1.419.555-2.686,0-4.832-3.918-8.75-8.75-8.75s-8.75,3.918-8.75,8.75c-.001,1.266.555,2.686.555,2.686.176.448.224,1.196.107,1.663l-.344,1.378c-.175.7.143,1.642.707,2.094,0,0,.261.209.581.465.319.256.947.319,1.394.14,0,0,.309-.124.687-.275.378-.151.884-.275,1.125-.275s.438.196.438.438c0,1.197-.334,2.281-.875,3.063,2.701,1.122,5.833,1.208,8.75,0-.542-.783-.875-1.866-.875-3.063,0-.242.196-.438.438-.438.24,0,.747.124,1.125.275.377.151.687.275.687.275.447.179,1.074.115,1.394-.14.321-.255.582-.465.582-.465.564-.451.882-1.394.707-2.094l-.344-1.378ZM13.687,15.534c0,.481-.366,1.02-.813,1.2l-1.937.775c-.894.358-1.625-.138-1.625-1.101v-1.408c0-.967.784-1.75,1.75-1.75h1.313c.726,0,1.313.588,1.313,1.313v.972h0ZM15.572,20.25h-1.143c-.629,0-.914-.426-.632-.948l.693-1.285c.281-.522.741-.522,1.022,0l.693,1.285c.281.522-.004.948-.633.948ZM20.688,16.408c0,.963-.732,1.459-1.625,1.101l-1.937-.775c-.447-.179-.813-.718-.813-1.2v-.972c0-.725.587-1.313,1.313-1.313h1.313c.967,0,1.75.783,1.75,1.75v1.408Z"/></g></g></svg>