<?xml version="1.0" encoding="UTF-8"?><svg id="Warstwa_2" xmlns="http://www.w3.org/2000/svg" xmlns:xlink="http://www.w3.org/1999/xlink" viewBox="0 0 30 30"><defs><style>.cls-1{fill:url(#Nowa_próbka_gradientu_2);}.cls-2{fill:url(#Nowa_próbka_gradientu_2-2);}.cls-3{fill:url(#MENU_BORDER_SQUARE);}.cls-4{fill:url(#Nowa_próbka_gradientu_2-4);}.cls-5{fill:url(#Nowa_próbka_gradientu_2-3);}</style><radialGradient id="MENU_BORDER_SQUARE" cx="496.562" cy="381.068" fx="496.562" fy="381.068" r="7.032" gradientTransform="translate(-5520.99 -3545.262) rotate(-45) scale(2.814 16.879)" gradientUnits="userSpaceOnUse"><stop offset="0" stop-color="#ffcb7e"/><stop offset=".262" stop-color="#fbc87c"/><stop offset=".483" stop-color="#f1c077"/><stop offset=".688" stop-color="#dfb26e"/><stop offset=".883" stop-color="#c79e62"/><stop offset="1" stop-color="#b59059"/></radialGradient><radialGradient id="Nowa_próbka_gradientu_2" cx="15" cy="15" fx="15" fy="15" r="15" gradientTransform="translate(0 -.017)" gradientUnits="userSpaceOnUse"><stop offset=".005" stop-color="#921c1f"/><stop offset=".381" stop-color="#8f1b1e"/><stop offset=".622" stop-color="#86191c"/><stop offset=".824" stop-color="#771619"/><stop offset="1" stop-color="#641315"/></radialGradient><radialGradient id="Nowa_próbka_gradientu_2-2" cx="15" cy="15" fx="15" fy="15" r="12.232" xlink:href="#Nowa_próbka_gradientu_2"/><radialGradient id="Nowa_próbka_gradientu_2-3" cx="17.294" cy="15" fx="17.294" fy="15" r="9.73" gradientTransform="translate(0 -105) scale(1 8)" xlink:href="#Nowa_próbka_gradientu_2"/><radialGradient id="Nowa_próbka_gradientu_2-4" cx="12.706" cy="15" fx="12.706" fy="15" r="9.73" gradientTransform="translate(0 -105) scale(1 8)" xlink:href="#Nowa_próbka_gradientu_2"/></defs><g id="Warstwa_3"><g id="fightIcon"><rect class="cls-3" x="1.011" y="1.011" width="27.979" height="27.979"/><path class="cls-1" d="M28.616,1.384v27.232s-27.232,0-27.232,0V1.384s27.232,0,27.232,0M30,0H0s0,30,0,30h29.999s0-30,0-30h0Z"/><path class="cls-2" d="M26.817,3.183v23.634H3.183V3.183h23.634M27.232,2.768H2.769v24.464s24.463,0,24.463,0V2.768h0Z"/><path class="cls-5" d="M17.929,20.809h0c-.238,1.047.106,2.151.781,2.97.179.217.381.414.601.585.194.15.411.274.629.385.42.214.882.398,1.351.459,1.085.14,2.202-.375,2.974-1.113.076-.073.15-.149.22-.227.099-.111.193-.228.281-.349l.844.337c.171.068.354.058.51-.014.14-.065.258-.18.323-.334.078-.185.063-.386-.024-.551-.069-.131-.183-.239-.331-.298l-.724-.289s.002-.005.003-.008c.08-.234.219-.53.055-.754-.021-.029-.333-.219-.381-.197-.003.002-.006.004-.006.008-.004.006-.06.097-.13.227-.07.13-.154.298-.212.456l-.101-.04-.074-.03-.045-.018-.254-.101-.074-.03-.299-.119-.074-.03-.299-.119-.074-.03-.299-.119-.074-.029-.299-.119-.074-.03-.299-.119-.074-.03-.299-.119-.074-.03-.299-.119-.074-.029-.299-.119-.074-.03-.299-.119-.074-.03-.299-.119-.074-.03-.299-.119-.074-.03-.244-.097c.292-.644.571-1.199.571-1.199,0,0-.504-.277-1.124.01-.201.093-.415.246-.628.487-.002,0-7.16-3.148-6.761-11.549.004-.091-.013-.182-.051-.264-.028-.061-.066-.115-.113-.162-.046-.046-.101-.085-.162-.113-.51-.234-1.958-.997-2.847-2.448-.027-.045-.066-.082-.113-.107-.086-.047-.184-.046-.266-.008-.063.029-.117.081-.147.15l-.013.029c-.014.032-.022.066-.025.101-.056.887-.604,12.641,9.813,15.733ZM19.133,21.92s0,0,0,0c.016-.137.077-.344.165-.585h.003s.219.088.219.088l.074.03.299.119.074.03.299.119.074.03.299.12.074.03.299.119.074.03.299.119.074.03.299.119.074.03.299.119.074.03.299.12.074.03.299.119.074.03.299.119.074.03.299.119.074.03.299.119.074.03.085.034c-.599,1.116-2.041,1.062-2.041,1.062-1.325-.029-2.234-.93-2.234-.93,0,0-.823-.822-.747-1.488Z"/><path class="cls-4" d="M21.885,5.076c-.002-.035-.011-.069-.025-.101l-.013-.029c-.031-.069-.084-.121-.147-.15-.082-.038-.18-.039-.266.008-.046.025-.085.062-.113.107-.889,1.452-2.337,2.214-2.847,2.448-.061.028-.115.066-.162.113-.047.047-.085.101-.113.162-.038.083-.055.173-.051.264.399,8.401-6.758,11.548-6.761,11.549-.213-.241-.427-.394-.628-.487-.62-.287-1.124-.01-1.124-.01,0,0,.279.555.571,1.199l-.244.097-.074.03-.299.119-.074.03-.299.119-.074.03-.299.119-.074.03-.299.119-.074.029-.299.119-.074.03-.299.119-.074.03-.299.119-.074.03-.299.119-.074.029-.299.119-.074.03-.299.119-.074.03-.299.119-.074.03-.254.101-.045.018-.074.03-.101.04c-.058-.159-.142-.327-.212-.456-.07-.13-.127-.221-.13-.227,0-.004-.003-.007-.006-.008-.048-.022-.36.167-.381.197-.163.224-.024.52.055.754,0,.003.002.005.003.008l-.724.289c-.148.059-.262.167-.331.298-.087.165-.102.366-.024.551.065.154.183.27.323.334.156.072.338.082.51.014l.844-.337c.088.121.182.237.281.349.07.079.144.154.22.227.773.738,1.889,1.254,2.974,1.113.469-.061.932-.245,1.351-.459.218-.111.435-.235.629-.385.221-.171.422-.368.601-.585.675-.819,1.019-1.923.781-2.97h0c10.417-3.092,9.87-14.846,9.813-15.733ZM10.119,23.408s-.909.901-2.234.93c0,0-1.442.054-2.041-1.062l.085-.034.074-.03.299-.119.074-.03.299-.119.074-.03.299-.119.074-.03.299-.119.074-.03.299-.12.074-.03.299-.119.074-.03.299-.119.074-.03.299-.119.074-.03.299-.119.074-.03.299-.12.074-.03.299-.119.074-.03.299-.119.074-.03.219-.087h.003c.087.24.149.447.165.584,0,0,0,0,0,0,.076.666-.747,1.488-.747,1.488Z"/></g></g></svg>