<?xml version="1.0" encoding="UTF-8"?><svg id="Warstwa_2" xmlns="http://www.w3.org/2000/svg" xmlns:xlink="http://www.w3.org/1999/xlink" viewBox="0 0 30 30"><defs><style>.cls-1{fill:url(#Nowa_próbka_gradientu_11);}.cls-2{fill:url(#Nowa_próbka_gradientu_11-3);}.cls-3{fill:url(#MENU_BORDER_SQUARE);}.cls-4{fill:url(#Nowa_próbka_gradientu_11-2);}</style><radialGradient id="MENU_BORDER_SQUARE" cx="444.154" cy="398.661" fx="444.154" fy="398.661" r="7.032" gradientTransform="translate(-5626.197 -3859.003) rotate(-45) scale(2.814 16.877)" gradientUnits="userSpaceOnUse"><stop offset="0" stop-color="#ffcb7e"/><stop offset=".262" stop-color="#fbc87c"/><stop offset=".483" stop-color="#f1c077"/><stop offset=".688" stop-color="#dfb26e"/><stop offset=".883" stop-color="#c79e62"/><stop offset="1" stop-color="#b59059"/></radialGradient><radialGradient id="Nowa_próbka_gradientu_11" cx="15" cy="15" fx="15" fy="15" r="15" gradientTransform="translate(0 -.017)" gradientUnits="userSpaceOnUse"><stop offset=".005" stop-color="#009245"/><stop offset=".381" stop-color="#008f44"/><stop offset=".622" stop-color="#008641"/><stop offset=".824" stop-color="#00773b"/><stop offset="1" stop-color="#006435"/></radialGradient><radialGradient id="Nowa_próbka_gradientu_11-2" cx="15" cy="15" fx="15" fy="15" r="12.232" xlink:href="#Nowa_próbka_gradientu_11"/><radialGradient id="Nowa_próbka_gradientu_11-3" cx="15" cy="15" fx="15" fy="15" r="9.777" gradientTransform="translate(0 -74.99) scale(1 5.999)" xlink:href="#Nowa_próbka_gradientu_11"/></defs><g id="Warstwa_3"><g id="healIcon"><rect class="cls-3" x="1.011" y="1.011" width="27.979" height="27.979"/><path class="cls-1" d="M28.616,1.384v27.232s-27.232,0-27.232,0V1.384s27.232,0,27.232,0M30,0H0s0,30,0,30h29.999s0-30,0-30h0Z"/><path class="cls-4" d="M26.817,3.183v23.634H3.183V3.183h23.634M27.232,2.768H2.769v24.464s24.463,0,24.463,0V2.768h0Z"/><polygon class="cls-2" points="24.777 12.721 17.279 12.721 17.279 5.223 12.721 5.223 12.721 12.721 5.223 12.721 5.223 17.279 12.721 17.279 12.721 24.777 17.279 24.777 17.279 17.279 24.777 17.279 24.777 12.721"/></g></g></svg>