<?xml version="1.0" encoding="UTF-8"?><svg id="Warstwa_2" xmlns="http://www.w3.org/2000/svg" xmlns:xlink="http://www.w3.org/1999/xlink" viewBox="0 0 30 30"><defs><style>.cls-1{fill:url(#Nowa_próbka_gradientu_3-3);}.cls-2{fill:url(#Nowa_próbka_gradientu_3);}.cls-3{fill:url(#MENU_BORDER_SQUARE);}.cls-4{fill:url(#Nowa_próbka_gradientu_3-2);}</style><radialGradient id="MENU_BORDER_SQUARE" cx="470.358" cy="389.864" fx="470.358" fy="389.864" r="7.032" gradientTransform="translate(-5573.353 -3701.891) rotate(-45) scale(2.814 16.877)" gradientUnits="userSpaceOnUse"><stop offset="0" stop-color="#ffcb7e"/><stop offset=".262" stop-color="#fbc87c"/><stop offset=".483" stop-color="#f1c077"/><stop offset=".688" stop-color="#dfb26e"/><stop offset=".883" stop-color="#c79e62"/><stop offset="1" stop-color="#b59059"/></radialGradient><radialGradient id="Nowa_próbka_gradientu_3" cx="15" cy="15" fx="15" fy="15" r="15" gradientTransform="translate(0 -.017)" gradientUnits="userSpaceOnUse"><stop offset=".005" stop-color="#8c6239"/><stop offset=".481" stop-color="#895f36"/><stop offset=".786" stop-color="#80572e"/><stop offset="1" stop-color="#754c24"/></radialGradient><radialGradient id="Nowa_próbka_gradientu_3-2" cx="15" cy="15" fx="15" fy="15" r="12.232" xlink:href="#Nowa_próbka_gradientu_3"/><radialGradient id="Nowa_próbka_gradientu_3-3" cx="15" cy="15" fx="15" fy="15" r="9.602" gradientTransform="matrix(1,0,0,1,0,0)" xlink:href="#Nowa_próbka_gradientu_3"/></defs><g id="Warstwa_3"><g id="sprintIcon"><rect class="cls-3" x="1.011" y="1.011" width="27.979" height="27.979"/><path class="cls-2" d="M28.616,1.384v27.232s-27.232,0-27.232,0V1.384s27.232,0,27.232,0M30,0H0s0,30,0,30h29.999s0-30,0-30h0Z"/><path class="cls-4" d="M26.817,3.183v23.634H3.183V3.183h23.634M27.232,2.768H2.769v24.464s24.463,0,24.463,0V2.768h0Z"/><path class="cls-1" d="M22.677,22.011c-3.406-.456-5.182-4.225-5.182-7.713-.001-.486.12-.964.354-1.389,1.171-2.14,2.349-4.29,3.518-6.432.285-.531.086-1.192-.445-1.477-.156-.084-.329-.128-.506-.13h-6.939c-.437,0-.831.263-1.002.666-.394.948-.853,1.95-1.349,2.945l-3.768,3.158c-1.382,1.326-1.788,3.374-1.016,5.126.935,2.114,3.025,2.386,4.719,3.444,1.432.907,2.639,2.128,3.529,3.571.433.796,1.25,1.308,2.155,1.349h5.746c.865-.008,1.559-.715,1.551-1.58-.007-.782-.591-1.439-1.367-1.538Z"/></g></g></svg>