<svg id="LPM" xmlns="http://www.w3.org/2000/svg" width="41" height="53" viewBox="0 0 41 53">
  <path id="Path_4" data-name="Path 4" d="M37.912,10H49.971a7.526,7.526,0,0,1,3.5.723Q56,12.108,56,16.023V28.068H42.735V20.841a6.966,6.966,0,0,0-2.11-5.119,6.7,6.7,0,0,0-2.713-1.686V10m-4.944,8.311A3.346,3.346,0,0,1,35.5,17.227a3.54,3.54,0,0,1,2.593,1.084,3.434,3.434,0,0,1,1.025,2.53v9.636l-.181,1.2-.844,1.385A3.647,3.647,0,0,1,35.5,34.091a3.442,3.442,0,0,1-2.532-1.024,3.315,3.315,0,0,1-.844-1.385l-.241-1.2V20.841a3.339,3.339,0,0,1,1.085-2.53M15,31.682H28.385a6.69,6.69,0,0,0,1.99,3.915,7.284,7.284,0,0,0,10.25,0,7.021,7.021,0,0,0,2.05-3.915H56V43.125a19.626,19.626,0,0,1-6.029,13.852A19.668,19.668,0,0,1,36.1,63H34.9a19.88,19.88,0,0,1-13.928-6.023A19.733,19.733,0,0,1,15,43.125V31.682" transform="translate(-15 -10)"/>
  <path id="Path_5" data-name="Path 5" d="M21.029,10H33.088v4.035a6.7,6.7,0,0,0-2.713,1.686,6.966,6.966,0,0,0-2.11,5.119v7.227H15V16.023q0-3.915,2.593-5.3A7.155,7.155,0,0,1,21.029,10" transform="translate(-15 -10)" fill="#b37f27"/>
</svg>
