<svg id="PPM" xmlns="http://www.w3.org/2000/svg" width="41.061" height="53.137" viewBox="0 0 41.061 53.137">
  <path id="Path_2" data-name="Path 2" d="M34,10H46.077a7.53,7.53,0,0,1,3.5.725q2.536,1.389,2.536,5.314V28.115H38.831V20.869a6.988,6.988,0,0,0-2.113-5.133A6.7,6.7,0,0,0,34,14.046V10" transform="translate(-11.054 -10)" fill="#b37f27"/>
  <path id="Path_3" data-name="Path 3" d="M32.994,18.333a3.349,3.349,0,0,1,2.536-1.087,3.544,3.544,0,0,1,2.6,1.087,3.445,3.445,0,0,1,1.027,2.536V30.53l-.181,1.208-.845,1.389a3.65,3.65,0,0,1-2.6,1.027,3.445,3.445,0,0,1-2.536-1.027,3.324,3.324,0,0,1-.845-1.389l-.242-1.208V20.869a3.349,3.349,0,0,1,1.087-2.536M15,31.738H28.405A6.71,6.71,0,0,0,30.4,35.663a7.289,7.289,0,0,0,10.265,0,7.042,7.042,0,0,0,2.053-3.925H56.061V43.211A19.687,19.687,0,0,1,50.022,57.1a19.687,19.687,0,0,1-13.888,6.038H34.927A19.9,19.9,0,0,1,20.978,57.1,19.8,19.8,0,0,1,15,43.211V31.738M21.038,10H33.115v4.046A6.7,6.7,0,0,0,30.4,15.736a6.988,6.988,0,0,0-2.113,5.133v7.246H15V16.038q0-3.925,2.6-5.314A7.159,7.159,0,0,1,21.038,10" transform="translate(-15 -10)"/>
</svg>
