<svg xmlns="http://www.w3.org/2000/svg" width="41.061" height="53" viewBox="0 0 41.061 53">
  <g id="mouse_scroll" transform="translate(-15 -10)">
    <path id="Path_55" data-name="Path 55" d="M37.946,10H50.022a7.546,7.546,0,0,1,3.5.723q2.536,1.385,2.536,5.3V28.068H42.776V20.841a6.961,6.961,0,0,0-2.113-5.119,6.707,6.707,0,0,0-2.717-1.686V10M15,31.682H28.405A6.687,6.687,0,0,0,30.4,35.6a7.3,7.3,0,0,0,10.265,0,7.018,7.018,0,0,0,2.053-3.915H56.061V43.125a19.613,19.613,0,0,1-6.038,13.852A19.711,19.711,0,0,1,36.134,63H34.926a19.923,19.923,0,0,1-13.949-6.023A19.719,19.719,0,0,1,15,43.125V31.682M21.038,10H33.115v4.035A6.707,6.707,0,0,0,30.4,15.722a6.961,6.961,0,0,0-2.113,5.119v7.227H15V16.023q0-3.915,2.6-5.3A7.175,7.175,0,0,1,21.038,10" transform="translate(0)"/>
    <path id="Path_56" data-name="Path 56" d="M30.087,17.084A3.353,3.353,0,0,1,32.623,16a3.548,3.548,0,0,1,2.6,1.084,3.432,3.432,0,0,1,1.027,2.53V29.25l-.181,1.2-.845,1.385a3.655,3.655,0,0,1-2.6,1.024,3.45,3.45,0,0,1-2.536-1.024,3.314,3.314,0,0,1-.845-1.385L29,29.25V19.614a3.337,3.337,0,0,1,1.087-2.53" transform="translate(2.907 1.227)" fill="#b37f27"/>
  </g>
</svg>
