<svg xmlns="http://www.w3.org/2000/svg" width="53.457" height="565.257" viewBox="0 0 53.457 565.257">
  <g id="path_left" transform="translate(0.957)">
    <path id="Path_11" data-name="Path 11" d="M48,2.5c-1.5,1.4-3,2.8-4.4,4.1" fill="none" stroke="#000" stroke-linecap="round" stroke-linejoin="round" stroke-width="5"/>
    <path id="Path_12" data-name="Path 12" d="M35.3,15.3C13.8,33.887,9.5,48.912,10,59.6c1.3,27.726,34.9,36.245,38,68.928,1.7,17.581-7.8,17.426-19,53.439-8.8,28.423-17,54.91-7,83.643,10,28.888,28,30.05,28,51.89,0,25.248-24.9,30.127-32,57.311-7.8,29.817,16.5,44.377,24.5,75.511C48.1,472.239,46.4,505.309,9,551.7" transform="translate(0 0)" fill="none" stroke="#000" stroke-linecap="round" stroke-linejoin="round" stroke-width="5" stroke-dasharray="0 0 12 12"/>
    <path id="Path_13" data-name="Path 13" d="M5.8,713c-1.1,1.7-2.2,3.3-3.3,5" transform="translate(0 -156.2)" fill="none" stroke="#000" stroke-linecap="round" stroke-linejoin="round" stroke-width="5"/>
  </g>
</svg>
