<svg xmlns="http://www.w3.org/2000/svg" width="426.096" height="567.03" viewBox="0 0 426.096 567.03">
  <g id="path" transform="translate(-779.543 -301.727)">
    <g id="path_left" transform="translate(780.5 303.5)">
      <path id="Path_11" data-name="Path 11" d="M48,2.5c-1.5,1.4-3,2.8-4.4,4.1" fill="none" stroke="#000" stroke-linecap="round" stroke-linejoin="round" stroke-width="5"/>
      <path id="Path_12" data-name="Path 12" d="M35.3,15.3C13.8,33.887,9.5,48.912,10,59.6c1.3,27.726,34.9,36.245,38,68.928,1.7,17.581-7.8,17.426-19,53.439-8.8,28.423-17,54.91-7,83.643,10,28.888,28,30.05,28,51.89,0,25.248-24.9,30.127-32,57.311-7.8,29.817,16.5,44.377,24.5,75.511C48.1,472.239,46.4,505.309,9,551.7" transform="translate(0 0)" fill="none" stroke="#000" stroke-linecap="round" stroke-linejoin="round" stroke-width="5" stroke-dasharray="0 0 12 12"/>
      <path id="Path_13" data-name="Path 13" d="M5.8,713c-1.1,1.7-2.2,3.3-3.3,5" transform="translate(0 -156.2)" fill="none" stroke="#000" stroke-linecap="round" stroke-linejoin="round" stroke-width="5"/>
    </g>
    <g id="path_right" transform="matrix(0.998, -0.07, 0.07, 0.998, 1115.195, 304.913)">
      <path id="Path_11-2" data-name="Path 11" d="M43.6,2.5c1.5,1.4,3,2.8,4.4,4.1" transform="translate(-41.6 -2.5)" fill="none" stroke="#000" stroke-linecap="round" stroke-linejoin="round" stroke-width="5"/>
      <path id="Path_12-2" data-name="Path 12" d="M23.7,15.3C45.2,34.175,49.5,49.433,49,60.286c-1.3,28.156-34.9,36.807-38,70-1.7,17.853,7.8,17.7,19,54.266,8.8,28.863,17,55.761,7,84.939C27,298.822,9,300,9,322.18c0,25.639,24.9,30.594,32,58.2,7.8,30.279-16.5,45.065-24.5,76.681C10.9,479.317,12.6,512.9,50,560.008" transform="translate(-9 -2.5)" fill="none" stroke="#000" stroke-linecap="round" stroke-linejoin="round" stroke-width="5" stroke-dasharray="0 0 12 12"/>
      <path id="Path_13-2" data-name="Path 13" d="M2.5,713c1.1,1.7,2.2,3.3,3.3,5" transform="translate(41.7 -153.599)" fill="none" stroke="#000" stroke-linecap="round" stroke-linejoin="round" stroke-width="5"/>
    </g>
  </g>
</svg>
