<svg xmlns="http://www.w3.org/2000/svg" width="92.292" height="566.82" viewBox="0 0 92.292 566.82">
  <g id="path_right" transform="matrix(0.998, -0.07, 0.07, 0.998, 1.847, 3.187)">
    <path id="Path_11" data-name="Path 11" d="M43.6,2.5c1.5,1.4,3,2.8,4.4,4.1" transform="translate(-41.6 -2.5)" fill="none" stroke="#000" stroke-linecap="round" stroke-linejoin="round" stroke-width="5"/>
    <path id="Path_12" data-name="Path 12" d="M23.7,15.3C45.2,34.175,49.5,49.433,49,60.286c-1.3,28.156-34.9,36.807-38,70-1.7,17.853,7.8,17.7,19,54.266,8.8,28.863,17,55.761,7,84.939C27,298.822,9,300,9,322.18c0,25.639,24.9,30.594,32,58.2,7.8,30.279-16.5,45.065-24.5,76.681C10.9,479.317,12.6,512.9,50,560.008" transform="translate(-9 -2.5)" fill="none" stroke="#000" stroke-linecap="round" stroke-linejoin="round" stroke-width="5" stroke-dasharray="0 0 12 12"/>
    <path id="Path_13" data-name="Path 13" d="M2.5,713c1.1,1.7,2.2,3.3,3.3,5" transform="translate(41.7 -153.599)" fill="none" stroke="#000" stroke-linecap="round" stroke-linejoin="round" stroke-width="5"/>
  </g>
</svg>
