<svg xmlns="http://www.w3.org/2000/svg" width="508.407" height="97.591" viewBox="0 0 508.407 97.591">
  <g id="dzwiek" transform="translate(3.37 0)">
    <path id="Path_9" data-name="Path 9" d="M503.378,80.225c-2.554,8.829-7.662,8.05-11.736,7.876C342.54,76.157,195.677,91.91,56.934,82.562c-4.218-.26-35.066,0-39.284.779-8.809,1.645-13.056.26-15.237-7.7-1-3.722-1.951-8.828-1.837-17.311.086-7.444.344-12.2.545-19.734C1.466,27.081,1.9,11.847,4.68,6.221,7.836-.27,69.391.153,70.768.586c75.634,8.281,83.96-2.76,154.609,7.539,24.621,3.549,39.6,5.8,61.408,4.328,67.233-4.414,134.524,2.164,201.729-3.462,2.984-.26,12.6-1.212,15.783,14.714,1,5.107,1.148,10.646,1.263,17.917A257.3,257.3,0,0,1,503.378,80.225Z" transform="translate(-0.567 -0.371)" fill="#b37f27"/>
    <path id="Path_9-2" data-name="Path 9" d="M503.378,89.1c-2.554,9.81-7.662,8.945-11.736,8.752C342.54,84.584,195.677,102.089,56.934,91.7c-4.218-.289-35.066,0-39.284.866-8.809,1.827-13.056.289-15.237-8.56C1.409,79.872.462,74.2.576,64.772.663,56.5.921,51.21,1.122,42.843,1.466,30.051,1.9,13.124,4.68,6.872,7.836-.342,69.391.129,70.768.61c75.634,9.2,83.96-3.067,154.609,8.378,24.621,3.943,39.6,6.444,61.408,4.809,67.233-4.905,134.524,2.4,201.729-3.847C491.5,9.661,501.111,8.6,504.3,26.3c1,5.675,1.148,11.83,1.263,19.909A317.285,317.285,0,0,1,503.378,89.1Z" transform="translate(-3.937 -0.371)" fill="#b37f27" opacity="0.41"/>
  </g>
</svg>
