<svg xmlns="http://www.w3.org/2000/svg" width="512.17" height="96.684" viewBox="0 0 512.17 96.684">
  <g id="grafika" transform="translate(3.37 10.653)">
    <path id="Path_9" data-name="Path 9" d="M503.378,71.76c-2.554,7.9-7.662,7.207-11.736,7.052-149.1-10.694-295.965,3.41-434.707-4.96-4.218-.232-35.066,0-39.284.7-8.809,1.472-13.056.232-15.237-6.9a48.716,48.716,0,0,1-1.837-15.5c.086-6.665.344-10.927.545-17.669C1.466,24.178,1.9,10.539,4.68,5.5,7.836-.311,72.021,7.594,73.4,7.981c75.634,7.415,81.33-10,151.979-.775,24.621,3.177,39.6,5.192,61.408,3.875,67.233-3.952,103.332,1.162,170.536-3.875,2.984-.232,43.79-.31,46.975,13.949,1,4.572,1.148,9.532,1.263,16.042A206.615,206.615,0,0,1,503.378,71.76Z" transform="translate(-0.567 -3.375)" fill="#b37f27"/>
    <path id="Path_9-2" data-name="Path 9" d="M508.464,79.488c-2.583,9.188-7.748,8.377-11.868,8.2C345.818,75.254,197.3,91.648,57,81.92c-4.266-.27-35.46,0-39.726.811-8.909,1.711-13.2.27-15.409-8.017C.851,70.84-.106,65.526.01,56.7.1,48.951.358,44,.561,36.16c.348-11.98.783-27.834,3.6-33.689C7.351-4.284,72.257,4.9,73.65,5.354c76.485,8.618,82.245-11.62,153.687-.9,24.9,3.693,40.045,6.035,62.1,4.5,67.989-4.594,104.494,1.351,172.454-4.5,3.018-.27,44.282-.36,47.5,16.214,1.016,5.315,1.161,11.08,1.277,18.646A275.469,275.469,0,0,1,508.464,79.488Z" transform="matrix(1, -0.017, 0.017, 1, -3.37, -1.739)" fill="#b37f27" opacity="0.41"/>
  </g>
</svg>
