<svg xmlns="http://www.w3.org/2000/svg" width="510.118" height="88.871" viewBox="0 0 510.118 88.871">
  <g id="jezyk" transform="translate(0.659 14.711)">
    <path id="Path_9" data-name="Path 9" d="M503.378,67.426c-2.554,7.415-7.662,6.761-11.736,6.615-149.1-10.032-295.965,3.2-434.707-4.652-4.218-.218-35.066,0-39.284.654-8.809,1.381-13.056.218-15.237-6.47A43.046,43.046,0,0,1,.576,49.035c.086-6.252.344-10.25.545-16.574C1.466,22.792,1.9,10,4.68,5.273c3.156-5.452,72.624,1.236,74,1.6,75.634,6.955,76.047-8.651,146.7,0C250,9.853,338.706,1.776,360.515.54c67.233-3.707,60.794,11.784,128,7.059,2.984-.218,12.6-1.018,15.783,12.358,1,4.289,1.148,8.941,1.263,15.048A182.016,182.016,0,0,1,503.378,67.426Z" transform="translate(-0.567 0.039)" fill="#b37f27"/>
    <path id="Path_9-2" data-name="Path 9" d="M506.557,72.781c-2.573,8-7.719,7.293-11.824,7.136C344.521,69.1,196.563,83.368,56.787,74.9c-4.25-.235-35.327,0-39.577.706-8.875,1.49-13.154.235-15.351-6.98A49.5,49.5,0,0,1,.01,52.94C.1,46.2.356,41.883.559,35.06c.347-10.43.781-24.232,3.585-29.33C7.324-.151,77.308,7.064,78.7,7.456c76.2,7.5,76.614-9.332,147.789,0,24.8,3.215,114.174-5.5,136.145-6.831,67.734-4,61.247,12.713,128.952,7.615,3.007-.235,12.691-1.1,15.9,13.332,1.012,4.627,1.156,9.646,1.272,16.233A210,210,0,0,1,506.557,72.781Z" transform="matrix(1, -0.017, 0.017, 1, -0.659, -5.831)" fill="#b37f27" opacity="0.41"/>
  </g>
</svg>
