<svg xmlns="http://www.w3.org/2000/svg" width="508.761" height="89.121" viewBox="0 0 508.761 89.121">
  <g id="sterowanie" transform="translate(0 0.014)">
    <path id="Path_9" data-name="Path 9" d="M505.2,72.974c-2.567,8.072-7.7,7.36-11.793,7.2C343.6,69.268,196.034,83.683,56.633,75.148c-4.238-.237-35.232,0-39.471.715-8.851,1.5-13.118.239-15.309-7.042A50.508,50.508,0,0,1,.01,52.994C.1,46.189.357,41.836.559,34.951c.347-10.525.78-24.453,3.578-29.6C7.309-.582,69.155-.2,70.539.2c75.993,7.565,84.36-2.531,155.343,6.881,24.737,3.243,39.787,5.3,61.7,3.952C355.135,6.986,422.745,13,490.269,7.846c3-.238,12.657-1.109,15.856,13.452,1.009,4.669,1.152,9.734,1.267,16.381A214.4,214.4,0,0,1,505.2,72.974Z" transform="matrix(1, 0.017, -0.017, 1, 1.401, 0)" fill="#b37f27" opacity="0.41"/>
    <path id="Path_9-2" data-name="Path 9" d="M503.378,69.393c-2.554,7.631-7.662,6.958-11.736,6.808-149.1-10.324-295.965,3.292-434.707-4.788-4.218-.224-35.066,0-39.284.673-8.809,1.421-13.056.224-15.237-6.658A45.5,45.5,0,0,1,.576,50.465c.086-6.434.344-10.549.545-17.057.344-9.95.775-23.117,3.558-27.98C7.836-.183,69.391.183,70.768.557c75.634,7.158,83.96-2.386,154.609,6.517,24.621,3.067,39.6,5.012,61.408,3.741C354.018,7,421.309,12.685,488.514,7.822,491.5,7.6,501.111,6.774,504.3,20.54c1,4.414,1.148,9.2,1.263,15.486A192.677,192.677,0,0,1,503.378,69.393Z" transform="translate(-0.559 -0.385)" fill="#b37f27"/>
  </g>
</svg>
