<svg xmlns="http://www.w3.org/2000/svg" width="565.059" height="98.035" viewBox="0 0 565.059 98.035">
  <g id="tabliczka_glowna" transform="translate(0)">
    <g id="Warstwa_1-2" transform="translate(5.391 -0.371)">
      <path id="Path_9" data-name="Path 9" d="M557.2,81.465c-2.827,8.966-8.482,8.175-12.993,8-165.063-12.13-327.648,3.868-481.243-5.625-4.67-.264-38.82,0-43.489.791-9.753,1.67-14.454.264-16.868-7.823C1.5,73.027.45,67.841.577,59.227c.1-7.559.381-12.394.6-20.041C1.562,27.5,2.039,12.026,5.12,6.312,8.615-.28,76.758.15,78.283.589c83.731,8.41,92.948-2.8,171.16,7.657,27.256,3.6,43.839,5.889,67.982,4.395,74.431-4.483,148.925,2.2,223.324-3.516,3.3-.264,13.946-1.231,17.472,14.943,1.112,5.186,1.271,10.812,1.4,18.195A240,240,0,0,1,557.2,81.465Z" transform="translate(0 0)" fill="#b37f27"/>
    </g>
    <g id="Warstwa_1-2-2" data-name="Warstwa_1-2" transform="translate(-0.567 4.501)" opacity="0.41">
      <path id="Path_9-2" data-name="Path 9" d="M558.221,80.516c-2.827,9.4-18.624,10.536-23.135,10.352-210.26.925-318.522,6.975-472.117-2.979-4.67-.276-35.756,1.952-40.426,2.782C12.79,92.422,5.025,89,2.611,80.516,1.5,76.553.45,71.116.577,62.084c.1-7.926.381-13,.6-21.013C1.562,28.812,2.039,12.591,5.12,6.6,8.615-.312,76.758.139,78.283.6c83.731,8.818,92.948-2.939,171.16,8.028,27.256,3.779,43.839,6.175,67.982,4.608,74.431-4.7,148.925,2.3,223.324-3.687,3.3-.276,13.946-1.29,17.472,15.668,1.112,5.438,1.271,11.336,1.4,19.078C559.968,62.176,559.428,71.761,558.221,80.516Z" transform="translate(0 0)" fill="#b37f27"/>
    </g>
  </g>
</svg>
