<svg id="tabliczki" xmlns="http://www.w3.org/2000/svg" width="565.059" height="668.366" viewBox="0 0 565.059 668.366">
  <g id="linia" transform="translate(12.267 90.566)">
    <path id="Path_7" data-name="Path 7" d="M0,4.469C42.459-1.375,89.536.756,132.182,0c122.293.962,249.64,0,371.808,2.612,7.768.413,17,.894,24.8,1.788-7.8.894-16.878,1.444-24.8,1.787C381.854,8.8,254.444,7.906,132.182,8.8,89.5,8.181,42.491,10.244,0,4.469Z" fill="#2f3640"/>
  </g>
  <g id="tabliczka_glowna">
    <g id="Warstwa_1-2" transform="translate(5.391 -0.371)">
      <path id="Path_9" data-name="Path 9" d="M557.2,81.465c-2.827,8.966-8.482,8.175-12.993,8-165.063-12.13-327.648,3.868-481.243-5.625-4.67-.264-38.82,0-43.489.791-9.753,1.67-14.454.264-16.868-7.823C1.5,73.027.45,67.841.577,59.227c.1-7.559.381-12.394.6-20.041C1.562,27.5,2.039,12.026,5.12,6.312,8.615-.28,76.758.15,78.283.589c83.731,8.41,92.948-2.8,171.16,7.657,27.256,3.6,43.839,5.889,67.982,4.395,74.431-4.483,148.925,2.2,223.324-3.516,3.3-.264,13.946-1.231,17.472,14.943,1.112,5.186,1.271,10.812,1.4,18.195A240,240,0,0,1,557.2,81.465Z" transform="translate(0 0)" fill="#b37f27"/>
    </g>
    <g id="Warstwa_1-2-2" data-name="Warstwa_1-2" transform="translate(-0.567 4.501)" opacity="0.41">
      <path id="Path_9-2" data-name="Path 9" d="M558.221,80.516c-2.827,9.4-18.624,10.536-23.135,10.352-210.26.925-318.522,6.975-472.117-2.979-4.67-.276-35.756,1.952-40.426,2.782C12.79,92.422,5.025,89,2.611,80.516,1.5,76.553.45,71.116.577,62.084c.1-7.926.381-13,.6-21.013C1.562,28.812,2.039,12.591,5.12,6.6,8.615-.312,76.758.139,78.283.6c83.731,8.818,92.948-2.939,171.16,8.028,27.256,3.779,43.839,6.175,67.982,4.608,74.431-4.7,148.925,2.3,223.324-3.687,3.3-.276,13.946-1.29,17.472,15.668,1.112,5.438,1.271,11.336,1.4,19.078C559.968,62.176,559.428,71.761,558.221,80.516Z" transform="translate(0 0)" fill="#b37f27"/>
    </g>
  </g>
  <g id="tabliczki-2" data-name="tabliczki" transform="translate(16.446 130.616)">
    <g id="grafika" transform="translate(7.975 116.004)">
      <path id="Path_9-3" data-name="Path 9" d="M503.378,71.76c-2.554,7.9-7.662,7.207-11.736,7.052-149.1-10.694-295.965,3.41-434.707-4.96-4.218-.232-35.066,0-39.284.7-8.809,1.472-13.056.232-15.237-6.9a48.716,48.716,0,0,1-1.837-15.5c.086-6.665.344-10.927.545-17.669C1.466,24.178,1.9,10.539,4.68,5.5,7.836-.311,72.021,7.594,73.4,7.981c75.634,7.415,81.33-10,151.979-.775,24.621,3.177,39.6,5.192,61.408,3.875,67.233-3.952,103.332,1.162,170.536-3.875,2.984-.232,43.79-.31,46.975,13.949,1,4.572,1.148,9.532,1.263,16.042A206.615,206.615,0,0,1,503.378,71.76Z" transform="translate(-0.567 -3.375)" fill="#b37f27"/>
      <path id="Path_9-4" data-name="Path 9" d="M508.464,79.488c-2.583,9.188-7.748,8.377-11.868,8.2C345.818,75.254,197.3,91.648,57,81.92c-4.266-.27-35.46,0-39.726.811-8.909,1.711-13.2.27-15.409-8.017C.851,70.84-.106,65.526.01,56.7.1,48.951.358,44,.561,36.16c.348-11.98.783-27.834,3.6-33.689C7.351-4.284,72.257,4.9,73.65,5.354c76.485,8.618,82.245-11.62,153.687-.9,24.9,3.693,40.045,6.035,62.1,4.5,67.989-4.594,104.494,1.351,172.454-4.5,3.018-.27,44.282-.36,47.5,16.214,1.016,5.315,1.161,11.08,1.277,18.646A275.469,275.469,0,0,1,508.464,79.488Z" transform="matrix(1, -0.017, 0.017, 1, -3.37, -1.739)" fill="#b37f27" opacity="0.41"/>
    </g>
    <g id="dzwiek" transform="translate(7.975 219.631)">
      <path id="Path_9-5" data-name="Path 9" d="M503.378,80.225c-2.554,8.829-7.662,8.05-11.736,7.876C342.54,76.157,195.677,91.91,56.934,82.562c-4.218-.26-35.066,0-39.284.779-8.809,1.645-13.056.26-15.237-7.7-1-3.722-1.951-8.828-1.837-17.311.086-7.444.344-12.2.545-19.734C1.466,27.081,1.9,11.847,4.68,6.221,7.836-.27,69.391.153,70.768.586c75.634,8.281,83.96-2.76,154.609,7.539,24.621,3.549,39.6,5.8,61.408,4.328,67.233-4.414,134.524,2.164,201.729-3.462,2.984-.26,12.6-1.212,15.783,14.714,1,5.107,1.148,10.646,1.263,17.917A257.3,257.3,0,0,1,503.378,80.225Z" transform="translate(-0.567 -0.371)" fill="#b37f27"/>
      <path id="Path_9-6" data-name="Path 9" d="M503.378,89.1c-2.554,9.81-7.662,8.945-11.736,8.752C342.54,84.584,195.677,102.089,56.934,91.7c-4.218-.289-35.066,0-39.284.866-8.809,1.827-13.056.289-15.237-8.56C1.409,79.872.462,74.2.576,64.772.663,56.5.921,51.21,1.122,42.843,1.466,30.051,1.9,13.124,4.68,6.872,7.836-.342,69.391.129,70.768.61c75.634,9.2,83.96-3.067,154.609,8.378,24.621,3.943,39.6,6.444,61.408,4.809,67.233-4.905,134.524,2.4,201.729-3.847C491.5,9.661,501.111,8.6,504.3,26.3c1,5.675,1.148,11.83,1.263,19.909A317.285,317.285,0,0,1,503.378,89.1Z" transform="translate(-3.937 -0.371)" fill="#b37f27" opacity="0.41"/>
    </g>
    <g id="wyswietlacz" transform="translate(7.975 346.404)">
      <path id="Path_9-7" data-name="Path 9" d="M503.378,71.949c-2.554,7.892-7.662,7.2-11.736,7.041-149.1-10.677-295.965,3.4-434.707-4.952-4.218-.232-35.066,0-39.284.7-8.809,1.47-13.056.232-15.237-6.886A48.566,48.566,0,0,1,.576,52.374c.086-6.654.344-10.91.545-17.641C1.466,24.442,1.9,10.824,4.68,5.8c3.156-5.8,69.19,1.315,70.567,1.7,75.634,7.4,79.482-9.207,150.13,0,24.621,3.172,52.578,2.089,74.387.774,67.233-3.946,121.546,5.029,188.75,0,2.984-.232,12.6-1.083,15.783,13.153,1,4.565,1.148,9.517,1.263,16.016A205.965,205.965,0,0,1,503.378,71.949Z" transform="translate(-0.567 -3.527)" fill="#b37f27"/>
      <path id="Path_9-8" data-name="Path 9" d="M506.09,75.353c-2.571,8.692-7.712,7.925-11.813,7.754C344.2,71.348,196.382,86.857,56.735,77.654c-4.246-.256-35.294,0-39.54.767-8.867,1.619-13.142.256-15.337-7.584C.847,67.173-.106,62.146.01,53.795.1,46.467.356,41.78.558,34.367.9,23.034,1.338,8.036,4.14,2.5,7.317-3.893,73.78,3.946,75.167,4.372c76.128,8.153,80-10.14,151.109,0,24.781,3.494,52.921,2.3,74.872.852,67.672-4.346,122.338,5.539,189.981,0,3-.256,12.68-1.193,15.885,14.486,1.011,5.027,1.155,10.481,1.271,17.639A247.831,247.831,0,0,1,506.09,75.353Z" transform="matrix(1, 0.017, -0.017, 1, -6.522, -11.187)" fill="#b37f27" opacity="0.41"/>
    </g>
    <g id="jezyk" transform="translate(7.975 463.59)">
      <path id="Path_9-9" data-name="Path 9" d="M503.378,67.426c-2.554,7.415-7.662,6.761-11.736,6.615-149.1-10.032-295.965,3.2-434.707-4.652-4.218-.218-35.066,0-39.284.654-8.809,1.381-13.056.218-15.237-6.47A43.046,43.046,0,0,1,.576,49.035c.086-6.252.344-10.25.545-16.574C1.466,22.792,1.9,10,4.68,5.273c3.156-5.452,72.624,1.236,74,1.6,75.634,6.955,76.047-8.651,146.7,0C250,9.853,338.706,1.776,360.515.54c67.233-3.707,60.794,11.784,128,7.059,2.984-.218,12.6-1.018,15.783,12.358,1,4.289,1.148,8.941,1.263,15.048A182.016,182.016,0,0,1,503.378,67.426Z" transform="translate(-0.567 0.039)" fill="#b37f27"/>
      <path id="Path_9-10" data-name="Path 9" d="M506.557,72.781c-2.573,8-7.719,7.293-11.824,7.136C344.521,69.1,196.563,83.368,56.787,74.9c-4.25-.235-35.327,0-39.577.706-8.875,1.49-13.154.235-15.351-6.98A49.5,49.5,0,0,1,.01,52.94C.1,46.2.356,41.883.559,35.06c.347-10.43.781-24.232,3.585-29.33C7.324-.151,77.308,7.064,78.7,7.456c76.2,7.5,76.614-9.332,147.789,0,24.8,3.215,114.174-5.5,136.145-6.831,67.734-4,61.247,12.713,128.952,7.615,3.007-.235,12.691-1.1,15.9,13.332,1.012,4.627,1.156,9.646,1.272,16.233A210,210,0,0,1,506.557,72.781Z" transform="matrix(1, -0.017, 0.017, 1, -0.659, -5.831)" fill="#b37f27" opacity="0.41"/>
    </g>
    <g id="sterowanie" transform="translate(7.967 0.014)">
      <path id="Path_9-11" data-name="Path 9" d="M505.2,72.974c-2.567,8.072-7.7,7.36-11.793,7.2C343.6,69.268,196.034,83.683,56.633,75.148c-4.238-.237-35.232,0-39.471.715-8.851,1.5-13.118.239-15.309-7.042A50.508,50.508,0,0,1,.01,52.994C.1,46.189.357,41.836.559,34.951c.347-10.525.78-24.453,3.578-29.6C7.309-.582,69.155-.2,70.539.2c75.993,7.565,84.36-2.531,155.343,6.881,24.737,3.243,39.787,5.3,61.7,3.952C355.135,6.986,422.745,13,490.269,7.846c3-.238,12.657-1.109,15.856,13.452,1.009,4.669,1.152,9.734,1.267,16.381A214.4,214.4,0,0,1,505.2,72.974Z" transform="matrix(1, 0.017, -0.017, 1, 1.401, 0)" fill="#b37f27" opacity="0.41"/>
      <path id="Path_9-12" data-name="Path 9" d="M503.378,69.393c-2.554,7.631-7.662,6.958-11.736,6.808-149.1-10.324-295.965,3.292-434.707-4.788-4.218-.224-35.066,0-39.284.673-8.809,1.421-13.056.224-15.237-6.658A45.5,45.5,0,0,1,.576,50.465c.086-6.434.344-10.549.545-17.057.344-9.95.775-23.117,3.558-27.98C7.836-.183,69.391.183,70.768.557c75.634,7.158,83.96-2.386,154.609,6.517,24.621,3.067,39.6,5.012,61.408,3.741C354.018,7,421.309,12.685,488.514,7.822,491.5,7.6,501.111,6.774,504.3,20.54c1,4.414,1.148,9.2,1.263,15.486A192.677,192.677,0,0,1,503.378,69.393Z" transform="translate(-0.559 -0.385)" fill="#b37f27"/>
    </g>
  </g>
</svg>
