<svg xmlns="http://www.w3.org/2000/svg" width="513.011" height="92.06" viewBox="0 0 513.011 92.06">
  <g id="wyswietlacz" transform="translate(7.975 11.187)">
    <path id="Path_9" data-name="Path 9" d="M503.378,71.949c-2.554,7.892-7.662,7.2-11.736,7.041-149.1-10.677-295.965,3.4-434.707-4.952-4.218-.232-35.066,0-39.284.7-8.809,1.47-13.056.232-15.237-6.886A48.566,48.566,0,0,1,.576,52.374c.086-6.654.344-10.91.545-17.641C1.466,24.442,1.9,10.824,4.68,5.8c3.156-5.8,69.19,1.315,70.567,1.7,75.634,7.4,79.482-9.207,150.13,0,24.621,3.172,52.578,2.089,74.387.774,67.233-3.946,121.546,5.029,188.75,0,2.984-.232,12.6-1.083,15.783,13.153,1,4.565,1.148,9.517,1.263,16.016A205.965,205.965,0,0,1,503.378,71.949Z" transform="translate(-0.567 -3.527)" fill="#b37f27"/>
    <path id="Path_9-2" data-name="Path 9" d="M506.09,75.353c-2.571,8.692-7.712,7.925-11.813,7.754C344.2,71.348,196.382,86.857,56.735,77.654c-4.246-.256-35.294,0-39.54.767-8.867,1.619-13.142.256-15.337-7.584C.847,67.173-.106,62.146.01,53.795.1,46.467.356,41.78.558,34.367.9,23.034,1.338,8.036,4.14,2.5,7.317-3.893,73.78,3.946,75.167,4.372c76.128,8.153,80-10.14,151.109,0,24.781,3.494,52.921,2.3,74.872.852,67.672-4.346,122.338,5.539,189.981,0,3-.256,12.68-1.193,15.885,14.486,1.011,5.027,1.155,10.481,1.271,17.639A247.831,247.831,0,0,1,506.09,75.353Z" transform="matrix(1, 0.017, -0.017, 1, -6.522, -11.187)" fill="#b37f27" opacity="0.41"/>
  </g>
</svg>
