<?xml version="1.0" encoding="UTF-8"?><svg id="Warstwa_2" xmlns="http://www.w3.org/2000/svg" xmlns:xlink="http://www.w3.org/1999/xlink" viewBox="0 0 376.181 13.847"><defs><style>.cls-1{fill:url(#MENU_BORDER_SQUARE);stroke:#603813;stroke-miterlimit:10;}</style><radialGradient id="MENU_BORDER_SQUARE" cx="188.091" cy="6.924" fx="188.091" fy="6.924" r="132.724" gradientTransform="translate(264.148 180.201) rotate(-120) scale(1 3)" gradientUnits="userSpaceOnUse"><stop offset="0" stop-color="#ffcb7e"/><stop offset=".262" stop-color="#fbc87c"/><stop offset=".483" stop-color="#f1c077"/><stop offset=".688" stop-color="#dfb26e"/><stop offset=".883" stop-color="#c79e62"/><stop offset="1" stop-color="#b59059"/></radialGradient></defs><g id="Warstwa_3"><path id="questLine" class="cls-1" d="M365.979.759c-1.183-.8-1.625.409-2.192,1.488-.853,1.501-1.276,2.641-1.841,3.002-95.915-.006-247.54.028-347.767-.009-.639-.713-1.431-2.176-1.903-3.187-.556-.866-.743-1.808-1.746-1.481-.154.05-.488.27-.509.289-.108.076-.22.161-.336.256-1.264,1.203-2.929,2.182-4.574,3.013C2.827,5.456-.97,6.357,1.094,7.686c2.132,1.207,4.996,2.349,6.973,3.727,1.112.696,1.533,1.447,2.462,1.86,1.271.511,1.849-2.039,2.73-3.358.206-.418.51-.829.764-1.159,6.279-.429,341.486-.004,347.899-.15.405.272.685.859.968,1.324.883,1.246,1.377,3.844,2.729,3.358.808-.363,1.402-1.115,2.147-1.639,1.627-1.184,4.596-2.585,6.654-3.584.549-.264,1.087-.59,1.26-1.046.002-.496-.577-.853-1.084-1.116-3.199-1.511-6.311-3.011-8.517-5.076l-.101-.068Z"/></g></svg>