<?xml version="1.0" encoding="UTF-8"?><svg id="Warstwa_2" xmlns="http://www.w3.org/2000/svg" xmlns:xlink="http://www.w3.org/1999/xlink" viewBox="0 0 1000 703.179"><defs><style>.cls-1{fill:url(#Nowa_próbka_gradientu_3-4);}.cls-2{fill:url(#Gradient_bez_nazwy_648);}.cls-3{fill:#c89f63;}.cls-4{fill:url(#Nowa_próbka_gradientu_3-3);}.cls-5{fill:url(#MENU_BORDER_SQUARE-2);}.cls-6{fill:url(#Nowa_próbka_gradientu_3);}.cls-7{fill:url(#MENU_BORDER_SQUARE);}.cls-8{fill:url(#Nowa_próbka_gradientu_3-2);}</style><radialGradient id="Gradient_bez_nazwy_648" cx="379.612" cy="-164.447" fx="379.612" fy="-164.447" r="154.74" gradientTransform="translate(-1262.42 1115.064) scale(4.643)" gradientUnits="userSpaceOnUse"><stop offset="0" stop-color="#ffcb7e"/><stop offset=".211" stop-color="#cfa566"/><stop offset=".244" stop-color="#d8ac6a"/><stop offset=".363" stop-color="#f4c278"/><stop offset=".432" stop-color="#ffcb7e"/><stop offset=".489" stop-color="#f8c57a"/><stop offset=".573" stop-color="#e4b570"/><stop offset=".666" stop-color="#c79e62"/><stop offset=".802" stop-color="#e5b671"/><stop offset=".918" stop-color="#f8c57a"/><stop offset="1" stop-color="#ffcb7e"/></radialGradient><radialGradient id="Nowa_próbka_gradientu_3" cx="500" cy="351.59" fx="500" fy="351.59" r="432.212" gradientTransform="translate(0 0)" gradientUnits="userSpaceOnUse"><stop offset=".005" stop-color="#8c6239"/><stop offset=".481" stop-color="#895f36"/><stop offset=".786" stop-color="#80572e"/><stop offset="1" stop-color="#754c24"/></radialGradient><radialGradient id="Nowa_próbka_gradientu_3-2" cx="500" fx="500" r="419.375" xlink:href="#Nowa_próbka_gradientu_3"/><radialGradient id="Nowa_próbka_gradientu_3-3" cx="228.571" cy="-33.262" fx="228.571" fy="-33.262" r="107.836" gradientTransform="translate(-316.035 953.019) scale(2.194 17.554)" xlink:href="#Nowa_próbka_gradientu_3"/><radialGradient id="MENU_BORDER_SQUARE" cx="185.508" cy="369.144" fx="185.508" fy="369.144" r="236.62" gradientTransform="translate(0 -2583.999) scale(1 8)" gradientUnits="userSpaceOnUse"><stop offset="0" stop-color="#ffcb7e"/><stop offset=".262" stop-color="#fbc87c"/><stop offset=".483" stop-color="#f1c077"/><stop offset=".688" stop-color="#dfb26e"/><stop offset=".883" stop-color="#c79e62"/><stop offset="1" stop-color="#b59059"/></radialGradient><radialGradient id="Nowa_próbka_gradientu_3-4" cx="444.662" cy="-32.792" fx="444.662" fy="-32.792" r="137.263" gradientTransform="translate(-316.035 945.805) scale(2.194 17.554)" xlink:href="#Nowa_próbka_gradientu_3"/><radialGradient id="MENU_BORDER_SQUARE-2" cx="659.666" cy="370.174" fx="659.666" fy="370.174" r="301.191" gradientTransform="translate(0 -2591.213) scale(1 8)" xlink:href="#MENU_BORDER_SQUARE"/></defs><g id="PlayerMenu"><g id="fastAction1Frame"><path class="cls-2" d="M970.108,703.179H29.892c0-16.509-13.383-29.892-29.892-29.892V29.892c16.509,0,29.892-13.383,29.892-29.892h940.215c0,16.509,13.383,29.892,29.893,29.892v643.395c-16.509,0-29.893,13.383-29.893,29.892Z"/><path class="cls-6" d="M964.173,6.519c2.697,14.863,14.445,26.611,29.308,29.308v631.526c-14.863,2.697-26.611,14.445-29.308,29.308H35.827c-2.697-14.863-14.445-26.611-29.308-29.308V35.827c14.863-2.697,26.611-14.445,29.308-29.308h928.346M970.107,0H29.892c0,16.509-13.383,29.892-29.892,29.892v643.395c16.509,0,29.892,13.383,29.892,29.892h940.215c0-16.509,13.383-29.892,29.893-29.892V29.892c-16.509,0-29.893-13.383-29.893-29.892h0Z"/><path class="cls-8" d="M959.094,13.037H40.908c-4.218,13.203-14.666,23.653-27.871,27.868v621.368c13.205,4.218,23.653,14.666,27.871,27.868h918.187c4.216-13.203,14.666-23.65,27.868-27.868V40.908c-13.203-4.218-23.653-14.668-27.868-27.871h0Z"/></g><g id="fastAction1Frame-2"><path class="cls-4" d="M314.365,668.071H56.651c0-11.898-9.645-21.543-21.543-21.543V91.759c11.898,0,21.543-9.645,21.543-21.543h257.713c0,11.898,9.645,21.543,21.543,21.543v554.768c-11.898,0-21.543,9.645-21.543,21.543Z"/><path class="cls-7" d="M308.587,76.765c2.454,10.24,10.532,18.318,20.773,20.773v543.213c-10.24,2.454-18.318,10.532-20.773,20.772H62.429c-2.454-10.24-10.532-18.318-20.773-20.772V97.537c10.24-2.454,18.318-10.532,20.773-20.773h246.157M314.365,70.216H56.651c0,11.898-9.645,21.543-21.543,21.543v554.768c11.898,0,21.543,9.645,21.543,21.543h257.713c0-11.898,9.645-21.543,21.543-21.543V91.76c-11.898,0-21.543-9.645-21.543-21.543h0Z"/><path class="cls-3" d="M302.547,85.278c3.661,8.069,10.231,14.638,18.3,18.3v531.132c-8.069,3.661-14.639,10.231-18.3,18.299H68.469c-3.661-8.069-10.231-14.638-18.3-18.299V103.577c8.069-3.661,14.638-10.23,18.3-18.299h234.077M303.838,83.314H67.178c-3.519,8.584-10.388,15.453-18.973,18.972v533.716c8.585,3.519,15.454,10.388,18.973,18.973h236.66c3.519-8.585,10.388-15.454,18.973-18.973V102.286c-8.585-3.519-15.454-10.388-18.973-18.973h0Z"/></g><g id="fastAction1Frame-3"><path class="cls-1" d="M941.56,669.102H377.772c0-11.898-9.645-21.543-21.543-21.543V92.79c11.898,0,21.543-9.645,21.543-21.543h563.787c0,11.898,9.645,21.543,21.543,21.543v554.768c-11.898,0-21.543,9.645-21.543,21.543Z"/><path class="cls-5" d="M935.782,77.795c2.454,10.24,10.532,18.318,20.773,20.773v543.213c-10.24,2.454-18.318,10.532-20.773,20.772H383.55c-2.454-10.24-10.532-18.318-20.773-20.773V98.568c10.24-2.454,18.318-10.532,20.773-20.773h552.231M941.56,71.247H377.772c0,11.898-9.645,21.543-21.543,21.543v554.768c11.898,0,21.543,9.645,21.543,21.543h563.787c0-11.898,9.645-21.543,21.543-21.543V92.79c-11.898,0-21.543-9.645-21.543-21.543h0Z"/><path class="cls-3" d="M929.742,86.31c3.661,8.068,10.231,14.638,18.299,18.299v531.133c-8.069,3.661-14.638,10.23-18.299,18.299H389.59c-3.661-8.068-10.231-14.638-18.299-18.299V104.608c8.069-3.661,14.638-10.23,18.299-18.299h540.152M931.033,84.345H388.299c-3.519,8.584-10.388,15.453-18.973,18.972v533.716c8.585,3.519,15.454,10.388,18.973,18.972h542.734c3.519-8.584,10.388-15.453,18.973-18.972V103.317c-8.585-3.519-15.454-10.388-18.973-18.972h0Z"/></g></g></svg>