<svg xmlns="http://www.w3.org/2000/svg" width="2343.948" height="358.01" viewBox="0 0 2343.948 358.01">
  <g id="nakładka" transform="translate(2340.526 358.01) rotate(180)">
    <path id="Path_6" data-name="Path 6" d="M4,306.5c25.9,62.1,168.4,41.2,519,39,129.8-.8,235.8,2.1,448,8,341.5,9.5,686.8-47.3,1025,1.6,16.2,2.3,69.5,11,110.5-19.1,3-2.2,36.1-27.2,42.5-68.2,9.4-60.1-46.4-111.3-67-133.5C1906.4-55,1633.8,2.3,1308,31.5,856.5,72,630.8,92.2,535,63.7c-104.3-31-246.3-46.1-374,29.2C68.8,147.2-20.1,248.7,4,306.5Z" transform="translate(190.468 -0.031)" fill="#2f3640"/>
    <g id="Warstwa_1-2" transform="translate(-2.5 176.482)" opacity="0.25" style="mix-blend-mode: lighten;isolation: isolate">
      <path id="Path_30" data-name="Path 30" d="M2.5,71.8c1.7-1,3.5-2.1,5.3-3.2" fill="none" stroke="#b37f27" stroke-linecap="round" stroke-linejoin="round" stroke-width="5"/>
      <path id="Path_31" data-name="Path 31" d="M18.3,62.5A547.227,547.227,0,0,1,176.577,10.8c186.994-30.4,258.676,60.8,468.6,73,200.017,11.6,204.692-67.2,426.3-57,190.556,8.8,194.229,67.3,362.858,69,209.033,2.1,262.905-87.3,449.677-93,94.833-2.9,234.188,15.5,408.382,123" transform="translate(0)" fill="none" stroke="#b37f27" stroke-linecap="round" stroke-linejoin="round" stroke-width="5" stroke-dasharray="0 0 12.2 12.2"/>
      <path id="Path_32" data-name="Path 32" d="M2066.5,129.3c1.7,1.2,3.3,2.3,5,3.5" transform="translate(230.997)" fill="none" stroke="#b37f27" stroke-linecap="round" stroke-linejoin="round" stroke-width="5"/>
    </g>
    <g id="Warstwa_1-2-2" data-name="Warstwa_1-2" transform="translate(1989.664 278.829) rotate(150)" opacity="0.25" style="mix-blend-mode: lighten;isolation: isolate">
      <path id="Path_33" data-name="Path 33" d="M121.6,82.553a34.49,34.49,0,0,0-1.781-6.722c-1.1-3.386-1.806-7.023-3.361-10.308-2.032-4.565-6.019-3.311-9.305-.928-3.386,2.257-6.772,4.565-10.133,6.872-3.311,1.956-5.392,6.019-1.605,8.678,1.5,1.229,3.988,1.329,4.816,2.985.326.978-.527,2.006-1.229,2.734-5.468,5.518-13.895,8.026-21.72,7.324-3.411-.251-7.223-1.781-8.4-5.242a13.029,13.029,0,0,1-.6-4.188c-.025-8.277,0-16.553,0-24.83-.15-3.235,1.455-4.239,4.489-4.063a28.316,28.316,0,0,1,6.044.326c4.439,1.43,7.549,4.314,12.34,1.279,4.665-3.01,4.389-10.208-.2-13.167-5.718-3.486-8.176.878-13.218,1.68a32.254,32.254,0,0,1-3.812.1c-2.909.125-5.543,0-5.618-3.411-.627-6.019,2.909-6.571,6.446-10.158,6.9-6.972,6.922-19.613-.451-26.235-7.3-6.9-20.165-7.223-26.987.527-7.825,8.1-6.095,22.5,3.411,28.542a7.478,7.478,0,0,1,2.358,2.333,10.315,10.315,0,0,1,.276,6.722c-.878,2.132-3.261,1.58-5.392,1.68-5.969.426-6.521-2.006-11.186-2.985a7.991,7.991,0,0,0-8.828,6.371,7.9,7.9,0,0,0,8.678,9.28c2.583-.251,4.59-2.207,7.073-2.784,1.806-.451,3.888-.176,5.844-.15,2.909-.075,4.339,1.154,4.163,4.163-.2,9.2.376,18.485-.251,27.639-.7,4.59-5.568,6.571-9.756,6.672-7.524.477-15.575-2.057-20.817-7.474-.9-.928-1.906-2.383-.677-3.336,1.68-1.129,4.941-2.307,6.019-3.913,2.884-4.314-5.116-8.051-9.029-11.086C5.673,56.795,5.8,64.419,1.56,77.486.331,81.073-1.023,87.92,4.67,87.694c2.232,0,4.339-1.4,6.371-.6,1.329.627,1.956,1.981,2.784,3.386a48.036,48.036,0,0,0,6.646,8.728c11.211,12.089,28.341,17.256,44.518,16.2,19.262-.8,35.615-11.512,45.7-28.015,1.831-1.154,3.913.1,6.044.176,3.185.376,5.392-1.68,4.966-4.966v-.05ZM66.72,25.92c-10.208,8.026-21.57-8.578-10.358-15.274C60.5,8.012,65.617,9.467,68.375,13.3A8.833,8.833,0,0,1,66.77,25.9h-.05Z" transform="translate(0 0)" fill="#b37f27"/>
    </g>
  </g>
</svg>
