<svg xmlns="http://www.w3.org/2000/svg" width="482.521" height="124.132" viewBox="0 0 482.521 124.132">
  <g id="tabliczka" transform="translate(0)" style="isolation: isolate">
    <g id="Warstwa_1-2" transform="matrix(1, -0.017, 0.017, 1, -0.003, 8.409)" opacity="0.41">
      <path id="Path_9" data-name="Path 9" d="M472.781,104.782c-2.473,12.041-7.273,11.025-11.105,10.824-140.2-14.981-278.512,7.726-408.985-3.809-3.967-.317-32.994.3-36.97,1.4-8.3,2.315-12.287.466-14.276-10.357-.916-5.058-1.766-12-1.591-23.551.14-10.135.42-16.618.669-26.871.415-15.675.94-36.418,3.6-44.1C7.147-.551,65.062-.5,66.355.075,137.456,10.7,145.377-4.4,211.771,9.011c23.138,4.62,37.215,7.555,57.747,5.365,63.3-6.587,126.561,1.791,189.84-6.446,2.81-.379,11.863-1.758,14.734,19.9.9,6.944,1,14.484,1.046,24.381A506.025,506.025,0,0,1,472.781,104.782Z" transform="translate(0.175 0.028)" fill="#b37f27"/>
    </g>
    <g id="Warstwa_1-2-2" data-name="Warstwa_1-2" transform="translate(11.268 9.554)">
      <path id="Path_9-2" data-name="Path 9" d="M468.6,101.3c-2.378,11.2-7.134,10.212-10.929,9.992-138.842-15.153-275.6,4.831-404.794-7.028-3.928-.329-32.653,0-36.581.988-8.2,2.086-12.158.329-14.189-9.773A103.186,103.186,0,0,1,.393,73.515C.473,64.072.714,58.033.9,48.479c.321-14.6-3.1-26.024-.508-33.162C3.332,7.082,47.259,2.245,48.541,2.794c70.43,10.506,95.4-6.033,161.183,7.034,22.926,4.5,36.875,7.357,57.183,5.49,62.607-5.6,125.267,2.745,187.848-4.392,2.779-.329,11.73-1.537,14.7,18.667.935,6.479,1.069,13.506,1.176,22.73A443.294,443.294,0,0,1,468.6,101.3Z" transform="translate(0.584 -2.752)" fill="#b37f27"/>
    </g>
  </g>
</svg>
