<?xml version="1.0" encoding="UTF-8"?><svg id="Warstwa_2" xmlns="http://www.w3.org/2000/svg" xmlns:xlink="http://www.w3.org/1999/xlink" viewBox="0 0 42.112 42.112"><defs><style>.cls-1{fill:url(#Nowa_próbka_gradientu_9-2);}.cls-2{filter:url(#drop-shadow-1);}.cls-3{fill:url(#Gradient_bez_nazwy_687-2);}.cls-4{fill:url(#Nowa_próbka_gradientu_9);}.cls-5{fill:url(#Nowa_próbka_gradientu_3);}.cls-6{fill:url(#MENU_BORDER_SQUARE);}.cls-7{fill:url(#Gradient_bez_nazwy_687);}.cls-8{fill:url(#Nowa_próbka_gradientu_3-2);}</style><filter id="drop-shadow-1" x="-24" y="-24.256" width="91" height="91" filterUnits="userSpaceOnUse"><feOffset dx="0" dy="0"/><feGaussianBlur result="blur" stdDeviation="8"/><feFlood flood-color="#000" flood-opacity=".15"/><feComposite in2="blur" operator="in"/><feComposite in="SourceGraphic"/></filter><radialGradient id="Gradient_bez_nazwy_687" cx="21.149" cy="21.149" fx="21.149" fy="21.149" r="20.71" gradientUnits="userSpaceOnUse"><stop offset="0" stop-color="#b59059"/><stop offset=".222" stop-color="#b9935b"/><stop offset=".462" stop-color="#c69d61"/><stop offset=".711" stop-color="#dbaf6c"/><stop offset=".964" stop-color="#fac77b"/><stop offset="1" stop-color="#ffcb7e"/></radialGradient><radialGradient id="Nowa_próbka_gradientu_9" cx="21.149" cy="21.149" fx="21.149" fy="21.149" r="20.963" gradientTransform="translate(0 10.574) scale(1 .5)" gradientUnits="userSpaceOnUse"><stop offset=".005" stop-color="#8c6239"/><stop offset=".481" stop-color="#895f36"/><stop offset=".786" stop-color="#80572e"/><stop offset="1" stop-color="#754c24"/></radialGradient><radialGradient id="Gradient_bez_nazwy_687-2" cx="21.146" fx="21.146" r="20.711" xlink:href="#Gradient_bez_nazwy_687"/><radialGradient id="Nowa_próbka_gradientu_9-2" cx="21.149" cy="21.149" fx="21.149" fy="21.149" r="20.963" gradientTransform="translate(10.574 42.297) rotate(-90) scale(1 .5)" xlink:href="#Nowa_próbka_gradientu_9"/><radialGradient id="MENU_BORDER_SQUARE" cx="21" cy="21" fx="21" fy="21" r="19.586" gradientTransform="translate(95.246 -82.944) rotate(45) scale(1 6)" gradientUnits="userSpaceOnUse"><stop offset="0" stop-color="#ffcb7e"/><stop offset=".262" stop-color="#fbc87c"/><stop offset=".483" stop-color="#f1c077"/><stop offset=".688" stop-color="#dfb26e"/><stop offset=".883" stop-color="#c79e62"/><stop offset="1" stop-color="#b59059"/></radialGradient><radialGradient id="Nowa_próbka_gradientu_3" cx="21" cy="21" fx="21" fy="21" r="21" gradientUnits="userSpaceOnUse"><stop offset=".005" stop-color="#8c6239"/><stop offset=".481" stop-color="#895f36"/><stop offset=".786" stop-color="#80572e"/><stop offset="1" stop-color="#754c24"/></radialGradient><radialGradient id="Nowa_próbka_gradientu_3-2" cy="21" fy="21" r="17.125" xlink:href="#Nowa_próbka_gradientu_3"/></defs><g id="PlayerMenu"><g id="levelDetails" class="cls-2"><g id="layer1"><g id="g4923"><g id="path4939"><path class="cls-7" d="M8.958,41.861c-.97,0-1.884-.38-2.575-1.071-.738-.74-1.123-1.763-1.055-2.807l.072-1.089-1.089.075c-.079.005-.158.008-.236.008-.97,0-1.882-.377-2.57-1.063-1.419-1.419-1.419-3.729,0-5.149.69-.69,1.605-1.071,2.575-1.071s1.884.38,2.575,1.071l.677.677L31.438,7.331l-.677-.675c-.69-.69-1.07-1.604-1.07-2.574s.38-1.884,1.07-2.575,1.604-1.071,2.574-1.071c.974.001,1.889.382,2.579,1.072.737.741,1.122,1.764,1.055,2.805l-.073,1.088,1.089-.073c.079-.005.157-.008.236-.008.972,0,1.884.377,2.57,1.062,1.42,1.419,1.419,3.729,0,5.149-.69.69-1.604,1.071-2.574,1.071s-1.885-.38-2.575-1.071l-.677-.677-24.109,24.109.677.677c1.419,1.42,1.419,3.729,0,5.149-.691.69-1.605,1.071-2.575,1.071Z"/><path class="cls-4" d="M33.339.872c.854,0,1.659.335,2.267.943.65.653.989,1.554.93,2.47l-.054.804-.052.78.78-.052.803-.054c.07-.005.14-.007.209-.007.855,0,1.659.332,2.262.934.609.609.944,1.414.944,2.268s-.335,1.659-.944,2.268c-.609.609-1.414.944-2.268.944s-1.659-.335-2.268-.944l-.5-.5-.484-.484-.484.484-23.755,23.755-.484.484.484.484.5.5c.609.609.944,1.414.944,2.268s-.335,1.659-.944,2.268c-.609.609-1.414.944-2.268.944s-1.659-.335-2.267-.943c-.651-.653-.989-1.554-.929-2.471l.054-.804.052-.782-.782.054-.801.055c-.07.005-.139.007-.209.007-.854,0-1.659-.332-2.263-.935-1.25-1.251-1.25-3.285,0-4.536.609-.609,1.414-.944,2.268-.944s1.659.335,2.268.944l.5.5.484.484.484-.484,8.939-8.939,5.873-5.876,8.94-8.942.484-.484-.485-.483-.499-.498c-.609-.609-.944-1.414-.944-2.268s.335-1.659.944-2.268c.584-.584,1.35-.917,2.166-.942h.105M33.336.186c-.994,0-1.989.381-2.751,1.144-1.526,1.525-1.526,3.977,0,5.503l.5.498-8.94,8.942-5.873,5.876-8.939,8.939-.5-.5c-.763-.763-1.757-1.144-2.752-1.144s-1.989.381-2.751,1.144c-1.525,1.526-1.525,3.977,0,5.503.732.73,1.72,1.136,2.747,1.136.084,0,.169-.003.253-.008l.804-.056-.054.804c-.073,1.116.338,2.208,1.128,3,.763.763,1.757,1.144,2.751,1.144s1.989-.381,2.751-1.144c1.526-1.526,1.526-3.977,0-5.503l-.5-.5,23.755-23.755.5.5c.763.763,1.757,1.144,2.751,1.144s1.989-.381,2.751-1.144c1.526-1.526,1.526-3.977,0-5.503-.732-.73-1.72-1.134-2.746-1.134-.084,0-.169.003-.254.008l-.804.054.054-.804c.073-1.115-.339-2.206-1.127-2.998-.763-.763-1.757-1.144-2.751-1.144l-.004-.002h0Z"/></g><g id="path4939-2"><path class="cls-3" d="M33.34,41.862c-.97,0-1.884-.38-2.574-1.071s-1.07-1.605-1.07-2.575.38-1.884,1.07-2.575l.677-.677L7.331,10.859l-.675.677c-.69.69-1.604,1.071-2.574,1.071s-1.884-.38-2.575-1.071c-.681-.68-1.06-1.578-1.071-2.533v-.045c.001-.97.382-1.884,1.072-2.575.688-.685,1.6-1.062,2.568-1.062.079,0,.158.002.237.008l1.088.073-.073-1.089c-.068-1.044.316-2.067,1.053-2.807.69-.69,1.604-1.07,2.574-1.07s1.884.38,2.575,1.071c.691.69,1.071,1.605,1.071,2.575s-.38,1.884-1.071,2.575l-.677.677,24.109,24.109.677-.677c.69-.69,1.604-1.071,2.575-1.071s1.884.38,2.574,1.071c1.42,1.42,1.42,3.729,0,5.149-.688.685-1.6,1.062-2.569,1.062-.079,0-.158-.002-.237-.008l-1.09-.073.076,1.089c.067,1.042-.317,2.066-1.055,2.807-.691.69-1.605,1.07-2.575,1.07Z"/><path class="cls-1" d="M8.957.869c.854,0,1.659.335,2.268.944,1.25,1.251,1.25,3.285,0,4.536l-.5.5-.484.484.484.484,23.755,23.755.484.484.484-.484.5-.5c.609-.609,1.414-.944,2.268-.944s1.659.335,2.268.944c1.25,1.251,1.25,3.285,0,4.535-.606.604-1.409.936-2.263.936-.07,0-.139-.002-.208-.007l-.804-.054-.782-.052.054.782.055.801c.06.919-.279,1.82-.929,2.472-.609.609-1.414.944-2.268.944s-1.659-.335-2.268-.944c-1.25-1.251-1.25-3.285,0-4.536l.5-.5.483-.484-.484-.484-8.939-8.939-5.876-5.873L7.815,10.73l-.484-.484-.484.485-.498.499c-.609.609-1.414.944-2.268.944s-1.659-.335-2.268-.944c-.584-.584-.916-1.349-.942-2.164v-.107c0-.854.335-1.659.943-2.267.606-.604,1.41-.936,2.263-.936.069,0,.139.002.207.007l.804.054.78.052-.052-.78-.054-.803c-.06-.92.278-1.821.927-2.472.609-.609,1.414-.944,2.268-.944M8.957.185c-.994,0-1.989.381-2.751,1.144-.789.792-1.198,1.884-1.126,3l.054.804-.804-.054c-.084-.005-.169-.008-.253-.008-1.026,0-2.013.407-2.745,1.136-.763.763-1.144,1.757-1.144,2.751l-.002.004c0,.994.381,1.989,1.144,2.751.763.763,1.757,1.144,2.751,1.144s1.989-.381,2.752-1.144l.498-.5,8.942,8.94,5.876,5.873,8.939,8.939-.5.5c-1.525,1.526-1.525,3.977,0,5.503.763.763,1.757,1.144,2.751,1.144s1.989-.381,2.751-1.144c.789-.792,1.2-1.884,1.127-3l-.056-.804.804.054c.085.006.169.008.254.008,1.026,0,2.014-.406,2.746-1.136,1.525-1.526,1.525-3.977,0-5.503-.763-.763-1.757-1.144-2.751-1.144s-1.989.381-2.752,1.144l-.5.5L11.208,7.333l.5-.5c1.525-1.526,1.525-3.977,0-5.503-.763-.763-1.757-1.144-2.752-1.144h0Z"/></g></g></g></g><g id="levelFrame"><rect class="cls-6" x="7.151" y="7.15" width="27.699" height="27.699" transform="translate(-8.698 21) rotate(-45)"/><path class="cls-5" d="M21,1.937l19.063,19.063-19.062,19.062L1.938,21,21,1.937M21,0L0,21l21,21,21-21L21,0h0Z"/><path class="cls-8" d="M21,4.456l16.544,16.544-16.544,16.544L4.456,21,21,4.456M21,3.875L3.875,21l17.125,17.125,17.125-17.125L21,3.875h0Z"/></g></g></svg>