<?xml version="1.0" encoding="UTF-8"?><svg id="Warstwa_2" xmlns="http://www.w3.org/2000/svg" xmlns:xlink="http://www.w3.org/1999/xlink" viewBox="0 0 538.768 124.296"><defs><style>.cls-1{fill:url(#Nowa_próbka_gradientu_3-4);}.cls-2{fill:url(#Gradient_bez_nazwy_648);}.cls-3{fill:url(#Nowa_próbka_gradientu_3-7);}.cls-4{filter:url(#drop-shadow-2);}.cls-5{fill:url(#MENU_BORDER_SQUARE-7);}.cls-6{fill:url(#MENU_BORDER_SQUARE-4);}.cls-7{fill:url(#Nowa_próbka_gradientu_3-8);}.cls-8{fill:url(#MENU_BORDER_SQUARE-8);}.cls-9{fill:#c89f63;}.cls-10{fill:url(#MENU_BORDER_SQUARE-10);}.cls-11{fill:url(#Nowa_próbka_gradientu_3-5);}.cls-12{filter:url(#drop-shadow-1);}.cls-13{fill:url(#Nowa_próbka_gradientu_3-3);}.cls-14{fill:url(#MENU_BORDER_SQUARE-2);}.cls-15{fill:url(#MENU_BORDER_SQUARE-9);}.cls-16{fill:url(#MENU_BORDER_SQUARE-6);}.cls-17{fill:#603813;}.cls-18{fill:url(#Nowa_próbka_gradientu_3);}.cls-19{fill:url(#MENU_BORDER_SQUARE-11);}.cls-20{fill:url(#MENU_BORDER_SQUARE);}.cls-21{fill:url(#Nowa_próbka_gradientu_3-6);}.cls-22{fill:url(#MENU_BORDER_SQUARE-3);}.cls-23{fill:url(#Nowa_próbka_gradientu_3-2);}.cls-24{fill:url(#MENU_BORDER_SQUARE-12);}.cls-25{fill:url(#MENU_BORDER_SQUARE-5);}</style><radialGradient id="Gradient_bez_nazwy_648" cx="269.384" cy="62.148" fx="269.384" fy="62.148" r="324.931" gradientUnits="userSpaceOnUse"><stop offset="0" stop-color="#ffcb7e"/><stop offset=".211" stop-color="#cfa566"/><stop offset=".244" stop-color="#d8ac6a"/><stop offset=".363" stop-color="#f4c278"/><stop offset=".432" stop-color="#ffcb7e"/><stop offset=".489" stop-color="#f8c57a"/><stop offset=".573" stop-color="#e4b570"/><stop offset=".666" stop-color="#c79e62"/><stop offset=".802" stop-color="#e5b671"/><stop offset=".918" stop-color="#f8c57a"/><stop offset="1" stop-color="#ffcb7e"/></radialGradient><radialGradient id="Nowa_próbka_gradientu_3" cx="269.384" cy="62.148" fx="269.384" fy="62.148" r="195.487" gradientUnits="userSpaceOnUse"><stop offset=".005" stop-color="#8c6239"/><stop offset=".481" stop-color="#895f36"/><stop offset=".786" stop-color="#80572e"/><stop offset="1" stop-color="#754c24"/></radialGradient><radialGradient id="Nowa_próbka_gradientu_3-2" cx="269.384" cy="62.148" fx="269.384" fy="62.148" r="189.078" xlink:href="#Nowa_próbka_gradientu_3"/><filter id="drop-shadow-1" x="15.019" y="40.45" width="106" height="97" filterUnits="userSpaceOnUse"><feOffset dx="7" dy="7"/><feGaussianBlur result="blur" stdDeviation="8"/><feFlood flood-color="#000" flood-opacity=".15"/><feComposite in2="blur" operator="in"/><feComposite in="SourceGraphic"/></filter><radialGradient id="MENU_BORDER_SQUARE" cx="79.56" cy="87.144" fx="79.56" fy="87.144" r="12.982" gradientTransform="translate(0 -87.144) scale(1 2)" gradientUnits="userSpaceOnUse"><stop offset="0" stop-color="#ffcb7e"/><stop offset=".262" stop-color="#fbc87c"/><stop offset=".483" stop-color="#f1c077"/><stop offset=".688" stop-color="#dfb26e"/><stop offset=".883" stop-color="#c79e62"/><stop offset="1" stop-color="#b59059"/></radialGradient><radialGradient id="MENU_BORDER_SQUARE-2" cx="55.774" cy="81.942" fx="55.774" fy="81.942" r="23.539" gradientTransform="translate(0 -81.942) scale(1 2)" xlink:href="#MENU_BORDER_SQUARE"/><radialGradient id="MENU_BORDER_SQUARE-3" cx="78.081" cy="66.56" fx="78.081" fy="66.56" r="7.878" gradientTransform="translate(0 -66.56) scale(1 2)" xlink:href="#MENU_BORDER_SQUARE"/><filter id="drop-shadow-2" x="431.019" y="40.45" width="106" height="97" filterUnits="userSpaceOnUse"><feOffset dx="7" dy="7"/><feGaussianBlur result="blur-2" stdDeviation="8"/><feFlood flood-color="#000" flood-opacity=".15"/><feComposite in2="blur-2" operator="in"/><feComposite in="SourceGraphic"/></filter><radialGradient id="MENU_BORDER_SQUARE-4" cx="322.995" cy="87.144" fx="322.995" fy="87.144" r="12.982" gradientTransform="translate(781.473 -87.144) rotate(-180) scale(1 -2)" xlink:href="#MENU_BORDER_SQUARE"/><radialGradient id="MENU_BORDER_SQUARE-5" cx="299.209" cy="81.942" fx="299.209" fy="81.942" r="23.539" gradientTransform="translate(781.473 -81.942) rotate(-180) scale(1 -2)" xlink:href="#MENU_BORDER_SQUARE"/><radialGradient id="MENU_BORDER_SQUARE-6" cx="321.516" cy="66.56" fx="321.516" fy="66.56" r="7.878" gradientTransform="translate(781.473 -66.56) rotate(-180) scale(1 -2)" xlink:href="#MENU_BORDER_SQUARE"/><radialGradient id="Nowa_próbka_gradientu_3-3" cx="119.018" cy="82.149" fx="119.018" fy="82.149" r="29.25" xlink:href="#Nowa_próbka_gradientu_3"/><radialGradient id="MENU_BORDER_SQUARE-7" cx="119.019" cy="82.148" fx="119.019" fy="82.148" r="30" gradientTransform="translate(0 -575.039) scale(1 8)" xlink:href="#MENU_BORDER_SQUARE"/><radialGradient id="Nowa_próbka_gradientu_3-4" cx="179.018" cy="82.149" fx="179.018" fy="82.149" r="29.25" xlink:href="#Nowa_próbka_gradientu_3"/><radialGradient id="MENU_BORDER_SQUARE-8" cx="179.019" cy="82.148" fx="179.019" fy="82.148" r="30" gradientTransform="translate(0 -575.039) scale(1 8)" xlink:href="#MENU_BORDER_SQUARE"/><radialGradient id="Nowa_próbka_gradientu_3-5" cx="239.018" cy="82.149" fx="239.018" fy="82.149" r="29.25" xlink:href="#Nowa_próbka_gradientu_3"/><radialGradient id="MENU_BORDER_SQUARE-9" cx="239.019" cy="82.148" fx="239.019" fy="82.148" r="30" gradientTransform="translate(0 -575.039) scale(1 8)" xlink:href="#MENU_BORDER_SQUARE"/><radialGradient id="Nowa_próbka_gradientu_3-6" cx="299.019" cy="82.149" fx="299.019" fy="82.149" r="29.25" xlink:href="#Nowa_próbka_gradientu_3"/><radialGradient id="MENU_BORDER_SQUARE-10" cx="299.019" cy="82.148" fx="299.019" fy="82.148" r="30" gradientTransform="translate(0 -575.039) scale(1 8)" xlink:href="#MENU_BORDER_SQUARE"/><radialGradient id="Nowa_próbka_gradientu_3-7" cx="359.019" cy="82.149" fx="359.019" fy="82.149" r="29.25" xlink:href="#Nowa_próbka_gradientu_3"/><radialGradient id="MENU_BORDER_SQUARE-11" cx="359.019" cy="82.148" fx="359.019" fy="82.148" r="30" gradientTransform="translate(0 -575.039) scale(1 8)" xlink:href="#MENU_BORDER_SQUARE"/><radialGradient id="Nowa_próbka_gradientu_3-8" cx="419.019" cy="82.149" fx="419.019" fy="82.149" r="29.25" xlink:href="#Nowa_próbka_gradientu_3"/><radialGradient id="MENU_BORDER_SQUARE-12" cx="419.019" cy="82.148" fx="419.019" fy="82.148" r="30" gradientTransform="translate(0 -575.039) scale(1 8)" xlink:href="#MENU_BORDER_SQUARE"/></defs><g id="PlayerMenu"><g id="menuBackground"><path class="cls-2" d="M516.966,124.296H21.802c0-12.041-9.761-21.802-21.802-21.802V21.802c12.041,0,21.802-9.761,21.802-21.802h495.163c0,12.041,9.761,21.802,21.802,21.802v80.691c-12.041,0-21.802,9.761-21.802,21.802Z"/><path class="cls-18" d="M513.443,3.805c1.658,11.08,10.441,19.863,21.52,21.52v73.646c-11.08,1.658-19.863,10.44-21.52,21.52H25.325c-1.658-11.08-10.44-19.863-21.52-21.52V25.325c11.08-1.658,19.863-10.44,21.52-21.52h488.118M516.966,0H21.802C21.802,12.041,12.041,21.802,0,21.802v80.691c12.041,0,21.802,9.761,21.802,21.802h495.163c0-12.041,9.761-21.802,21.802-21.802V21.802C526.727,21.802,516.966,12.041,516.966,0h0Z"/><path class="cls-23" d="M510.354,7.609H28.413c-2.711,10.114-10.69,18.094-20.805,20.805v67.469c10.114,2.711,18.094,10.69,20.805,20.804h481.941c2.711-10.114,10.69-18.093,20.805-20.804V28.414c-10.115-2.711-18.094-10.69-20.805-20.805h0Z"/></g><g id="hpZero"><g id="hp_additional"><path class="cls-17" d="M34.618,49.146c-.146-.998-.937-1.789-1.934-1.935v-12.799c.998-.146,1.789-.937,1.934-1.934h468.801c.146.998.938,1.789,1.935,1.934v12.799c-.997.146-1.789.937-1.935,1.935H34.618Z"/><path class="cls-9" d="M503.148,32.811c.239.913.96,1.633,1.873,1.873v12.257c-.913.24-1.633.96-1.873,1.873H34.889c-.239-.913-.96-1.633-1.873-1.873v-12.257c.913-.239,1.633-.96,1.873-1.873h468.259M503.728,32.146H34.31c0,1.081-.877,1.958-1.958,1.958v13.417c1.081,0,1.958.877,1.958,1.958h469.419c0-1.081.877-1.958,1.958-1.958v-13.417c-1.081,0-1.958-.877-1.958-1.958h0Z"/><path class="cls-9" d="M502.552,33.676c.342.699.905,1.262,1.604,1.604v11.064c-.699.342-1.262.905-1.604,1.605H35.486c-.342-.7-.905-1.263-1.604-1.605v-11.064c.699-.342,1.262-.905,1.604-1.604h467.066M502.679,33.476H35.359c-.331.746-.931,1.346-1.677,1.677v11.318c.746.331,1.346.932,1.677,1.677h467.32c.331-.746.932-1.346,1.677-1.677v-11.318c-.745-.331-1.346-.931-1.677-1.677h0Z"/></g></g><g id="expZero"><path class="cls-17" d="M34.618,29.148c-.146-.998-.937-1.789-1.934-1.934v-12.799c.998-.146,1.789-.937,1.934-1.935h468.801c.146.998.938,1.789,1.935,1.935v12.799c-.997.146-1.789.937-1.935,1.934H34.618Z"/><path class="cls-9" d="M503.148,12.813c.239.913.96,1.633,1.873,1.873v12.257c-.913.24-1.633.96-1.873,1.873H34.889c-.239-.913-.96-1.633-1.873-1.873v-12.257c.913-.239,1.633-.96,1.873-1.873h468.259M503.728,12.148H34.31c0,1.081-.877,1.958-1.958,1.958v13.417c1.081,0,1.958.877,1.958,1.958h469.419c0-1.081.877-1.958,1.958-1.958v-13.417c-1.081,0-1.958-.877-1.958-1.958h0Z"/><path class="cls-9" d="M502.552,13.678c.342.699.905,1.262,1.604,1.605v11.064c-.699.342-1.262.905-1.604,1.604H35.486c-.342-.699-.905-1.262-1.604-1.604v-11.064c.699-.342,1.262-.905,1.604-1.605h467.066M502.679,13.478H35.359c-.331.746-.931,1.346-1.677,1.677v11.318c.746.331,1.346.931,1.677,1.677h467.32c.331-.746.932-1.346,1.677-1.677v-11.318c-.745-.331-1.346-.932-1.677-1.677h0Z"/></g><g id="fastActionsDetailsLeft" class="cls-12"><path class="cls-20" d="M89.466,71.685c-.091.021-.188.04-.279.061-.237.05-.474.101-.711.153-.235.058-.472.11-.709.163-4.84,1.095-9.308,2.219-13.355,3.241-.563.145-1.13.286-1.679.422-.585.153-1.154.296-1.719.43-.003.001-.006.003-.009.004-.46.122-.906.23-1.352.341,3.205,6.325,6.41,12.65,9.615,18.975.08.158.16.315.24.473.083.164.166.328.249.492,1.041,2.054,2.081,4.107,3.122,6.161,2.031-.43,4.236-.902,6.587-1.392v-29.524Z"/><path class="cls-14" d="M79.093,58.186c-3.181,2.443-6.437,4.416-9.992,6.056-4.872,2.252-9.688,3.586-14.383,5.106-4.665,1.51-9.091,3.152-13.346,6.039-3.474,2.363-6.441,5.351-8.918,9.009,5.816-.249,9.827.343,17.273,2.43.221.064.441.129.661.194-.029.227-.057.453-.084.68-.818,6.873-1.016,10.836-.397,18.001,1.699-2.229,3.667-4.118,5.901-5.678,4.591-3.191,9.53-4.497,14.214-5.494,1.698-.361,3.353-.682,4.969-1.04-3.43-6.625-6.86-13.25-10.29-19.874.009-.005.022-.003.03-.008-.011-.002-.012-.002-.024-.003,6.097-5.265,9.54-7.938,14.386-15.416Z"/><path class="cls-22" d="M70.48,73.765c4.687-1.172,10.083-2.564,16.098-3.925-1.316-3.495-2.632-6.991-3.948-10.486-4.584,6.982-7.967,10.028-13.045,14.333.303.026.606.053.896.079Z"/></g><g id="fastActionsDetailsRight" class="cls-4"><path class="cls-6" d="M448.571,71.685c.091.021.187.04.279.061.237.05.474.101.711.153.235.058.472.11.709.163,4.84,1.095,9.308,2.219,13.355,3.241.563.145,1.13.286,1.679.422.585.153,1.154.296,1.719.43.003.001.006.003.009.004.46.122.906.23,1.352.341-3.205,6.325-6.41,12.65-9.615,18.975-.08.158-.16.315-.24.473-.083.164-.166.328-.249.492-1.041,2.054-2.081,4.107-3.122,6.161-2.031-.43-4.236-.902-6.587-1.392v-29.524Z"/><path class="cls-25" d="M458.944,58.186c3.181,2.443,6.437,4.416,9.992,6.056,4.872,2.252,9.688,3.586,14.383,5.106,4.665,1.51,9.091,3.152,13.346,6.039,3.474,2.363,6.441,5.351,8.918,9.009-5.816-.249-9.827.343-17.273,2.43-.221.064-.441.129-.661.194.029.227.057.453.084.68.818,6.873,1.016,10.836.397,18.001-1.699-2.229-3.667-4.118-5.901-5.678-4.591-3.191-9.53-4.497-14.214-5.494-1.698-.361-3.353-.682-4.969-1.04,3.43-6.625,6.86-13.25,10.29-19.874-.009-.005-.022-.003-.03-.008.011-.002.012-.002.024-.003-6.097-5.265-9.54-7.938-14.386-15.416Z"/><path class="cls-16" d="M467.558,73.765c-4.687-1.172-10.083-2.564-16.098-3.925,1.316-3.495,2.632-6.991,3.948-10.486,4.584,6.982,7.967,10.028,13.045,14.333-.303.026-.606.053-.896.079Z"/></g><g id="fastAction1Frame"><path class="cls-13" d="M96.168,111.399c-.351-3.366-3.034-6.049-6.4-6.399v-45.701c3.366-.351,6.049-3.034,6.4-6.399h45.701c.351,3.366,3.034,6.049,6.399,6.399v45.701c-3.366.351-6.049,3.034-6.399,6.399h-45.701Z"/><path class="cls-5" d="M140.853,54.106c.733,3.061,3.148,5.475,6.208,6.208v43.669c-3.06.733-5.475,3.148-6.208,6.208h-43.669c-.733-3.061-3.148-5.475-6.208-6.208v-43.669c3.061-.734,5.475-3.148,6.208-6.208h43.669M142.58,52.148h-47.123c0,3.556-2.883,6.439-6.439,6.439v47.123c3.556,0,6.439,2.883,6.439,6.439h47.123c0-3.556,2.883-6.439,6.439-6.439v-47.123c-3.556,0-6.439-2.883-6.439-6.439h0Z"/><path class="cls-9" d="M139.048,56.65c1.094,2.411,3.058,4.374,5.469,5.469v40.059c-2.411,1.094-4.374,3.058-5.469,5.469h-40.059c-1.094-2.411-3.058-4.374-5.469-5.469v-40.059c2.411-1.094,4.375-3.058,5.469-5.469h40.059M139.434,56.063h-40.831c-1.052,2.565-3.105,4.618-5.67,5.67v40.831c2.565,1.052,4.619,3.104,5.67,5.67h40.831c1.052-2.565,3.104-4.618,5.67-5.67v-40.831c-2.565-1.052-4.618-3.104-5.67-5.67h0Z"/></g><g id="fastAction2Frame"><path class="cls-1" d="M156.168,111.399c-.351-3.366-3.034-6.049-6.4-6.399v-45.701c3.366-.351,6.049-3.034,6.4-6.399h45.701c.351,3.366,3.034,6.049,6.399,6.399v45.701c-3.366.351-6.049,3.034-6.399,6.399h-45.701Z"/><path class="cls-8" d="M200.853,54.106c.734,3.061,3.148,5.475,6.208,6.208v43.669c-3.061.734-5.475,3.148-6.208,6.208h-43.669c-.734-3.061-3.148-5.475-6.208-6.208v-43.669c3.061-.734,5.475-3.148,6.208-6.208h43.669M202.58,52.148h-47.123c0,3.556-2.883,6.439-6.439,6.439v47.123c3.556,0,6.439,2.883,6.439,6.439h47.123c0-3.556,2.883-6.439,6.439-6.439v-47.123c-3.556,0-6.439-2.883-6.439-6.439h0Z"/><path class="cls-9" d="M199.048,56.65c1.094,2.411,3.058,4.374,5.469,5.469v40.059c-2.411,1.094-4.374,3.058-5.469,5.469h-40.059c-1.094-2.411-3.058-4.374-5.469-5.469v-40.059c2.411-1.094,4.375-3.058,5.469-5.469h40.059M199.434,56.063h-40.831c-1.052,2.565-3.105,4.618-5.67,5.67v40.831c2.565,1.052,4.619,3.104,5.67,5.67h40.831c1.052-2.565,3.104-4.618,5.67-5.67v-40.831c-2.565-1.052-4.618-3.104-5.67-5.67h0Z"/></g><g id="fastAction3Frame"><path class="cls-11" d="M216.168,111.399c-.351-3.366-3.034-6.049-6.4-6.399v-45.701c3.366-.351,6.049-3.034,6.4-6.399h45.701c.351,3.366,3.034,6.049,6.399,6.399v45.701c-3.366.351-6.049,3.034-6.399,6.399h-45.701Z"/><path class="cls-15" d="M260.853,54.106c.733,3.061,3.148,5.475,6.208,6.208v43.669c-3.06.733-5.475,3.148-6.208,6.208h-43.669c-.733-3.061-3.148-5.475-6.208-6.208v-43.669c3.061-.734,5.475-3.148,6.208-6.208h43.669M262.58,52.148h-47.123c0,3.556-2.883,6.439-6.439,6.439v47.123c3.556,0,6.439,2.883,6.439,6.439h47.123c0-3.556,2.883-6.439,6.439-6.439v-47.123c-3.556,0-6.439-2.883-6.439-6.439h0Z"/><path class="cls-9" d="M259.048,56.65c1.094,2.411,3.057,4.374,5.469,5.469v40.059c-2.411,1.094-4.374,3.057-5.469,5.469h-40.059c-1.094-2.411-3.058-4.374-5.469-5.469v-40.059c2.411-1.094,4.375-3.058,5.469-5.469h40.059M259.434,56.063h-40.831c-1.052,2.565-3.105,4.618-5.67,5.67v40.831c2.565,1.052,4.619,3.104,5.67,5.67h40.831c1.052-2.565,3.104-4.618,5.67-5.67v-40.831c-2.565-1.052-4.618-3.104-5.67-5.67h0Z"/></g><g id="fastAction4Frame"><path class="cls-21" d="M276.168,111.399c-.351-3.366-3.034-6.049-6.4-6.399v-45.701c3.366-.351,6.049-3.034,6.4-6.399h45.701c.351,3.366,3.033,6.049,6.399,6.399v45.701c-3.366.351-6.049,3.034-6.399,6.399h-45.701Z"/><path class="cls-10" d="M320.853,54.106c.734,3.061,3.148,5.475,6.208,6.208v43.669c-3.061.734-5.475,3.148-6.208,6.208h-43.669c-.734-3.061-3.148-5.475-6.208-6.208v-43.669c3.061-.734,5.475-3.148,6.208-6.208h43.669M322.58,52.148h-47.123c0,3.556-2.883,6.439-6.439,6.439v47.123c3.556,0,6.439,2.883,6.439,6.439h47.123c0-3.556,2.883-6.439,6.439-6.439v-47.123c-3.556,0-6.439-2.883-6.439-6.439h0Z"/><path class="cls-9" d="M319.049,56.65c1.093,2.411,3.057,4.374,5.469,5.469v40.059c-2.412,1.094-4.375,3.057-5.469,5.469h-40.06c-1.093-2.411-3.056-4.374-5.469-5.469v-40.059c2.412-1.095,4.375-3.058,5.469-5.469h40.06M319.435,56.063h-40.832c-1.051,2.565-3.104,4.618-5.67,5.67v40.831c2.565,1.052,4.619,3.104,5.67,5.67h40.832c1.051-2.565,3.104-4.618,5.67-5.67v-40.831c-2.566-1.052-4.619-3.104-5.67-5.67h0Z"/></g><g id="fastAction5Frame"><path class="cls-3" d="M336.168,111.399c-.351-3.366-3.033-6.049-6.399-6.399v-45.701c3.366-.351,6.049-3.034,6.399-6.399h45.701c.351,3.366,3.033,6.049,6.399,6.399v45.701c-3.366.351-6.049,3.034-6.399,6.399h-45.701Z"/><path class="cls-19" d="M380.853,54.106c.734,3.061,3.148,5.475,6.208,6.208v43.669c-3.061.734-5.475,3.148-6.208,6.208h-43.669c-.734-3.061-3.148-5.475-6.208-6.208v-43.669c3.061-.734,5.475-3.148,6.208-6.208h43.669M382.58,52.148h-47.123c0,3.556-2.883,6.439-6.439,6.439v47.123c3.556,0,6.439,2.883,6.439,6.439h47.123c0-3.556,2.883-6.439,6.439-6.439v-47.123c-3.556,0-6.439-2.883-6.439-6.439h0Z"/><path class="cls-9" d="M379.049,56.65c1.094,2.411,3.057,4.374,5.469,5.469v40.059c-2.412,1.094-4.375,3.057-5.469,5.469h-40.06c-1.094-2.411-3.057-4.374-5.469-5.469v-40.059c2.412-1.094,4.375-3.058,5.469-5.469h40.06M379.435,56.063h-40.832c-1.051,2.565-3.104,4.618-5.67,5.67v40.831c2.566,1.052,4.619,3.104,5.67,5.67h40.832c1.051-2.565,3.104-4.618,5.67-5.67v-40.831c-2.566-1.052-4.619-3.104-5.67-5.67h0Z"/></g><g id="fastAction6Frame"><path class="cls-7" d="M396.168,111.399c-.351-3.366-3.033-6.049-6.399-6.399v-45.701c3.366-.351,6.049-3.034,6.399-6.399h45.701c.351,3.366,3.033,6.049,6.399,6.399v45.701c-3.366.351-6.049,3.034-6.399,6.399h-45.701Z"/><path class="cls-24" d="M440.853,54.106c.734,3.061,3.148,5.475,6.208,6.208v43.669c-3.061.734-5.475,3.148-6.208,6.208h-43.669c-.734-3.061-3.148-5.475-6.208-6.208v-43.669c3.061-.734,5.475-3.148,6.208-6.208h43.669M442.58,52.148h-47.123c0,3.556-2.883,6.439-6.439,6.439v47.123c3.556,0,6.439,2.883,6.439,6.439h47.123c0-3.556,2.883-6.439,6.439-6.439v-47.123c-3.556,0-6.439-2.883-6.439-6.439h0Z"/><path class="cls-9" d="M439.049,56.65c1.094,2.411,3.057,4.374,5.469,5.469v40.059c-2.412,1.094-4.375,3.057-5.469,5.469h-40.06c-1.094-2.411-3.057-4.374-5.469-5.469v-40.059c2.412-1.094,4.375-3.058,5.469-5.469h40.06M439.435,56.063h-40.832c-1.051,2.565-3.104,4.618-5.67,5.67v40.831c2.566,1.052,4.619,3.104,5.67,5.67h40.832c1.051-2.565,3.104-4.618,5.67-5.67v-40.831c-2.566-1.052-4.619-3.104-5.67-5.67h0Z"/></g></g></svg>