<?xml version="1.0" encoding="UTF-8"?><svg id="Warstwa_2" xmlns="http://www.w3.org/2000/svg" xmlns:xlink="http://www.w3.org/1999/xlink" viewBox="0 0 28.158735 37.582969"><defs><radialGradient id="MENU_BORDER_SQUARE" cx="25.020898" cy="-3.506997" fx="25.020898" fy="-3.506997" r="18.392539" gradientTransform="translate(-7.200827 42.663204) scale(.850861 6.806884)" gradientUnits="userSpaceOnUse"><stop offset="0" stop-color="#ffcb7e"/><stop offset=".262059" stop-color="#fbc87c"/><stop offset=".482601" stop-color="#f1c077"/><stop offset=".688148" stop-color="#dfb26e"/><stop offset=".883389" stop-color="#c79e62"/><stop offset="1" stop-color="#b59059"/></radialGradient><radialGradient id="Nowa_próbka_gradientu_3" cx="14.079367" cy="18.791484" fx="14.079367" fy="18.791484" r="16.60344" gradientTransform="translate(0 -131.54039) scale(1 8)" gradientUnits="userSpaceOnUse"><stop offset=".00455" stop-color="#8c6239"/><stop offset=".48127" stop-color="#895f36"/><stop offset=".786046" stop-color="#80572e"/><stop offset="1" stop-color="#754c24"/></radialGradient></defs><g id="Warstwa_4"><g id="Minimap"><path id="northShape" d="M8.880825,28.643711c1.07019,3.304749,2.352661,6.995789,4.244873,7.917603l-.000366.071655h1.605957l.000244-.049438c1.932861-.869812,3.270752-4.549866,4.401123-7.858093,1.301025-3.791565,4.137207-10.456665,8.051392-9.162903-.089111-4.806396-6.155518-5.613037-8.304199-4.746948.427612-7.746948-4.627686-13.895203-4.650024-13.865479-.026001-.025635-5.170898,6.044312-4.858276,13.779907-2.144897-.891907-8.222656-.185791-8.378662,4.616821,3.921631-1.223145,6.653564,5.483276,7.887939,9.296875Z" style="fill:url(#MENU_BORDER_SQUARE); stroke:url(#Nowa_próbka_gradientu_3); stroke-miterlimit:10; stroke-width:1.9px;"/><g id="northText" style="isolation:isolate;"><text transform="translate(10.243884 26.43698)" style="fill:#603813; font-family:Hobeaux-Bold, Hobeaux; font-size:11px; font-weight:700; isolation:isolate;"><tspan x="0" y="0">N</tspan></text></g></g></g></svg>