<?xml version="1.0" encoding="UTF-8"?><svg id="Warstwa_2" xmlns="http://www.w3.org/2000/svg" xmlns:xlink="http://www.w3.org/1999/xlink" viewBox="0 0 118.779413 118.223222"><defs><radialGradient id="Gradient_bez_nazwy_166" cx="57.515512" cy="97.875994" fx="57.515512" fy="97.875994" r="80.68898" gradientTransform="translate(17.155419 -12.759814) scale(.734311)" gradientUnits="userSpaceOnUse"><stop offset="0" stop-color="#ffcb7e"/><stop offset=".262059" stop-color="#fbc87c"/><stop offset=".482601" stop-color="#f1c077"/><stop offset=".688148" stop-color="#dfb26e"/><stop offset=".883389" stop-color="#c79e62"/><stop offset="1" stop-color="#b59059"/></radialGradient><radialGradient id="Nowa_próbka_gradientu_3" cx="59.389707" cy="59.111611" fx="59.389707" fy="59.111611" r="59.250822" gradientTransform="translate(0 -413.781081) scale(1 7.999997)" gradientUnits="userSpaceOnUse"><stop offset=".00455" stop-color="#8c6239"/><stop offset=".48127" stop-color="#895f36"/><stop offset=".786046" stop-color="#80572e"/><stop offset="1" stop-color="#754c24"/></radialGradient><radialGradient id="Nowa_próbka_gradientu_3-2" cx="59.395307" cy="59.111527" fx="59.395307" fy="59.111527" r="51.462969" gradientTransform="translate(0 -.0001)" xlink:href="#Nowa_próbka_gradientu_3"/></defs><g id="Warstwa_2-2"><path d="M2.627966,36.117393c-4.308093,6.725643-2.89313,16.026672,1.166374,22.602371,3.636312,6.028251,9.905207,10.457385,14.279529,16.340542,4.091883,5.268916,6.520201,11.611049,7.695138,18.138644.971756,4.99265,1.547478,10.369546,4.014423,14.820564,3.966472,7.550373,13.613192,11.387422,21.857753,9.88013,5.063276-.797204,9.337903-3.986665,13.345615-7.155073,14.782216-12.335029,19.598371-4.918814,34.084139-9.208793,7.548558-2.795299,13.45511-9.38155,16.640438-16.620223,3.321793-7.433081,4.335236-16.236626,1.080712-23.855297-3.616194-8.276247-10.885242-14.932226-13.95626-23.647235-3.023709-7.060965-2.876348-15.073142-5.519208-22.202788C91.488396.451407,70.333296-2.956018,56.877505,2.360047c-10.390454,4.551431-16.322002,15.270297-26.541586,20.234404-8.838897,5.170139-21.814269,5.213144-27.636405,13.416144l-.071548.106798Z" style="fill:url(#Gradient_bez_nazwy_166);"/><path d="M70.054561,3.89412c8.572327,0,19.895508,3.328995,23.625504,12.709564,1.107162,3.00177,1.683319,6.257538,2.293228,9.703827.730377,4.127045,1.485428,8.393341,3.232544,12.520294,1.844177,5.167114,4.906784,9.525055,7.8694,13.740906,2.388824,3.399353,4.645203,6.610199,6.135773,10.021301,2.550629,5.970886,2.166122,13.529144-1.06395,20.75708-3.0065,6.832336-8.348785,12.240143-14.309235,14.49231-4.277527,1.249908-7.551361,1.355438-10.538864,1.355438-.467255,0-.927872-.003052-1.38353-.006104-.462891-.003052-.920868-.006042-1.375519-.006042-6.433502,0-12.530518.642548-22.007301,8.537994-3.771149,2.979919-7.489067,5.701141-11.497101,6.332245l-.047447.007446-.047226.008636c-.943901.172577-1.93045.260071-2.932251.260071-6.287399,0-12.22612-3.263428-14.777771-8.120575l-.020279-.038574-.021126-.038177c-1.697723-3.06308-2.366798-6.832397-3.07515-10.823029-.168655-.950165-.336617-1.895386-.517784-2.827698-1.391129-7.70639-4.224777-14.360352-8.421928-19.776855-2.093109-2.808807-4.513222-5.242767-6.854012-7.596985-2.77895-2.794861-5.403774-5.434753-7.21265-8.433044-3.072636-4.977203-4.761211-12.859406-1.220665-18.425262l.015675-.023407c2.842506-3.965393,8.396095-5.677582,14.274895-7.490295,4.062981-1.252808,8.262886-2.547882,11.993996-4.703674,5.44593-2.677124,9.647591-6.684479,13.712479-10.561157,4.014061-3.828201,7.80619-7.444916,12.490685-9.514771,3.442482-1.348801,7.47921-2.061462,11.679611-2.061462M70.054561,0C65.387958,0,60.804851.808442,56.877513,2.360047c-10.390472,4.551422-16.322021,15.270309-26.541603,20.23439-8.838898,5.170166-21.814247,5.213165-27.636398,13.416168l-.071548.106781c-4.308102,6.725647-2.893124,16.026672,1.166374,22.602386,3.636326,6.028229,9.905201,10.457367,14.279526,16.340546,4.091904,5.26889,6.520203,11.611023,7.695152,18.138641.971748,4.992645,1.54747,10.369537,4.01442,14.820557,3.394409,6.461426,10.949623,10.203705,18.225159,10.203705,1.226166,0,2.443512-.106171,3.632591-.323578,5.063278-.797211,9.337906-3.986664,13.345604-7.15506,8.602814-7.17865,13.830772-7.667755,19.553123-7.667755.902008,0,1.817291.012146,2.759064.012146,3.349747,0,7.045334-.153412,11.771957-1.553192,7.548553-2.795319,13.455109-9.381561,16.640427-16.620239,3.321808-7.433075,4.335251-16.236603,1.080734-23.855286-3.616211-8.276245-10.885254-14.93222-13.956253-23.647247-3.023727-7.060944-2.876358-15.07312-5.519226-22.202789C93.189479,4.759065,81.376582,0,70.054561,0h0Z" style="fill:url(#Nowa_próbka_gradientu_3);"/><path d="M70.05405,8.956254c6.962631,0,16.09182,2.482071,18.892738,9.442841.940201,2.56842,1.475342,5.590881,2.041885,8.79071.7715,4.360718,1.569336,8.869904,3.499115,13.477875,2.081268,5.755463,5.461838,10.565918,8.447235,14.813873,2.237274,3.184082,4.350464,6.191589,5.645813,9.156006,1.982315,4.640625,1.600891,10.699677-1.049179,16.6297-2.442917,5.551819-6.666946,9.947083-11.306473,11.768585-3.551468,1.011719-6.3573,1.09668-8.922287,1.09671l-2.762024-.012238c-7.153374,0-14.464142.740204-25.18644,9.659637-3.199203,2.526581-6.303017,4.831055-9.121315,5.274963l-.202538.034637c-.643616.117615-1.32373.177246-2.021446.177246-4.388367,0-8.622368-2.225769-10.302498-5.424194l-.089371-.165436c-1.2882-2.323608-1.885582-5.687286-2.518867-9.253082-.171516-.96817-.343063-1.931396-.524681-2.867462-1.536583-8.492706-4.690765-15.868958-9.362785-21.907806-2.3004-3.081818-4.83963-5.635864-7.300186-8.110779-2.557697-2.572052-4.97353-5.001465-6.453381-7.454346-2.326973-3.770477-3.537632-9.43869-1.367481-13.007568,1.901955-2.519989,6.603523-3.969208,11.579903-5.503296,4.280403-1.319916,8.706001-2.68457,12.887794-5.073639,6.071205-3.021088,10.719276-7.45401,14.820801-11.365784,3.654694-3.485626,7.107216-6.778427,10.945175-8.504028,2.837624-1.09465,6.201515-1.673126,9.730492-1.673126M70.05405,7.788041c-3.686516,0-7.203117.609375-10.180168,1.762711-4.032234,1.804169-7.564445,5.172836-11.301765,8.737289-4.052231,3.864746-8.63768,8.237793-14.564934,11.180176-4.077629,2.334961-8.450684,3.683594-12.681648,4.988281-5.18895,1.599609-10.09325,3.112305-12.203602,5.963379-2.455082,3.970215-1.215332,10.134766,1.341301,14.277344,1.545902,2.5625,4.009766,5.040527,6.619152,7.664551,2.428696,2.442871,4.939934,4.968262,7.192383,7.98584,4.568832,5.905762,7.646484,13.110352,9.149399,21.416992.183121.944336.353516,1.901367.523933,2.863281.650383,3.662109,1.264168,7.120605,2.647469,9.615723l.083.153809c1.86718,3.554688,6.526367,6.037598,11.330566,6.037598.767578,0,1.518066-.065918,2.231445-.196289l.188972-.032227c3.066399-.48291,6.313965-2.875977,9.648911-5.509766,10.442886-8.686523,17.53125-9.408203,24.46241-9.408203l2.756836.012207c2.669922,0,5.584961-.09082,9.30127-1.156738,4.946777-1.921387,9.414047-6.524902,12.001953-12.40625,2.779785-6.220215,3.154785-12.641602,1.054199-17.559082-1.34668-3.082031-3.493652-6.137207-5.766602-9.37207-2.94873-4.195801-6.285156-8.943848-8.312012-14.563477-1.887207-4.496094-2.675308-8.94873-3.4375-13.256836-.575684-3.251465-1.119629-6.32373-2.095215-8.98877-3.030777-7.533691-12.651855-10.209473-19.989754-10.209473h0Z" style="fill:url(#Nowa_próbka_gradientu_3-2);"/></g></svg>