<?xml version="1.0" encoding="UTF-8"?><svg id="Warstwa_2" xmlns="http://www.w3.org/2000/svg" xmlns:xlink="http://www.w3.org/1999/xlink" viewBox="0 0 117.901222 117.879273"><defs><radialGradient id="MENU_BORDER_SQUARE" cx="70.610611" cy="195.509891" fx="70.610611" fy="195.509891" r="71.866678" gradientTransform="translate(4.216985 -1308.335143) scale(.775147 6.993379)" gradientUnits="userSpaceOnUse"><stop offset="0" stop-color="#ffcb7e"/><stop offset=".262059" stop-color="#fbc87c"/><stop offset=".482601" stop-color="#f1c077"/><stop offset=".688148" stop-color="#dfb26e"/><stop offset=".883389" stop-color="#c79e62"/><stop offset="1" stop-color="#b59059"/></radialGradient><radialGradient id="Nowa_próbka_gradientu_3" cx="58.950611" cy="58.939636" fx="58.950611" fy="58.939636" r="58.945124" gradientTransform="translate(0 -472.813793) scale(1 9.022001)" gradientUnits="userSpaceOnUse"><stop offset=".00455" stop-color="#8c6239"/><stop offset=".48127" stop-color="#895f36"/><stop offset=".786046" stop-color="#80572e"/><stop offset="1" stop-color="#754c24"/></radialGradient><radialGradient id="Nowa_próbka_gradientu_3-2" cx="58.947583" cy="58.939148" fx="58.947583" fy="58.939148" r="50.308664" gradientTransform="translate(0 -472.809876) scale(1 9.022001)" xlink:href="#Nowa_próbka_gradientu_3"/></defs><g id="Warstwa_2-2"><path d="M42.539416,2.977758c6.571026-.451344,13.416068-2.689852,20.178521-2.942838,22.593263-.892744,47.254689,15.43502,54.176664,37.129006,2.534276,8.464209-.204708,17.334118-2.837609,25.48864-5.729799,17.265495,2.574828,26.108912-.550474,39.664329-2.281819,8.764583-11.040813,13.534851-19.545801,14.814626-17.08226,3.232331-33.63091-5.097037-50.521544-4.511009-5.814141.169064-11.582479,1.284435-17.310545,2.16755-11.017265,1.910452-20.322202,1.611628-22.318616-11.510525-1.622667-9.505079,3.592156-18.700258,2.790691-28.187503-.422649-5.707113-3.158038-11.987779-4.811444-17.931454C-1.382675,46.758847.067267,35.290421,2.993419,24.541781,6.367967,11.096945,13.610157,3.716461,27.788376,2.986408c4.882472-.296188,9.790216.351758,14.628439-.000149l.122601-.008501Z" style="fill:url(#MENU_BORDER_SQUARE);"/><path d="M64.495942,0l-.000183,4.317535h.001183c20.600456,0,42.245735,15.303802,48.272514,34.121674,2.189407,7.368774-.472351,15.612061-2.810242,22.853455-3.536484,10.656433-2.22345,18.490356-1.064957,25.4021.851166,5.078186,1.586746,9.466492.419174,14.590698-1.868744,7.040222-9.481232,10.596436-15.995178,11.576599l-.080383.012085-.079895.015137c-2.391342.452454-4.855789.672424-7.534164.672424-6.378654,0-12.719048-1.246765-19.431679-2.566772-6.803925-1.337952-13.839447-2.721436-21.020531-2.72168-.627525,0-1.253685.010498-1.857895.031494-4.98497.144958-9.863159.933838-14.580734,1.696777-1.088898.176086-2.176292.35199-3.262238.519409l-.039948.006165-.039787.006897c-3.117531.540588-5.513161.792358-7.539215.792358-5.351681,0-8.666523-1.423279-9.773338-8.698242l-.005898-.038635-.006577-.038513c-.722607-4.232971.232471-8.663818,1.243656-13.354858.994499-4.61377,2.022869-9.384644,1.596844-14.424988-.329185-4.445068-1.811764-8.945435-3.245502-13.297607-.627655-1.905273-1.220497-3.704834-1.712105-5.472046l-.01429-.051392-.015579-.051086c-2.484367-8.145386-2.078629-18.031433,1.240372-30.223022l.011261-.041443.010448-.041626C10.291551,13.200195,16.326207,7.899872,28.04976,7.296051c.79937-.048492,1.656921-.072052,2.621658-.072052,1.342865,0,2.681923.044495,4.099609.091614,1.420654.047211,2.889679.096039,4.365578.096039,1.315155,0,2.490578-.038971,3.579735-.118225l.118919-.00824c3.338737-.22934,6.671211-.870117,9.893951-1.489838,3.540207-.680725,6.884079-1.3237,10.159157-1.446259.529442-.020905,1.069969-.031525,1.606552-.031555L64.495942,0M64.494698,0c-.592674.000031-1.186546.011597-1.776756.034912-6.762474.252991-13.607498,2.491516-20.17852,2.942841l-.122612.008514c-1.090248.079315-2.183968.107849-3.280197.107849-2.811836,0-5.639473-.187683-8.465187-.187683-.961395,0-1.922897.021729-2.883057.079987C13.610154,3.716461,6.36797,11.096955,2.993417,24.541809.067262,35.290405-1.382686,46.75885,1.789262,57.15857c1.653393,5.943665,4.38879,12.224365,4.811447,17.931458.801472,9.487244-4.413368,18.682434-2.79071,28.1875,1.468559,9.652649,6.891384,12.366394,14.041779,12.366394,2.570152,0,5.363838-.350708,8.276855-.855835,5.72805-.883118,11.496391-1.998535,17.310547-2.167603.578346-.020081,1.154671-.029663,1.732254-.029663,13.534531.000427,26.867287,5.288452,40.452393,5.288452,2.766418,0,5.545792-.219604,8.336884-.747742,8.505005-1.279785,17.263992-6.050049,19.545807-14.814636,3.12529-13.55542-5.179306-22.398804.550476-39.664307,2.632904-8.154541,5.371902-17.024475,2.837616-25.488647C110.153459,16.036682,86.589814-.001098,64.494698,0h0Z" style="fill:url(#Nowa_próbka_gradientu_3);"/><path d="M64.494134,9.930206c18.309471,0,37.561485,13.537445,42.906105,30.145172,1.672119,5.697754-.700058,13.044189-2.789703,19.515808-3.953949,11.911987-2.455627,20.849731-1.251724,28.03125.777679,4.640625,1.392319,8.309021.505829,12.310303-1.227203,4.367065-6.893082,6.703735-11.405212,7.382385l-.344559.058838c-2.043549.386353-4.167053.574158-6.498962.574158-5.826416,0-11.89959-1.194214-18.342033-2.460999-7.067139-1.389893-14.374886-2.827148-22.102966-2.827148-.687317,0-1.385773.012146-2.068771.035767-5.296646.153503-10.352661.970581-15.275696,1.766235-1.072083.174194-2.142715.347473-3.227852.514465l-.16655.027832c-2.791534.484009-4.882538.709473-6.58535.709473-3.208916,0-3.621216,0-4.220818-3.941406l-.026833-.165955c-.5406-3.165649.264801-6.901245,1.198467-11.231812,1.030384-4.78186,2.198231-10.201843,1.699284-16.107544-.372467-5.041321-1.964569-9.874084-3.505367-14.551086-.606068-1.839478-1.178516-3.576965-1.639999-5.236084l-.064201-.218933c-2.166317-7.10199-1.744934-15.96991,1.291733-27.123657l.046467-.178223c2.486935-9.909363,6.588448-13.587402,15.684418-14.056061.752548-.045074,1.503563-.06604,2.363503-.06604,1.261032,0,2.548729.042816,3.938316.08902,1.457451.048401,2.964516.09848,4.523598.09848,1.450768,0,2.759903-.043945,3.996414-.133881l.079033-.005402c3.688004-.25293,7.191055-.926514,10.578888-1.577881,3.323128-.639252,6.461983-1.243011,9.301994-1.349304.477722-.018829.940384-.027771,1.40255-.027771M64.494134,8.634949c-.478996,0-.958496.009277-1.453613.028809-2.936035.109863-6.122063.722656-9.495598,1.371582-3.349602.644043-6.813469,1.310059-10.422852,1.557617l-.078613.005371c-1.208504.087891-2.486824.130859-3.908203.130859-1.546867,0-3.05175-.050293-4.506836-.098633-1.380363-.045898-2.684082-.088867-3.955078-.088867-.876953,0-1.649902.020996-2.440918.068359-9.666985.498047-14.237785,4.572266-16.863285,15.033691l-.043449.166504c-3.099117,11.382812-3.517101,20.48584-1.277351,27.828613l.060066.205078c.464352,1.669922,1.0415,3.421875,1.652836,5.277344,1.515614,4.600586,3.083,9.357422,3.443832,14.241211.483898,5.728516-.663082,11.048828-1.674801,15.744141-.960934,4.457031-1.790516,8.306641-1.208,11.717773l.024902.154297c.72998,4.798828,1.902832,5.030273,5.499516,5.030273h.004883c1.77343,0,3.935051-.231445,6.80175-.728516l.158203-.026367c1.072746-.165039,2.14698-.338867,3.222664-.513672,4.858383-.785156,9.882317-1.598633,15.105469-1.75.678215-.023438,1.353996-.035156,2.03125-.035156,7.601547,0,14.846664,1.424805,21.853012,2.802734,6.498604,1.277832,12.635536,2.485352,18.591988,2.485352h.007141c2.407227,0,4.609375-.195312,6.732422-.59668l.321289-.054688c4.897461-.736328,11.070801-3.363281,12.444824-8.344727.952148-4.260742.316895-8.051758-.485352-12.838867-1.180176-7.040039-2.648926-15.802734,1.203613-27.40918,2.150879-6.661133,4.587402-14.208984,2.803223-20.288574-5.516113-17.14209-25.30127-31.075684-44.148933-31.075684h0Z" style="fill:url(#Nowa_próbka_gradientu_3-2);"/></g></svg>