<?xml version="1.0" encoding="UTF-8"?><svg id="Warstwa_2" xmlns="http://www.w3.org/2000/svg" xmlns:xlink="http://www.w3.org/1999/xlink" viewBox="0 0 118.745278 118.121193"><defs><radialGradient id="MENU_BORDER_SQUARE" cx="43.20647" cy="187.601375" fx="43.20647" fy="187.601375" r="91.858008" gradientTransform="translate(31.322364 -901.676458) scale(.649215 5.121162)" gradientUnits="userSpaceOnUse"><stop offset="0" stop-color="#ffcb7e"/><stop offset=".262059" stop-color="#fbc87c"/><stop offset=".482601" stop-color="#f1c077"/><stop offset=".688148" stop-color="#dfb26e"/><stop offset=".883389" stop-color="#c79e62"/><stop offset="1" stop-color="#b59059"/></radialGradient><radialGradient id="Nowa_próbka_gradientu_3" cx="59.372639" cy="59.060593" fx="59.372639" fy="59.060593" r="59.216819" gradientTransform="translate(0 -413.42395) scale(1 7.999997)" gradientUnits="userSpaceOnUse"><stop offset=".00455" stop-color="#8c6239"/><stop offset=".48127" stop-color="#895f36"/><stop offset=".786046" stop-color="#80572e"/><stop offset="1" stop-color="#754c24"/></radialGradient><radialGradient id="Nowa_próbka_gradientu_3-2" cx="59.370766" cy="59.060547" fx="59.370766" fy="59.060547" r="51.429558" gradientTransform="translate(0 -413.42363) scale(1 7.999997)" xlink:href="#Nowa_próbka_gradientu_3"/></defs><g id="Warstwa_2-2"><path d="M111.7999,11.157565c6.865443,9.903245,6.212017,22.709267,6.923921,34.45702.502554,19.568014-7.995701,25.181937-7.379331,45.099416.390086,7.910672,2.23408,16.827439-5.000564,22.510489-4.028515,3.371028-9.306276,4.43202-12.088424,4.777546-5.903904.587186-8.669416-1.023351-17.380559-4.222443-4.030683-1.596189-8.128873-3.240042-12.119144-4.97908-1.54719-.625637-2.451283-1.267009-3.911083-1.583471-13.16719-1.936864-22.857213,8.047601-36.945385.183843C7.087327,98.224073,1.654167,78.800218.47115,61.269365c-1.86361-16.091154,1.54045-27.438945,14.909486-36.749616,5.031017-4.144366,10.082686-8.491091,14.690803-13.077713,3.738773-3.698303,8.240335-7.197502,13.665596-7.615931,5.068363-.4591,9.762362,1.118495,14.856221,1.966905,3.647561.619823,7.378207.785927,11.037708.208372,5.956112-.763536,11.354664-3.997551,17.028058-5.685969,8.183485-1.609472,19.970269,3.087536,25.072705,10.745231l.068172.096921Z" style="fill:url(#MENU_BORDER_SQUARE);"/><path d="M90.072067,0v3.894135c6.843964,0,14.934601,4.096375,18.419037,9.325806l.027054.040588.028061.039917.053375.075745c5.152924,7.432983,5.566589,17.303925,5.966644,26.849854.076462,1.824646.155518,3.710663.266388,5.554688.222061,9.018585-1.589935,14.805634-3.508072,20.931427-2.066513,6.599762-4.2034,13.424194-3.872314,24.122284l.001099.035675.001755.035645c.054916,1.113953.137421,2.245941.217194,3.340668.556824,7.640472.583405,12.524414-3.733871,15.915741l-.047348.037201-.046188.038635c-3.213425,2.688965-7.63884,3.593201-10.022507,3.893738-.658035.064148-1.256165.095337-1.826904.095337-2.930984,0-5.248886-.880707-9.86676-2.635284-1.155167-.438934-2.430298-.92337-3.865555-1.450806-3.638809-1.441132-7.857925-3.126221-11.951569-4.910309l-.047699-.020813-.048225-.019501c-.4356-.176147-.822975-.36142-1.233124-.557587-.902122-.431488-1.924652-.920532-3.312775-1.221466l-.128372-.027832-.129974-.019135c-1.337357-.196686-2.719803-.296478-4.108955-.296478-4.387001-.000061-8.317276.957489-12.118126,1.883514-3.419044.833008-6.648499,1.619812-9.915222,1.619812-3.320152,0-6.329872-.816803-9.504028-2.588379-12.751072-6.960175-19.953995-21.41925-21.408623-42.975616l-.006298-.093109-.010727-.092712c-1.840698-15.893158,1.878925-25.175262,13.266674-33.10611l.129074-.089874.121376-.100006c4.257027-3.506744,9.804802-8.190216,14.95343-13.314819,4.273621-4.227417,7.736023-6.232666,11.226494-6.501862l.025902-.002014.025902-.00235c.485397-.043945.991096-.066223,1.503052-.066223,2.583199,0,5.228798.557983,8.029747,1.148773,1.393898.293976,2.835251.597961,4.319801.845215,2.417397.410767,4.778252.61908,7.017021.61908,1.78846,0,3.546028-.132751,5.224869-.394623,4.172668-.544373,7.920784-2.07663,11.54586-3.558655,2.025925-.828247,3.942947-1.611969,5.855972-2.194397.769379-.138947,1.604889-.209351,2.486572-.209381L90.072067,0M90.070923,0c-1.184052.000092-2.330017.102631-3.41188.315399-5.673401,1.688446-11.071953,4.922455-17.028084,5.685974-1.548988.244476-3.11026.355682-4.673042.355682-2.129311,0-4.261032-.206573-6.364655-.564056-4.467712-.74411-8.627052-2.049011-13.001923-2.049011-.613144,0-1.231277.025696-1.854301.082123-5.425247.418427-9.926826,3.917633-13.665604,7.615936-4.608101,4.586609-9.659775,8.93335-14.690796,13.077698C2.011612,33.830414-1.392464,45.178223.471161,61.269379c1.183002,17.530853,6.616177,36.954681,23.428177,46.1315,4.09816,2.287537,7.82209,3.064453,11.369766,3.064453,7.529327,0,14.257217-3.503448,22.033302-3.503357,1.155457.000031,2.334404.077393,3.542305.255066,1.459801.316467,2.363899.957825,3.911072,1.583466,3.99028,1.739044,8.088478,3.382904,12.119156,4.979095,7.525482,2.763672,10.612839,4.341583,15.120529,4.341583.71019,0,1.456467-.039215,2.26004-.119141,2.782135-.34552,8.059906-1.406525,12.088425-4.777557,7.234634-5.683044,5.390625-14.599823,5.000549-22.510498-.616364-19.91748,7.881897-25.531403,7.379333-45.099396-.711899-11.747772-.058472-24.553772-6.923935-34.457031l-.068146-.096924C107.303848,4.415314,97.843277-.000397,90.070923,0h0Z" style="fill:url(#Nowa_próbka_gradientu_3);"/><path d="M90.070877,8.956299c5.147598,0,11.653625,3.237823,14.218124,7.086731l.181168.262177c4.28598,6.182709,4.65126,14.901825,5.037994,24.132812.072205,1.725311.154037,3.680847.264938,5.534241.191299,8.142181-1.417099,13.279022-3.279449,19.22699-2.089996,6.674194-4.458847,14.238892-4.101242,25.803223l.006302.152771c.057098,1.157074.142105,2.327393.224319,3.459442.524658,7.198608.336304,9.879242-1.82547,11.577576l-.202087.163879c-1.616135,1.352722-4.296417,2.35376-7.315048,2.742096-.472427.0448-.892838.066559-1.285233.066559-1.910004,0-3.459061-.553955-8.068222-2.305267l-.067062-.025452c-1.140442-.433075-2.396103-.909821-3.777313-1.417267-3.57328-1.415253-7.722649-3.072113-11.762268-4.83316l-.208229-.087372c-.307236-.123993-.573639-.252319-.8246-.372559l-.122101-.05838c-1.036102-.495728-2.455086-1.174622-4.422783-1.600983l-.256355-.055664-.038048-.00827-.038536-.005707-.26165-.038788c-1.581062-.232452-3.211395-.350311-4.845695-.350311-4.993736,0-9.413765,1.076599-13.31987,2.028015-3.114182.758514-6.055679,1.474945-8.713829,1.475403-2.421219,0-4.646736-.612793-7.013489-1.933838-11.175766-6.100739-17.517078-19.191559-18.847862-38.909637l-.012703-.186035-.001865-.027466-.003166-.027344-.0215-.185608c-1.610851-13.907867,1.406017-21.596863,11.131535-28.370056l.257812-.179657.0383-.026703.036072-.029694.243065-.200043c4.342453-3.576782,10.007584-8.359924,15.312698-13.640961,3.257935-3.222534,5.887321-4.869812,8.047432-5.036652l.109352-.009338c.3358-.030212.68792-.045563,1.046585-.045563,2.053497,0,4.336349.481354,7.005669,1.044128,1.439911.303497,2.928848.61734,4.521896.882751,2.682053.455475,5.320015.686401,7.840599.686401,2.029549,0,4.032837-.150482,5.92907-.443665,4.803795-.635376,9.027328-2.361847,12.760658-3.887939,1.799683-.735779,3.501389-1.431519,5.100586-1.939545.406479-.057251.850525-.086273,1.321503-.086273M90.070877,7.788086c-.566895,0-1.098145.038086-1.583984.112305-1.672852.525391-3.431641,1.244629-5.285172,2.002441-3.663559,1.497559-7.811508,3.193359-12.466774,3.809082-1.861816.287598-3.804199.433594-5.775887.433594-2.456551,0-5.037117-.227051-7.645012-.669922-1.579605-.263184-3.063004-.576172-4.49707-.878418-2.70948-.571289-5.049316-1.064941-7.226082-1.064941-.3955,0-.782715.01709-1.151367.050293l-.103516.008789c-2.472168.190918-5.264648,1.902832-8.77002,5.370117-5.272949,5.249023-10.911133,10.009277-15.233879,13.569824l-.242683.199707-.25782.179688c-10.143066,7.063965-13.293449,15.049316-11.624016,29.462891l.021484.185547.012699.186035c1.359367,20.141602,7.882816,33.539062,19.453617,39.855469,2.538567,1.416992,4.945297,2.07666,7.573235,2.07666,2.799316-.000488,5.807617-.733398,8.993164-1.509277,3.836914-.93457,8.185547-1.994141,13.040535-1.994141,1.578117,0,3.151367.11377,4.675781.337891l.260254.038574.256348.055664c1.832016.396973,3.181633,1.041992,4.166496,1.513184.307137.146484.631355.306152,1.013672.460449l.192863.081055c4.026367,1.755371,8.188484,3.417969,11.784668,4.842285,1.431648.526367,2.705086,1.010254,3.859871,1.44873,4.76123,1.809082,6.368164,2.381348,8.48291,2.381348.428711,0,.885742-.023438,1.395508-.071777,3.273438-.42041,6.168945-1.514648,7.95459-3.009277l.1875-.151855c2.716309-2.133789,2.772949-5.46875,2.255371-12.570312-.083984-1.15625-.167007-2.304199-.222656-3.432129l-.005859-.143066c-.351074-11.35498,1.986328-18.819824,4.048828-25.40625,1.892578-6.044434,3.52832-11.269531,3.33252-19.603516-.108887-1.832031-.1875-3.688477-.265625-5.555664-.394043-9.405273-.766602-18.289062-5.245117-24.749512l-.180176-.260742c-2.788574-4.185547-9.598145-7.59082-15.179199-7.59082h0Z" style="fill:url(#Nowa_próbka_gradientu_3-2);"/></g></svg>