<?xml version="1.0" encoding="UTF-8"?><svg id="Warstwa_2" xmlns="http://www.w3.org/2000/svg" xmlns:xlink="http://www.w3.org/1999/xlink" viewBox="0 0 118.745288 118.121193"><defs><radialGradient id="Nowa_próbka_gradientu_11" cx="111.627018" cy="187.601375" fx="111.627018" fy="187.601375" r="91.858008" gradientTransform="translate(-13.09726 -61.031531) scale(.649215)" gradientUnits="userSpaceOnUse"><stop offset=".00455" stop-color="#009245"/><stop offset=".381096" stop-color="#008f44"/><stop offset=".62211" stop-color="#008641"/><stop offset=".824417" stop-color="#00773b"/><stop offset="1" stop-color="#006435"/></radialGradient><radialGradient id="MENU_BORDER_SQUARE" cx="59.372645" cy="59.060593" fx="59.372645" fy="59.060593" r="59.216824" gradientTransform="translate(0 -413.42395) scale(1 7.999997)" gradientUnits="userSpaceOnUse"><stop offset="0" stop-color="#ffcb7e"/><stop offset=".262059" stop-color="#fbc87c"/><stop offset=".482601" stop-color="#f1c077"/><stop offset=".688148" stop-color="#dfb26e"/><stop offset=".883389" stop-color="#c79e62"/><stop offset="1" stop-color="#b59059"/></radialGradient><radialGradient id="MENU_BORDER_SQUARE-2" cx="59.370848" cy="59.060547" fx="59.370848" fy="59.060547" r="51.429671" gradientTransform="translate(0 -.000154)" xlink:href="#MENU_BORDER_SQUARE"/></defs><g id="Warstwa_2-2"><path d="M111.7999,11.157565c6.865443,9.903245,6.212017,22.709267,6.923921,34.45702.502554,19.568014-7.995701,25.181937-7.379331,45.099416.390086,7.910672,2.23408,16.827439-5.000564,22.510489-4.028515,3.371028-9.306276,4.43202-12.088424,4.777546-5.903904.587186-8.669416-1.023351-17.380559-4.222443-4.030683-1.596189-8.128873-3.240042-12.119144-4.97908-1.54719-.625637-2.451283-1.267009-3.911083-1.583471-13.16719-1.936864-22.857213,8.047601-36.945385.183843C7.087327,98.224073,1.654167,78.800218.47115,61.269365c-1.86361-16.091154,1.54045-27.438945,14.909486-36.749616,5.031017-4.144366,10.082686-8.491091,14.690803-13.077713,3.738773-3.698303,8.240335-7.197502,13.665596-7.615931,5.068363-.4591,9.762362,1.118495,14.856221,1.966905,3.647561.619823,7.378207.785927,11.037708.208372,5.956112-.763536,11.354664-3.997551,17.028058-5.685969,8.183485-1.609472,19.970269,3.087536,25.072705,10.745231l.068172.096921Z" style="fill:url(#Nowa_próbka_gradientu_11);"/><path d="M90.072039,0v3.894135c6.844025,0,14.934631,4.096375,18.419098,9.325806l.027222.040863.028259.040192.052979.075165c5.152924,7.433014,5.566589,17.303986,5.966644,26.849884.076477,1.824677.155518,3.710693.266388,5.554688.222076,9.018585-1.589935,14.805603-3.508057,20.931396-2.066528,6.599762-4.20343,13.424194-3.872314,24.122314l.001099.035675.00174.035645c.054932,1.113953.137421,2.245911.217194,3.340668.556824,7.640472.583374,12.524384-3.733887,15.915741l-.047363.037201-.046173.038666c-3.213379,2.688934-7.638855,3.59317-10.022522,3.893707-.65802.064148-1.256134.095337-1.826874.095337-2.931,0-5.248932-.880737-9.866852-2.635315-1.154999-.438873-2.429947-.923248-3.864944-1.450562-3.638718-1.441101-7.857758-3.12616-11.952072-4.910522l-.047699-.020813-.048248-.019501c-.435608-.176147-.823013-.36145-1.233154-.557587-.90213-.431488-1.924606-.920532-3.312729-1.221466l-.128372-.027832-.129974-.019135c-1.337357-.196686-2.719803-.296478-4.108978-.296478-4.386993-.000061-8.317245.957489-12.118103,1.883514-3.419067.833008-6.648514,1.619812-9.915237,1.619812-3.32016,0-6.32988-.816803-9.504028-2.588379-12.751053-6.960175-19.953949-21.41925-21.40863-42.975647l-.006302-.093079-.010727-.092712c-1.840668-15.893188,1.878952-25.175262,13.266678-33.10611l.129074-.089874.121384-.100006c4.256989-3.506744,9.804764-8.190186,14.953445-13.314819,4.273621-4.227417,7.735992-6.232666,11.226471-6.501862l.025909-.002014.025894-.00235c.485397-.043945.991104-.066223,1.503067-.066223,2.583206,0,5.228806.557983,8.029755,1.148773,1.393906.293976,2.835251.597961,4.319809.845215,2.417389.410767,4.778244.61908,7.017014.61908,1.788467,0,3.546036-.132751,5.224869-.394623,4.172653-.544373,7.920761-2.07663,11.545837-3.558655,2.025909-.828247,3.942932-1.611969,5.855957-2.194397.769379-.138947,1.604889-.209351,2.486603-.209381L90.072039,0M90.07091,0c-1.184052.000092-2.330017.102631-3.411896.315399-5.673386,1.688446-11.071945,4.922455-17.028046,5.685974-1.548981.244476-3.11026.355682-4.673035.355682-2.129318,0-4.261047-.206573-6.364655-.564056-4.467712-.74411-8.62706-2.049011-13.001938-2.049011-.613159,0-1.231293.025696-1.854324.082123-5.425247.418427-9.926788,3.917633-13.665573,7.615936-4.608124,4.586609-9.65979,8.93335-14.690826,13.077698C2.011599,33.830414-1.392454,45.178223.471148,61.269379c1.183029,17.530853,6.61618,36.954681,23.428177,46.1315,4.09816,2.287537,7.822098,3.064453,11.369766,3.064453,7.529327,0,14.257217-3.503448,22.033325-3.503357,1.155457.000031,2.334396.077393,3.542313.255066,1.459793.316467,2.363876.957825,3.911072,1.583466,3.99028,1.739044,8.088455,3.382904,12.119141,4.979095,7.525467,2.763672,10.612839,4.341583,15.120529,4.341583.710175,0,1.456451-.039215,2.26004-.119141,2.782135-.34552,8.059906-1.406525,12.088409-4.777557,7.23465-5.683044,5.390656-14.599823,5.00058-22.510498-.616394-19.91748,7.881866-25.531403,7.379333-45.099396-.711914-11.747772-.058502-24.553772-6.92392-34.457031l-.068176-.096924C107.303851,4.415314,97.843279-.000397,90.07091,0h0Z" style="fill:url(#MENU_BORDER_SQUARE);"/><path d="M90.071185,8.956299c5.147736,0,11.653717,3.238007,14.21756,7.086426l.166626.241516c4.301086,6.204193,4.666382,14.923279,5.053101,24.154266.072266,1.726074.154144,3.682434.264923,5.533752.191345,8.142548-1.417297,13.279205-3.280792,19.229706-2.089569,6.67392-4.457916,14.238281-4.099884,25.800995l.006287.152283c.057129,1.157074.14212,2.326904.224335,3.458496.524658,7.19931.336304,9.880188-1.825256,11.578339l-.201843.163574c-1.616333,1.352997-4.296936,2.354187-7.315979,2.742584-.472443.0448-.892822.066559-1.285248.066559-1.909424,0-3.458282-.553833-8.066498-2.304688-1.158844-.440338-2.436707-.92569-3.8461-1.443298-3.566742-1.412659-7.71019-3.067169-11.762283-4.83316l-.208221-.087372c-.317261-.128052-.591019-.260284-.848862-.384216l-.097336-.046722c-1.036102-.495728-2.455109-1.174652-4.423767-1.600983l-.256348-.055664-.037903-.00824-.038376-.005676-.261475-.038849c-1.58107-.232452-3.211395-.350311-4.845703-.350311-4.993271,0-9.413315,1.076599-13.319366,2.028015-3.114182.758514-6.055679,1.474945-8.71434,1.475403-2.421432,0-4.646896-.612915-7.013504-1.934326-11.17572-6.100281-17.517029-19.190887-18.847839-38.909149l-.012695-.186035-.001877-.027466-.003159-.027344-.0215-.185608c-1.61084-13.907623,1.406158-21.596649,11.132034-28.370056l.257812-.179657.038895-.02713.036575-.030151.241959-.199646c4.342743-3.577057,10.008057-8.360382,15.31221-13.640015,3.258255-3.222839,5.887817-4.87027,8.047928-5.037109l.109344-.009338c.3358-.030212.687927-.045563,1.046585-.045563,2.05304,0,4.335083.481171,7.005386,1.044189,1.439865.303467,2.928741.617279,4.521683.88269,2.682068.455475,5.320038.686401,7.840607.686401,2.029541,0,4.032822-.150482,5.929047-.443665,4.803146-.635223,9.026093-2.36142,12.756714-3.886383,1.800568-.736176,3.503021-1.43222,5.105133-1.941132.406036-.057251.850067-.086243,1.321411-.086243M90.071185,7.788086c-.567383,0-1.098633.038086-1.583984.112305-1.672852.525391-3.431152,1.244141-5.284668,2.001953-3.663574,1.497559-7.812012,3.193848-12.467773,3.80957-1.861816.287598-3.804199.433594-5.775879.433594-2.456543,0-5.037109-.227051-7.64502-.669922-1.57959-.263184-3.062988-.576172-4.49707-.878418-2.709457-.571289-5.048828-1.064941-7.225586-1.064941-.395508,0-.782715.01709-1.151367.050293l-.103516.008789c-2.472168.190918-5.264648,1.902832-8.770508,5.370605-5.271973,5.247559-10.910156,10.007812-15.233398,13.568848l-.242676.200195-.257812.179688c-10.143066,7.063965-13.293945,15.049316-11.624512,29.462891l.021484.185547.012695.186035c1.359375,20.141602,7.882812,33.539062,19.453613,39.85498,2.538574,1.41748,4.945312,2.077148,7.573227,2.077148,2.79982-.000488,5.808121-.733398,8.993668-1.509277,3.836899-.93457,8.185547-1.994141,13.040039-1.994141,1.57811,0,3.151367.11377,4.675781.337891l.259766.038574.256348.055664c1.833008.396973,3.182617,1.041992,4.167465,1.513184.306656.146973.630875.306152,1.013184.460449l.192886.081055c4.026367,1.754883,8.188477,3.417969,11.784668,4.842285,1.432129.526367,2.706055,1.010254,3.861328,1.449219,4.760254,1.808594,6.367188,2.380859,8.481445,2.380859.428711,0,.885742-.023438,1.395508-.071777,3.273438-.42041,6.169434-1.514648,7.955566-3.009766l.187012-.151367c2.716309-2.133789,2.772949-5.469238,2.255371-12.571289-.083984-1.155762-.166992-2.303223-.222656-3.431152l-.005859-.142578c-.351562-11.355469,1.986328-18.820801,4.04834-25.406738,1.893066-6.044922,3.528809-11.27002,3.333008-19.603516-.108887-1.832031-.1875-3.688477-.265625-5.555176-.394043-9.405273-.766602-18.289062-5.260254-24.770996l-.165039-.239258c-2.788574-4.186035-9.598145-7.591309-15.179199-7.591309h0Z" style="fill:url(#MENU_BORDER_SQUARE-2);"/></g></svg>