<?xml version="1.0" encoding="UTF-8"?><svg id="Warstwa_2" xmlns="http://www.w3.org/2000/svg" xmlns:xlink="http://www.w3.org/1999/xlink" viewBox="0 0 117.901212 117.879273"><defs><radialGradient id="Nowa_próbka_gradientu_11" cx="107.342847" cy="195.509891" fx="107.342847" fy="195.509891" r="71.866678" gradientTransform="translate(-24.255908 -111.969718) scale(.775147 .874172)" gradientUnits="userSpaceOnUse"><stop offset=".00455" stop-color="#009245"/><stop offset=".381096" stop-color="#008f44"/><stop offset=".62211" stop-color="#008641"/><stop offset=".824417" stop-color="#00773b"/><stop offset="1" stop-color="#006435"/></radialGradient><radialGradient id="MENU_BORDER_SQUARE" cx="58.950602" cy="58.939636" fx="58.950602" fy="58.939636" r="58.945119" gradientTransform="translate(0 -472.813793) scale(1 9.022001)" gradientUnits="userSpaceOnUse"><stop offset="0" stop-color="#ffcb7e"/><stop offset=".262059" stop-color="#fbc87c"/><stop offset=".482601" stop-color="#f1c077"/><stop offset=".688148" stop-color="#dfb26e"/><stop offset=".883389" stop-color="#c79e62"/><stop offset="1" stop-color="#b59059"/></radialGradient><radialGradient id="MENU_BORDER_SQUARE-2" cx="58.94819" cy="58.939636" fx="58.94819" fy="58.939636" r="51.155672" gradientTransform="translate(0 -7.529542) scale(1 1.12775)" xlink:href="#MENU_BORDER_SQUARE"/></defs><g id="Warstwa_2-2"><path d="M42.539417,2.977758c6.571026-.451344,13.416068-2.689852,20.178521-2.942838,22.593263-.892744,47.254689,15.43502,54.176664,37.129006,2.534276,8.464209-.204708,17.334118-2.837609,25.48864-5.729799,17.265495,2.574828,26.108912-.550474,39.664329-2.281819,8.764583-11.040813,13.534851-19.545801,14.814626-17.08226,3.232331-33.63091-5.097037-50.521544-4.511009-5.814141.169064-11.582479,1.284435-17.310545,2.16755-11.017265,1.910452-20.322202,1.611628-22.318616-11.510525-1.622667-9.505079,3.592156-18.700258,2.790691-28.187503-.422649-5.707113-3.158038-11.987779-4.811444-17.931454C-1.382674,46.758847.067267,35.290421,2.99342,24.541781,6.367968,11.096945,13.610158,3.716461,27.788376,2.986408c4.882472-.296188,9.790216.351758,14.628439-.000149l.122601-.008501Z" style="fill:url(#Nowa_próbka_gradientu_11);"/><path d="M64.495884,0l-.000183,3.894104h.001175c20.772232,0,42.599777,15.437683,48.676987,34.419495,2.229126,7.495728-.454437,15.8078-2.812805,23.112427-3.503387,10.556702-2.199554,18.335571-1.049225,25.19873.859039,5.125122,1.601349,9.55365.412659,14.762573-1.918121,7.24292-9.694,10.892883-16.343201,11.893433l-.07251.010925-.072052.013611c-2.417633.457458-4.907837.679871-7.612885.679871-6.419937,0-12.779968-1.250671-19.513443-2.574768-6.784027-1.333984-13.798996-2.71344-20.938828-2.713684-.622665,0-1.243988.010376-1.845596.031311-4.957047.144104-9.821198.930725-14.525192,1.691467-1.090012.17627-2.178482.352356-3.265533.519958l-.036026.005554-.035919.006226c-3.141922.5448-5.560547.798584-7.611526.798584-5.441406,0-9.044403-1.51532-10.191956-9.057983l-.005295-.034851-.00592-.03479c-.736404-4.313477.227066-8.783203,1.247101-13.515381.987946-4.583374,2.009521-9.322754,1.588501-14.304382-.325348-4.39325-1.799652-8.86853-3.225433-13.196411-.629242-1.910156-1.223602-3.714294-1.71785-5.491089l-.012894-.046387-.014053-.046021c-2.508331-8.22406-2.103775-18.18689,1.236801-30.457825l.010178-.037354.009415-.037537C9.89336,13.047302,16.239003,7.480377,28.024205,6.873383c.808044-.049011,1.673996-.072845,2.647354-.072845,1.349899,0,2.692291.044617,4.113541.091858,1.41716.047119,2.882584.095825,4.351456.095825,1.304932,0,2.470306-.038635,3.550369-.117218l.119308-.008301c3.313049-.227539,6.632645-.865875,9.842941-1.483154,3.55658-.683868,6.915909-1.329834,10.222534-1.453522.534821-.021149,1.080902-.031891,1.623154-.031921L64.495884,0M64.494664,0c-.592682.000031-1.186523.011597-1.776733.034912-6.762451.252991-13.607468,2.491516-20.178528,2.942841l-.122589.008514c-1.090256.079285-2.184021.107819-3.280258.107819-2.811829,0-5.639297-.187653-8.464996-.187653-.961395,0-1.923019.021729-2.883179.079987C13.610157,3.716461,6.367985,11.096955,2.993412,24.541809.06725,35.290405-1.382671,46.75885,1.78925,57.15857c1.653412,5.943665,4.388809,12.224365,4.811462,17.931458.801437,9.487244-4.413361,18.682434-2.79071,28.1875,1.468567,9.652649,6.891388,12.366394,14.041779,12.366394,2.570145,0,5.363831-.350708,8.276855-.855835,5.728073-.883118,11.496399-1.998535,17.310516-2.167603.578354-.020081,1.154678-.029663,1.732254-.029663,13.534546.000427,26.867294,5.288452,40.452408,5.288452,2.766418,0,5.545837-.219604,8.336914-.747742,8.504974-1.279785,17.263977-6.050049,19.545776-14.814636,3.125305-13.55542-5.179321-22.398804.550476-39.664307,2.632904-8.154541,5.371887-17.024475,2.837616-25.488647C110.153447,16.036682,86.589787-.001098,64.494664,0h0Z" style="fill:url(#MENU_BORDER_SQUARE);"/><path d="M64.49445,8.956482c18.705841,0,38.375,13.844727,43.837341,30.834534,1.761993,5.985291-.660706,13.489319-2.795227,20.100952-3.879791,11.69043-2.403442,20.495178-1.216614,27.573547.796509,4.753357,1.426025,8.509705.489807,12.704407-1.332672,4.823669-7.163147,7.349304-12.201996,8.107971l-.312195.052917c-2.10257.3974-4.28537.591003-6.672699.59198-5.930679,0-12.053925-1.204651-18.53833-2.480286-7.021011-1.380859-14.281067-2.808777-21.91333-2.808777-.676819,0-1.364151.012085-2.035675.035645-5.251877.151672-10.285538.966675-15.152878,1.754639l-.073807.011963c-1.049942.169434-2.098923.338684-3.156448.502197l-.153915.025269c-2.847397.493958-4.99118.723999-6.746613.723999-3.538223,0-4.492386-.188599-5.189102-4.768616l-.024094-.148438c-.571899-3.349915.291565-7.355408,1.205811-11.596497,1.016693-4.716431,2.169037-10.062073,1.68219-15.825378-.365021-4.93103-1.937286-9.704651-3.46788-14.351746-.607056-1.842896-1.180435-3.583557-1.644653-5.252869l-.058151-.19873c-2.221527-7.284424-1.80307-16.328979,1.282623-27.663086l.041626-.160034c2.616547-10.42511,6.952286-14.295654,16.578934-14.791595.765167-.046204,1.532211-.067719,2.413986-.067719,1.247635,0,2.529663.042419,3.886948.087311l.085922.002838c1.448883.047882,2.947098.097351,4.489044.097351,1.429565,0,2.715546-.042999,3.921631-.130798l.088531-.005737c3.630539-.249176,7.102707-.917206,10.466629-1.564362,3.358612-.64566,6.530975-1.255463,9.443542-1.364471.488678-.019379.964081-.028381,1.439041-.028381M64.49445,7.788269c-.490234,0-.980957.009277-1.485352.029297-3.000977.112305-6.217773.730957-9.624023,1.385742-3.324722.639648-6.762695,1.300781-10.319824,1.544922l-.083496.005371c-1.1875.086426-2.446289.128418-3.84668.128418-1.532715,0-3.030289-.049805-4.479004-.097656-1.387695-.045898-2.698242-.089844-3.98291-.089844-.894531,0-1.683594.021484-2.484375.069824-10.123047.521484-14.904785,4.769043-17.641602,15.67334l-.039062.149902c-3.14209,11.541016-3.557129,20.797363-1.269531,28.29834l.054199.185547c.469727,1.689453,1.050781,3.452148,1.665527,5.318359,1.49855,4.549805,3.048828,9.255859,3.40332,14.044922.473145,5.601562-.659668,10.856445-1.65918,15.493164-.938477,4.353516-1.825195,8.466797-1.215332,12.039062l.022461.138672c.799316,5.254883,2.374023,5.75,6.342285,5.75,1.823242,0,4.030273-.235352,6.946289-.741211l.143066-.023438c1.074219-.166016,2.150375-.339844,3.227539-.513672,4.831543-.782227,9.827637-1.59082,15.000488-1.740234.668457-.023438,1.334473-.035156,2.001953-.035156,7.519043,0,14.72316,1.416992,21.689453,2.787109,6.54248,1.287109,12.72168,2.501953,18.762207,2.501953,2.460449-.000977,4.714355-.201172,6.889648-.612305l.289551-.048828c5.403809-.813477,11.674805-3.597656,13.141602-8.977539.995117-4.429688.34668-8.296875-.472168-13.183594-1.165039-6.948242-2.614258-15.594727,1.173828-27.008789,2.189941-6.783203,4.670898-14.467773,2.807129-20.798828-5.616699-17.471191-25.766602-31.672852-44.958008-31.672852h0Z" style="fill:url(#MENU_BORDER_SQUARE-2);"/></g></svg>