<?xml version="1.0" encoding="UTF-8"?><svg id="Warstwa_2" xmlns="http://www.w3.org/2000/svg" xmlns:xlink="http://www.w3.org/1999/xlink" viewBox="0 0 117.901218 117.879273"><defs><radialGradient id="Gradient_bez_nazwy_164" cx="143.27589" cy="195.509891" fx="143.27589" fy="195.509891" r="71.866678" gradientTransform="translate(-52.109315 -111.969718) scale(.775147 .874172)" gradientUnits="userSpaceOnUse"><stop offset=".00455" stop-color="#878c5f"/><stop offset=".381096" stop-color="#84895d"/><stop offset=".62211" stop-color="#7c8057"/><stop offset=".824417" stop-color="#6e714d"/><stop offset="1" stop-color="#5b5e40"/></radialGradient><radialGradient id="MENU_BORDER_SQUARE" cx="58.950611" cy="58.939636" fx="58.950611" fy="58.939636" r="58.945122" gradientTransform="translate(0 -472.813793) scale(1 9.022001)" gradientUnits="userSpaceOnUse"><stop offset="0" stop-color="#ffcb7e"/><stop offset=".262059" stop-color="#fbc87c"/><stop offset=".482601" stop-color="#f1c077"/><stop offset=".688148" stop-color="#dfb26e"/><stop offset=".883389" stop-color="#c79e62"/><stop offset="1" stop-color="#b59059"/></radialGradient><radialGradient id="MENU_BORDER_SQUARE-2" cx="58.948204" cy="58.939636" fx="58.948204" fy="58.939636" r="51.155672" gradientTransform="translate(0 -7.529542) scale(1 1.12775)" xlink:href="#MENU_BORDER_SQUARE"/></defs><g id="Warstwa_2-2"><path d="M42.539411,2.977758c6.571026-.451344,13.416068-2.689852,20.178521-2.942838,22.593263-.892744,47.254689,15.43502,54.176664,37.129006,2.534276,8.464209-.204708,17.334118-2.837609,25.48864-5.729799,17.265495,2.574828,26.108912-.550474,39.664329-2.281819,8.764583-11.040813,13.534851-19.545801,14.814626-17.08226,3.232331-33.63091-5.097037-50.521544-4.511009-5.814141.169064-11.582479,1.284435-17.310545,2.16755-11.017265,1.910452-20.322202,1.611628-22.318616-11.510525-1.622667-9.505079,3.592156-18.700258,2.790691-28.187503-.422649-5.707113-3.158038-11.987779-4.811444-17.931454C-1.382681,46.758847.067261,35.290421,2.993414,24.541781,6.367962,11.096945,13.610152,3.716461,27.78837,2.986408c4.882472-.296188,9.790216.351758,14.628439-.000149l.122601-.008501Z" style="fill:url(#Gradient_bez_nazwy_164);"/><path d="M64.495898,0l-.000183,3.894104h.00116c20.772217,0,42.599762,15.437683,48.677002,34.419495,2.229156,7.495667-.454437,15.8078-2.812805,23.112427-3.503387,10.556702-2.199554,18.335571-1.049225,25.19873.859009,5.125122,1.601379,9.553467.412689,14.76239-1.918152,7.24292-9.694061,10.893066-16.343262,11.893616l-.07251.010925-.072052.013611c-2.417633.457458-4.907837.679871-7.612885.679871-6.419952,0-12.779999-1.250671-19.513428-2.574768-6.784027-1.333984-13.799011-2.71344-20.938812-2.713684-.622681,0-1.243988.010376-1.845612.031311-4.957062.144104-9.821198.930725-14.525238,1.691467-1.089966.17627-2.178467.352356-3.265503.519958l-.036011.005554-.03595.006226c-3.141907.5448-5.560547.798584-7.611511.798584-5.441406,0-9.044373-1.51532-10.191925-9.057983l-.00531-.034912-.00592-.034729c-.736389-4.313538.227051-8.783203,1.24707-13.515381.987976-4.583374,2.009521-9.322754,1.588501-14.304382-.325348-4.39325-1.799622-8.868469-3.225372-13.19635-.629242-1.910095-1.223602-3.714294-1.717865-5.49115l-.012909-.046387-.014038-.046021c-2.508362-8.224121-2.103821-18.186951,1.236786-30.457825l.010193-.037354.00943-.037537C9.893359,13.047302,16.239001,7.480377,28.024188,6.873383c.808105-.049011,1.674042-.072845,2.647369-.072845,1.349915,0,2.692322.044617,4.113525.091858,1.417175.047119,2.882568.095825,4.351471.095825,1.304901,0,2.470276-.038635,3.550323-.117218l.119354-.008301c3.313019-.227539,6.632629-.865875,9.842926-1.483154,3.55658-.683868,6.915924-1.329834,10.222565-1.453522.534821-.021149,1.080902-.031891,1.623138-.031921L64.495898,0M64.494678,0c-.592682.000031-1.186523.011597-1.776733.034912-6.762451.252991-13.607513,2.491516-20.178528,2.942841l-.12262.008514c-1.090271.079285-2.184021.107819-3.280243.107819-2.811829,0-5.639282-.187653-8.464996-.187653-.961395,0-1.923004.021729-2.883179.079987C13.610156,3.716461,6.367969,11.096955,2.993427,24.541809.067249,35.290405-1.382672,46.75885,1.789264,57.15857c1.653381,5.943665,4.388794,12.224365,4.811432,17.931458.801453,9.487244-4.413361,18.682434-2.79068,28.1875,1.468536,9.652649,6.891357,12.366394,14.041748,12.366394,2.57016,0,5.363831-.350708,8.276855-.855835,5.728058-.883118,11.496399-1.998535,17.310547-2.167603.578339-.020081,1.154663-.029663,1.732239-.029663,13.534546.000427,26.867279,5.288452,40.452393,5.288452,2.766418,0,5.545837-.219604,8.336914-.747742,8.504974-1.279785,17.263977-6.050049,19.545807-14.814636,3.125305-13.55542-5.179321-22.398804.550476-39.664307,2.632904-8.154541,5.371887-17.024475,2.837616-25.488647C110.15343,16.036682,86.589801-.001098,64.494678,0h0Z" style="fill:url(#MENU_BORDER_SQUARE);"/><path d="M64.494464,8.956482c18.70575,0,38.374939,13.84491,43.837372,30.835083,1.762268,5.985779-.660583,13.489258-2.795258,20.100403-3.879791,11.69043-2.403442,20.495178-1.216614,27.573547.796509,4.753357,1.426025,8.509705.489807,12.704407-1.332672,4.823669-7.163147,7.349304-12.201996,8.107971l-.312195.052917c-2.10257.3974-4.28537.591003-6.672699.59198-5.930664,0-12.053925-1.204651-18.53833-2.480286-7.020996-1.380859-14.281067-2.808777-21.91333-2.808777-.676819,0-1.364136.012085-2.035675.035645-5.251862.151672-10.285553.966675-15.152863,1.754639l-.073822.011963c-1.049927.169434-2.098907.338684-3.156464.502197l-.1539.025269c-2.847382.493958-4.99118.723999-6.746613.723999-3.538239,0-4.492371-.188599-5.189087-4.768616l-.024109-.148438c-.571899-3.349915.291565-7.355408,1.205811-11.596497,1.016693-4.716431,2.169037-10.062073,1.68219-15.825378-.365021-4.93103-1.937286-9.704651-3.467896-14.351746-.607025-1.842896-1.18042-3.583557-1.644623-5.252869l-.058167-.19873c-2.221527-7.284424-1.80307-16.328979,1.282623-27.663086l.041626-.160034c2.616547-10.42511,6.952301-14.295654,16.578949-14.791595.765167-.046204,1.532196-.067719,2.413971-.067719,1.24762,0,2.529663.042419,3.886963.087311l.085907.002838c1.448883.047882,2.947083.097351,4.489044.097351,1.429565,0,2.715546-.042999,3.921631-.130798l.088531-.005737c3.630554-.249176,7.102692-.917206,10.466614-1.564362,3.358612-.64566,6.531006-1.255463,9.443573-1.364471.488678-.019379.964081-.028381,1.439026-.028381M64.494464,7.788269c-.490234,0-.980957.009277-1.485352.029297-3.000977.112305-6.217773.730957-9.624023,1.385742-3.324707.639648-6.762695,1.300781-10.319824,1.544922l-.083496.005371c-1.1875.086426-2.446289.128418-3.84668.128418-1.532715,0-3.030273-.049805-4.479004-.097656-1.387695-.045898-2.698242-.089844-3.98291-.089844-.894531,0-1.683594.021484-2.484375.069824-10.123047.521484-14.904785,4.769043-17.641602,15.67334l-.039062.149902c-3.14209,11.541016-3.557129,20.797363-1.269531,28.29834l.054199.185547c.469727,1.689453,1.050781,3.452148,1.665527,5.318359,1.498535,4.549805,3.048828,9.255859,3.40332,14.044922.473145,5.601562-.659668,10.856445-1.65918,15.493164-.938477,4.353516-1.825195,8.466797-1.215332,12.039062l.022461.138672c.799316,5.254883,2.374023,5.75,6.342285,5.75,1.823242,0,4.030273-.235352,6.946289-.741211l.143066-.023438c1.074219-.166016,2.150391-.339844,3.227539-.513672,4.831543-.782227,9.827637-1.59082,15.000488-1.740234.668457-.023438,1.334473-.035156,2.001953-.035156,7.519043,0,14.723145,1.416992,21.689453,2.787109,6.54248,1.287109,12.72168,2.501953,18.762207,2.501953,2.460449-.000977,4.714355-.201172,6.889648-.612305l.289551-.048828c5.403809-.813477,11.674805-3.597656,13.141602-8.977539.995117-4.429688.34668-8.296875-.472168-13.183594-1.165039-6.948242-2.614258-15.594727,1.173828-27.008789,2.189941-6.782227,4.670898-14.467773,2.807129-20.79834-5.616699-17.471191-25.766602-31.67334-44.958008-31.67334h0Z" style="fill:url(#MENU_BORDER_SQUARE-2);"/></g></svg>