<?xml version="1.0" encoding="UTF-8"?><svg id="Warstwa_2" xmlns="http://www.w3.org/2000/svg" xmlns:xlink="http://www.w3.org/1999/xlink" viewBox="0 0 118.779415 118.223222"><defs><radialGradient id="Gradient_bez_nazwy_169" cx="148.152612" cy="97.875994" fx="148.152612" fy="97.875994" r="80.68898" gradientTransform="translate(-49.400425 -12.759814) scale(.734311)" gradientUnits="userSpaceOnUse"><stop offset=".002275" stop-color="#878c5f"/><stop offset=".379681" stop-color="#84895d"/><stop offset=".621246" stop-color="#7c8057"/><stop offset=".824016" stop-color="#6e714d"/><stop offset="1" stop-color="#5b5e40"/></radialGradient><radialGradient id="MENU_BORDER_SQUARE" cx="59.389707" cy="59.111611" fx="59.389707" fy="59.111611" r="59.250822" gradientTransform="translate(0 -413.781081) scale(1 7.999997)" gradientUnits="userSpaceOnUse"><stop offset="0" stop-color="#ffcb7e"/><stop offset=".262059" stop-color="#fbc87c"/><stop offset=".482601" stop-color="#f1c077"/><stop offset=".688148" stop-color="#dfb26e"/><stop offset=".883389" stop-color="#c79e62"/><stop offset="1" stop-color="#b59059"/></radialGradient><radialGradient id="MENU_BORDER_SQUARE-2" cx="59.3955" cy="59.111527" fx="59.3955" fy="59.111527" r="51.462858" gradientTransform="translate(0 -.0001)" xlink:href="#MENU_BORDER_SQUARE"/></defs><g id="Warstwa_2-2"><path d="M2.627968,36.117393c-4.308093,6.725643-2.89313,16.026672,1.166374,22.602371,3.636312,6.028251,9.905207,10.457385,14.279529,16.340542,4.091883,5.268916,6.520201,11.611049,7.695138,18.138644.971756,4.99265,1.547478,10.369546,4.014423,14.820564,3.966472,7.550373,13.613192,11.387422,21.857753,9.88013,5.063276-.797204,9.337903-3.986665,13.345615-7.155073,14.782216-12.335029,19.598371-4.918814,34.084139-9.208793,7.548558-2.795299,13.45511-9.38155,16.640438-16.620223,3.321793-7.433081,4.335236-16.236626,1.080712-23.855297-3.616194-8.276247-10.885242-14.932226-13.95626-23.647235-3.023709-7.060965-2.876348-15.073142-5.519208-22.202788C91.488398.451407,70.333298-2.956018,56.877507,2.360047c-10.390454,4.551431-16.322002,15.270297-26.541586,20.234404-8.838897,5.170139-21.814269,5.213144-27.636405,13.416144l-.071548.106798Z" style="fill:url(#Gradient_bez_nazwy_169);"/><path d="M70.054571,3.89412c8.571808,0,19.89447,3.329468,23.625183,12.70871,1.1073,3.001892,1.683594,6.258179,2.293518,9.704651.730377,4.127045,1.485413,8.393341,3.232574,12.520325,1.844147,5.167114,4.906738,9.525055,7.869385,13.740906,2.388824,3.399353,4.645203,6.610168,6.135773,10.021301,2.550629,5.970917,2.166168,13.529144-1.063934,20.75708-3.0065,6.832336-8.348785,12.240143-14.309235,14.49231-4.277527,1.249908-7.551361,1.355438-10.538849,1.355438-.467285,0-.927887-.003052-1.383545-.006104-.462921-.003052-.920868-.006042-1.375519-.006042-6.433533,0-12.531128.643036-22.007904,8.538483-3.770874,2.979675-7.488678,5.700714-11.496521,6.331757l-.047424.007446-.047241.008636c-.943909.172577-1.93045.260071-2.932251.260071-6.287384,0-12.226135-3.263428-14.777771-8.120575l-.020264-.038574-.021149-.038177c-1.697723-3.06308-2.366791-6.832397-3.075134-10.823029-.168671-.950165-.336609-1.895386-.517792-2.827698-1.391205-7.706879-4.224823-14.360809-8.422424-19.777496-2.093018-2.808594-4.512878-5.24231-6.853516-7.596375-2.778961-2.79483-5.403778-5.434723-7.212616-8.433014-3.072479-4.976898-4.76059-12.859161-1.220886-18.424957l.015747-.023499c2.842499-3.965424,8.39621-5.677795,14.274994-7.490509,4.062988-1.252808,8.262909-2.547882,11.994019-4.703674,5.445923-2.677124,9.647644-6.684479,13.712524-10.561188,4.014069-3.828186,7.806152-7.444916,12.490631-9.51474,3.442474-1.348801,7.479218-2.061462,11.679626-2.061462M70.054571,0C65.387945,0,60.804846.808442,56.877508,2.360047c-10.390442,4.551422-16.321991,15.270309-26.541595,20.23439-8.838898,5.170166-21.81427,5.213165-27.636383,13.416168l-.071564.106781c-4.308105,6.725647-2.893127,16.026672,1.166382,22.602386,3.636322,6.028229,9.905212,10.457367,14.27951,16.340546,4.091888,5.26889,6.520203,11.611023,7.69516,18.138641.971741,4.992645,1.547455,10.369537,4.014404,14.820557,3.394409,6.461426,10.949646,10.203705,18.225159,10.203705,1.226166,0,2.443512-.106171,3.632599-.323578,5.063293-.797211,9.337921-3.986664,13.345612-7.15506,8.602814-7.17865,13.83078-7.667755,19.553131-7.667755.902008,0,1.817291.012146,2.759064.012146,3.349762,0,7.045349-.153412,11.771942-1.553192,7.548553-2.795319,13.455109-9.381561,16.640442-16.620239,3.321808-7.433075,4.335236-16.236603,1.080719-23.855286-3.61618-8.276245-10.885254-14.93222-13.956268-23.647247-3.023712-7.060944-2.876343-15.07312-5.519196-22.202789C93.189489,4.759065,81.376592,0,70.054571,0h0Z" style="fill:url(#MENU_BORDER_SQUARE);"/><path d="M70.053899,8.956254c6.963257,0,16.092773,2.482269,18.892792,9.444.941467,2.570557,1.475952,5.591827,2.042908,8.796783.771698,4.358887,1.569733,8.86618,3.498016,13.470642,2.080353,5.75293,5.460571,10.563354,8.447632,14.814209,2.237335,3.184143,4.350555,6.191742,5.645874,9.155579,1.981995,4.64093,1.600586,10.700012-1.049103,16.629669-2.443634,5.552063-6.667877,9.947388-11.307007,11.768707-3.551453,1.011719-6.357056,1.09668-8.921783,1.09671l-2.762024-.012238c-7.153351,0-14.464142.740204-25.186432,9.659637-3.199219,2.526581-6.30304,4.831055-9.121338,5.274963l-.202515.034637c-.643616.117615-1.32373.177246-2.021454.177246-4.388641,0-8.622864-2.225769-10.303711-5.425568l-.088562-.163422c-1.288269-2.324554-1.885529-5.689545-2.518036-9.253113-.172028-.969177-.343597-1.933502-.525604-2.86911-1.537048-8.492523-4.691254-15.868439-9.362762-21.906769-2.302002-3.083954-4.84317-5.639435-7.300629-8.110687-2.557434-2.572296-4.973022-5.001953-6.452972-7.454987-2.327942-3.771729-3.538116-9.441193-1.365021-13.010223,1.903107-2.517059,6.603119-3.96637,11.577362-5.500061,4.280243-1.31958,8.705658-2.683868,12.888458-5.0737,6.070648-3.021088,10.718445-7.453735,14.823822-11.369141,3.653748-3.484299,7.105682-6.77597,10.942322-8.500732,2.837524-1.094528,6.201324-1.673035,9.729767-1.673035M70.053899,7.788041c-3.686523,0-7.202637.609375-10.179688,1.762711-4.032715,1.804169-7.564941,5.173325-11.302734,8.737778-4.052246,3.864746-8.637207,8.237305-14.563965,11.179688-4.078125,2.335449-8.450195,3.683594-12.682129,4.988281-5.186523,1.599121-10.088867,3.11084-12.200684,5.959473-2.458008,3.969727-1.21875,10.137695,1.338379,14.280762,1.545898,2.5625,4.009766,5.041016,6.618652,7.665039,2.429199,2.442871,4.94043,4.968262,7.192871,7.98584,4.568359,5.905273,7.645996,13.109375,9.149414,21.416016.183594.944336.354004,1.902344.524902,2.865234.649902,3.661621,1.263672,7.120117,2.646484,9.615234l.083008.15332c1.867188,3.554688,6.526855,6.037598,11.331055,6.037598.767578,0,1.518066-.065918,2.231445-.196289l.188965-.032227c3.066406-.48291,6.313965-2.875977,9.648926-5.509766,10.442871-8.686523,17.530762-9.408203,24.462402-9.408203l2.756836.012207c2.669434,0,5.584473-.09082,9.300781-1.156738,4.946777-1.921387,9.414062-6.525391,12.002441-12.40625,2.779297-6.219727,3.154297-12.641602,1.054199-17.559082-1.34668-3.081543-3.493652-6.136719-5.766602-9.371582-2.94873-4.196289-6.285645-8.944336-8.3125-14.563965-1.887207-4.496094-2.674805-8.947754-3.4375-13.255859-.575195-3.251465-1.119141-6.32373-2.095215-8.98877-3.029785-7.534668-12.651367-10.210449-19.989746-10.210449h0Z" style="fill:url(#MENU_BORDER_SQUARE-2);"/></g></svg>