<?xml version="1.0" encoding="UTF-8"?><svg id="Warstwa_2" xmlns="http://www.w3.org/2000/svg" xmlns:xlink="http://www.w3.org/1999/xlink" viewBox="0 0 117.901206 117.879277"><defs><style>.cls-1{fill:url(#Gradient_bez_nazwy_188);}.cls-2{stroke:url(#GradientSpecialIcon-3);}.cls-2,.cls-3{fill:none;}.cls-4{mix-blend-mode:multiply;opacity:.25;}.cls-5{isolation:isolate;}.cls-6{fill:url(#MENU_BORDER_SQUARE-2);}.cls-7{fill:#ecbc76;}.cls-8{fill:url(#MENU_BORDER_SQUARE);}.cls-9{fill:url(#GradientSpecialIcon);}.cls-3{stroke:url(#GradientSpecialIcon-2);stroke-width:.25px;}</style><radialGradient id="GradientSpecialIcon" cx="58.950603" cy="58.939634" fx="58.950603" fy="58.939634" r="58.945119" gradientUnits="userSpaceOnUse"><stop offset=".004551" stop-color="#914918"/><stop offset=".389833" stop-color="#8e4716"/><stop offset=".636414" stop-color="#854311"/><stop offset=".843468" stop-color="#763b09"/><stop offset="1" stop-color="#630"/></radialGradient><radialGradient id="MENU_BORDER_SQUARE" cx="58.950596" cy="58.93964" fx="58.950596" fy="58.93964" r="58.945116" gradientTransform="translate(0 -472.813825) scale(1 9.022001)" gradientUnits="userSpaceOnUse"><stop offset="0" stop-color="#ffcb7e"/><stop offset=".262059" stop-color="#fbc87c"/><stop offset=".482601" stop-color="#f1c077"/><stop offset=".688148" stop-color="#dfb26e"/><stop offset=".883389" stop-color="#c79e62"/><stop offset="1" stop-color="#b59059"/></radialGradient><radialGradient id="MENU_BORDER_SQUARE-2" cx="58.948346" cy="58.939854" fx="58.948346" fy="58.939854" r="51.155629" gradientTransform="translate(0 -7.52957) scale(1 1.12775)" xlink:href="#MENU_BORDER_SQUARE"/><radialGradient id="Gradient_bez_nazwy_188" cx="55.102188" cy="66.355885" fx="55.102188" fy="66.355885" r="33.067779" gradientTransform="translate(1.518885 -494.185356) scale(1.041966 8.335734)" gradientUnits="userSpaceOnUse"><stop offset="0" stop-color="#ffcb7e"/><stop offset=".477789" stop-color="#fdc97d"/><stop offset=".649896" stop-color="#f6c479"/><stop offset=".772573" stop-color="#eaba73"/><stop offset=".8717" stop-color="#d9ad6b"/><stop offset=".955672" stop-color="#c39b60"/><stop offset="1" stop-color="#b59059"/></radialGradient><radialGradient id="GradientSpecialIcon-2" cx="55.101023" cy="66.355862" fx="55.101023" fy="66.355862" r="31.629434" gradientTransform="translate(1.518885 -494.185185) scale(1.041966 8.335734)" xlink:href="#GradientSpecialIcon"/><radialGradient id="GradientSpecialIcon-3" cx="55.102188" cy="66.355885" fx="55.102188" fy="66.355885" r="33.067779" gradientTransform="translate(1.518885 -494.185356) scale(1.041966 8.335734)" xlink:href="#GradientSpecialIcon"/></defs><g id="Warstwa_2-2"><path class="cls-9" d="M42.539411,2.977758c6.571026-.451344,13.416068-2.689852,20.178521-2.942838,22.593263-.892744,47.254689,15.43502,54.176664,37.129006,2.534276,8.464209-.204708,17.334118-2.837609,25.48864-5.729799,17.265495,2.574828,26.108912-.550474,39.664329-2.281819,8.764583-11.040813,13.534851-19.545801,14.814626-17.08226,3.232331-33.63091-5.097037-50.521544-4.511009-5.814141.169064-11.582479,1.284435-17.310545,2.16755-11.017265,1.910452-20.322202,1.611628-22.318616-11.510525-1.622667-9.505079,3.592156-18.700258,2.790691-28.187503-.422649-5.707113-3.158038-11.987779-4.811444-17.931454C-1.382681,46.758847.067261,35.290421,2.993414,24.541781,6.367962,11.096945,13.610152,3.716461,27.78837,2.986408c4.882472-.296188,9.790216.351758,14.628439-.000149l.122601-.008501Z"/><path class="cls-8" d="M64.496987,3.894139c20.772217,0,42.599548,15.437286,48.676758,34.419098,2.229126,7.495697-.454346,15.808136-2.812683,23.112762-3.503357,10.556702-2.199524,18.335571-1.049255,25.198761.85907,5.125122,1.601379,9.55365.412659,14.762543-1.918091,7.24295-9.69397,10.892914-16.343201,11.893433l-.07251.010925-.072021.013641c-2.417725.457458-4.907959.67984-7.612976.67984-6.419922,0-12.779907-1.250641-19.513306-2.574707-6.783997-1.334045-13.79895-2.71347-20.938782-2.713684-.622681-.000031-1.24408.010345-1.845642.031311-4.957092.144104-9.82132.930725-14.52536,1.691437-1.089966.176239-2.178406.352295-3.265411.519897l-.036041.005554-.03595.006256c-3.141937.54483-5.560547.798584-7.611542.798584-5.441376,0-9.044342-1.515259-10.191895-9.057953l-.00528-.034882-.005951-.03476c-.736389-4.313507.227051-8.783203,1.247101-13.51535.987946-4.583374,2.009521-9.322784,1.588501-14.304382-.325378-4.393311-1.799652-8.868561-3.225403-13.196472-.629242-1.910095-1.223602-3.714233-1.717865-5.491028l-.012909-.046387-.014038-.046051c-2.508362-8.22403-2.10379-18.18689,1.236786-30.457855l.010193-.037354.00943-.037537C9.893349,13.047337,16.238991,7.480412,28.024147,6.873387c.8078-.049011,1.673706-.072845,2.647186-.072845,1.349915,0,2.692383.044647,4.113678.091858,1.417175.047119,2.88269.095825,4.351562.095825,1.304871,0,2.470276-.038635,3.550293-.117188l.119385-.008301c3.312988-.2276,6.632568-.865875,9.842834-1.483185,3.556641-.683868,6.915955-1.329834,10.222595-1.453522.534851-.021149,1.080933-.031891,1.624146-.031891h.00116M64.494728.000004c-.592712.000031-1.186584.011597-1.776794.034912-6.762451.252991-13.607483,2.491486-20.178528,2.942841l-.12262.008514c-1.090271.079315-2.184021.107819-3.280212.107819-2.811829,0-5.639526-.187683-8.46524-.187683-.961395,0-1.922821.021759-2.882965.079987C13.610146,3.716465,6.367958,11.096958,2.993416,24.541783.067269,35.290409-1.382683,46.758854,1.789254,57.158573c1.653412,5.943695,4.388794,12.224335,4.811432,17.931458.801483,9.487244-4.413361,18.682434-2.79068,28.1875,1.468536,9.652618,6.891296,12.366394,14.041687,12.366394,2.57016,0,5.363922-.350739,8.276917-.855865,5.728088-.883118,11.496429-1.998474,17.310577-2.167542.578369-.02005,1.154724-.029663,1.7323-.029663,13.534546.000427,26.867126,5.288422,40.452271,5.288422,2.766418,0,5.545898-.219604,8.336975-.747742,8.504944-1.279785,17.263977-6.050049,19.545776-14.814636,3.125305-13.55542-5.179321-22.398834.550476-39.664337,2.632874-8.15451,5.371887-17.024414,2.837585-25.488647C110.153481,16.036656,86.589821-.001094,64.494728.000004h0Z"/><path class="cls-6" d="M64.495217,8.9567c18.70575,0,38.374451,13.844482,43.836365,30.834076,1.762634,5.986816-.660156,13.48999-2.794739,20.100922-3.879395,11.688812-2.403564,20.494446-1.217285,27.572205.796631,4.753876,1.42627,8.510834.489929,12.705902-1.332886,4.824738-7.163147,7.350067-12.204102,8.108704l-.309753.05304c-2.103699.39798-4.286011.591461-6.671509.591461-5.923706,0-12.045471-1.20343-18.540955-2.480347-7.020691-1.380615-14.280334-2.808228-21.91217-2.808228-.681335,0-1.368408.011749-2.035828.034668-5.245117.152161-10.273865.965607-15.13681,1.752258l-.062836.010132c-1.058289.17099-2.115662.341797-3.181122.506195l-.156097.025452c-2.849792.494293-4.993744.724518-6.747131.724518-3.537415,0-4.491364-.188599-5.187927-4.766846l-.024323-.150818c-.572205-3.349579.290894-7.354248,1.205322-11.597137,1.016724-4.716156,2.169098-10.061554,1.68222-15.824097-.36499-4.931915-1.937469-9.705719-3.45932-14.325745-.610077-1.851593-1.18631-3.600494-1.652649-5.276917l-.058228-.200256c-2.221497-7.283722-1.803162-16.328674,1.28186-27.662994l.041901-.160522c2.617126-10.425537,6.95285-14.296234,16.5784-14.792114.765869-.045898,1.53186-.067261,2.410614-.067261,1.27771,0,2.573975.043335,3.974121.090118,1.450012.047882,2.949341.097382,4.492188.097382,1.429077,0,2.715027-.042999,3.922058-.130859l.087769-.005676c3.629456-.249603,7.101257-.917145,10.458862-1.562714,3.360657-.646423,6.534973-1.256989,9.451172-1.366119.488647-.019379.965088-.028381,1.440002-.028381M64.495217,7.788487c-.490234,0-.981934.009277-1.486328.029297-3.000977.112305-6.21875.730957-9.625488,1.38623-3.324219.63916-6.76123,1.299805-10.318359,1.544434l-.083008.005371c-1.187988.086426-2.446289.128418-3.84668.128418-1.533203,0-3.031738-.049805-4.480957-.097656-1.388184-.046387-2.699707-.089844-3.985352-.089844-.893066,0-1.681641.021484-2.480469.069336-10.123047.521484-14.904297,4.769531-17.641602,15.673828l-.039062.149414c-3.141602,11.541992-3.556641,20.798828-1.269043,28.299316l.053711.185059c.469727,1.688965,1.050293,3.451172,1.665039,5.316895,1.499023,4.550781,3.049316,9.256348,3.403809,14.046387.473145,5.600586-.659668,10.855469-1.65918,15.491699-.938477,4.354492-1.825195,8.467285-1.214844,12.040039l.022461.139648c.799316,5.253906,2.373535,5.749512,6.341309,5.749512,1.822754,0,4.030273-.23584,6.946777-.741699l.144043-.023438c1.07959-.166504,2.160645-.341309,3.242676-.516113,4.82666-.780762,9.817383-1.587891,14.984375-1.737793.668457-.022949,1.334473-.03418,2.001953-.03418,7.519531,0,14.723633,1.416992,21.690918,2.787109,6.54248,1.286133,12.72168,2.501465,18.762207,2.501465,2.459961,0,4.712891-.200195,6.888672-.611816l.289062-.049316c5.403809-.812988,11.674805-3.597656,13.141602-8.978027.995117-4.429688.34668-8.297363-.472168-13.183594-1.164551-6.948242-2.61377-15.595215,1.174316-27.008789,2.189941-6.782227,4.670898-14.466797,2.806641-20.798828-5.616211-17.470703-25.765625-31.672363-44.957031-31.672363h0Z"/></g><g id="Warstwa_4"><g id="kotwica" class="cls-5"><image class="cls-4" width="102" height="100" transform="translate(7.990822 8.890049)" xlink:href="port-1.png"/><path id="anchorPath" class="cls-7" d="M94.136242,73.346386c-.212937-1.335445-1.236709-4.557682-1.036759-3.911545s-1.177173-4.042609-1.95577-5.998602c-1.182634-2.655973-3.50309-1.926595-5.418226-.53974-1.970357,1.313922-3.940718,2.655973-5.896488,3.99907-1.926595,1.138868-3.138404,3.503092-.937771,5.050413.875252.71479,2.32046.77314,2.802888,1.736958.189637.568915-.306337,1.168043-.71479,1.591084-3.396037,3.186277-8.008093,4.741246-12.640094,4.261644-1.984945-.145875-4.203293-1.036756-4.889949-3.05088-.248702-.787886-.36696-1.611125-.350099-2.437161-.014587-4.817013,0-9.632981,0-14.449994-.087525-1.882833.846077-2.466336,2.61221-2.364224,1.146957-.061117,2.297079-.002148,3.431616.175898.057208.008978.114886.022925.169849.041158,2.538628.842121,4.339388,2.463522,7.097443.716546,2.09389-1.482212,2.589756-4.381216,1.107546-6.475108-.33129-.468007-.746369-.870632-1.224246-1.187515-3.328041-2.02871-4.758662.510563-7.691796.978406-.737653.063179-1.478394.082664-2.218348.05835-1.693195.072937-3.230094,0-3.269691-1.984947-.364687-3.503092,1.693195-3.824018,3.751077-5.911078,4.019916-4.058452,4.034507-11.414736-.261521-15.26793-4.247055-4.013656-11.734626-4.203294-15.705559.306338-4.109633,4.54039-3.760436,11.55262.779952,15.662255.37932.343332.781946.660002,1.204994.947736.515988.320297.958815.744773,1.300431,1.245741.048573.07123.088442.149977.118119.230923.446018,1.216521.486801,2.546026.114181,3.789436-.510563,1.240982-1.89742.920056-3.138402.978406-3.473915.247989-3.794842-1.168045-6.510207-1.736958-2.419786-.302559-4.662277,1.315529-5.137936,3.707318-.458599,2.498935,1.195419,4.896487,3.694353,5.355086.447289.082087.904278.097394,1.356058.045428,1.479467-.143537,2.633075-1.248503,4.04651-1.603519.045826-.01151.092799-.02033.139561-.027097,1.102992-.159614,2.221303-.185546,3.330676-.077167,1.693195-.043762,2.524685.671026,2.422573,2.422573-.1167,5.35675.218812,10.757266-.145875,16.084841-.408451,2.67056-3.240516,3.82402-5.677674,3.88237-4.474158.347313-8.883244-1.235515-12.114943-4.349169-.520983-.53974-1.109694-1.386859-.393864-1.941183.978407-.65644,2.875827-1.343097,3.503091-2.276699,1.678608-2.510098-2.97794-4.68885-5.254637-6.451859-7.860598-6.215332-7.78766-1.778638-10.255036,5.827718-.714789,2.083933-1.503557,6.07154,1.809895,5.939211,1.245775,0,2.423544-.750947,3.560856-.401427.096625.029695.190624.079387.273006.137965.665405.473136,1.18388,1.126056,1.493711,1.88372,1.091044,1.835346,2.388765,3.539656,3.867779,5.079588,6.524792,7.035358,16.493286,10.042476,25.907452,9.428761,11.133927-.463653,20.597409-6.616093,26.474961-16.109939.078171-.126267.185926-.241409.320897-.303352.984559-.451855,1.889154.324989,3.315927.213833,1.523604-.1187,2.599415-.53127,2.890417-1.836602.077357-.347011-.05835-1.085077-.05835-1.085077ZM62.199971,40.391065c-5.939209,4.671137-12.55257-4.992063-6.027775-8.889018,2.367188-1.449004,5.456467-.766334,6.992639,1.545237,1.772588,2.218046,1.411474,5.453096-.806572,7.225684-.043186.034512-.158292.118097-.158292.118097Z"/><path id="anchorPath-2" class="cls-1" d="M94.136242,73.346386c-.212937-1.335445-1.236709-4.557682-1.036759-3.911545s-1.177173-4.042609-1.95577-5.998602c-1.182634-2.655973-3.50309-1.926595-5.418226-.53974-1.970357,1.313922-3.940718,2.655973-5.896488,3.99907-1.926595,1.138868-3.138404,3.503092-.937771,5.050413.875252.71479,2.32046.77314,2.802888,1.736958.189637.568915-.306337,1.168043-.71479,1.591084-3.396037,3.186277-8.008093,4.741246-12.640094,4.261644-1.984945-.145875-4.203293-1.036756-4.889949-3.05088-.248702-.787886-.36696-1.611125-.350099-2.437161-.014587-4.817013,0-9.632981,0-14.449994-.087525-1.882833.846077-2.466336,2.61221-2.364224,1.146957-.061117,2.297079-.002148,3.431616.175898.057208.008978.114886.022925.169849.041158,2.538628.842121,4.339388,2.463522,7.097443.716546,2.09389-1.482212,2.589756-4.381216,1.107546-6.475108-.33129-.468007-.746369-.870632-1.224246-1.187515-3.328041-2.02871-4.758662.510563-7.691796.978406-.737653.063179-1.478394.082664-2.218348.05835-1.693195.072937-3.230094,0-3.269691-1.984947-.364687-3.503092,1.693195-3.824018,3.751077-5.911078,4.019916-4.058452,4.034507-11.414736-.261521-15.26793-4.247055-4.013656-11.734626-4.203294-15.705559.306338-4.109633,4.54039-3.760436,11.55262.779952,15.662255.37932.343332.781946.660002,1.204994.947736.515988.320297.958815.744773,1.300431,1.245741.048573.07123.088442.149977.118119.230923.446018,1.216521.486801,2.546026.114181,3.789436-.510563,1.240982-1.89742.920056-3.138402.978406-3.473915.247989-3.794842-1.168045-6.510207-1.736958-2.419786-.302559-4.662277,1.315529-5.137936,3.707318-.458599,2.498935,1.195419,4.896487,3.694353,5.355086.447289.082087.904278.097394,1.356058.045428,1.479467-.143537,2.633075-1.248503,4.04651-1.603519.045826-.01151.092799-.02033.139561-.027097,1.102992-.159614,2.221303-.185546,3.330676-.077167,1.693195-.043762,2.524685.671026,2.422573,2.422573-.1167,5.35675.218812,10.757266-.145875,16.084841-.408451,2.67056-3.240516,3.82402-5.677674,3.88237-4.474158.347313-8.883244-1.235515-12.114943-4.349169-.520983-.53974-1.109694-1.386859-.393864-1.941183.978407-.65644,2.875827-1.343097,3.503091-2.276699,1.678608-2.510098-2.97794-4.68885-5.254637-6.451859-7.860598-6.215332-7.78766-1.778638-10.255036,5.827718-.714789,2.083933-1.503557,6.07154,1.809895,5.939211,1.245775,0,2.423544-.750947,3.560856-.401427.096625.029695.190624.079387.273006.137965.665405.473136,1.18388,1.126056,1.493711,1.88372,1.091044,1.835346,2.388765,3.539656,3.867779,5.079588,6.524792,7.035358,16.493286,10.042476,25.907452,9.428761,11.133927-.463653,20.597409-6.616093,26.474961-16.109939.078171-.126267.185926-.241409.320897-.303352.984559-.451855,1.889154.324989,3.315927.213833,1.523604-.1187,2.599415-.53127,2.890417-1.836602.077357-.347011-.05835-1.085077-.05835-1.085077ZM62.199971,40.391065c-5.939209,4.671137-12.55257-4.992063-6.027775-8.889018,2.367188-1.449004,5.456467-.766334,6.992639,1.545237,1.772588,2.218046,1.411474,5.453096-.806572,7.225684-.043186.034512-.158292.118097-.158292.118097Z"/><path class="cls-3" d="M58.800881,91.045323c-8.925293,0-17.095703-3.290039-22.416504-9.026367-1.390137-1.448242-2.604004-3.036133-3.625977-4.73877-.421387-.973633-1.099121-1.811035-1.96582-2.427246-.220215-.15625-.455566-.273438-.700195-.349121-.344238-.105469-.710938-.15918-1.09082-.15918-.646973,0-1.243652.152344-1.770508.286621-.418945.106445-.814453.20752-1.141602.20752l-.158203.003418c-.461914,0-.554688-.129883-.584961-.172852-.317383-.444336-.29834-1.88623.352539-3.782715.321777-.992188.595215-1.90918.849121-2.760742.798828-2.680664,1.48877-4.995605,2.42041-4.995605.604004,0,1.898438.454102,4.63623,2.618652.519043.401855,1.101562.791504,1.718262,1.203613,1.044922.69873,2.229492,1.490723,2.889648,2.234375.570312.643066.442383.834473.32959,1.00293-.20459.304688-1.175293.80957-1.755371,1.111328-.485352.251953-.943359.490234-1.336426.753906l-.08252.05957c-.538574.416992-.86084,1.002441-.907227,1.648438-.05957.82666.324219,1.674805,1.140625,2.520508,3.261719,3.144043,7.500977,4.854492,11.976562,4.854492.442871,0,.888184-.01709,1.333496-.051758,3.084961-.071289,6.515625-1.694824,7.044434-5.150879l.013672-.124512c.225586-3.296875.187988-6.645996.151367-9.885254-.023438-2.061035-.047363-4.192383-.002441-6.269531.070801-1.196777-.22998-2.189453-.896484-2.895996-.664062-.704102-1.633789-1.061035-2.881836-1.061035l-.082031.000977c-.466797-.042969-.94043-.064453-1.40918-.064453-.73291,0-1.472656.053223-2.198242.158203-.100586.014648-.199219.033691-.295898.058594-.789062.197754-1.479492.561523-2.088379.882324-.641113.337402-1.195312.629395-1.731934.681152-.143555.016602-.262207.023438-.380859.023438-.1875,0-.375488-.017578-.55957-.05127-1.681152-.308594-2.797852-1.927734-2.489258-3.609375.287598-1.447266,1.584961-2.513672,3.080078-2.513672.111816,0,.224121.005859.337402.017578.825195.181152,1.381836.459961,1.970215.754883.962891.482422,2.054199,1.029297,4.015137,1.029297.271484,0,.562988-.010254.876465-.032715.070312-.00293.178223-.003906.287109-.003906l.681152.005371c.729492,0,2.666504,0,3.450684-1.905273l.02832-.068848.021484-.071289c.461914-1.541992.411133-3.224121-.143066-4.73584-.073242-.200684-.169922-.388672-.287598-.560547-.462402-.678223-1.050781-1.241699-1.747559-1.674316-.311035-.212891-.661621-.48877-.990234-.786133-1.898926-1.718262-3.014648-4.07373-3.14209-6.631836s.749023-5.012207,2.467773-6.911621c1.626465-1.847168,4-2.855957,6.696289-2.855957,2.592773,0,5.095703.959961,6.866699,2.633789,1.701172,1.526367,2.702637,3.811523,2.775879,6.296387.077637,2.623535-.851562,5.111328-2.549316,6.825195-.467773.474121-.948242.855469-1.413086,1.224121-1.454102,1.154297-3.101074,2.461426-2.770508,5.837891.050781,1.570312.810059,3.407227,4.083984,3.406738.225586,0,.457031-.006348.691406-.016113.203613.006348.406738.009277.609863.009277.574219,0,1.155762-.024902,1.728027-.07373l.108887-.013184c1.207031-.192871,2.161133-.651855,3.002441-1.056641.788086-.379395,1.410156-.678711,2.041504-.678711.483398,0,1.016602.181641,1.630859.556152.276367.18457.555176.455078.780273.773438.48584.685547.675293,1.519043.533203,2.347168-.141602.828125-.597168,1.551758-1.282715,2.037109-.523438.329102-1.04248.502441-1.569336.502441-.737305,0-1.53125-.340332-2.450684-.734375-.544434-.233398-1.107422-.474609-1.738281-.684082-.126465-.04248-.264648-.076172-.401367-.098145-.928711-.145508-1.866699-.21875-2.796387-.21875-.291504,0-.583008.007324-.874512.021484-.126953-.006348-.250488-.009277-.370605-.009277-1.250488,0-2.179199.335938-2.838867,1.027344-.656738.687988-.960449,1.669434-.902832,2.91748l-.004883,4.746094c-.00293,3.212891-.006348,6.425781.003418,9.63916-.02002.95459.121094,1.936523.419434,2.883789.94043,2.760254,3.823242,3.919922,6.210938,4.095703.554688.058105,1.163086.089355,1.76416.089355,4.479492,0,8.745117-1.688477,12.011719-4.753418.4375-.450195,1.61084-1.664062,1.111328-3.159668l-.033691-.101074-.047852-.095215c-.540039-1.078613-1.577148-1.498535-2.334961-1.805176-.334473-.135254-.680664-.275391-.86084-.422363l-.085449-.064941c-.557129-.391602-.544922-.690918-.540527-.803223.018066-.464844.498047-1.208496,1.378906-1.729492l.085938-.054688c1.949707-1.338867,3.914551-2.677246,5.879395-3.987305.89209-.644531,1.683105-.995117,2.21875-.995117.193848,0,.597656,0,.99707.896973.626465,1.57666,1.790039,5.447266,1.89502,5.82959.314941,1.022949.853516,2.874023.986328,3.707031.041504.22998.069336.504883.062988.598145-.040039.15918-.111816.480957-1.530273.591309-.057617.004395-.113281.006836-.167969.006836-.338867,0-.670898-.080078-1.022949-.164551-.395508-.095215-.843262-.203125-1.337402-.203125-.456543,0-.892578.094238-1.296387.279297-.391113.179199-.727051.48291-.97168.878906-5.793945,9.358398-15.001953,14.97168-25.26123,15.399414-.794434.05127-1.566406.076172-2.329102.076172ZM58.861916,29.2421c-1.224121,0-2.425293.339355-3.473145.980469-2.77002,1.654297-3.987305,4.544434-3.163086,7.533203.86084,3.119141,3.658203,5.383301,6.651367,5.383301,1.472168,0,2.938477-.540039,4.241699-1.5625.008301-.005371.125977-.091797.174805-.130859,1.387207-1.108398,2.258301-2.689453,2.455078-4.452148.194336-1.741211-.29248-3.454102-1.371582-4.831055-1.241699-1.830078-3.29834-2.92041-5.515137-2.92041Z"/><path id="anchorPath-3" class="cls-2" d="M94.136242,73.346386c-.212937-1.335445-1.236709-4.557682-1.036759-3.911545s-1.177173-4.042609-1.95577-5.998602c-1.182634-2.655973-3.50309-1.926595-5.418226-.53974-1.970357,1.313922-3.940718,2.655973-5.896488,3.99907-1.926595,1.138868-3.138404,3.503092-.937771,5.050413.875252.71479,2.32046.77314,2.802888,1.736958.189637.568915-.306337,1.168043-.71479,1.591084-3.396037,3.186277-8.008093,4.741246-12.640094,4.261644-1.984945-.145875-4.203293-1.036756-4.889949-3.05088-.248702-.787886-.36696-1.611125-.350099-2.437161-.014587-4.817013,0-9.632981,0-14.449994-.087525-1.882833.846077-2.466336,2.61221-2.364224,1.146957-.061117,2.297079-.002148,3.431616.175898.057208.008978.114886.022925.169849.041158,2.538628.842121,4.339388,2.463522,7.097443.716546,2.09389-1.482212,2.589756-4.381216,1.107546-6.475108-.33129-.468007-.746369-.870632-1.224246-1.187515-3.328041-2.02871-4.758662.510563-7.691796.978406-.737653.063179-1.478394.082664-2.218348.05835-1.693195.072937-3.230094,0-3.269691-1.984947-.364687-3.503092,1.693195-3.824018,3.751077-5.911078,4.019916-4.058452,4.034507-11.414736-.261521-15.26793-4.247055-4.013656-11.734626-4.203294-15.705559.306338-4.109633,4.54039-3.760436,11.55262.779952,15.662255.37932.343332.781946.660002,1.204994.947736.515988.320297.958815.744773,1.300431,1.245741.048573.07123.088442.149977.118119.230923.446018,1.216521.486801,2.546026.114181,3.789436-.510563,1.240982-1.89742.920056-3.138402.978406-3.473915.247989-3.794842-1.168045-6.510207-1.736958-2.419786-.302559-4.662277,1.315529-5.137936,3.707318-.458599,2.498935,1.195419,4.896487,3.694353,5.355086.447289.082087.904278.097394,1.356058.045428,1.479467-.143537,2.633075-1.248503,4.04651-1.603519.045826-.01151.092799-.02033.139561-.027097,1.102992-.159614,2.221303-.185546,3.330676-.077167,1.693195-.043762,2.524685.671026,2.422573,2.422573-.1167,5.35675.218812,10.757266-.145875,16.084841-.408451,2.67056-3.240516,3.82402-5.677674,3.88237-4.474158.347313-8.883244-1.235515-12.114943-4.349169-.520983-.53974-1.109694-1.386859-.393864-1.941183.978407-.65644,2.875827-1.343097,3.503091-2.276699,1.678608-2.510098-2.97794-4.68885-5.254637-6.451859-7.860598-6.215332-7.78766-1.778638-10.255036,5.827718-.714789,2.083933-1.503557,6.07154,1.809895,5.939211,1.245775,0,2.423544-.750947,3.560856-.401427.096625.029695.190624.079387.273006.137965.665405.473136,1.18388,1.126056,1.493711,1.88372,1.091044,1.835346,2.388765,3.539656,3.867779,5.079588,6.524792,7.035358,16.493286,10.042476,25.907452,9.428761,11.133927-.463653,20.597409-6.616093,26.474961-16.109939.078171-.126267.185926-.241409.320897-.303352.984559-.451855,1.889154.324989,3.315927.213833,1.523604-.1187,2.599415-.53127,2.890417-1.836602.077357-.347011-.05835-1.085077-.05835-1.085077ZM62.199971,40.391065c-5.939209,4.671137-12.55257-4.992063-6.027775-8.889018,2.367188-1.449004,5.456467-.766334,6.992639,1.545237,1.772588,2.218046,1.411474,5.453096-.806572,7.225684-.043186.034512-.158292.118097-.158292.118097Z"/></g></g></svg>