<?xml version="1.0" encoding="UTF-8"?><svg id="Warstwa_2" xmlns="http://www.w3.org/2000/svg" xmlns:xlink="http://www.w3.org/1999/xlink" viewBox="0 0 30 30"><defs><radialGradient id="MENU_BORDER_SQUARE" cx="622.432435" cy="252.361892" fx="622.432435" fy="252.361892" r="7.031792" gradientTransform="translate(-4234.49561 -1757.897248) rotate(-45.000008) scale(2.813576 16.874478)" gradientUnits="userSpaceOnUse"><stop offset="0" stop-color="#ffcb7e"/><stop offset=".262059" stop-color="#fbc87c"/><stop offset=".482601" stop-color="#f1c077"/><stop offset=".688148" stop-color="#dfb26e"/><stop offset=".883389" stop-color="#c79e62"/><stop offset="1" stop-color="#b59059"/></radialGradient><radialGradient id="Nowa_próbka_gradientu_3" cx="15" cy="15" fx="15" fy="15" r="15" gradientTransform="translate(0 -.021288)" gradientUnits="userSpaceOnUse"><stop offset=".00455" stop-color="#8c6239"/><stop offset=".48127" stop-color="#895f36"/><stop offset=".786046" stop-color="#80572e"/><stop offset="1" stop-color="#754c24"/></radialGradient><radialGradient id="Nowa_próbka_gradientu_9" cx="14.999878" cy="15.000122" fx="14.999878" fy="15.000122" r="12.231934" gradientTransform="translate(0 -.021288)" gradientUnits="userSpaceOnUse"><stop offset=".00455" stop-color="#8c6239"/><stop offset=".48127" stop-color="#895f36"/><stop offset=".786046" stop-color="#80572e"/><stop offset="1" stop-color="#754c24"/></radialGradient><radialGradient id="Nowa_próbka_gradientu_3-2" cx="10.497352" cy="17.103134" fx="10.497352" fy="17.103134" r="9.06566" gradientTransform="translate(3.130286 -139.712424) scale(1.130732 9.045853)" xlink:href="#Nowa_próbka_gradientu_3"/></defs><g id="Warstwa_3"><g id="anchorIcon"><rect x="1.01062" y="1.01062" width="27.97876" height="27.979004" style="fill:url(#MENU_BORDER_SQUARE);"/><path d="M28.616028,1.383942l-.000671,27.231598-27.231384.000549.000671-27.231659,27.231384-.000488M30,0L.000793.000549l-.000793,29.999451,29.999207-.000549.000793-29.999451h0Z" style="fill:url(#Nowa_próbka_gradientu_3);"/><path d="M26.81665,3.18335v23.633545H3.183105l.000488-23.633545h23.633057M27.231812,2.768188H2.768433l-.000488,24.463867h24.463867V2.768188h0Z" style="fill:url(#Nowa_próbka_gradientu_9);"/><g id="kotwica" style="isolation:isolate;"><path id="anchorPath" d="M25.465361,19.285064c-.063335-.397206-.166648-.786995-.308367-1.163424-.155835-.606473-.350131-1.202407-.581711-1.784185-.351755-.789975-1.041937-.573034-1.611562-.160537-.58605.390804-1.172102.789975-1.753813,1.189457-.573034.338737-.933466,1.041937-.278925,1.502162.260329.212602.690183.229958.833673.51663.056404.169214-.091115.347415-.212602.473241-1.010095.947705-2.381875,1.410205-3.759588,1.267555-.590389-.043388-1.2502-.308366-1.454435-.907434-.073972-.234344-.109146-.479202-.104131-.724893-.004339-1.432741,0-2.865171,0-4.297912-.026033-.560018.251652-.733571.776959-.703199.349772-.018638.700534.000271,1.046275.056404.768281.247932,1.306605.746587,2.135939.22128.622793-.440859.77028-1.30312.329421-1.925914-.098537-.139201-.221995-.258955-.364132-.353207-.989871-.603406-1.415386.151859-2.287798.291011-.219403.018792-.439724.024587-.659811.017355-.503613.021694-.960738,0-.972516-.59039-.10847-1.041937.503613-1.137391,1.115696-1.758152,1.195658-1.207119,1.199998-3.395124-.077785-4.541193-1.263217-1.193795-3.490271-1.2502-4.67136.091115-1.222343,1.350464-1.11848,3.436136.231984,4.658479.112822.102118.232577.196307.358406.281889.164465.102091.30394.239765.408159.40289.145473.371578.162276.781179.047727,1.163424-.151859.36911-.564356.273655-.933466.291011-1.033259.07376-1.128713-.347416-1.936354-.51663-.719726-.089991-1.386718.391282-1.528194,1.10268-.136403.743267.355558,1.456379,1.098824,1.592782.133039.024416.268963.028968.403337.013512.447209-.043388.794314-.382126,1.224167-.481919.334838-.05021.674588-.058953,1.011565-.026033.503613-.013016.750926.199585.720554.720554-.03471,1.593277.065082,3.199571-.043388,4.78417-.121487.794314-.963838,1.137391-1.688731,1.154747-1.330765.103302-2.642174-.367483-3.60339-1.293588-.154958-.160537-.33006-.412498-.117148-.577373.291011-.195247.855367-.399482,1.041937-.677166.499274-.746587-.885739-1.394621-1.562905-1.918999-2.338005-1.848648-2.316311-.529026-3.050192,1.733358-.212602.619832-.447208,1.805879.538324,1.76652.386465,0,.750926-.242974,1.10268-.104131.216022.142328.384001.346603.481919.58605.324513.545893.710499,1.052812,1.150407,1.510839,1.940692,2.092551,4.905656,2.986968,7.705745,2.804429,3.334073-.138842,6.164534-1.992758,7.909979-4.849252.317043-.199586.677165.017355,1.046275.030991.388248.086554.773153-.158018.859707-.546267.023009-.103213.023009-.210226,0-.313439v-.008678l-.017355-.000622ZM15.966444,9.483049c-1.76652,1.389352-3.733555-1.484806-1.792862-2.643891.704081-.430982,1.622936-.227933,2.079845.459605.527227.659721.41982,1.621933-.239901,2.14916-.012845.010265-.047081.035126-.047081.035126Z" style="fill:#ecbc76;"/><path id="anchorPath-2" d="M25.465361,19.285064c-.063335-.397206-.166648-.786995-.308367-1.163424-.155835-.606473-.350131-1.202407-.581711-1.784185-.351755-.789975-1.041937-.573034-1.611562-.160537-.58605.390804-1.172102.789975-1.753813,1.189457-.573034.338737-.933466,1.041937-.278925,1.502162.260329.212602.690183.229958.833673.51663.056404.169214-.091115.347415-.212602.473241-1.010095.947705-2.381875,1.410205-3.759588,1.267555-.590389-.043388-1.2502-.308366-1.454435-.907434-.073972-.234344-.109146-.479202-.104131-.724893-.004339-1.432741,0-2.865171,0-4.297912-.026033-.560018.251652-.733571.776959-.703199.349772-.018638.700534.000271,1.046275.056404.768281.247932,1.306605.746587,2.135939.22128.622793-.440859.77028-1.30312.329421-1.925914-.098537-.139201-.221995-.258955-.364132-.353207-.989871-.603406-1.415386.151859-2.287798.291011-.219403.018792-.439724.024587-.659811.017355-.503613.021694-.960738,0-.972516-.59039-.10847-1.041937.503613-1.137391,1.115696-1.758152,1.195658-1.207119,1.199998-3.395124-.077785-4.541193-1.263217-1.193795-3.490271-1.2502-4.67136.091115-1.222343,1.350464-1.11848,3.436136.231984,4.658479.112822.102118.232577.196307.358406.281889.164465.102091.30394.239765.408159.40289.145473.371578.162276.781179.047727,1.163424-.151859.36911-.564356.273655-.933466.291011-1.033259.07376-1.128713-.347416-1.936354-.51663-.719726-.089991-1.386718.391282-1.528194,1.10268-.136403.743267.355558,1.456379,1.098824,1.592782.133039.024416.268963.028968.403337.013512.447209-.043388.794314-.382126,1.224167-.481919.334838-.05021.674588-.058953,1.011565-.026033.503613-.013016.750926.199585.720554.720554-.03471,1.593277.065082,3.199571-.043388,4.78417-.121487.794314-.963838,1.137391-1.688731,1.154747-1.330765.103302-2.642174-.367483-3.60339-1.293588-.154958-.160537-.33006-.412498-.117148-.577373.291011-.195247.855367-.399482,1.041937-.677166.499274-.746587-.885739-1.394621-1.562905-1.918999-2.338005-1.848648-2.316311-.529026-3.050192,1.733358-.212602.619832-.447208,1.805879.538324,1.76652.386465,0,.750926-.242974,1.10268-.104131.216022.142328.384001.346603.481919.58605.324513.545893.710499,1.052812,1.150407,1.510839,1.940692,2.092551,4.905656,2.986968,7.705745,2.804429,3.334073-.138842,6.164534-1.992758,7.909979-4.849252.317043-.199586.677165.017355,1.046275.030991.388248.086554.773153-.158018.859707-.546267.023009-.103213.023009-.210226,0-.313439v-.008678l-.017355-.000622ZM15.966444,9.483049c-1.76652,1.389352-3.733555-1.484806-1.792862-2.643891.704081-.430982,1.622936-.227933,2.079845.459605.527227.659721.41982,1.621933-.239901,2.14916-.012845.010265-.047081.035126-.047081.035126Z" style="fill:url(#Nowa_próbka_gradientu_3-2);"/></g></g></g></svg>