<?xml version="1.0" encoding="UTF-8"?><svg id="Warstwa_2" xmlns="http://www.w3.org/2000/svg" xmlns:xlink="http://www.w3.org/1999/xlink" viewBox="0 0 380.081 79.546"><defs><style>.cls-1{fill:#bcbbd0;}.cls-2{fill:url(#Gradient_bez_nazwy_96-3);}.cls-3{fill:url(#Gradient_bez_nazwy_96);}.cls-4{filter:url(#drop-shadow-1);}.cls-5{fill:url(#Gradient_bez_nazwy_96-5);}.cls-6{fill:#603813;}.cls-7{fill:url(#Gradient_bez_nazwy_96-4);}.cls-8{fill:url(#Gradient_bez_nazwy_96-2);}</style><filter id="drop-shadow-1" x="-15.793" y="-14.216" width="411" height="101" filterUnits="userSpaceOnUse"><feOffset dx="0" dy="0"/><feGaussianBlur result="blur" stdDeviation="5"/><feFlood flood-color="#000" flood-opacity=".3"/><feComposite in2="blur" operator="in"/><feComposite in="SourceGraphic"/></filter><radialGradient id="Gradient_bez_nazwy_96" cx="345.868" cy="43.477" fx="345.868" fy="43.477" r="29.032" gradientTransform="translate(0 -304.336) scale(1 8)" gradientUnits="userSpaceOnUse"><stop offset="0" stop-color="#ffcb7e"/><stop offset=".262" stop-color="#fbc87c"/><stop offset=".483" stop-color="#f1c077"/><stop offset=".688" stop-color="#dfb26e"/><stop offset=".883" stop-color="#c79e62"/><stop offset="1" stop-color="#b59059"/></radialGradient><radialGradient id="Gradient_bez_nazwy_96-2" cx="333.662" cy="59.051" fx="333.662" fy="59.051" r="13.604" gradientTransform="translate(0 -413.356) scale(1 8)" xlink:href="#Gradient_bez_nazwy_96"/><radialGradient id="Gradient_bez_nazwy_96-3" cx="34.213" cy="43.477" fx="34.213" fy="43.477" r="29.032" gradientTransform="translate(0 -304.336) scale(1 8)" xlink:href="#Gradient_bez_nazwy_96"/><radialGradient id="Gradient_bez_nazwy_96-4" cx="46.419" cy="59.051" fx="46.419" fy="59.051" r="13.604" gradientTransform="translate(0 -413.357) scale(1 8)" xlink:href="#Gradient_bez_nazwy_96"/><radialGradient id="Gradient_bez_nazwy_96-5" cx="190.041" cy="29.134" fx="190.041" fy="29.134" r="115.179" gradientTransform="translate(-43.032 219.175) rotate(-90) scale(1 8)" xlink:href="#Gradient_bez_nazwy_96"/></defs><g id="Warstwa_4"><g id="islandFrame" class="cls-4"><path class="cls-1" d="M376.078,69.077c-.109.013-.221.019-.333.016-9.346-.27-18.703-.51-28.053-.736-9.278-.224-18.686-.434-27.963-.621-1.08-.023-1.964-.829-2.052-1.87-1.295-15.26-2.591-30.52-3.886-45.78-.049-.581.151-1.155.55-1.579.348-.37.817-.595,1.318-.639.074-.006.149-.009.224-.007,8.973.192,18.122.446,27.146.701,9.009.254,18.173.535,27.24.832,1.014.033,1.852.794,1.977,1.795.715,5.725-5.112,15.303-10.231,22.295-.946,1.293-.745,3.054.475,4.095,6.599,5.631,14.735,13.476,15.45,19.201.074.595-.125,1.194-.548,1.639-.346.365-.813.596-1.312.658Z"/><path class="cls-3" d="M376.078,69.077c-.109.013-.221.019-.333.016-9.346-.27-18.703-.51-28.053-.736-9.278-.224-18.686-.434-27.963-.621-1.08-.023-1.964-.829-2.052-1.87-1.295-15.26-2.591-30.52-3.886-45.78-.049-.581.151-1.155.55-1.579.348-.37.817-.595,1.318-.639.074-.006.149-.009.224-.007,8.973.192,18.122.446,27.146.701,9.009.254,18.173.535,27.24.832,1.014.033,1.852.794,1.977,1.795.715,5.725-5.112,15.303-10.231,22.295-.946,1.293-.745,3.054.475,4.095,6.599,5.631,14.735,13.476,15.45,19.201.074.595-.125,1.194-.548,1.639-.346.365-.813.596-1.312.658Z"/><path class="cls-6" d="M315.833,19.91c9.031.212,18.074.446,27.134.701,9.059.256,18.135.533,27.229.832.66,5.347-5.878,15.388-9.88,20.849-1.574,2.148-1.243,5.101.786,6.834,5.159,4.407,14.064,12.568,14.724,17.915-9.355-.266-18.711-.511-28.068-.736-9.34-.226-18.664-.433-27.976-.621-.197-2.286-.395-4.573-.592-6.859-.197-2.287-.395-4.573-.592-6.86-.461-5.343-.922-10.685-1.383-16.028-.461-5.343-.922-10.685-1.383-16.028M315.481,15.824c-.998.086-1.937.537-2.632,1.275-.798.848-1.2,1.996-1.103,3.157.535,6.413.803,9.619,1.338,16.032s.803,9.619,1.338,16.032c.229,2.745.344,4.117.573,6.861.229,2.744.344,4.117.573,6.861.174,2.084,1.942,3.699,4.104,3.743,9.266.187,18.668.396,27.95.621,9.347.225,18.695.471,28.041.737.224.006.447-.004.667-.032,1.001-.124,1.936-.587,2.628-1.318.844-.891,1.242-2.09,1.092-3.279-.646-5.115-6.172-11.956-16.18-20.484-.404-.344-.472-.927-.159-1.356,7.757-10.609,11.226-18.627,10.58-23.742-.253-2.002-1.93-3.521-3.954-3.587-9.057-.297-18.224-.578-27.253-.832-9.022-.255-18.158-.491-27.156-.702-.15-.003-.3.001-.448.014h0Z"/><path class="cls-8" d="M319.96,67.727c-.432.037-.872-.055-1.254-.272-.588-.335-.971-.924-1.029-1.583-.47-5.307-.704-7.961-1.174-13.268-.051-.581.153-1.158.562-1.585.356-.372.838-.599,1.35-.643.076-.007.153-.009.23-.008,10.034.199,20.1.459,30.149.726.98.025,1.809.71,1.996,1.65.187.939-.318,1.884-1.218,2.273-9.643,4.173-19.289,8.36-28.934,12.539-.218.094-.447.151-.679.171Z"/><path class="cls-6" d="M318.592,52.418c10.046.216,20.091.458,30.135.726-9.648,4.179-19.295,8.36-28.943,12.541-.397-4.422-.795-8.845-1.192-13.267M318.239,48.332c-1.023.088-1.984.542-2.697,1.284-.818.853-1.229,2.006-1.128,3.17.462,5.308.693,7.962,1.155,13.27.115,1.318.879,2.499,2.056,3.168.766.436,1.646.62,2.512.545.464-.04.923-.154,1.359-.343,9.641-4.179,19.282-8.359,28.923-12.537,1.803-.781,2.812-2.672,2.435-4.55-.377-1.878-2.035-3.245-3.993-3.296-10.053-.267-20.107-.509-30.161-.726-.155-.003-.308.002-.461.015h0Z"/><path class="cls-1" d="M4.002,69.077c-.5-.062-.967-.293-1.313-.658-.422-.445-.622-1.044-.547-1.639.715-5.725,8.849-13.569,15.451-19.201,1.22-1.042,1.422-2.802.476-4.095-5.117-6.992-10.947-16.57-10.232-22.295.125-1.001.964-1.762,1.977-1.795,9.066-.297,18.231-.578,27.241-.832,9.019-.254,18.15-.49,27.145-.701.075-.002.15,0,.224.007.5.043.97.268,1.317.639.4.424.599.998.55,1.579-1.295,15.26-2.591,30.52-3.887,45.78-.088,1.041-.973,1.848-2.052,1.87-9.278.19-18.689.397-27.962.621-9.351.226-18.704.47-28.055.736-.112.003-.223-.002-.333-.016Z"/><path class="cls-2" d="M4.002,69.077c-.5-.062-.967-.293-1.313-.658-.422-.445-.622-1.044-.547-1.639.715-5.725,8.849-13.569,15.451-19.201,1.22-1.042,1.422-2.802.476-4.095-5.117-6.992-10.947-16.57-10.232-22.295.125-1.001.964-1.762,1.977-1.795,9.066-.297,18.231-.578,27.241-.832,9.019-.254,18.15-.49,27.145-.701.075-.002.15,0,.224.007.5.043.97.268,1.317.639.4.424.599.998.55,1.579-1.295,15.26-2.591,30.52-3.887,45.78-.088,1.041-.973,1.848-2.052,1.87-9.278.19-18.689.397-27.962.621-9.351.226-18.704.47-28.055.736-.112.003-.223-.002-.333-.016Z"/><path class="cls-6" d="M64.248,19.91c-.461,5.343-.922,10.685-1.383,16.028-.461,5.343-.922,10.685-1.383,16.028-.197,2.287-.395,4.573-.592,6.86-.197,2.286-.395,4.573-.592,6.859-9.311.188-18.636.395-27.975.621-9.356.225-18.712.47-28.068.736.66-5.347,9.565-13.508,14.724-17.915,2.029-1.734,2.361-4.686.786-6.834-4.002-5.461-10.54-15.503-9.88-20.849,9.094-.299,18.17-.576,27.229-.832,9.06-.256,18.103-.49,27.134-.701M64.6,15.825c-.148-.013-.298-.018-.448-.014-8.998.211-18.134.447-27.156.702-9.028.255-18.196.535-27.253.832-2.024.066-3.701,1.585-3.954,3.587-.646,5.115,2.823,13.133,10.58,23.742.313.428.245,1.011-.159,1.356C6.204,54.558.677,61.399.031,66.514c-.15,1.19.248,2.388,1.092,3.279.692.731,1.627,1.194,2.628,1.318.22.027.443.038.667.032,9.346-.266,18.693-.511,28.041-.736,9.282-.225,18.684-.434,27.95-.621,2.162-.044,3.93-1.659,4.104-3.743.229-2.744.344-4.117.573-6.861.229-2.745.344-4.117.573-6.861.535-6.413.803-9.619,1.338-16.032s.803-9.619,1.338-16.032c.097-1.162-.305-2.309-1.103-3.157-.695-.738-1.633-1.189-2.632-1.275h0Z"/><path class="cls-7" d="M60.12,67.727c-.231-.02-.461-.077-.679-.171-9.643-4.177-19.288-8.36-28.932-12.539-.9-.389-1.406-1.334-1.219-2.273.187-.939,1.016-1.624,1.996-1.65,10.045-.264,20.098-.51,30.148-.726.078-.001.154.001.231.008.512.044.994.271,1.35.643.409.427.614,1.004.562,1.585-.469,5.307-.704,7.961-1.174,13.268-.059.659-.441,1.249-1.029,1.583-.383.217-.822.309-1.254.272Z"/><path class="cls-6" d="M61.489,52.418c-.397,4.422-.795,8.844-1.192,13.267-9.647-4.181-19.294-8.362-28.943-12.541,10.044-.268,20.089-.51,30.135-.726M61.842,48.332c-.153-.013-.306-.018-.461-.015-10.054.216-20.108.458-30.161.725-1.958.052-3.615,1.418-3.993,3.296-.377,1.878.632,3.769,2.435,4.55,9.641,4.178,19.282,8.358,28.923,12.537.436.189.896.303,1.359.343.866.075,1.745-.109,2.512-.545,1.176-.669,1.941-1.85,2.056-3.168.256-2.945.385-4.418.641-7.363.206-2.363.308-3.544.514-5.907.101-1.164-.31-2.317-1.128-3.17-.712-.742-1.674-1.196-2.696-1.284h0Z"/><path class="cls-5" d="M348.944,55.182c-.094.01-.189.014-.284.011-52.703-1.458-105.798-2.074-158.619-2.074-52.821,0-105.753.771-158.619,2.074-.095.003-.191-.001-.284-.011-.504-.054-.974-.283-1.323-.65-.414-.436-.614-1.025-.551-1.613,1.643-15.227,3.285-30.453,4.927-45.68.11-1.019.952-1.802,1.969-1.832,51.252-1.498,102.644-2.334,153.881-2.334s102.631.834,153.881,2.334c1.017.03,1.859.812,1.969,1.832,1.642,15.227,3.285,30.454,4.927,45.68.063.588-.138,1.177-.551,1.613-.348.367-.82.596-1.323.65Z"/><path class="cls-6" d="M190.041,5.124c51.288.066,102.557.863,153.823,2.332,1.621,15.229,3.242,30.458,4.863,45.687-52.889-1.307-105.781-2.016-158.686-2.074-52.906.058-105.797.768-158.686,2.074,1.621-15.229,3.242-30.458,4.863-45.687,51.266-1.469,102.536-2.267,153.823-2.333M190.041,1.024c-51.325.069-102.634.868-153.938,2.335-2.033.061-3.716,1.622-3.939,3.661l-4.991,45.673c-.129,1.177.271,2.354,1.098,3.226.697.736,1.641,1.195,2.649,1.302.188.02.378.028.569.023,52.844-1.303,105.692-2.013,158.552-2.074,52.86.062,105.708.771,158.552,2.074.191.005.381-.003.569-.023,1.008-.107,1.952-.566,2.649-1.302.827-.873,1.227-2.05,1.098-3.226-1.664-15.224-3.328-30.449-4.991-45.673-.223-2.039-1.906-3.601-3.939-3.661-51.304-1.467-102.612-2.265-153.937-2.335h0Z"/></g></g></svg>