<?xml version="1.0" encoding="UTF-8"?><svg id="Warstwa_2" xmlns="http://www.w3.org/2000/svg" xmlns:xlink="http://www.w3.org/1999/xlink" viewBox="0 0 406.866609 91.073815"><defs><style>.cls-1{filter:url(#drop-shadow-1);}.cls-2{fill:url(#Gradient_bez_nazwy_3);}.cls-3{fill:url(#MENU_BORDER_SQUARE-2);}.cls-4{fill:url(#Gradient_bez_nazwy_3-2);}.cls-5{fill:#603813;}.cls-6{fill:url(#Gradient_bez_nazwy_3-3);}.cls-7{fill:url(#MENU_BORDER_SQUARE);}</style><filter id="drop-shadow-1" x="-15.010409" y="-15.836854" width="437" height="122" filterUnits="userSpaceOnUse"><feOffset dx="0" dy="0"/><feGaussianBlur result="blur" stdDeviation="5"/><feFlood flood-color="#000" flood-opacity=".3"/><feComposite in2="blur" operator="in"/><feComposite in="SourceGraphic"/></filter><radialGradient id="Gradient_bez_nazwy_3" cx="203.433329" cy="37.871879" fx="203.433329" fy="37.871879" r="107.629874" gradientTransform="translate(-160.667406 62.562796) rotate(-60) scale(1 8)" gradientUnits="userSpaceOnUse"><stop offset="0" stop-color="#ffcb7e"/><stop offset=".203032" stop-color="#f8c57a"/><stop offset=".483478" stop-color="#e6b771"/><stop offset=".80756" stop-color="#c9a063"/><stop offset="1" stop-color="#b59059"/></radialGradient><radialGradient id="MENU_BORDER_SQUARE" cx="369.928324" cy="50.408776" fx="369.928324" fy="50.408776" r="32.382664" gradientTransform="translate(0 -352.86143) scale(1 8)" gradientUnits="userSpaceOnUse"><stop offset="0" stop-color="#ffcb7e"/><stop offset=".262059" stop-color="#fbc87c"/><stop offset=".482601" stop-color="#f1c077"/><stop offset=".688148" stop-color="#dfb26e"/><stop offset=".883389" stop-color="#c79e62"/><stop offset="1" stop-color="#b59059"/></radialGradient><radialGradient id="Gradient_bez_nazwy_3-2" cx="339.393321" cy="21.293816" fx="339.393321" fy="21.293816" r="8.658217" gradientTransform="translate(169.042793 360.687137) rotate(-90) scale(1 8)" xlink:href="#Gradient_bez_nazwy_3"/><radialGradient id="MENU_BORDER_SQUARE-2" cx="36.938334" fx="36.938334" r="32.382664" xlink:href="#MENU_BORDER_SQUARE"/><radialGradient id="Gradient_bez_nazwy_3-3" cx="67.473307" cy="21.293816" fx="67.473307" fy="21.293816" r="8.658232" gradientTransform="translate(0 -149.056712) scale(1 8)" xlink:href="#Gradient_bez_nazwy_3"/></defs><g id="Warstwa_4"><g id="napisWyspy"><g class="cls-1"><path class="cls-5" d="M356.778331,34.603783c-.100037-.320007-.280029-.599976-.52002-.829956-.190002-.180054-.419983-.330017-.679993-.420044-.650024-.25-1.299988-.5-2.059998-.799988-.820007-.299988-1.630005-.619995-2.470032-.950012-.049988-.019958-.089966-.039978-.139954-.049988-.640015-.23999-1.290039-.48999-1.950012-.75-.210022-.080017-.429993-.159973-.640015-.25l-.179993-.059998c-6.119995-2.349976-13.059998-5.02002-20.51001-7.679993l-.710022-.25-.869995-.309998c-.209961-.070007-.419983-.150024-.599976-.210022C297.138316,11.853783,252.998301-.236183,203.448313.003807c-49.599976-.25-93.710022,11.859985-122,22.039978l-1.159973.400024c-.110046.039978-.230042.089966-.340027.119995-.22998.089966-.460022.169983-.720032.26001-7.22998,2.579956-13.889954,5.130005-20.639954,7.72998-.230042.090027-.470032.179993-.700012.27002-.630005.23999-1.26001.48999-1.890015.72998-.890015.349976-1.75.679993-2.609985.98999-.090027.040039-.160034.059998-.220032.090027-.509949.200012-1,.390015-1.5.580017l-.389954.149963c-.25.090027-.480042.23999-.670044.419983v.01001c-.23999.220032-.419983.51001-.529968.830017-.179993.580017-.090027,1.210022.25,1.719971l20.570007,30.780029,5.429993,8.119995c.380005.570007,1.01001.890015,1.659973.890015.220032,0,.440002-.030029.650024-.100037l2.820007-.969971c26.97998-9.22998,72.149963-24.669983,122-24.099976,49.789978-.570007,94.940002,14.859985,121.909973,24.079956l2.859985.980042c.860046.289978,1.810059-.030029,2.310059-.780029l5.429993-8.119995,20.570007-30.789978c.339966-.51001.429993-1.140015.23999-1.730042ZM328.068309,71.743798l-1.400024-.47998c-27.219971-9.309998-72.769958-24.880005-123.209961-24.299988-50.48999-.580017-96.070007,15.009949-123.299988,24.319946l-1.360046.460022-23.759949-35.539978c.799988-.300049,1.599976-.610046,2.399963-.929993.850037-.320007,1.72998-.650024,2.590027-.990051,6.72998-2.589966,13.349976-5.130005,20.570007-7.699951.369995-.130005.73999-.26001,1.049988-.380005l1.119995-.390015C110.78834,15.733788,154.428294,3.753807,203.448313,4.003807c48.950012-.23999,92.640015,11.72998,120.679993,21.820007.190002.059998.380005.130005.570007.200012l1.599976.559998c7.390015,2.639954,14.309998,5.299988,20.410034,7.639954l.159973.059998c.859985.340027,1.710022.670044,2.559998.980042.02002.01001.049988.019958.070007.029968.790039.309998,1.559998.609985,2.330017.900024l-23.76001,35.549988Z"/><path class="cls-2" d="M351.828318,36.19381l-23.76001,35.549988-1.400024-.47998c-27.219971-9.309998-72.769958-24.880005-123.209961-24.299988-50.48999-.580017-96.070007,15.009949-123.299988,24.319946l-1.360046.460022-23.759949-35.539978c.799988-.300049,1.599976-.610046,2.399963-.929993.850037-.320007,1.72998-.650024,2.590027-.990051,6.72998-2.589966,13.349976-5.130005,20.570007-7.699951.369995-.130005.73999-.26001,1.049988-.380005l1.119995-.390015C110.78834,15.733788,154.428294,3.753807,203.448313,4.003807c48.950012-.23999,92.640015,11.72998,120.679993,21.820007.190002.059998.380005.130005.570007.200012l1.599976.559998c7.390015,2.639954,14.309998,5.299988,20.410034,7.639954l.159973.059998c.859985.340027,1.710022.670044,2.559998.980042.02002.01001.049988.019958.070007.029968.790039.309998,1.559998.609985,2.330017.900024Z"/><path class="cls-5" d="M406.648326,57.6838c-3.320007-6.450012-7.660034-12.039978-12.900024-16.609985-6.709961-5.850037-14.099976-9.48999-20.51001-12.460022-1.429993-.659973-2.869995-1.309998-4.309998-1.960022-5.700012-2.579956-11.589966-5.23999-17.339966-8.789978-5.190002-3.200012-9.890015-6.890015-14.350037-11.26001-.029968-.029968-.059998-.059998-.099976-.079956-.02002-.02002-.039978-.040039-.059998-.050049-.049988-.049988-.109985-.089966-.179993-.130005-.080017-.049988-.160034-.099976-.25-.129944-.040039-.030029-.090027-.050049-.140015-.060059-.099976-.039978-.190002-.069946-.289978-.079956-.119995-.030029-.240051-.040039-.360046-.040039-.099976,0-.199951.01001-.299988.02002-.070007.01001-.149963.030029-.219971.049988-.210022.049988-.400024.140015-.580017.26001-.030029.01001-.059998.030029-.090027.049988-.029968.02002-.059998.040039-.079956.070007-.070007.049988-.140015.119995-.200012.179993s-.109985.119995-.150024.179993c-.070007.090027-.119995.180054-.169983.27002-.02002.030029-.029968.059998-.049988.090027-.23999.529968-.25,1.159973.02002,1.709961.619995,1.280029,1.23999,2.480042,1.839966,3.610046,1.099976,2.079956,2.190002,3.940002,3.280029,5.649963.159973.25.319946.48999.469971.73999.160034.26001.320007.51001.48999.76001,2.75,4.130005,5.559998,7.47998,8.840027,11.130005h.01001l.009949.01001c1.030029,1.159973,2.120056,2.349976,3.27002,3.609985l.940002,1.040039-.429993.629944-18.830017,27.650024c-.349976.52002-.440002,1.159973-.25,1.75.200012.590027.650024,1.059998,1.23999,1.27002.350037.119995.700012.23999,1.050049.359985,1.149963.390015,2.309998.779968,3.47998,1.179993,1.049988.349976,2.109985.700012,3.179993,1.070007,6.619995,2.26001,14.23999,5.179993,20.830017,11.039978,3.089966,2.77002,5.73999,6.02002,7.890015,9.670044.359985.619995,1.019958.98999,1.719971.98999.109985,0,.220032-.01001.320007-.030029.820007-.130005,1.469971-.75,1.640015-1.559998,2.399963-11.450012,2.829956-17.880005,2.859985-28.459961,11.839966-1.800049,17.900024-1.900024,26.650024-.460022.75.130005,1.5-.179993,1.949951-.789978.440002-.610046.5-1.420044.160034-2.090027ZM376.648326,57.163781l-1.090027.179993c-.969971.170044-1.679993,1.01001-1.669983,1.990051v1.079956c-.01001,9.059998-.299988,14.960022-1.840027,23.5-1.769958-2.359985-3.75-4.529968-5.929993-6.47998-7.149963-6.369995-15.209961-9.450012-22.200012-11.849976-1.079956-.369995-2.139954-.720032-3.199951-1.080017-.670044-.220032-1.340027-.450012-2.01001-.669983l18.679993-27.420044c.390015-.579956.440002-1.289978.190002-1.899963-.090027-.210022-.210022-.410034-.369995-.590027l-2.01001-2.200012c-4.599976-5.029968-8.070007-8.829956-11.400024-13.719971-.22998-.330017-.440002-.660034-.659973-1-.02002-.030029-.039978-.070007-.059998-.100037,2.059998,1.550049,4.200012,3,6.409973,4.360046,5.960022,3.690002,11.980042,6.399963,17.790039,9.029968,1.440002.650024,2.859985,1.299988,4.279968,1.950012,6.160034,2.849976,13.25,6.349976,19.559998,11.840027,3.900024,3.399963,7.26001,7.409973,10.030029,11.959961-7.380005-.869995-13.799988-.529968-24.5,1.119995Z"/><path class="cls-7" d="M401.148326,56.043785c-7.380005-.869995-13.799988-.529968-24.5,1.119995l-1.090027.179993c-.969971.170044-1.679993,1.01001-1.669983,1.990051v1.079956c-.01001,9.059998-.299988,14.960022-1.840027,23.5-1.769958-2.359985-3.75-4.529968-5.929993-6.47998-7.149963-6.369995-15.209961-9.450012-22.200012-11.849976-1.079956-.369995-2.139954-.720032-3.199951-1.080017-.670044-.220032-1.340027-.450012-2.01001-.669983l18.679993-27.420044c.390015-.579956.440002-1.289978.190002-1.899963-.090027-.210022-.210022-.410034-.369995-.590027l-2.01001-2.200012c-4.909973-5.369995-8.530029-9.329956-12.059998-14.719971-.02002-.030029-.039978-.070007-.059998-.100037,2.059998,1.550049,4.200012,3,6.409973,4.360046,5.960022,3.690002,11.980042,6.399963,17.790039,9.029968,1.440002.650024,2.859985,1.299988,4.279968,1.950012,6.160034,2.849976,13.25,6.349976,19.559998,11.840027,3.900024,3.399963,7.26001,7.409973,10.030029,11.959961Z"/><path class="cls-5" d="M356.258311,33.773827c-.070007-.360046-.23999-.710022-.5-.990051-4.429993-4.779968-8.210022-9.039978-11.960022-14.779968-.22998-.330017-.440002-.660034-.659973-1-.02002-.030029-.039978-.070007-.059998-.100037-1.789978-2.819946-3.580017-6-5.450012-9.759949-.119995-.240051-.289978-.450012-.48999-.619995-.02002-.02002-.039978-.040039-.059998-.050049-.049988-.049988-.109985-.089966-.179993-.130005-.080017-.049988-.160034-.099976-.25-.129944-.040039-.030029-.090027-.050049-.140015-.060059-.099976-.039978-.190002-.069946-.289978-.079956-.119995-.030029-.240051-.040039-.360046-.040039-.099976,0-.199951.01001-.299988.02002-.070007.01001-.149963.030029-.219971.049988-.210022.049988-.400024.140015-.580017.26001-.059998.030029-.119995.070007-.169983.119995-.070007.049988-.140015.119995-.200012.179993s-.109985.119995-.150024.179993c-.070007.090027-.119995.180054-.169983.27002-.02002.030029-.029968.059998-.049988.090027-1.390015,2.679993-2.669983,5.589966-3.910034,8.399963-1.019958,2.330017-2.079956,4.720032-3.190002,6.960022-.209961.440002-.429993.869995-.649963,1.289978-.26001.51001-.299988,1.119995-.080017,1.650024.210022.539978.640015.960022,1.190002,1.159973,7.539978,2.690002,14.5,5.360046,20.630005,7.720032l4.130005,1.580017c.200012.079956.409973.129944.619995.129944h.030029l1.429993.050049h.070007c.779968,0,1.48999-.450012,1.819946-1.170044.180054-.380005.220032-.799988.150024-1.199951ZM333.768321,17.213829c.690002-1.560059,1.390015-3.140015,2.109985-4.690002,0-.01001.01001-.02002.01001-.030029,1.099976,2.049988,2.190002,3.929993,3.27002,5.679993.159973.25.319946.48999.469971.73999.160034.26001.320007.51001.48999.76001,2.559998,3.970032,5.130005,7.27002,7.820007,10.390015-5.190002-1.98999-10.929993-4.179993-17.089966-6.410034,1.019958-2.109985,1.97998-4.299988,2.919983-6.439941Z"/><path class="cls-4" d="M347.938304,30.063805c-5.190002-1.98999-10.929993-4.179993-17.089966-6.410034,1.019958-2.109985,1.97998-4.299988,2.919983-6.439941.690002-1.560059,1.390015-3.140015,2.109985-4.690002,1.099976,2.079956,2.190002,3.940002,3.280029,5.649963.159973.25.319946.48999.469971.73999.160034.26001.320007.51001.48999.76001,2.559998,3.970032,5.130005,7.27002,7.820007,10.390015Z"/><path class="cls-5" d="M72.938304,63.743798l-18.830017-27.650024-.429993-.629944.940002-1.040039c1.150024-1.26001,2.23999-2.450012,3.27002-3.599976,3.169983-3.52002,5.890015-6.75,8.539978-10.679993.190002-.26001.360046-.530029.530029-.800049.099976-.139954.190002-.279968.269958-.419983,1.25-1.919983,2.490051-4.02002,3.76001-6.399963.600037-1.130005,1.210022-2.330017,1.840027-3.610046.27002-.549988.26001-1.179993.01001-1.709961-.01001-.030029-.02002-.059998-.040039-.090027-.070007-.149963-.159973-.279968-.269958-.399963-.040039-.050049-.090027-.100037-.140015-.140015-.059998-.059998-.130005-.119995-.200012-.160034-.080017-.070007-.169983-.119995-.26001-.159973-.099976-.049988-.190002-.090027-.289978-.119995-.070007-.030029-.140015-.040039-.200012-.049988-.140015-.040039-.279968-.050049-.429993-.050049-.119995,0-.23999.01001-.359985.040039-.090027.01001-.190002.039978-.280029.079956-.059998.01001-.109985.030029-.159973.060059-.090027.039978-.169983.079956-.23999.129944-.070007.040039-.130005.080017-.179993.130005-.02002.01001-.040039.030029-.060059.050049-.039978.019958-.069946.049988-.099976.079956-4.460022,4.369995-9.159973,8.059998-14.359985,11.26001-5.73999,3.549988-11.630005,6.210022-17.330017,8.789978-1.440002.650024-2.880005,1.300049-4.309998,1.960022-6.409973,2.970032-13.799988,6.609985-20.51001,12.460022C7.878306,45.643822,3.53834,51.233788.218333,57.6838c-.340027.669983-.280029,1.47998.159973,2.090027.450012.609985,1.200012.919983,1.950012.789978,8.76001-1.440002,14.820007-1.340027,26.649963.460022.030029,10.579956.460022,17.009949,2.860046,28.459961.169983.809998.820007,1.429993,1.639954,1.559998.100037.02002.210022.030029.320007.030029.700012,0,1.360046-.369995,1.720032-.98999,2.149963-3.650024,4.799988-6.900024,7.890015-9.660034,6.589966-5.869995,14.209961-8.789978,20.829956-11.049988,1.070007-.369995,2.130005-.720032,3.179993-1.070007,1.170044-.400024,2.330017-.789978,3.480042-1.179993.349976-.119995.700012-.23999,1.049988-.359985.590027-.210022,1.039978-.679993,1.23999-1.27002.190002-.590027.100037-1.22998-.25-1.75ZM66.148326,64.503807c-1.049988.359985-2.119995.710022-3.200012,1.080017-6.98999,2.399963-15.049988,5.48999-22.200012,11.849976-2.179993,1.950012-4.159973,4.119995-5.929993,6.47998-1.539978-8.539978-1.830017-14.429993-1.840027-23.5v-1.079956c.01001-.980042-.699951-1.820007-1.669983-1.990051l-1.109985-.179993c-6.900024-1.070007-12.02002-1.579956-16.76001-1.579956-2.609985,0-5.099976.149963-7.719971.459961,2.769958-4.549988,6.130005-8.559998,10.029968-11.959961,6.309998-5.490051,13.400024-8.990051,19.559998-11.840027,1.419983-.650024,2.840027-1.299988,4.280029-1.950012,5.809998-2.630005,11.829956-5.339966,17.779968-9.019958,2.220032-1.370056,4.359985-2.820007,6.420044-4.370056-.02002.030029-.040039.070007-.060059.100037-.219971.339966-.429993.669983-.659973,1-3.330017,4.890015-6.799988,8.690002-11.400024,13.719971l-2,2.200012c-.119995.119995-.209961.26001-.279968.400024-.359985.640015-.340027,1.450012.089966,2.089966l18.680054,27.420044c-.670044.219971-1.330017.449951-2.01001.669983Z"/><path class="cls-3" d="M68.158335,63.833824c-.670044.219971-1.330017.449951-2.01001.669983-1.049988.359985-2.119995.710022-3.200012,1.080017-6.98999,2.399963-15.049988,5.48999-22.200012,11.849976-2.179993,1.950012-4.159973,4.119995-5.929993,6.47998-1.539978-8.539978-1.830017-14.429993-1.840027-23.5v-1.079956c.01001-.980042-.699951-1.820007-1.669983-1.990051l-1.109985-.179993c-6.900024-1.070007-12.02002-1.579956-16.76001-1.579956-2.609985,0-5.099976.149963-7.719971.459961,2.769958-4.549988,6.130005-8.559998,10.029968-11.959961,6.309998-5.490051,13.400024-8.990051,19.559998-11.840027,1.419983-.650024,2.840027-1.299988,4.280029-1.950012,5.809998-2.630005,11.829956-5.339966,17.779968-9.019958,2.220032-1.370056,4.359985-2.820007,6.420044-4.370056-.02002.030029-.040039.070007-.060059.100037-3.529968,5.390015-7.149963,9.349976-12.059998,14.719971l-2,2.200012c-.119995.119995-.209961.26001-.279968.400024-.359985.640015-.340027,1.450012.089966,2.089966l18.680054,27.420044Z"/><path class="cls-5" d="M80.598338,23.853783c-.220032-.419983-.440002-.849976-.650024-1.289978-1.109985-2.23999-2.169983-4.630005-3.190002-6.960022-1.23999-2.820007-2.52002-5.72998-3.919983-8.399963-.01001-.030029-.02002-.059998-.040039-.090027-.070007-.149963-.159973-.279968-.269958-.399963-.040039-.050049-.090027-.100037-.140015-.140015-.059998-.059998-.130005-.119995-.200012-.160034-.080017-.070007-.169983-.119995-.26001-.159973-.099976-.049988-.190002-.090027-.289978-.119995-.070007-.030029-.140015-.040039-.200012-.049988-.140015-.040039-.279968-.050049-.429993-.050049-.119995,0-.23999.01001-.359985.040039-.090027.01001-.190002.039978-.280029.079956-.059998.01001-.109985.030029-.159973.060059-.090027.039978-.169983.079956-.23999.129944-.070007.040039-.130005.080017-.179993.130005-.02002.01001-.040039.030029-.060059.050049-.199951.169983-.369995.379944-.48999.619995-1.869995,3.759949-3.659973,6.940002-5.449951,9.759949-.02002.030029-.040039.070007-.060059.100037-.219971.339966-.429993.669983-.659973,1-3.75,5.73999-7.529968,10-11.960022,14.779968-.269958.290039-.440002.630005-.5,1v.01001c-.069946.390015-.019958.799988.150024,1.179993.330017.720032,1.039978,1.170044,1.820007,1.170044h.070007l1.429993-.050049h.029968c.210022,0,.420044-.049988.619995-.129944l4.130005-1.580017c6.130005-2.359985,13.090027-5.030029,20.640015-7.720032.540039-.199951.970032-.619995,1.179993-1.159973.220032-.530029.179993-1.140015-.079956-1.650024ZM66.958323,19.343773c.099976-.139954.190002-.279968.269958-.419983,1.240051-1.959961,2.490051-4.089966,3.75-6.429993,0,.01001.01001.02002.01001.030029.720032,1.539978,1.420044,3.129944,2.110046,4.690002.940002,2.139954,1.899963,4.329956,2.919983,6.439941-6.160034,2.230042-11.900024,4.420044-17.090027,6.410034,2.590027-3,5.059998-6.160034,7.5-9.919983.190002-.26001.360046-.530029.530029-.800049Z"/><path class="cls-6" d="M76.018321,23.653771c-6.160034,2.230042-11.900024,4.420044-17.090027,6.410034,2.590027-3,5.059998-6.160034,7.5-9.919983.190002-.26001.360046-.530029.530029-.800049.099976-.139954.190002-.279968.269958-.419983,1.25-1.919983,2.490051-4.02002,3.76001-6.399963.720032,1.539978,1.420044,3.129944,2.110046,4.690002.940002,2.139954,1.899963,4.329956,2.919983,6.439941Z"/></g></g></g></svg>