<?xml version="1.0" encoding="UTF-8"?><svg id="Warstwa_2" xmlns="http://www.w3.org/2000/svg" viewBox="0 0 296.789978 67.743838"><defs><style>.cls-1{fill:#005f2a;font-family:Hobeaux-Bold, Hobeaux;font-size:14px;font-weight:700;}</style></defs><g id="Warstwa_4"><g id="napisWyspy"><text class="cls-1" transform="translate(76.972095 48.739972) rotate(-12.729344)"><tspan x="0" y="0">S</tspan></text><text class="cls-1" transform="translate(84.954517 46.938215) rotate(-11.459896)"><tspan x="0" y="0">Z</tspan></text><text class="cls-1" transform="translate(92.624927 45.347394) rotate(-9.73933)"><tspan x="0" y="0">M</tspan></text><text class="cls-1" transform="translate(104.745532 43.295637) rotate(-7.784128)"><tspan x="0" y="0">A</tspan></text><text class="cls-1" transform="translate(113.663989 42.07591) rotate(-6.014412)"><tspan x="0" y="0">R</tspan></text><text class="cls-1" transform="translate(122.725025 41.122785) rotate(-4.142526)"><tspan x="0" y="0">A</tspan></text><text class="cls-1" transform="translate(131.716236 40.472394) rotate(-2.194042)"><tspan x="0" y="0">G</tspan></text><text class="cls-1" transform="translate(140.59856 40.128644) rotate(-.110179)"><tspan x="0" y="0">D</tspan></text><text class="cls-1" transform="translate(149.839771 40.083722) rotate(.723385)"><tspan x="0" y="0">O</tspan></text><text class="cls-1" transform="translate(158.835376 40.167707) rotate(3.115659)"><tspan x="0" y="0">W</tspan></text><text class="cls-1" transform="translate(170.95354 40.861066) rotate(5.344148)"><tspan x="0" y="0">A</tspan></text><text class="cls-1" transform="translate(179.886646 41.730207) rotate(6.501386)"><tspan x="0" y="0"> </tspan></text><text class="cls-1" transform="translate(182.366138 41.995832) rotate(7.416002)"><tspan x="0" y="0">F</tspan></text><text class="cls-1" transform="translate(189.205982 42.887433) rotate(8.699392)"><tspan x="0" y="0">L</tspan></text><text class="cls-1" transform="translate(195.315845 43.805402) rotate(10.007805)"><tspan x="0" y="0">O</tspan></text><text class="cls-1" transform="translate(204.114185 45.368879) rotate(11.412994)"><tspan x="0" y="0">T</tspan></text><text class="cls-1" transform="translate(210.822193 46.708722) rotate(12.629222)"><tspan x="0" y="0">A</tspan></text></g></g></svg>