<?xml version="1.0" encoding="UTF-8"?><svg id="Warstwa_2" xmlns="http://www.w3.org/2000/svg" viewBox="0 0 296.789978 67.743838"><defs><style>.cls-1{fill:#42210b;font-family:Hobeaux-Bold, Hobeaux;font-size:18px;font-weight:700;}</style></defs><g id="Warstwa_4"><g id="napisWyspy"><text class="cls-1" transform="translate(49.510663 55.405988) rotate(-16.382076)"><tspan x="0" y="0">D</tspan></text><text class="cls-1" transform="translate(61.078045 52.006574) rotate(-14.869019)"><tspan x="0" y="0">U</tspan></text><text class="cls-1" transform="translate(72.118573 49.083723) rotate(-13.335358)"><tspan x="0" y="0">Ż</tspan></text><text class="cls-1" transform="translate(81.897381 46.754621) rotate(-11.641012)"><tspan x="0" y="0">A</tspan></text><text class="cls-1" transform="translate(93.214764 44.469465) rotate(-10.401288)"><tspan x="0" y="0"> </tspan></text><text class="cls-1" transform="translate(96.431073 43.784894) rotate(-8.708413)"><tspan x="0" y="0">W</tspan></text><text class="cls-1" transform="translate(112.239178 41.421613) rotate(-6.09344)"><tspan x="0" y="0">Y</tspan></text><text class="cls-1" transform="translate(122.932049 40.277082) rotate(-3.901826)"><tspan x="0" y="0">S</tspan></text><text class="cls-1" transform="translate(133.69621 39.546613) rotate(-1.564051)"><tspan x="0" y="0">P</tspan></text><text class="cls-1" transform="translate(143.794354 39.346418) rotate(-.295649)"><tspan x="0" y="0">A</tspan></text><text class="cls-1" transform="translate(155.378827 39.344465) rotate(1.335481)"><tspan x="0" y="0"> </tspan></text><text class="cls-1" transform="translate(158.627362 39.372785) rotate(2.866282)"><tspan x="0" y="0">P</tspan></text><text class="cls-1" transform="translate(169.11369 39.892316) rotate(5.203462)"><tspan x="0" y="0">U</tspan></text><text class="cls-1" transform="translate(180.594647 40.949933) rotate(7.418641)"><tspan x="0" y="0">S</tspan></text><text class="cls-1" transform="translate(190.765545 42.278058) rotate(9.23114)"><tspan x="0" y="0">T</tspan></text><text class="cls-1" transform="translate(200.544354 43.863019) rotate(11.067343)"><tspan x="0" y="0">Y</tspan></text><text class="cls-1" transform="translate(211.401288 45.97923) rotate(12.975746)"><tspan x="0" y="0">N</tspan></text><text class="cls-1" transform="translate(223.780682 48.837629) rotate(14.820337)"><tspan x="0" y="0">N</tspan></text><text class="cls-1" transform="translate(236.017499 52.087629) rotate(16.371982)"><tspan x="0" y="0">A</tspan></text></g></g></svg>