<?xml version="1.0" encoding="UTF-8"?><svg id="Warstwa_2" xmlns="http://www.w3.org/2000/svg" xmlns:xlink="http://www.w3.org/1999/xlink" viewBox="0 0 75.692 13"><defs><style>.cls-1{fill:url(#Nowa_próbka_gradientu_2);}.cls-2{fill:#c89f63;}</style><radialGradient id="Nowa_próbka_gradientu_2" cx="37.846" cy="6.5" fx="37.846" fy="6.5" r="37.964" gradientUnits="userSpaceOnUse"><stop offset=".005" stop-color="#921c1f"/><stop offset=".381" stop-color="#8f1b1e"/><stop offset=".622" stop-color="#86191c"/><stop offset=".824" stop-color="#771619"/><stop offset="1" stop-color="#641315"/></radialGradient></defs><g id="Warstwa_3"><g id="enemyHpLeft"><path class="cls-1" d="M1.7,12.75c-.109-.748-.703-1.341-1.451-1.451V1.7c.748-.109,1.341-.703,1.451-1.451h72.292c.109.748.703,1.341,1.451,1.451v9.6c-.748.109-1.341.703-1.451,1.451H1.7Z"/><path class="cls-2" d="M73.788.499c.18.685.72,1.225,1.405,1.405v9.193c-.685.18-1.225.72-1.405,1.405H1.904c-.18-.685-.72-1.225-1.405-1.405V1.904c.685-.18,1.225-.72,1.405-1.405h71.885M74.223,0H1.469c0,.811-.658,1.469-1.469,1.469v10.063c.811,0,1.469.658,1.469,1.469h72.754c0-.811.658-1.469,1.469-1.469V1.469c-.811,0-1.469-.658-1.469-1.469h0Z"/><path class="cls-2" d="M73.341,1.148c.257.524.679.947,1.203,1.203v8.298c-.524.257-.947.679-1.203,1.203H2.351c-.257-.524-.679-.947-1.203-1.203V2.351c.524-.257.947-.679,1.203-1.203h70.99M73.436.998H2.256c-.249.559-.699,1.009-1.258,1.258v8.488c.559.249,1.009.699,1.258,1.258h71.18c.249-.559.699-1.009,1.258-1.258V2.256c-.559-.249-1.009-.699-1.258-1.258h0Z"/></g></g></svg>