<?xml version="1.0" encoding="UTF-8"?><svg id="Warstwa_2" xmlns="http://www.w3.org/2000/svg" xmlns:xlink="http://www.w3.org/1999/xlink" viewBox="0 0 538.768 189.296"><defs><style>.cls-1{fill:url(#Nowa_próbka_gradientu_3-4);}.cls-2{fill:url(#Gradient_bez_nazwy_648);}.cls-3{fill:url(#MENU_BORDER_SQUARE-13);}.cls-4{fill:url(#Nowa_próbka_gradientu_11);}.cls-5{fill:url(#Nowa_próbka_gradientu_2);}.cls-6{fill:url(#Nowa_próbka_gradientu_3-7);}.cls-7{fill:url(#Nowa_próbka_gradientu_9-2);}.cls-8{filter:url(#drop-shadow-2);}.cls-9{fill:url(#Nowa_próbka_gradientu_3-20);}.cls-10{fill:url(#MENU_BORDER_SQUARE-7);}.cls-11{fill:url(#MENU_BORDER_SQUARE-4);}.cls-12{fill:url(#Nowa_próbka_gradientu_3-8);}.cls-13{fill:url(#MENU_BORDER_SQUARE-8);}.cls-14{fill:url(#Nowa_próbka_gradientu_3-13);}.cls-15{fill:#c89f63;}.cls-16{fill:url(#Nowa_próbka_gradientu_3-17);}.cls-17{fill:url(#MENU_BORDER_SQUARE-19);}.cls-18{fill:url(#MENU_BORDER_SQUARE-10);}.cls-19{fill:url(#Nowa_próbka_gradientu_3-24);}.cls-20{fill:url(#MENU_BORDER_SQUARE-20);}.cls-21{fill:url(#Nowa_próbka_gradientu_3-19);}.cls-22{fill:url(#Nowa_próbka_gradientu_3-9);}.cls-23{fill:url(#Nowa_próbka_gradientu_3-5);}.cls-24{filter:url(#drop-shadow-1);}.cls-25{fill:url(#Nowa_próbka_gradientu_3-12);}.cls-26{fill:url(#Nowa_próbka_gradientu_3-3);}.cls-27{fill:url(#Nowa_próbka_gradientu_3-15);}.cls-28{fill:url(#MENU_BORDER_SQUARE-21);}.cls-29,.cls-30,.cls-31,.cls-32{isolation:isolate;}.cls-33{fill:url(#Nowa_próbka_gradientu_2-2);}.cls-34{fill:url(#Nowa_próbka_gradientu_1);}.cls-35{fill:url(#MENU_BORDER_SQUARE-2);}.cls-36{fill:url(#Nowa_próbka_gradientu_3-14);}.cls-37{fill:url(#MENU_BORDER_SQUARE-14);}.cls-38{fill:url(#Nowa_próbka_gradientu_3-22);}.cls-39{fill:url(#Nowa_próbka_gradientu_3-23);}.cls-40{fill:url(#Gradient_bez_nazwy_687-2);}.cls-41{fill:url(#MENU_BORDER_SQUARE-15);}.cls-42{fill:url(#MENU_BORDER_SQUARE-9);}.cls-43{fill:url(#MENU_BORDER_SQUARE-6);}.cls-44{fill:url(#Nowa_próbka_gradientu_3-11);}.cls-45{fill:url(#Nowa_próbka_gradientu_3-25);}.cls-46,.cls-30,.cls-32{fill:#603813;}.cls-47{fill:url(#Nowa_próbka_gradientu_9);}.cls-48{fill:url(#Nowa_próbka_gradientu_3);}.cls-49{fill:url(#Nowa_próbka_gradientu_3-16);}.cls-50{fill:url(#MENU_BORDER_SQUARE-18);}.cls-51{fill:url(#Nowa_próbka_gradientu_2-5);}.cls-52{fill:url(#MENU_BORDER_SQUARE-16);}.cls-53{filter:url(#drop-shadow-3);}.cls-54{fill:url(#Nowa_próbka_gradientu_11-3);}.cls-55{fill:url(#MENU_BORDER_SQUARE-11);}.cls-56{fill:url(#MENU_BORDER_SQUARE);}.cls-57{fill:url(#Nowa_próbka_gradientu_11-2);}.cls-58{fill:url(#Gradient_bez_nazwy_687);}.cls-59{fill:url(#Nowa_próbka_gradientu_3-6);}.cls-60{fill:url(#Nowa_próbka_gradientu_3-18);}.cls-30{font-size:10px;}.cls-30,.cls-31,.cls-32{font-family:Hobeaux-Bold, Hobeaux;font-weight:700;}.cls-61{fill:url(#MENU_BORDER_SQUARE-22);}.cls-62{fill:url(#MENU_BORDER_SQUARE-3);}.cls-31{fill:#ecbc76;font-size:9px;}.cls-63{fill:url(#Nowa_próbka_gradientu_3-2);}.cls-32{font-size:12px;}.cls-64{fill:url(#MENU_BORDER_SQUARE-12);}.cls-65{fill:url(#MENU_BORDER_SQUARE-5);}.cls-66{fill:url(#Nowa_próbka_gradientu_2-4);}.cls-67{fill:url(#Nowa_próbka_gradientu_3-21);}.cls-68{fill:url(#MENU_BORDER_SQUARE-17);}.cls-69{fill:url(#Nowa_próbka_gradientu_3-10);}.cls-70{fill:url(#Nowa_próbka_gradientu_2-3);}</style><radialGradient id="Gradient_bez_nazwy_648" cx="269.384" cy="97.148" fx="269.384" fy="97.148" r="324.931" gradientUnits="userSpaceOnUse"><stop offset="0" stop-color="#ffcb7e"/><stop offset=".211" stop-color="#cfa566"/><stop offset=".244" stop-color="#d8ac6a"/><stop offset=".363" stop-color="#f4c278"/><stop offset=".432" stop-color="#ffcb7e"/><stop offset=".489" stop-color="#f8c57a"/><stop offset=".573" stop-color="#e4b570"/><stop offset=".666" stop-color="#c79e62"/><stop offset=".802" stop-color="#e5b671"/><stop offset=".918" stop-color="#f8c57a"/><stop offset="1" stop-color="#ffcb7e"/></radialGradient><radialGradient id="Nowa_próbka_gradientu_3" cx="269.384" cy="97.148" fx="269.384" fy="97.148" r="195.487" gradientUnits="userSpaceOnUse"><stop offset=".005" stop-color="#8c6239"/><stop offset=".481" stop-color="#895f36"/><stop offset=".786" stop-color="#80572e"/><stop offset="1" stop-color="#754c24"/></radialGradient><radialGradient id="Nowa_próbka_gradientu_3-2" cx="269.384" cy="97.148" fx="269.384" fy="97.148" r="189.078" xlink:href="#Nowa_próbka_gradientu_3"/><radialGradient id="Nowa_próbka_gradientu_2" cx="269.019" cy="75.812" fx="269.019" fy="75.812" r="235.558" gradientUnits="userSpaceOnUse"><stop offset=".005" stop-color="#921c1f"/><stop offset=".381" stop-color="#8f1b1e"/><stop offset=".622" stop-color="#86191c"/><stop offset=".824" stop-color="#771619"/><stop offset="1" stop-color="#641315"/></radialGradient><radialGradient id="Nowa_próbka_gradientu_1" cx="269.019" cy="55.814" fx="269.019" fy="55.814" r="235.294" gradientUnits="userSpaceOnUse"><stop offset=".002" stop-color="#2e3192"/><stop offset=".38" stop-color="#2c2f8f"/><stop offset=".621" stop-color="#292986"/><stop offset=".824" stop-color="#232077"/><stop offset="1" stop-color="#1b1464"/></radialGradient><filter id="drop-shadow-1" x="15.019" y="75.45" width="106" height="97" filterUnits="userSpaceOnUse"><feOffset dx="7" dy="7"/><feGaussianBlur result="blur" stdDeviation="8"/><feFlood flood-color="#000" flood-opacity=".15"/><feComposite in2="blur" operator="in"/><feComposite in="SourceGraphic"/></filter><radialGradient id="MENU_BORDER_SQUARE" cx="79.56" cy="122.144" fx="79.56" fy="122.144" r="12.982" gradientTransform="translate(0 -122.144) scale(1 2)" gradientUnits="userSpaceOnUse"><stop offset="0" stop-color="#ffcb7e"/><stop offset=".262" stop-color="#fbc87c"/><stop offset=".483" stop-color="#f1c077"/><stop offset=".688" stop-color="#dfb26e"/><stop offset=".883" stop-color="#c79e62"/><stop offset="1" stop-color="#b59059"/></radialGradient><radialGradient id="MENU_BORDER_SQUARE-2" cx="55.774" cy="116.942" fx="55.774" fy="116.942" r="23.539" gradientTransform="translate(0 -116.942) scale(1 2)" xlink:href="#MENU_BORDER_SQUARE"/><radialGradient id="MENU_BORDER_SQUARE-3" cx="78.081" cy="101.56" fx="78.081" fy="101.56" r="7.878" gradientTransform="translate(0 -101.56) scale(1 2)" xlink:href="#MENU_BORDER_SQUARE"/><filter id="drop-shadow-2" x="431.019" y="75.45" width="106" height="97" filterUnits="userSpaceOnUse"><feOffset dx="7" dy="7"/><feGaussianBlur result="blur-2" stdDeviation="8"/><feFlood flood-color="#000" flood-opacity=".15"/><feComposite in2="blur-2" operator="in"/><feComposite in="SourceGraphic"/></filter><radialGradient id="MENU_BORDER_SQUARE-4" cx="322.995" cy="122.144" fx="322.995" fy="122.144" r="12.982" gradientTransform="translate(781.473 -122.144) rotate(-180) scale(1 -2)" xlink:href="#MENU_BORDER_SQUARE"/><radialGradient id="MENU_BORDER_SQUARE-5" cx="299.209" cy="116.942" fx="299.209" fy="116.942" r="23.539" gradientTransform="translate(781.473 -116.942) rotate(-180) scale(1 -2)" xlink:href="#MENU_BORDER_SQUARE"/><radialGradient id="MENU_BORDER_SQUARE-6" cx="321.516" cy="101.56" fx="321.516" fy="101.56" r="7.878" gradientTransform="translate(781.473 -101.56) rotate(-180) scale(1 -2)" xlink:href="#MENU_BORDER_SQUARE"/><radialGradient id="Nowa_próbka_gradientu_3-3" cx="119.018" cy="117.149" fx="119.018" fy="117.149" r="29.25" xlink:href="#Nowa_próbka_gradientu_3"/><radialGradient id="MENU_BORDER_SQUARE-7" cx="119.019" cy="117.148" fx="119.019" fy="117.148" r="30" gradientTransform="translate(0 -820.039) scale(1 8)" xlink:href="#MENU_BORDER_SQUARE"/><radialGradient id="Nowa_próbka_gradientu_3-4" cx="179.018" cy="117.149" fx="179.018" fy="117.149" r="29.25" xlink:href="#Nowa_próbka_gradientu_3"/><radialGradient id="MENU_BORDER_SQUARE-8" cx="179.019" cy="117.148" fx="179.019" fy="117.148" r="30" gradientTransform="translate(0 -820.039) scale(1 8)" xlink:href="#MENU_BORDER_SQUARE"/><radialGradient id="Nowa_próbka_gradientu_3-5" cx="239.018" cy="117.149" fx="239.018" fy="117.149" r="29.25" xlink:href="#Nowa_próbka_gradientu_3"/><radialGradient id="MENU_BORDER_SQUARE-9" cx="239.019" cy="117.148" fx="239.019" fy="117.148" r="30" gradientTransform="translate(0 -820.039) scale(1 8)" xlink:href="#MENU_BORDER_SQUARE"/><radialGradient id="Nowa_próbka_gradientu_3-6" cx="299.019" cy="117.149" fx="299.019" fy="117.149" r="29.25" xlink:href="#Nowa_próbka_gradientu_3"/><radialGradient id="MENU_BORDER_SQUARE-10" cx="299.019" cy="117.148" fx="299.019" fy="117.148" r="30" gradientTransform="translate(0 -820.039) scale(1 8)" xlink:href="#MENU_BORDER_SQUARE"/><radialGradient id="Nowa_próbka_gradientu_3-7" cx="359.019" cy="117.149" fx="359.019" fy="117.149" r="29.25" xlink:href="#Nowa_próbka_gradientu_3"/><radialGradient id="MENU_BORDER_SQUARE-11" cx="359.019" cy="117.148" fx="359.019" fy="117.148" r="30" gradientTransform="translate(0 -820.039) scale(1 8)" xlink:href="#MENU_BORDER_SQUARE"/><radialGradient id="Nowa_próbka_gradientu_3-8" cx="419.019" cy="117.149" fx="419.019" fy="117.149" r="29.25" xlink:href="#Nowa_próbka_gradientu_3"/><radialGradient id="MENU_BORDER_SQUARE-12" cx="419.019" cy="117.148" fx="419.019" fy="117.148" r="30" gradientTransform="translate(0 -820.039) scale(1 8)" xlink:href="#MENU_BORDER_SQUARE"/><filter id="drop-shadow-3" x="224.019" y="-4.55" width="91" height="91" filterUnits="userSpaceOnUse"><feOffset dx="0" dy="0"/><feGaussianBlur result="blur-3" stdDeviation="8"/><feFlood flood-color="#000" flood-opacity=".15"/><feComposite in2="blur-3" operator="in"/><feComposite in="SourceGraphic"/></filter><radialGradient id="Gradient_bez_nazwy_687" cx="269.167" cy="40.856" fx="269.167" fy="40.856" r="20.71" gradientUnits="userSpaceOnUse"><stop offset="0" stop-color="#b59059"/><stop offset=".222" stop-color="#b9935b"/><stop offset=".462" stop-color="#c69d61"/><stop offset=".711" stop-color="#dbaf6c"/><stop offset=".964" stop-color="#fac77b"/><stop offset="1" stop-color="#ffcb7e"/></radialGradient><radialGradient id="Nowa_próbka_gradientu_9" cx="269.167" cy="40.856" fx="269.167" fy="40.856" r="20.963" gradientTransform="translate(0 20.428) scale(1 .5)" gradientUnits="userSpaceOnUse"><stop offset=".005" stop-color="#8c6239"/><stop offset=".481" stop-color="#895f36"/><stop offset=".786" stop-color="#80572e"/><stop offset="1" stop-color="#754c24"/></radialGradient><radialGradient id="Gradient_bez_nazwy_687-2" cx="269.164" fx="269.164" r="20.711" xlink:href="#Gradient_bez_nazwy_687"/><radialGradient id="Nowa_próbka_gradientu_9-2" cx="269.167" cy="40.856" fx="269.167" fy="40.856" r="20.963" gradientTransform="translate(248.74 310.023) rotate(-90) scale(1 .5)" xlink:href="#Nowa_próbka_gradientu_9"/><radialGradient id="MENU_BORDER_SQUARE-13" cx="269.019" cy="40.707" fx="269.019" fy="40.707" r="19.586" gradientTransform="translate(251.497 -322.222) rotate(45) scale(1 6)" xlink:href="#MENU_BORDER_SQUARE"/><radialGradient id="Nowa_próbka_gradientu_3-9" cx="269.019" cy="40.707" fx="269.019" fy="40.707" r="21" xlink:href="#Nowa_próbka_gradientu_3"/><radialGradient id="Nowa_próbka_gradientu_3-10" cx="269.019" cy="40.707" fx="269.019" fy="40.707" r="17.125" xlink:href="#Nowa_próbka_gradientu_3"/><radialGradient id="MENU_BORDER_SQUARE-14" cx="123.306" cy="178.427" fx="123.306" fy="178.427" r="13.19" gradientTransform="translate(-725.096 -490.49) rotate(-45) scale(1 6)" xlink:href="#MENU_BORDER_SQUARE"/><radialGradient id="Nowa_próbka_gradientu_3-11" cx="119.056" cy="179.296" fx="119.056" fy="179.296" r="10" gradientTransform="translate(0 -.017)" xlink:href="#Nowa_próbka_gradientu_3"/><radialGradient id="Nowa_próbka_gradientu_3-12" cx="119.056" cy="179.296" fx="119.056" fy="179.296" r="8.155" gradientTransform="translate(0 -.017)" xlink:href="#Nowa_próbka_gradientu_3"/><radialGradient id="MENU_BORDER_SQUARE-15" cx="165.706" cy="220.829" fx="165.706" fy="220.829" r="13.19" gradientTransform="translate(-875.001 -640.397) rotate(-45) scale(1 6)" xlink:href="#MENU_BORDER_SQUARE"/><radialGradient id="Nowa_próbka_gradientu_3-13" cx="179.019" cy="179.296" fx="179.019" fy="179.296" r="10" gradientTransform="translate(0 -.017)" xlink:href="#Nowa_próbka_gradientu_3"/><radialGradient id="Nowa_próbka_gradientu_3-14" cx="179.018" cy="179.296" fx="179.018" fy="179.296" r="8.155" gradientTransform="translate(0 -.017)" xlink:href="#Nowa_próbka_gradientu_3"/><radialGradient id="MENU_BORDER_SQUARE-16" cx="208.133" cy="263.257" fx="208.133" fy="263.257" r="13.19" gradientTransform="translate(-1024.999 -790.399) rotate(-45) scale(1 6)" xlink:href="#MENU_BORDER_SQUARE"/><radialGradient id="Nowa_próbka_gradientu_3-15" cx="239.019" cy="179.296" fx="239.019" fy="179.296" r="10" gradientTransform="translate(0 -.017)" xlink:href="#Nowa_próbka_gradientu_3"/><radialGradient id="Nowa_próbka_gradientu_3-16" cx="239.018" cy="179.296" fx="239.018" fy="179.296" r="8.155" gradientTransform="translate(0 -.017)" xlink:href="#Nowa_próbka_gradientu_3"/><radialGradient id="MENU_BORDER_SQUARE-17" cx="250.56" cy="305.685" fx="250.56" fy="305.685" r="13.189" gradientTransform="translate(-1174.998 -940.4) rotate(-45) scale(1 6)" xlink:href="#MENU_BORDER_SQUARE"/><radialGradient id="Nowa_próbka_gradientu_3-17" cx="299.019" cy="179.296" fx="299.019" fy="179.296" r="10" gradientTransform="translate(0 -.017)" xlink:href="#Nowa_próbka_gradientu_3"/><radialGradient id="Nowa_próbka_gradientu_3-18" cx="299.018" cy="179.296" fx="299.018" fy="179.296" r="8.155" gradientTransform="translate(0 -.017)" xlink:href="#Nowa_próbka_gradientu_3"/><radialGradient id="MENU_BORDER_SQUARE-18" cx="292.987" cy="348.114" fx="292.987" fy="348.114" r="13.189" gradientTransform="translate(-1324.996 -1090.402) rotate(-45) scale(1 6)" xlink:href="#MENU_BORDER_SQUARE"/><radialGradient id="Nowa_próbka_gradientu_3-19" cx="359.019" cy="179.296" fx="359.019" fy="179.296" r="10" gradientTransform="translate(0 -.017)" xlink:href="#Nowa_próbka_gradientu_3"/><radialGradient id="Nowa_próbka_gradientu_3-20" cx="359.018" cy="179.296" fx="359.018" fy="179.296" r="8.155" gradientTransform="translate(0 -.017)" xlink:href="#Nowa_próbka_gradientu_3"/><radialGradient id="MENU_BORDER_SQUARE-19" cx="335.414" cy="390.542" fx="335.414" fy="390.542" r="13.189" gradientTransform="translate(-1474.995 -1240.403) rotate(-45) scale(1 6)" xlink:href="#MENU_BORDER_SQUARE"/><radialGradient id="Nowa_próbka_gradientu_3-21" cx="419.019" cy="179.296" fx="419.019" fy="179.296" r="10" gradientTransform="translate(0 -.017)" xlink:href="#Nowa_próbka_gradientu_3"/><radialGradient id="Nowa_próbka_gradientu_3-22" cx="419.018" cy="179.296" fx="419.018" fy="179.296" r="8.155" gradientTransform="translate(0 -.017)" xlink:href="#Nowa_próbka_gradientu_3"/><radialGradient id="MENU_BORDER_SQUARE-20" cx="528.913" cy="381.068" fx="528.913" fy="381.068" r="7.032" gradientTransform="translate(-5553.001 -3480.899) rotate(-45) scale(2.814 16.879)" xlink:href="#MENU_BORDER_SQUARE"/><radialGradient id="Nowa_próbka_gradientu_2-2" cx="47.351" cy="15" fx="47.351" fy="15" r="15" gradientTransform="translate(0 -.017)" xlink:href="#Nowa_próbka_gradientu_2"/><radialGradient id="Nowa_próbka_gradientu_2-3" cx="47.352" cy="15" fx="47.352" fy="15" r="12.232" gradientTransform="translate(0 -.017)" xlink:href="#Nowa_próbka_gradientu_2"/><radialGradient id="Nowa_próbka_gradientu_2-4" cx="49.645" cy="15" fx="49.645" fy="15" r="9.73" gradientTransform="translate(0 -105) scale(1 8)" xlink:href="#Nowa_próbka_gradientu_2"/><radialGradient id="Nowa_próbka_gradientu_2-5" cx="45.058" cy="15" fx="45.058" fy="15" r="9.73" gradientTransform="translate(0 -105) scale(1 8)" xlink:href="#Nowa_próbka_gradientu_2"/><radialGradient id="MENU_BORDER_SQUARE-21" cx="537.709" cy="389.864" fx="537.709" fy="389.864" r="7.032" gradientTransform="translate(-5639.997 -3567.896) rotate(-45) scale(2.814 16.877)" xlink:href="#MENU_BORDER_SQUARE"/><radialGradient id="Nowa_próbka_gradientu_3-23" cx="82.351" cy="15" fx="82.351" fy="15" r="15" gradientTransform="translate(0 -.017)" xlink:href="#Nowa_próbka_gradientu_3"/><radialGradient id="Nowa_próbka_gradientu_3-24" cx="82.352" cy="15" fx="82.352" fy="15" r="12.232" gradientTransform="translate(0 -.017)" xlink:href="#Nowa_próbka_gradientu_3"/><radialGradient id="Nowa_próbka_gradientu_3-25" cx="82.351" cy="15" fx="82.351" fy="15" r="9.602" xlink:href="#Nowa_próbka_gradientu_3"/><radialGradient id="MENU_BORDER_SQUARE-22" cx="546.505" cy="398.661" fx="546.505" fy="398.661" r="7.032" gradientTransform="translate(-5727.474 -3655.374) rotate(-45) scale(2.814 16.877)" xlink:href="#MENU_BORDER_SQUARE"/><radialGradient id="Nowa_próbka_gradientu_11" cx="117.351" cy="15" fx="117.351" fy="15" r="15" gradientTransform="translate(0 -.017)" gradientUnits="userSpaceOnUse"><stop offset=".005" stop-color="#009245"/><stop offset=".381" stop-color="#008f44"/><stop offset=".622" stop-color="#008641"/><stop offset=".824" stop-color="#00773b"/><stop offset="1" stop-color="#006435"/></radialGradient><radialGradient id="Nowa_próbka_gradientu_11-2" cx="117.352" cy="15" fx="117.352" fy="15" r="12.232" xlink:href="#Nowa_próbka_gradientu_11"/><radialGradient id="Nowa_próbka_gradientu_11-3" cx="117.351" cy="15" fx="117.351" fy="15" r="9.777" gradientTransform="translate(0 -74.99) scale(1 5.999)" xlink:href="#Nowa_próbka_gradientu_11"/></defs><g id="PlayerMenu"><g id="menuBackground"><path class="cls-2" d="M516.966,159.296H21.802c0-12.041-9.761-21.802-21.802-21.802V56.802c12.041,0,21.802-9.761,21.802-21.802h495.163c0,12.041,9.761,21.802,21.802,21.802v80.691c-12.041,0-21.802,9.761-21.802,21.802Z"/><path class="cls-48" d="M513.443,38.805c1.658,11.08,10.441,19.863,21.52,21.52v73.646c-11.08,1.658-19.863,10.44-21.52,21.52H25.325c-1.658-11.08-10.44-19.863-21.52-21.52V60.325c11.08-1.658,19.863-10.44,21.52-21.52h488.118M516.966,35H21.802C21.802,47.041,12.041,56.802,0,56.802v80.691c12.041,0,21.802,9.761,21.802,21.802h495.163c0-12.041,9.761-21.802,21.802-21.802V56.802c-12.041,0-21.802-9.761-21.802-21.802h0Z"/><path class="cls-63" d="M510.354,42.609H28.413c-2.711,10.114-10.69,18.094-20.805,20.805v67.469c10.114,2.711,18.094,10.69,20.805,20.804h481.941c2.711-10.114,10.69-18.093,20.805-20.804V63.414c-10.115-2.711-18.094-10.69-20.805-20.805h0Z"/></g><g id="hpZero"><g id="hp_additional"><path class="cls-46" d="M34.618,84.146c-.146-.998-.937-1.789-1.934-1.935v-12.799c.998-.146,1.789-.937,1.934-1.934h468.801c.146.998.938,1.789,1.935,1.934v12.799c-.997.146-1.789.937-1.935,1.935H34.618Z"/><path class="cls-15" d="M503.148,67.811c.239.913.96,1.633,1.873,1.873v12.257c-.913.24-1.633.96-1.873,1.873H34.889c-.239-.913-.96-1.633-1.873-1.873v-12.257c.913-.239,1.633-.96,1.873-1.873h468.259M503.728,67.146H34.31c0,1.081-.877,1.958-1.958,1.958v13.417c1.081,0,1.958.877,1.958,1.958h469.419c0-1.081.877-1.958,1.958-1.958v-13.417c-1.081,0-1.958-.877-1.958-1.958h0Z"/><path class="cls-15" d="M502.552,68.676c.342.699.905,1.262,1.604,1.604v11.064c-.699.342-1.262.905-1.604,1.605H35.486c-.342-.7-.905-1.263-1.604-1.605v-11.064c.699-.342,1.262-.905,1.604-1.604h467.066M502.679,68.476H35.359c-.331.746-.931,1.346-1.677,1.677v11.318c.746.331,1.346.932,1.677,1.677h467.32c.331-.746.932-1.346,1.677-1.677v-11.318c-.745-.331-1.346-.931-1.677-1.677h0Z"/></g></g><g id="hpLeft"><path class="cls-5" d="M34.618,84.146c-.146-.998-.937-1.789-1.934-1.935v-12.799c.998-.146,1.789-.937,1.934-1.934h468.801c.146.998.938,1.789,1.935,1.934v12.799c-.997.146-1.789.937-1.935,1.935H34.618Z"/><path class="cls-15" d="M503.148,67.811c.239.913.96,1.633,1.873,1.873v12.257c-.913.24-1.633.96-1.873,1.873H34.889c-.239-.913-.96-1.633-1.873-1.873v-12.257c.913-.239,1.633-.96,1.873-1.873h468.259M503.728,67.146H34.31c0,1.081-.877,1.958-1.958,1.958v13.417c1.081,0,1.958.877,1.958,1.958h469.419c0-1.081.877-1.958,1.958-1.958v-13.417c-1.081,0-1.958-.877-1.958-1.958h0Z"/><path class="cls-15" d="M502.552,68.676c.342.699.905,1.262,1.604,1.604v11.064c-.699.342-1.262.905-1.604,1.605H35.486c-.342-.7-.905-1.263-1.604-1.605v-11.064c.699-.342,1.262-.905,1.604-1.604h467.066M502.679,68.476H35.359c-.331.746-.931,1.346-1.677,1.677v11.318c.746.331,1.346.932,1.677,1.677h467.32c.331-.746.932-1.346,1.677-1.677v-11.318c-.745-.331-1.346-.931-1.677-1.677h0Z"/></g><g id="expZero"><path class="cls-46" d="M34.618,64.148c-.146-.998-.937-1.789-1.934-1.934v-12.799c.998-.146,1.789-.937,1.934-1.935h468.801c.146.998.938,1.789,1.935,1.935v12.799c-.997.146-1.789.937-1.935,1.934H34.618Z"/><path class="cls-15" d="M503.148,47.813c.239.913.96,1.633,1.873,1.873v12.257c-.913.24-1.633.96-1.873,1.873H34.889c-.239-.913-.96-1.633-1.873-1.873v-12.257c.913-.239,1.633-.96,1.873-1.873h468.259M503.728,47.148H34.31c0,1.081-.877,1.958-1.958,1.958v13.417c1.081,0,1.958.877,1.958,1.958h469.419c0-1.081.877-1.958,1.958-1.958v-13.417c-1.081,0-1.958-.877-1.958-1.958h0Z"/><path class="cls-15" d="M502.552,48.678c.342.699.905,1.262,1.604,1.605v11.064c-.699.342-1.262.905-1.604,1.604H35.486c-.342-.699-.905-1.262-1.604-1.604v-11.064c.699-.342,1.262-.905,1.604-1.605h467.066M502.679,48.478H35.359c-.331.746-.931,1.346-1.677,1.677v11.318c.746.331,1.346.931,1.677,1.677h467.32c.331-.746.932-1.346,1.677-1.677v-11.318c-.745-.331-1.346-.932-1.677-1.677h0Z"/></g><g id="expLeft"><g id="exp_left"><path class="cls-34" d="M34.618,64.148c-.146-.998-.937-1.789-1.934-1.934v-12.799c.998-.146,1.789-.937,1.934-1.935h468.801c.146.998.938,1.789,1.935,1.935v12.799c-.997.146-1.789.937-1.935,1.934H34.618Z"/><path class="cls-15" d="M503.148,47.813c.239.913.96,1.633,1.873,1.873v12.257c-.913.24-1.633.96-1.873,1.873H34.889c-.239-.913-.96-1.633-1.873-1.873v-12.257c.913-.239,1.633-.96,1.873-1.873h468.259M503.728,47.148H34.31c0,1.081-.877,1.958-1.958,1.958v13.417c1.081,0,1.958.877,1.958,1.958h469.419c0-1.081.877-1.958,1.958-1.958v-13.417c-1.081,0-1.958-.877-1.958-1.958h0Z"/><path class="cls-15" d="M502.552,48.678c.342.699.905,1.262,1.604,1.605v11.064c-.699.342-1.262.905-1.604,1.604H35.486c-.342-.699-.905-1.262-1.604-1.604v-11.064c.699-.342,1.262-.905,1.604-1.605h467.066M502.679,48.478H35.359c-.331.746-.931,1.346-1.677,1.677v11.318c.746.331,1.346.931,1.677,1.677h467.32c.331-.746.932-1.346,1.677-1.677v-11.318c-.745-.331-1.346-.932-1.677-1.677h0Z"/></g></g><g id="fastActionsDetailsLeft" class="cls-24"><path class="cls-56" d="M89.466,106.685c-.091.021-.188.04-.279.061-.237.05-.474.101-.711.153-.235.058-.472.11-.709.163-4.84,1.095-9.308,2.219-13.355,3.241-.563.145-1.13.286-1.679.422-.585.153-1.154.296-1.719.43-.003.001-.006.003-.009.004-.46.122-.906.23-1.352.341,3.205,6.325,6.41,12.65,9.615,18.975.08.158.16.315.24.473.083.164.166.328.249.492,1.041,2.054,2.081,4.107,3.122,6.161,2.031-.43,4.236-.902,6.587-1.392v-29.524Z"/><path class="cls-35" d="M79.093,93.186c-3.181,2.443-6.437,4.416-9.992,6.056-4.872,2.252-9.688,3.586-14.383,5.106-4.665,1.51-9.091,3.152-13.346,6.039-3.474,2.363-6.441,5.351-8.918,9.009,5.816-.249,9.827.343,17.273,2.43.221.064.441.129.661.194-.029.227-.057.453-.084.68-.818,6.873-1.016,10.836-.397,18.001,1.699-2.229,3.667-4.118,5.901-5.678,4.591-3.191,9.53-4.497,14.214-5.494,1.698-.361,3.353-.682,4.969-1.04-3.43-6.625-6.86-13.25-10.29-19.874.009-.005.022-.003.03-.008-.011-.002-.012-.002-.024-.003,6.097-5.265,9.54-7.938,14.386-15.416Z"/><path class="cls-62" d="M70.48,108.765c4.687-1.172,10.083-2.564,16.098-3.925-1.316-3.495-2.632-6.991-3.948-10.486-4.584,6.982-7.967,10.028-13.045,14.333.303.026.606.053.896.079Z"/></g><g id="fastActionsDetailsRight" class="cls-8"><path class="cls-11" d="M448.571,106.685c.091.021.187.04.279.061.237.05.474.101.711.153.235.058.472.11.709.163,4.84,1.095,9.308,2.219,13.355,3.241.563.145,1.13.286,1.679.422.585.153,1.154.296,1.719.43.003.001.006.003.009.004.46.122.906.23,1.352.341-3.205,6.325-6.41,12.65-9.615,18.975-.08.158-.16.315-.24.473-.083.164-.166.328-.249.492-1.041,2.054-2.081,4.107-3.122,6.161-2.031-.43-4.236-.902-6.587-1.392v-29.524Z"/><path class="cls-65" d="M458.944,93.186c3.181,2.443,6.437,4.416,9.992,6.056,4.872,2.252,9.688,3.586,14.383,5.106,4.665,1.51,9.091,3.152,13.346,6.039,3.474,2.363,6.441,5.351,8.918,9.009-5.816-.249-9.827.343-17.273,2.43-.221.064-.441.129-.661.194.029.227.057.453.084.68.818,6.873,1.016,10.836.397,18.001-1.699-2.229-3.667-4.118-5.901-5.678-4.591-3.191-9.53-4.497-14.214-5.494-1.698-.361-3.353-.682-4.969-1.04,3.43-6.625,6.86-13.25,10.29-19.874-.009-.005-.022-.003-.03-.008.011-.002.012-.002.024-.003-6.097-5.265-9.54-7.938-14.386-15.416Z"/><path class="cls-43" d="M467.558,108.765c-4.687-1.172-10.083-2.564-16.098-3.925,1.316-3.495,2.632-6.991,3.948-10.486,4.584,6.982,7.967,10.028,13.045,14.333-.303.026-.606.053-.896.079Z"/></g><g id="fastAction1Frame"><path class="cls-26" d="M96.168,146.399c-.351-3.366-3.034-6.049-6.4-6.399v-45.701c3.366-.351,6.049-3.034,6.4-6.399h45.701c.351,3.366,3.034,6.049,6.399,6.399v45.701c-3.366.351-6.049,3.034-6.399,6.399h-45.701Z"/><path class="cls-10" d="M140.853,89.106c.733,3.061,3.148,5.475,6.208,6.208v43.669c-3.06.733-5.475,3.148-6.208,6.208h-43.669c-.733-3.061-3.148-5.475-6.208-6.208v-43.669c3.061-.734,5.475-3.148,6.208-6.208h43.669M142.58,87.148h-47.123c0,3.556-2.883,6.439-6.439,6.439v47.123c3.556,0,6.439,2.883,6.439,6.439h47.123c0-3.556,2.883-6.439,6.439-6.439v-47.123c-3.556,0-6.439-2.883-6.439-6.439h0Z"/><path class="cls-15" d="M139.048,91.65c1.094,2.411,3.058,4.374,5.469,5.469v40.059c-2.411,1.094-4.374,3.058-5.469,5.469h-40.059c-1.094-2.411-3.058-4.374-5.469-5.469v-40.059c2.411-1.094,4.375-3.058,5.469-5.469h40.059M139.434,91.063h-40.831c-1.052,2.565-3.105,4.618-5.67,5.67v40.831c2.565,1.052,4.619,3.104,5.67,5.67h40.831c1.052-2.565,3.104-4.618,5.67-5.67v-40.831c-2.565-1.052-4.618-3.104-5.67-5.67h0Z"/></g><g id="fastAction2Frame"><path class="cls-1" d="M156.168,146.399c-.351-3.366-3.034-6.049-6.4-6.399v-45.701c3.366-.351,6.049-3.034,6.4-6.399h45.701c.351,3.366,3.034,6.049,6.399,6.399v45.701c-3.366.351-6.049,3.034-6.399,6.399h-45.701Z"/><path class="cls-13" d="M200.853,89.106c.734,3.061,3.148,5.475,6.208,6.208v43.669c-3.061.734-5.475,3.148-6.208,6.208h-43.669c-.734-3.061-3.148-5.475-6.208-6.208v-43.669c3.061-.734,5.475-3.148,6.208-6.208h43.669M202.58,87.148h-47.123c0,3.556-2.883,6.439-6.439,6.439v47.123c3.556,0,6.439,2.883,6.439,6.439h47.123c0-3.556,2.883-6.439,6.439-6.439v-47.123c-3.556,0-6.439-2.883-6.439-6.439h0Z"/><path class="cls-15" d="M199.048,91.65c1.094,2.411,3.058,4.374,5.469,5.469v40.059c-2.411,1.094-4.374,3.058-5.469,5.469h-40.059c-1.094-2.411-3.058-4.374-5.469-5.469v-40.059c2.411-1.094,4.375-3.058,5.469-5.469h40.059M199.434,91.063h-40.831c-1.052,2.565-3.105,4.618-5.67,5.67v40.831c2.565,1.052,4.619,3.104,5.67,5.67h40.831c1.052-2.565,3.104-4.618,5.67-5.67v-40.831c-2.565-1.052-4.618-3.104-5.67-5.67h0Z"/></g><g id="fastAction3Frame"><path class="cls-23" d="M216.168,146.399c-.351-3.366-3.034-6.049-6.4-6.399v-45.701c3.366-.351,6.049-3.034,6.4-6.399h45.701c.351,3.366,3.034,6.049,6.399,6.399v45.701c-3.366.351-6.049,3.034-6.399,6.399h-45.701Z"/><path class="cls-42" d="M260.853,89.106c.733,3.061,3.148,5.475,6.208,6.208v43.669c-3.06.733-5.475,3.148-6.208,6.208h-43.669c-.733-3.061-3.148-5.475-6.208-6.208v-43.669c3.061-.734,5.475-3.148,6.208-6.208h43.669M262.58,87.148h-47.123c0,3.556-2.883,6.439-6.439,6.439v47.123c3.556,0,6.439,2.883,6.439,6.439h47.123c0-3.556,2.883-6.439,6.439-6.439v-47.123c-3.556,0-6.439-2.883-6.439-6.439h0Z"/><path class="cls-15" d="M259.048,91.65c1.094,2.411,3.057,4.374,5.469,5.469v40.059c-2.411,1.094-4.374,3.057-5.469,5.469h-40.059c-1.094-2.411-3.058-4.374-5.469-5.469v-40.059c2.411-1.094,4.375-3.058,5.469-5.469h40.059M259.434,91.063h-40.831c-1.052,2.565-3.105,4.618-5.67,5.67v40.831c2.565,1.052,4.619,3.104,5.67,5.67h40.831c1.052-2.565,3.104-4.618,5.67-5.67v-40.831c-2.565-1.052-4.618-3.104-5.67-5.67h0Z"/></g><g id="fastAction4Frame"><path class="cls-59" d="M276.168,146.399c-.351-3.366-3.034-6.049-6.4-6.399v-45.701c3.366-.351,6.049-3.034,6.4-6.399h45.701c.351,3.366,3.033,6.049,6.399,6.399v45.701c-3.366.351-6.049,3.034-6.399,6.399h-45.701Z"/><path class="cls-18" d="M320.853,89.106c.734,3.061,3.148,5.475,6.208,6.208v43.669c-3.061.734-5.475,3.148-6.208,6.208h-43.669c-.734-3.061-3.148-5.475-6.208-6.208v-43.669c3.061-.734,5.475-3.148,6.208-6.208h43.669M322.58,87.148h-47.123c0,3.556-2.883,6.439-6.439,6.439v47.123c3.556,0,6.439,2.883,6.439,6.439h47.123c0-3.556,2.883-6.439,6.439-6.439v-47.123c-3.556,0-6.439-2.883-6.439-6.439h0Z"/><path class="cls-15" d="M319.049,91.65c1.093,2.411,3.057,4.374,5.469,5.469v40.059c-2.412,1.094-4.375,3.057-5.469,5.469h-40.06c-1.093-2.411-3.056-4.374-5.469-5.469v-40.059c2.412-1.095,4.375-3.058,5.469-5.469h40.06M319.435,91.063h-40.832c-1.051,2.565-3.104,4.618-5.67,5.67v40.831c2.565,1.052,4.619,3.104,5.67,5.67h40.832c1.051-2.565,3.104-4.618,5.67-5.67v-40.831c-2.566-1.052-4.619-3.104-5.67-5.67h0Z"/></g><g id="fastAction5Frame"><path class="cls-6" d="M336.168,146.399c-.351-3.366-3.033-6.049-6.399-6.399v-45.701c3.366-.351,6.049-3.034,6.399-6.399h45.701c.351,3.366,3.033,6.049,6.399,6.399v45.701c-3.366.351-6.049,3.034-6.399,6.399h-45.701Z"/><path class="cls-55" d="M380.853,89.106c.734,3.061,3.148,5.475,6.208,6.208v43.669c-3.061.734-5.475,3.148-6.208,6.208h-43.669c-.734-3.061-3.148-5.475-6.208-6.208v-43.669c3.061-.734,5.475-3.148,6.208-6.208h43.669M382.58,87.148h-47.123c0,3.556-2.883,6.439-6.439,6.439v47.123c3.556,0,6.439,2.883,6.439,6.439h47.123c0-3.556,2.883-6.439,6.439-6.439v-47.123c-3.556,0-6.439-2.883-6.439-6.439h0Z"/><path class="cls-15" d="M379.049,91.65c1.094,2.411,3.057,4.374,5.469,5.469v40.059c-2.412,1.094-4.375,3.057-5.469,5.469h-40.06c-1.094-2.411-3.057-4.374-5.469-5.469v-40.059c2.412-1.094,4.375-3.058,5.469-5.469h40.06M379.435,91.063h-40.832c-1.051,2.565-3.104,4.618-5.67,5.67v40.831c2.566,1.052,4.619,3.104,5.67,5.67h40.832c1.051-2.565,3.104-4.618,5.67-5.67v-40.831c-2.566-1.052-4.619-3.104-5.67-5.67h0Z"/></g><g id="fastAction6Frame"><path class="cls-12" d="M396.168,146.399c-.351-3.366-3.033-6.049-6.399-6.399v-45.701c3.366-.351,6.049-3.034,6.399-6.399h45.701c.351,3.366,3.033,6.049,6.399,6.399v45.701c-3.366.351-6.049,3.034-6.399,6.399h-45.701Z"/><path class="cls-64" d="M440.853,89.106c.734,3.061,3.148,5.475,6.208,6.208v43.669c-3.061.734-5.475,3.148-6.208,6.208h-43.669c-.734-3.061-3.148-5.475-6.208-6.208v-43.669c3.061-.734,5.475-3.148,6.208-6.208h43.669M442.58,87.148h-47.123c0,3.556-2.883,6.439-6.439,6.439v47.123c3.556,0,6.439,2.883,6.439,6.439h47.123c0-3.556,2.883-6.439,6.439-6.439v-47.123c-3.556,0-6.439-2.883-6.439-6.439h0Z"/><path class="cls-15" d="M439.049,91.65c1.094,2.411,3.057,4.374,5.469,5.469v40.059c-2.412,1.094-4.375,3.057-5.469,5.469h-40.06c-1.094-2.411-3.057-4.374-5.469-5.469v-40.059c2.412-1.094,4.375-3.058,5.469-5.469h40.06M439.435,91.063h-40.832c-1.051,2.565-3.104,4.618-5.67,5.67v40.831c2.566,1.052,4.619,3.104,5.67,5.67h40.832c1.051-2.565,3.104-4.618,5.67-5.67v-40.831c-2.566-1.052-4.619-3.104-5.67-5.67h0Z"/></g><g id="levelDetails" class="cls-53"><g id="layer1"><g id="g4923"><g id="path4939"><path class="cls-58" d="M256.977,61.568c-.97,0-1.884-.38-2.575-1.071-.738-.74-1.123-1.763-1.055-2.807l.072-1.089-1.089.075c-.079.005-.158.008-.236.008-.97,0-1.882-.377-2.57-1.063-1.419-1.419-1.419-3.729,0-5.149.69-.69,1.605-1.071,2.575-1.071s1.884.38,2.575,1.071l.677.677,24.105-24.111-.677-.675c-.69-.69-1.07-1.604-1.07-2.574s.38-1.884,1.07-2.575,1.604-1.071,2.574-1.071c.974.001,1.889.382,2.579,1.072.737.741,1.122,1.764,1.055,2.805l-.073,1.088,1.089-.073c.079-.005.157-.008.236-.008.972,0,1.884.377,2.57,1.062,1.42,1.419,1.419,3.729,0,5.149-.69.69-1.604,1.071-2.574,1.071s-1.885-.38-2.575-1.071l-.677-.677-24.109,24.109.677.677c1.419,1.42,1.419,3.729,0,5.149-.691.69-1.605,1.071-2.575,1.071Z"/><path class="cls-47" d="M281.358,20.579c.854,0,1.659.335,2.267.943.65.653.989,1.554.93,2.47l-.054.804-.052.78.78-.052.803-.054c.07-.005.14-.007.209-.007.855,0,1.659.332,2.262.934.609.609.944,1.414.944,2.268s-.335,1.659-.944,2.268c-.609.609-1.414.944-2.268.944s-1.659-.335-2.268-.944l-.5-.5-.484-.484-.484.484-23.755,23.755-.484.484.484.484.5.5c.609.609.944,1.414.944,2.268s-.335,1.659-.944,2.268c-.609.609-1.414.944-2.268.944s-1.659-.335-2.267-.943c-.651-.653-.989-1.554-.929-2.471l.054-.804.052-.782-.782.054-.801.055c-.07.005-.139.007-.209.007-.854,0-1.659-.332-2.263-.935-1.25-1.251-1.25-3.285,0-4.536.609-.609,1.414-.944,2.268-.944s1.659.335,2.268.944l.5.5.484.484.484-.484,8.939-8.939,5.873-5.876,8.94-8.942.484-.484-.485-.483-.499-.498c-.609-.609-.944-1.414-.944-2.268s.335-1.659.944-2.268c.584-.584,1.35-.917,2.166-.942h.105M281.354,19.893c-.994,0-1.989.381-2.751,1.144-1.526,1.525-1.526,3.977,0,5.503l.5.498-8.94,8.942-5.873,5.876-8.939,8.939-.5-.5c-.763-.763-1.757-1.144-2.752-1.144s-1.989.381-2.751,1.144c-1.525,1.526-1.525,3.977,0,5.503.732.73,1.72,1.136,2.747,1.136.084,0,.169-.003.253-.008l.804-.056-.054.804c-.073,1.116.338,2.208,1.128,3,.763.763,1.757,1.144,2.751,1.144s1.989-.381,2.751-1.144c1.526-1.526,1.526-3.977,0-5.503l-.5-.5,23.755-23.755.5.5c.763.763,1.757,1.144,2.751,1.144s1.989-.381,2.751-1.144c1.526-1.526,1.526-3.977,0-5.503-.732-.73-1.72-1.134-2.746-1.134-.084,0-.169.003-.254.008l-.804.054.054-.804c.073-1.115-.339-2.206-1.127-2.998-.763-.763-1.757-1.144-2.751-1.144l-.004-.002h0Z"/></g><g id="path4939-2"><path class="cls-40" d="M281.359,61.569c-.97,0-1.884-.38-2.574-1.071s-1.07-1.605-1.07-2.575.38-1.884,1.07-2.575l.677-.677-24.111-24.105-.675.677c-.69.69-1.604,1.071-2.574,1.071s-1.884-.38-2.575-1.071c-.681-.68-1.06-1.578-1.071-2.533v-.045c.001-.97.382-1.884,1.072-2.575.688-.685,1.6-1.062,2.568-1.062.079,0,.158.002.237.008l1.088.073-.073-1.089c-.068-1.044.316-2.067,1.053-2.807.69-.69,1.604-1.07,2.574-1.07s1.884.38,2.575,1.071c.691.69,1.071,1.605,1.071,2.575s-.38,1.884-1.071,2.575l-.677.677,24.109,24.109.677-.677c.69-.69,1.604-1.071,2.575-1.071s1.884.38,2.574,1.071c1.42,1.42,1.42,3.729,0,5.149-.688.685-1.6,1.062-2.569,1.062-.079,0-.158-.002-.237-.008l-1.09-.073.076,1.089c.067,1.042-.317,2.066-1.055,2.807-.691.69-1.605,1.07-2.575,1.07Z"/><path class="cls-7" d="M256.976,20.576c.854,0,1.659.335,2.268.944,1.25,1.251,1.25,3.285,0,4.536l-.5.5-.484.484.484.484,23.755,23.755.484.484.484-.484.5-.5c.609-.609,1.414-.944,2.268-.944s1.659.335,2.268.944c1.25,1.251,1.25,3.285,0,4.535-.606.604-1.409.936-2.263.936-.07,0-.139-.002-.208-.007l-.804-.054-.782-.052.054.782.055.801c.06.919-.279,1.82-.929,2.472-.609.609-1.414.944-2.268.944s-1.659-.335-2.268-.944c-1.25-1.251-1.25-3.285,0-4.536l.5-.5.483-.484-.484-.484-8.939-8.939-5.876-5.873-8.942-8.94-.484-.484-.484.485-.498.499c-.609.609-1.414.944-2.268.944s-1.659-.335-2.268-.944c-.584-.584-.916-1.349-.942-2.164v-.107c0-.854.335-1.659.943-2.267.606-.604,1.41-.936,2.263-.936.069,0,.139.002.207.007l.804.054.78.052-.052-.78-.054-.803c-.06-.92.278-1.821.927-2.472.609-.609,1.414-.944,2.268-.944M256.976,19.892c-.994,0-1.989.381-2.751,1.144-.789.792-1.198,1.884-1.126,3l.054.804-.804-.054c-.084-.005-.169-.008-.253-.008-1.026,0-2.013.407-2.745,1.136-.763.763-1.144,1.757-1.144,2.751l-.002.004c0,.994.381,1.989,1.144,2.751.763.763,1.757,1.144,2.751,1.144s1.989-.381,2.752-1.144l.498-.5,8.942,8.94,5.876,5.873,8.939,8.939-.5.5c-1.525,1.526-1.525,3.977,0,5.503.763.763,1.757,1.144,2.751,1.144s1.989-.381,2.751-1.144c.789-.792,1.2-1.884,1.127-3l-.056-.804.804.054c.085.006.169.008.254.008,1.026,0,2.014-.406,2.746-1.136,1.525-1.526,1.525-3.977,0-5.503-.763-.763-1.757-1.144-2.751-1.144s-1.989.381-2.752,1.144l-.5.5-23.755-23.755.5-.5c1.525-1.526,1.525-3.977,0-5.503-.763-.763-1.757-1.144-2.752-1.144h0Z"/></g></g></g></g><g id="levelFrame"><rect class="cls-3" x="255.169" y="26.857" width="27.699" height="27.699" transform="translate(50.01 202.148) rotate(-45)"/><path class="cls-22" d="M269.019,21.644l19.063,19.063-19.062,19.062-19.062-19.063,19.062-19.062M269.019,19.707l-21,21,21,21,21-21-21-21h0Z"/><path class="cls-69" d="M269.018,24.163l16.544,16.544-16.544,16.544-16.544-16.544,16.544-16.544M269.018,23.582l-17.125,17.125,17.125,17.125,17.125-17.125-17.125-17.125h0Z"/></g><g id="expPercentage" class="cls-29"><text class="cls-31" transform="translate(38.179 58.874)"><tspan x="0" y="0">100%</tspan></text></g><g id="hpPercentage" class="cls-29"><text class="cls-31" transform="translate(38.179 78.872)"><tspan x="0" y="0">100%</tspan></text></g><g id="fastAction1TextFrame"><rect class="cls-37" x="109.73" y="169.97" width="18.653" height="18.652"/><path class="cls-44" d="M128.133,170.219v18.154s-18.155,0-18.155,0v-18.154s18.155,0,18.155,0M129.056,169.296h-19.999s0,20,0,20h19.999s0-20,0-20h0Z"/><path class="cls-25" d="M126.934,171.418v15.757h-15.756v-15.757h15.756M127.211,171.141h-16.309v16.311s16.309,0,16.309,0v-16.311h0Z"/></g><g id="fastAction2TextFrame"><rect class="cls-41" x="169.692" y="169.97" width="18.653" height="18.652"/><path class="cls-14" d="M188.096,170.219v18.154s-18.155,0-18.155,0v-18.154s18.155,0,18.155,0M189.019,169.296h-19.999s0,20,0,20h20s0-20,0-20h0Z"/><path class="cls-36" d="M186.896,171.418v15.757h-15.756v-15.757h15.756M187.173,171.141h-16.309v16.311s16.309,0,16.309,0v-16.311h0Z"/></g><g id="fastAction3TextFrame"><rect class="cls-52" x="229.692" y="169.97" width="18.653" height="18.652"/><path class="cls-27" d="M248.096,170.219v18.154s-18.155,0-18.155,0v-18.154s18.155,0,18.155,0M249.019,169.296h-19.999s0,20,0,20h20s0-20,0-20h0Z"/><path class="cls-49" d="M246.896,171.418v15.757h-15.756v-15.757h15.756M247.173,171.141h-16.309v16.311s16.309,0,16.309,0v-16.311h0Z"/></g><g id="fastAction4TextFrame"><rect class="cls-68" x="289.693" y="169.97" width="18.652" height="18.652"/><path class="cls-16" d="M308.096,170.219v18.154s-18.155,0-18.155,0v-18.154s18.155,0,18.155,0M309.019,169.296h-19.999s0,20,0,20h20s0-20,0-20h0Z"/><path class="cls-60" d="M306.896,171.418v15.757h-15.756v-15.757h15.756M307.173,171.141h-16.31v16.311h16.31v-16.311h0Z"/></g><g id="fastAction5TextFrame"><rect class="cls-50" x="349.693" y="169.97" width="18.652" height="18.652"/><path class="cls-21" d="M368.096,170.219v18.154s-18.155,0-18.155,0v-18.154s18.155,0,18.155,0M369.019,169.296h-20s0,20,0,20h19.999s0-20,0-20h0Z"/><path class="cls-9" d="M366.897,171.418v15.757h-15.756v-15.757h15.756M367.173,171.141h-16.31v16.311h16.31v-16.311h0Z"/></g><g id="fastAction6TextFrame"><rect class="cls-17" x="409.693" y="169.97" width="18.652" height="18.652"/><path class="cls-67" d="M428.096,170.219v18.154s-18.155,0-18.155,0v-18.154s18.155,0,18.155,0M429.019,169.296h-20s0,20,0,20h19.999s0-20,0-20h0Z"/><path class="cls-38" d="M426.897,171.418v15.757h-15.756v-15.757h15.756M427.173,171.141h-16.31v16.311h16.31v-16.311h0Z"/></g><g id="fastAction1Text" class="cls-29"><text class="cls-30" transform="translate(117.191 182.697)"><tspan x="0" y="0">1</tspan></text></g><g id="fastAction2Text" class="cls-29"><text class="cls-30" transform="translate(175.864 182.697)"><tspan x="0" y="0">B</tspan></text></g><g id="fastAction3Text" class="cls-29"><text class="cls-30" transform="translate(236.124 182.697)"><tspan x="0" y="0">C</tspan></text></g><g id="fastAction4Text" class="cls-29"><text class="cls-30" transform="translate(296.178 182.696)"><tspan x="0" y="0">4</tspan></text></g><g id="fastAction5Text" class="cls-29"><text class="cls-30" transform="translate(356.264 182.696)"><tspan x="0" y="0">5</tspan></text></g><g id="fastAction6Text" class="cls-29"><text class="cls-30" transform="translate(416.114 182.697)"><tspan x="0" y="0">6</tspan></text></g><g id="level" class="cls-29"><text class="cls-32" transform="translate(260.931 44.787)"><tspan x="0" y="0">101</tspan></text></g></g><g id="Warstwa_3"><g id="fightIcon"><rect class="cls-20" x="33.362" y="1.011" width="27.979" height="27.979"/><path class="cls-33" d="M60.967,1.384v27.232s-27.232,0-27.232,0V1.384s27.232,0,27.232,0M62.351,0h-29.999s0,30,0,30h29.999s0-30,0-30h0Z"/><path class="cls-70" d="M59.168,3.183v23.634h-23.634V3.183h23.634M59.583,2.768h-24.463v24.464s24.463,0,24.463,0V2.768h0Z"/><path class="cls-66" d="M50.28,20.809h0c-.238,1.047.106,2.151.781,2.97.179.217.381.414.601.585.194.15.411.274.629.385.42.214.882.398,1.351.459,1.085.14,2.202-.375,2.974-1.113.076-.073.15-.149.22-.227.099-.111.193-.228.281-.349l.844.337c.171.068.354.058.51-.014.14-.065.258-.18.323-.334.078-.185.063-.386-.024-.551-.069-.131-.183-.239-.331-.298l-.724-.289s.002-.005.003-.008c.08-.234.219-.53.055-.754-.021-.029-.333-.219-.381-.197-.003.002-.006.004-.006.008-.004.006-.06.097-.13.227-.07.13-.154.298-.212.456l-.101-.04-.074-.03-.045-.018-.254-.101-.074-.03-.299-.119-.074-.03-.299-.119-.074-.03-.299-.119-.074-.029-.299-.119-.074-.03-.299-.119-.074-.03-.299-.119-.074-.03-.299-.119-.074-.029-.299-.119-.074-.03-.299-.119-.074-.03-.299-.119-.074-.03-.299-.119-.074-.03-.244-.097c.292-.644.571-1.199.571-1.199,0,0-.504-.277-1.124.01-.201.093-.415.246-.628.487-.002,0-7.16-3.148-6.761-11.549.004-.091-.013-.182-.051-.264-.028-.061-.066-.115-.113-.162-.046-.046-.101-.085-.162-.113-.51-.234-1.958-.997-2.847-2.448-.027-.045-.066-.082-.113-.107-.086-.047-.184-.046-.266-.008-.063.029-.117.081-.147.15l-.013.029c-.014.032-.022.066-.025.101-.056.887-.604,12.641,9.813,15.733ZM51.485,21.92s0,0,0,0c.016-.137.077-.344.165-.585h.003s.219.088.219.088l.074.03.299.119.074.03.299.119.074.03.299.12.074.03.299.119.074.03.299.119.074.03.299.119.074.03.299.119.074.03.299.12.074.03.299.119.074.03.299.119.074.03.299.119.074.03.299.119.074.03.085.034c-.599,1.116-2.041,1.062-2.041,1.062-1.325-.029-2.234-.93-2.234-.93,0,0-.823-.822-.747-1.488Z"/><path class="cls-51" d="M54.236,5.076c-.002-.035-.011-.069-.025-.101l-.013-.029c-.031-.069-.084-.121-.147-.15-.082-.038-.18-.039-.266.008-.046.025-.085.062-.113.107-.889,1.452-2.337,2.214-2.847,2.448-.061.028-.115.066-.162.113-.047.047-.085.101-.113.162-.038.083-.055.173-.051.264.399,8.401-6.758,11.548-6.761,11.549-.213-.241-.427-.394-.628-.487-.62-.287-1.124-.01-1.124-.01,0,0,.279.555.571,1.199l-.244.097-.074.03-.299.119-.074.03-.299.119-.074.03-.299.119-.074.03-.299.119-.074.029-.299.119-.074.03-.299.119-.074.03-.299.119-.074.03-.299.119-.074.029-.299.119-.074.03-.299.119-.074.03-.299.119-.074.03-.254.101-.045.018-.074.03-.101.04c-.058-.159-.142-.327-.212-.456-.07-.13-.127-.221-.13-.227,0-.004-.003-.007-.006-.008-.048-.022-.36.167-.381.197-.163.224-.024.52.055.754,0,.003.002.005.003.008l-.724.289c-.148.059-.262.167-.331.298-.087.165-.102.366-.024.551.065.154.183.27.323.334.156.072.338.082.51.014l.844-.337c.088.121.182.237.281.349.07.079.144.154.22.227.773.738,1.889,1.254,2.974,1.113.469-.061.932-.245,1.351-.459.218-.111.435-.235.629-.385.221-.171.422-.368.601-.585.675-.819,1.019-1.923.781-2.97h0c10.417-3.092,9.87-14.846,9.813-15.733ZM42.471,23.408s-.909.901-2.234.93c0,0-1.442.054-2.041-1.062l.085-.034.074-.03.299-.119.074-.03.299-.119.074-.03.299-.119.074-.03.299-.119.074-.03.299-.12.074-.03.299-.119.074-.03.299-.119.074-.03.299-.119.074-.03.299-.119.074-.03.299-.12.074-.03.299-.119.074-.03.299-.119.074-.03.219-.087h.003c.087.24.149.447.165.584,0,0,0,0,0,0,.076.666-.747,1.488-.747,1.488Z"/></g><g id="sprintIcon"><rect class="cls-28" x="68.362" y="1.011" width="27.979" height="27.979"/><path class="cls-39" d="M95.967,1.384v27.232s-27.232,0-27.232,0V1.384s27.232,0,27.232,0M97.351,0h-29.999s0,30,0,30h29.999s0-30,0-30h0Z"/><path class="cls-19" d="M94.168,3.183v23.634h-23.634V3.183h23.634M94.583,2.768h-24.463v24.464s24.463,0,24.463,0V2.768h0Z"/><path class="cls-45" d="M90.028,22.011c-3.406-.456-5.182-4.225-5.182-7.713-.001-.486.12-.964.354-1.389,1.171-2.14,2.349-4.29,3.518-6.432.285-.531.086-1.192-.445-1.477-.156-.084-.329-.128-.506-.13h-6.939c-.437,0-.831.263-1.002.666-.394.948-.853,1.95-1.349,2.945l-3.768,3.158c-1.382,1.326-1.788,3.374-1.016,5.126.935,2.114,3.025,2.386,4.719,3.444,1.432.907,2.639,2.128,3.529,3.571.433.796,1.25,1.308,2.155,1.349h5.746c.865-.008,1.559-.715,1.551-1.58-.007-.782-.591-1.439-1.367-1.538Z"/></g><g id="healIcon"><rect class="cls-61" x="103.362" y="1.011" width="27.979" height="27.979"/><path class="cls-4" d="M130.967,1.384v27.232s-27.232,0-27.232,0V1.384s27.232,0,27.232,0M132.351,0h-29.999s0,30,0,30h29.999s0-30,0-30h0Z"/><path class="cls-57" d="M129.168,3.183v23.634h-23.634V3.183h23.634M129.583,2.768h-24.463v24.464s24.463,0,24.463,0V2.768h0Z"/><polygon class="cls-54" points="127.128 12.721 119.631 12.721 119.631 5.223 115.072 5.223 115.072 12.721 107.575 12.721 107.575 17.279 115.072 17.279 115.072 24.777 119.631 24.777 119.631 17.279 127.128 17.279 127.128 12.721"/></g></g></svg>