<svg id="tabliczka_klawisze" xmlns="http://www.w3.org/2000/svg" width="337.74" height="99.613" viewBox="0 0 337.74 99.613">
  <g id="Warstwa_1-2" transform="translate(1.638 6.782)">
    <path id="Path_9" data-name="Path 9" d="M335.187,76.782c-1.7,8.448-5.1,7.7-7.811,7.537-99.227-11.429-196.964,3.644-289.3-5.3-2.807-.248-23.336,0-26.143.745-5.863,1.574-8.689.248-10.14-7.371A82.023,82.023,0,0,1,.573,55.828C.631,48.705.8,44.15.936,36.944,1.165,25.929,1.452,11.353,3.3,5.969,5.4-.243,46.369.163,47.286.577,97.62,8.5,103.161-2.065,150.178,7.791c16.385,3.4,26.354,5.549,40.867,4.141C235.788,7.708,280.57,14,325.295,8.619c1.986-.248,8.384-1.16,10.5,14.08a140.8,140.8,0,0,1,.84,17.144A352.732,352.732,0,0,1,335.187,76.782Z" transform="translate(-0.567 -0.371)" fill="#b37f27"/>
  </g>
  <g id="Warstwa_1-2-2" data-name="Warstwa_1-2" transform="matrix(1, -0.017, 0.017, 1, 0.269, 6.248)" opacity="0.41">
    <path id="Path_9-2" data-name="Path 9" d="M328.724,84.381c-1.733,9.814-5.073,8.993-7.74,8.835C223.422,81.224,127.135,99.933,36.34,90.734c-2.761-.252-22.964.3-25.732,1.195-5.781,1.9-8.552.4-9.925-8.416A111.191,111.191,0,0,1-.4,64.328c.108-8.257.31-13.539.493-21.893C.4,29.663.785,12.763,2.646,6.5,4.758-.727,45.066-.776,45.965-.307c49.475,8.548,55-3.769,101.2,7.06,16.1,3.729,25.893,6.1,40.185,4.283C231.409,5.573,275.431,12.3,319.481,5.5c1.956-.313,8.258-1.45,10.234,16.187a191.549,191.549,0,0,1,.7,19.862C330.509,60.168,329.495,75.252,328.724,84.381Z" transform="translate(0.159 -0.006)" fill="#b37f27"/>
  </g>
</svg>
