<svg xmlns="http://www.w3.org/2000/svg" xmlns:xlink="http://www.w3.org/1999/xlink" width="141" height="50" viewBox="0 0 141 50">
  <defs>
    <clipPath id="clip-path">
      <rect id="Rectangle_424" data-name="Rectangle 424" width="8.485" height="8.485" transform="translate(2 8) rotate(-45)" fill="none"/>
    </clipPath>
    <radialGradient id="radial-gradient" cx="0.5" cy="0.5" r="0.5" gradientTransform="matrix(1, 0, 0, -1, 0, 2.333)" gradientUnits="objectBoundingBox">
      <stop offset="0" stop-color="#ffcb7e"/>
      <stop offset="0.261" stop-color="#fbc87c"/>
      <stop offset="0.482" stop-color="#f1c077"/>
      <stop offset="0.688" stop-color="#dfb26e"/>
      <stop offset="0.884" stop-color="#c79e62"/>
      <stop offset="1" stop-color="#b59059"/>
    </radialGradient>
    <clipPath id="clip-path-2">
      <rect id="Rectangle_425" data-name="Rectangle 425" width="16" height="16" transform="translate(0 0)" fill="none"/>
    </clipPath>
    <radialGradient id="radial-gradient-2" cx="0.5" cy="0.5" r="0.539" gradientTransform="matrix(1, 0, 0, -0.7, 0, 1.767)" gradientUnits="objectBoundingBox">
      <stop offset="0" stop-color="#914918"/>
      <stop offset="0.005" stop-color="#914918"/>
      <stop offset="0.389" stop-color="#8e4716"/>
      <stop offset="0.636" stop-color="#854311"/>
      <stop offset="0.844" stop-color="#763b09"/>
      <stop offset="1" stop-color="#630"/>
    </radialGradient>
  </defs>
  <g id="collectedGold" transform="translate(-796.5 -776.5)">
    <text id="ZEBRANE_ZŁOTO" data-name="ZEBRANE ZŁOTO" transform="translate(796.5 797.5)" fill="#fff" font-size="20" font-family="Hobeaux-Regular, Hobeaux"><tspan x="0" y="0">ZEBRANE ZŁOTO</tspan></text>
    <text id="_3200" data-name="3200" transform="translate(843.5 822.5)" fill="#ecbc76" font-size="20" font-family="Hobeaux-Regular, Hobeaux"><tspan x="0" y="0">3200</tspan></text>
    <g id="Group_855" data-name="Group 855" transform="translate(891.5 807.653)">
      <g id="Group_838" data-name="Group 838">
        <g id="Group_837" data-name="Group 837" clip-path="url(#clip-path)">
          <rect id="Rectangle_423" data-name="Rectangle 423" width="12" height="12" transform="translate(2 2)" fill="url(#radial-gradient)"/>
        </g>
      </g>
      <g id="Group_840" data-name="Group 840">
        <g id="Group_839" data-name="Group 839" clip-path="url(#clip-path-2)">
          <path id="Path_264" data-name="Path 264" d="M8,2l.707-.707L15.415,8,8,15.414.586,8,8,.586l.707.707L8,2l.707.707L3.415,8,8,12.586,12.586,8,7.293,2.707,8,2l.707.707Z" fill="url(#radial-gradient-2)"/>
        </g>
      </g>
    </g>
    <g id="Group_856" data-name="Group 856" transform="translate(825.5 807.653)">
      <g id="Group_838-2" data-name="Group 838">
        <g id="Group_837-2" data-name="Group 837" clip-path="url(#clip-path)">
          <rect id="Rectangle_423-2" data-name="Rectangle 423" width="12" height="12" transform="translate(2 2)" fill="url(#radial-gradient)"/>
        </g>
      </g>
      <g id="Group_840-2" data-name="Group 840">
        <g id="Group_839-2" data-name="Group 839" clip-path="url(#clip-path-2)">
          <path id="Path_264-2" data-name="Path 264" d="M8,2l.707-.707L15.415,8,8,15.414.586,8,8,.586l.707.707L8,2l.707.707L3.415,8,8,12.586,12.586,8,7.293,2.707,8,2l.707.707Z" fill="url(#radial-gradient-2)"/>
        </g>
      </g>
    </g>
  </g>
</svg>
