<svg xmlns="http://www.w3.org/2000/svg" width="560.734" height="108.178" viewBox="0 0 560.734 108.178">
  <g id="kontynnuj_second" transform="matrix(1, -0.017, 0.017, 1, -0.573, 9.396)">
    <path id="kontynnuj_second-2" data-name="kontynnuj_second" d="M557.2,89.872c-2.827,9.9-8.482,9.022-12.993,8.828-165.063-13.387-327.648,4.268-481.243-6.209-4.67-.291-38.82,0-43.489.873-9.753,1.843-14.454.291-16.868-8.634C1.5,80.559.45,74.836.577,65.328c.1-8.343.381-13.678.6-22.118.381-12.9.858-29.976,3.939-36.282C8.615-.348,76.758.127,78.283.612c83.731,9.282,92.948-3.094,171.16,8.45,27.256,3.977,43.839,6.5,67.982,4.851,74.431-4.948,148.925,2.425,223.324-3.88,3.3-.291,13.946-1.358,17.472,16.492,1.112,5.724,1.271,11.932,1.4,20.081A291.912,291.912,0,0,1,557.2,89.872Z" transform="translate(0 0)" fill="#d7bb88"/>
  </g>
</svg>
