<svg xmlns="http://www.w3.org/2000/svg" width="562.05" height="108.169" viewBox="0 0 562.05 108.169">
  <g id="kontynnuj_first" transform="matrix(0.999, -0.035, 0.035, 0.999, -0.58, 19.168)">
    <path id="kontynnuj_first-2" data-name="kontynnuj_first" d="M557.4,81.024c-2.828,8.917-8.485,8.13-13,7.955C379.279,76.916,216.638,92.826,62.99,83.385c-4.671-.262-38.833,0-43.5.787-9.756,1.661-14.459.262-16.874-7.78C1.5,72.632.45,67.474.577,58.907c.1-7.518.381-12.326.6-19.932.381-11.627.858-27.013,3.941-32.7C8.617-.277,76.784.151,78.31.588,162.07,8.952,171.29-2.2,249.529,8.2c27.266,3.584,43.854,5.857,68.006,4.371,74.457-4.458,148.977,2.186,223.4-3.5,3.3-.262,13.951-1.224,17.478,14.861,1.112,5.158,1.271,10.753,1.4,18.1A237.337,237.337,0,0,1,557.4,81.024Z" transform="translate(0 0)" fill="#b37f27"/>
  </g>
</svg>
