<svg xmlns="http://www.w3.org/2000/svg" width="267.422" height="73.41" viewBox="0 0 267.422 73.41">
  <g id="nowyzapis_first" transform="matrix(1, 0.017, -0.017, 1, 1.015, -0.172)" opacity="0.41">
    <path id="Path_9" data-name="Path 9" d="M265.382,62.841c-1.318,6.78-4.014,6.167-6.163,6.022-78.658-9.612-156.047,2.077-229.234-5.508-2.225-.212-18.49-.1-20.712.486-4.64,1.239-6.884.162-8.059-5.966A66.967,66.967,0,0,1,.19,44.559c.022-5.723.143-9.382.224-15.171C.559,20.538.738,8.827,2.187,4.51,3.831-.472,36.289.03,37.017.367,76.925,6.951,81.28-1.514,118.565,6.608c12.994,2.8,20.9,4.572,32.394,3.5,35.437-3.2,70.94,2.05,106.359-2.082,1.573-.191,6.639-.9,8.369,11.358a114.881,114.881,0,0,1,.723,13.779A287.067,287.067,0,0,1,265.382,62.841Z" transform="translate(0 0)" fill="#b37f27"/>
  </g>
</svg>
