<svg id="nowyzapis_second" xmlns="http://www.w3.org/2000/svg" width="263.314" height="61.266" viewBox="0 0 263.314 61.266">
  <path id="Path_9" data-name="Path 9" d="M262.721,56.077c-1.332,6.159-3.995,5.615-6.119,5.495-77.738-8.332-154.309,2.657-226.646-3.864-2.2-.181-18.282,0-20.482.543-4.593,1.147-6.807.181-7.944-5.374A55.751,55.751,0,0,1,.572,40.8c.045-5.193.18-8.514.284-13.767.18-8.03.4-18.657,1.855-22.582C4.357-.076,36.45.219,37.168.521,76.6,6.3,80.943-1.4,117.777,5.781c12.837,2.476,20.646,4.045,32.017,3.019,35.054-3.079,70.138,1.509,105.177-2.415,1.556-.181,6.568-.845,8.229,10.265a95.589,95.589,0,0,1,.658,12.5A239.426,239.426,0,0,1,262.721,56.077Z" transform="translate(-0.567 -0.371)" fill="#b37f27"/>
</svg>
