<svg xmlns="http://www.w3.org/2000/svg" width="550.641" height="98.467" viewBox="0 0 550.641 98.467">
  <g id="opcje_second" transform="matrix(1, -0.017, 0.017, 1, -10.501, 9.397)">
    <path id="opcje_second-2" data-name="opcje_second" d="M547.319,81.2c-2.777,8.936-8.331,8.148-12.762,7.972-162.132-12.09-321.829,3.855-472.7-5.607-4.587-.263-38.13,0-42.717.788-9.579,1.665-14.2.263-16.569-7.8-1.092-3.767-2.122-8.936-2-17.522C.671,51.5.952,46.68,1.17,39.058c.374-11.652.842-27.071,3.869-32.766C8.472-.278,75.405.151,76.9.589c82.244,8.382,91.3-2.794,168.12,7.631,26.772,3.592,43.06,5.87,66.775,4.38,73.109-4.468,146.28,2.19,219.358-3.5,3.245-.263,13.7-1.227,17.162,14.894,1.092,5.169,1.248,10.776,1.373,18.135A242.687,242.687,0,0,1,547.319,81.2Z" transform="translate(560.235 89.638) rotate(180)" fill="#d7bb88"/>
  </g>
</svg>
