<svg xmlns="http://www.w3.org/2000/svg" width="559.102" height="86.153" viewBox="0 0 559.102 86.153">
  <g id="opcje_first" transform="translate(-0.567 -3.697)">
    <path id="opcje_first-2" data-name="opcje_first" d="M557.2,76.782c-2.827,8.448-19.8,13.229-24.31,13.063C425.6,82.416,304.613,80.308,204.325,79.763c-53.652-.291-87.6,2.385-141.357-.745-4.67-.248-38.82,0-43.489.745-9.753,1.574-14.454.248-16.868-7.371C1.5,68.831.45,63.944.577,55.828c.1-7.123.381-11.678.6-18.883.381-11.015.858-25.592,3.939-30.975C8.615-.243,82.3,8.205,83.829,8.619c83.731,7.924,87.4-10.684,165.613-.828,27.256,3.4,43.839,5.549,67.982,4.141C391.855,7.708,466.35,14,540.749,8.619c3.3-.248,13.946-1.16,17.472,14.08,1.112,4.886,1.271,10.187,1.4,17.144A213.3,213.3,0,0,1,557.2,76.782Z" transform="translate(0 0)" fill="#b37f27"/>
  </g>
</svg>
