<svg xmlns="http://www.w3.org/2000/svg" width="557.335" height="111.06" viewBox="0 0 557.335 111.06">
  <g id="wczytaj_second" transform="matrix(1, -0.017, 0.017, 1, -3.806, 21.876)">
    <path id="wczytaj_second-2" data-name="wczytaj_second" d="M553.769,92.547c-2.81,10.191-8.43,9.292-12.913,9.092-164.044-13.788-325.626,4.4-478.273-6.394-4.641-.3-38.58,0-43.221.9C9.67,98.042,5,96.444,2.6,87.252,1.493,82.956.451,77.061.577,67.27c.095-8.592.379-14.087.6-22.78C1.556,31.2,2.03,13.618,5.092,7.124,8.565-.369,76.288.12,77.8.619c83.214,9.559,92.375-3.186,170.1,8.7,27.088,4.1,43.568,6.694,67.562,5,73.971-5.1,148.006,2.5,221.946-4,3.283-.3,13.86-1.4,17.364,16.985,1.1,5.895,1.263,12.289,1.389,20.681A311.4,311.4,0,0,1,553.769,92.547Z" transform="translate(3.451 -12.482)" fill="#d7bb88"/>
  </g>
</svg>
