<svg xmlns="http://www.w3.org/2000/svg" width="557.828" height="89.727" viewBox="0 0 557.828 89.727">
  <g id="wczytaj_first" transform="translate(-1.84 -0.371)">
    <path id="wczytaj_first-2" data-name="wczytaj_first" d="M557.2,81.954c-2.827,9.02-8.482,8.224-12.993,8.047C379.148,77.8,216.563,93.892,62.968,84.342c-4.67-.265-38.82,0-43.489.8-9.753,1.68-14.454.265-16.868-7.87-1.112-3.8-.731-11.485-.6-20.151.1-7.6.6-20.162.6-20.162S2.039,12.1,5.12,6.348C8.615-.284,76.758.149,78.283.591c83.731,8.461,104.393-4.766,182.6,5.757,27.256,3.626,85.817,1.5,109.961,0,74.431-4.51,95.5,8.578,169.9,2.83,3.3-.265,13.946-1.238,17.472,15.033,1.112,5.217,1.271,10.877,1.4,18.3A242.881,242.881,0,0,1,557.2,81.954Z" transform="translate(0 0)" fill="#b37f27"/>
  </g>
</svg>
