<svg xmlns="http://www.w3.org/2000/svg" width="559.172" height="86.29" viewBox="0 0 559.172 86.29">
  <g id="wyjdzmenu_first" transform="translate(-0.497 -0.371)">
    <path id="wyjdzmenu_first-2" data-name="wyjdzmenu_first" d="M557.2,76.782c-2.827,8.448-8.482,7.7-12.993,7.537-165.063-11.429-327.492,8.945-481.086,0-4.67-.248-42.675-.745-47.345,0C6.028,85.892,5.025,80.012,2.611,72.392,1.5,68.831.45,63.944.577,55.828c.1-7.123-.222-8.779,0-15.985C.959,28.828,2.039,11.353,5.12,5.969,8.615-.243,76.758.163,78.283.577,162.014,8.5,202.334-3.887,280.545,5.969c27.256,3.4,76.846,1.408,100.989,0C455.965,1.745,466.35,14,540.749,8.619c3.3-.248,13.946-1.16,17.472,14.08,1.112,4.886,1.271,10.187,1.4,17.144A213.3,213.3,0,0,1,557.2,76.782Z" transform="translate(0 0)" fill="#b37f27"/>
  </g>
</svg>
