<svg xmlns="http://www.w3.org/2000/svg" width="560.45" height="108.305" viewBox="0 0 560.45 108.305">
  <g id="wyjdzmenu_second" transform="matrix(1, -0.017, 0.017, 1, -1.339, 14.241)">
    <path id="wyjdzmenu_second-2" data-name="wyjdzmenu_second" d="M555.8,81.2c-2.82,8.936-8.46,8.148-12.96,7.972-164.645-12.09-326.819,3.855-480.026-5.607-4.658-.263-38.721,0-43.379.788-9.728,1.665-14.418.263-16.826-7.8C1.5,72.788.451,67.619.577,59.033c.1-7.534.38-12.353.6-19.975.38-11.652.856-27.071,3.929-32.766C8.594-.278,76.565.151,78.086.589,161.606,8.971,170.8-2.205,248.813,8.22c27.187,3.592,43.728,5.87,67.81,4.38,74.243-4.468,148.549,2.19,222.759-3.5,3.3-.263,13.911-1.227,17.428,14.894,1.109,5.169,1.267,10.776,1.394,18.135A239.029,239.029,0,0,1,555.8,81.2Z" transform="matrix(-1, 0.017, -0.017, -1, 560.975, 84.755)" fill="#d7bb88"/>
  </g>
</svg>
