<svg xmlns="http://www.w3.org/2000/svg" width="559.102" height="88.037" viewBox="0 0 559.102 88.037">
  <g id="wyjdz_first" transform="translate(-0.567 3.628)">
    <path id="wyjdz_first-2" data-name="wyjdz_first" d="M557.2,76.782c-2.827,8.448-8.482,7.7-12.993,7.537-165.063-11.429-327.648,3.644-481.243-5.3-4.67-.248-38.82,0-43.489.745-9.753,1.574-14.454.248-16.868-7.371C1.5,68.831.45,63.944.577,55.828c.1-7.123.381-11.678.6-18.883.381-11.015.858-25.592,3.939-30.975C8.615-.243,78.744-3.411,80.268-3c83.731,7.924,112.794-.89,191,8.966,27.256,3.4,71.359-7.558,95.5-8.966,74.431-4.224,91.613,14.35,166.012,8.966,3.3-.248,21.907,1.491,25.433,16.73,1.112,4.886,1.271,10.187,1.4,17.144A213.3,213.3,0,0,1,557.2,76.782Z" transform="translate(0 0)" fill="#b37f27"/>
  </g>
</svg>
