<svg xmlns="http://www.w3.org/2000/svg" width="554.592" height="112.441" viewBox="0 0 554.592 112.441">
  <g id="wyjdz_second" transform="matrix(0.999, -0.035, 0.035, 0.999, -0.58, 18.902)">
    <path id="wyjdz_second-2" data-name="wyjdz_second" d="M549.809,85.152c-2.79,9.373-8.369,8.546-12.82,8.362-162.87-12.681-323.3,4.043-474.85-5.881-4.608-.276-38.3,0-42.912.827C9.6,90.206,4.966,88.736,2.583,80.282,1.486,76.33.452,70.909.577,61.9c.094-7.9.376-12.957.6-20.952.376-12.222.846-28.4,3.887-34.369C8.508-.31,75.746.14,77.251.6c82.619,8.792,91.714-2.931,168.886,8,26.894,3.768,43.256,6.157,67.079,4.595,73.442-4.687,146.947,2.3,220.357-3.676,3.26-.276,13.761-1.287,17.24,15.622,1.1,5.422,1.254,11.3,1.379,19.022A265.607,265.607,0,0,1,549.809,85.152Z" transform="translate(0)" fill="#d7bb88"/>
  </g>
</svg>
