<svg xmlns="http://www.w3.org/2000/svg" width="557.963" height="83.557" viewBox="0 0 557.963 83.557">
  <g id="zapisz_first" transform="translate(-0.567 -3.814)">
    <path id="zapisz_first-2" data-name="zapisz_first" d="M557.2,79.474c-2.827,8.746-8.482,7.974-12.993,7.8C379.148,75.445,216.563,91.049,62.968,81.789c-4.67-.257-38.82,0-43.489.772C9.726,84.19,5.025,82.818,2.611,74.93,1.5,71.243.45,66.185.577,57.782c.1-7.374.381-12.089.6-19.549.381-11.4.858-26.494,3.939-32.067C8.615-.264,75.821,8.481,77.346,8.91c83.731,8.2,115.06-10.2,193.271,0,27.256,3.515,55.572,1.458,79.716,0,74.431-4.373,102.226,5.573,176.625,0,3.3-.257,27.737-1.2,31.263,14.576,1.112,5.059-1.144,12.431-1.017,19.633C557.554,59.752,558.411,71.329,557.2,79.474Z" transform="translate(0 0)" fill="#b37f27"/>
  </g>
</svg>
