<svg xmlns="http://www.w3.org/2000/svg" width="554.253" height="104.946" viewBox="0 0 554.253 104.946">
  <g id="zapisz_second" transform="matrix(1, -0.017, 0.017, 1, -6.806, 20.543)">
    <path id="zapisz_second-2" data-name="zapisz_second" d="M550.8,87.035c-2.795,9.581-8.384,8.736-12.843,8.548C374.8,82.62,214.08,99.716,62.251,89.571c-4.616-.282-38.373,0-42.989.845C9.621,92.2,4.974,90.7,2.587,82.056,1.488,78.017.452,72.475.577,63.269c.094-8.078.377-13.245.6-21.417.377-12.493.848-29.026,3.894-35.132C8.522-.325,75.882.135,77.389.6c82.769,8.987,91.88-3,169.192,8.182,26.943,3.851,43.335,6.294,67.2,4.7,73.575-4.791,147.213,2.348,220.757-3.757,3.266-.282,13.786-1.315,17.271,15.969,1.1,5.542,1.256,11.554,1.382,19.445A276.957,276.957,0,0,1,550.8,87.035Z" transform="translate(6.428 -11.149)" fill="#d7bb88"/>
  </g>
</svg>
