<svg id="opcja_hover" xmlns="http://www.w3.org/2000/svg" width="1760.443" height="137.93" viewBox="0 0 1760.443 137.93">
  <g id="Warstwa_1-2" transform="matrix(1, -0.017, 0.017, 1, 7.573, 30.116)" opacity="0.41" style="isolation: isolate">
    <path id="Path_9" data-name="Path 9" d="M1747.511,98.081c-8.873,10.807-26.619,9.854-40.776,9.642C1188.7,93.1,678.448,112.385,196.407,100.942c-14.656-.318-121.831,0-136.487.954-30.607,2.013-45.363.318-52.94-9.43C3.491,87.91.2,81.659.6,71.275c.3-9.112,1.2-14.939,1.894-24.157,1.2-14.092,2.692-32.739,12.363-39.626C25.824-.455,39.881.287,44.666.817,288.728,30.8,536.178-2.786,781.635,9.823c85.541,4.344,137.583,7.1,213.354,5.3,233.593-5.4,467.385,2.649,700.878-4.238,10.369-.318,43.767-1.483,54.834,18.012,3.489,6.251,3.988,13.032,4.387,21.932A116.361,116.361,0,0,1,1747.511,98.081Z" transform="translate(-3.989 -0.069)" fill="#e1d5bf"/>
  </g>
  <g id="Warstwa_1-2-2" data-name="Warstwa_1-2" transform="translate(-0.567 20.897)" style="isolation: isolate">
    <path id="Path_9-2" data-name="Path 9" d="M1752.8,92.6c-8.9,10.2-26.7,9.3-40.9,9.1C1192.3,87.9,680.5,106.1,197,95.3c-14.7-.3-122.2,0-136.9.9-30.7,1.9-45.5.3-53.1-8.9C3.5,83,.2,77.1.6,67.3c.3-8.6,1.2-14.1,1.9-22.8C3.7,31.2,5.2,13.6,14.9,7.1,25.9-.4,40,.3,44.8.8,289.6,29.1,537.8-2.6,784,9.3c85.8,4.1,138,6.7,214,5,234.3-5.1,468.8,2.5,703-4,10.4-.3,43.9-1.4,55,17,3.5,5.9,4,12.3,4.4,20.7A104.044,104.044,0,0,1,1752.8,92.6Z" fill="#e1d5bf"/>
  </g>
</svg>
