<svg id="tabliczka_TG" xmlns="http://www.w3.org/2000/svg" width="565.197" height="108.359" viewBox="0 0 565.197 108.359">
  <g id="Warstwa_1-2" transform="matrix(1, -0.017, 0.017, 1, -1.169, 14.268)" opacity="0.41">
    <path id="Path_9" data-name="Path 9" d="M555.8,81.2c-2.82,8.936-8.46,8.148-12.96,7.972-164.645-12.09-326.819,3.855-480.026-5.607-4.658-.263-38.721,0-43.379.788-9.728,1.665-14.418.263-16.826-7.8C1.5,72.788.451,67.619.577,59.033c.1-7.534.38-12.353.6-19.975.38-11.652.856-27.071,3.929-32.766C8.594-.278,76.565.151,78.086.589,161.606,8.971,170.8-2.205,248.813,8.22c27.187,3.592,43.728,5.87,67.81,4.38,74.243-4.468,148.549,2.19,222.759-3.5,3.3-.263,13.911-1.227,17.428,14.894,1.109,5.169,1.267,10.776,1.394,18.135A239.029,239.029,0,0,1,555.8,81.2Z" transform="matrix(-1, 0.017, -0.017, -1, 560.975, 84.755)" fill="#b37f27"/>
  </g>
  <g id="Warstwa_1-2-2" data-name="Warstwa_1-2" transform="translate(5.528 4.501)">
    <path id="Path_9-2" data-name="Path 9" d="M557.2,76.782c-2.827,8.448-8.482,7.7-12.993,7.537-165.063-11.429-327.492,8.945-481.086,0-4.67-.248-42.675-.745-47.345,0C6.028,85.892,5.025,80.012,2.611,72.392,1.5,68.831.45,63.944.577,55.828c.1-7.123-.222-8.779,0-15.985C.959,28.828,2.039,11.353,5.12,5.969,8.615-.243,76.758.163,78.283.577,162.014,8.5,202.334-3.887,280.545,5.969c27.256,3.4,76.846,1.408,100.989,0C455.965,1.745,466.35,14,540.749,8.619c3.3-.248,13.946-1.16,17.472,14.08,1.112,4.886,1.271,10.187,1.4,17.144A213.3,213.3,0,0,1,557.2,76.782Z" transform="translate(0 0)" fill="#b37f27"/>
  </g>
</svg>
