<svg xmlns="http://www.w3.org/2000/svg" width="571.047" height="128.121" viewBox="0 0 571.047 128.121">
  <g id="tabliczka_NG" transform="matrix(0.999, 0.035, -0.035, 0.999, 3.782, 0)">
    <g id="Warstwa_1-2" transform="matrix(1, -0.017, 0.017, 1, -0.573, 9.596)" opacity="0.41">
      <path id="Path_9" data-name="Path 9" d="M557.2,89.872c-2.827,9.9-8.482,9.022-12.993,8.828-165.063-13.387-327.648,4.268-481.243-6.209-4.67-.291-38.82,0-43.489.873-9.753,1.843-14.454.291-16.868-8.634C1.5,80.559.45,74.836.577,65.328c.1-8.343.381-13.678.6-22.118.381-12.9.858-29.976,3.939-36.282C8.615-.348,76.758.127,78.283.612c83.731,9.282,92.948-3.094,171.16,8.45,27.256,3.977,43.839,6.5,67.982,4.851,74.431-4.948,148.925,2.425,223.324-3.88,3.3-.291,13.946-1.358,17.472,16.492,1.112,5.724,1.271,11.932,1.4,20.081A291.912,291.912,0,0,1,557.2,89.872Z" transform="translate(0 0)" fill="#b37f27"/>
    </g>
    <g id="Warstwa_1-2-2" data-name="Warstwa_1-2" transform="matrix(0.999, -0.035, 0.035, 0.999, 4.981, 19.168)">
      <path id="Path_9-2" data-name="Path 9" d="M557.4,81.024c-2.828,8.917-8.485,8.13-13,7.955C379.279,76.916,216.638,92.826,62.99,83.385c-4.671-.262-38.833,0-43.5.787-9.756,1.661-14.459.262-16.874-7.78C1.5,72.632.45,67.474.577,58.907c.1-7.518.381-12.326.6-19.932.381-11.627.858-27.013,3.941-32.7C8.617-.277,76.784.151,78.31.588,162.07,8.952,171.29-2.2,249.529,8.2c27.266,3.584,43.854,5.857,68.006,4.371,74.457-4.458,148.977,2.186,223.4-3.5,3.3-.262,13.951-1.224,17.478,14.861,1.112,5.158,1.271,10.753,1.4,18.1A237.337,237.337,0,0,1,557.4,81.024Z" transform="translate(0 0)" fill="#b37f27"/>
    </g>
  </g>
</svg>
