<svg id="tabliczka_WG" xmlns="http://www.w3.org/2000/svg" width="558.421" height="104.946" viewBox="0 0 558.421 104.946">
  <g id="Warstwa_1-2" transform="translate(-0.109 10.776)">
    <path id="Path_9" data-name="Path 9" d="M557.2,79.474c-2.827,8.746-8.482,7.974-12.993,7.8C379.148,75.445,216.563,91.049,62.968,81.789c-4.67-.257-38.82,0-43.489.772C9.726,84.19,5.025,82.818,2.611,74.93,1.5,71.243.45,66.185.577,57.782c.1-7.374.381-12.089.6-19.549.381-11.4.858-26.494,3.939-32.067C8.615-.264,75.821,8.481,77.346,8.91c83.731,8.2,115.06-10.2,193.271,0,27.256,3.515,55.572,1.458,79.716,0,74.431-4.373,102.226,5.573,176.625,0,3.3-.257,27.737-1.2,31.263,14.576,1.112,5.059-1.144,12.431-1.017,19.633C557.554,59.752,558.411,71.329,557.2,79.474Z" transform="translate(0 0)" fill="#b37f27"/>
  </g>
  <g id="Warstwa_1-2-2" data-name="Warstwa_1-2" transform="matrix(1, -0.017, 0.017, 1, -6.806, 20.543)" opacity="0.41">
    <path id="Path_9-2" data-name="Path 9" d="M550.8,87.035c-2.795,9.581-8.384,8.736-12.843,8.548C374.8,82.62,214.08,99.716,62.251,89.571c-4.616-.282-38.373,0-42.989.845C9.621,92.2,4.974,90.7,2.587,82.056,1.488,78.017.452,72.475.577,63.269c.094-8.078.377-13.245.6-21.417.377-12.493.848-29.026,3.894-35.132C8.522-.325,75.882.135,77.389.6c82.769,8.987,91.88-3,169.192,8.182,26.943,3.851,43.335,6.294,67.2,4.7,73.575-4.791,147.213,2.348,220.757-3.757,3.266-.282,13.786-1.315,17.271,15.969,1.1,5.542,1.256,11.554,1.382,19.445A276.957,276.957,0,0,1,550.8,87.035Z" transform="translate(6.428 -11.149)" fill="#b37f27"/>
  </g>
</svg>
