<svg id="tabliczka_O" xmlns="http://www.w3.org/2000/svg" width="559.102" height="98.467" viewBox="0 0 559.102 98.467">
  <g id="Warstwa_1-2" transform="matrix(1, -0.017, 0.017, 1, -7.264, 9.397)" opacity="0.41">
    <path id="Path_9" data-name="Path 9" d="M547.319,81.2c-2.777,8.936-8.331,8.148-12.762,7.972-162.132-12.09-321.829,3.855-472.7-5.607-4.587-.263-38.13,0-42.717.788-9.579,1.665-14.2.263-16.569-7.8-1.092-3.767-2.122-8.936-2-17.522C.671,51.5.952,46.68,1.17,39.058c.374-11.652.842-27.071,3.869-32.766C8.472-.278,75.405.151,76.9.589c82.244,8.382,91.3-2.794,168.12,7.631,26.772,3.592,43.06,5.87,66.775,4.38,73.109-4.468,146.28,2.19,219.358-3.5,3.245-.263,13.7-1.227,17.162,14.894,1.092,5.169,1.248,10.776,1.373,18.135A242.687,242.687,0,0,1,547.319,81.2Z" transform="translate(560.235 89.638) rotate(180)" fill="#b37f27"/>
  </g>
  <g id="Warstwa_1-2-2" data-name="Warstwa_1-2" transform="translate(-0.567 -0.371)">
    <path id="Path_9-2" data-name="Path 9" d="M557.2,76.782c-2.827,8.448-19.8,13.229-24.31,13.063C425.6,82.416,304.613,80.308,204.325,79.763c-53.652-.291-87.6,2.385-141.357-.745-4.67-.248-38.82,0-43.489.745-9.753,1.574-14.454.248-16.868-7.371C1.5,68.831.45,63.944.577,55.828c.1-7.123.381-11.678.6-18.883.381-11.015.858-25.592,3.939-30.975C8.615-.243,82.3,8.205,83.829,8.619c83.731,7.924,87.4-10.684,165.613-.828,27.256,3.4,43.839,5.549,67.982,4.141C391.855,7.708,466.35,14,540.749,8.619c3.3-.248,13.946-1.16,17.472,14.08,1.112,4.886,1.271,10.187,1.4,17.144A213.3,213.3,0,0,1,557.2,76.782Z" transform="translate(0 0)" fill="#b37f27"/>
  </g>
</svg>
