<svg id="tabliczka_W" xmlns="http://www.w3.org/2000/svg" width="562.56" height="111.06" viewBox="0 0 562.56 111.06">
  <g id="Warstwa_1-2" transform="matrix(1, -0.017, 0.017, 1, -3.806, 21.876)" opacity="0.41">
    <path id="Path_9" data-name="Path 9" d="M553.769,92.547c-2.81,10.191-8.43,9.292-12.913,9.092-164.044-13.788-325.626,4.4-478.273-6.394-4.641-.3-38.58,0-43.221.9C9.67,98.042,5,96.444,2.6,87.252,1.493,82.956.451,77.061.577,67.27c.095-8.592.379-14.087.6-22.78C1.556,31.2,2.03,13.618,5.092,7.124,8.565-.369,76.288.12,77.8.619c83.214,9.559,92.375-3.186,170.1,8.7,27.088,4.1,43.568,6.694,67.562,5,73.971-5.1,148.006,2.5,221.946-4,3.283-.3,13.86-1.4,17.364,16.985,1.1,5.895,1.263,12.289,1.389,20.681A311.4,311.4,0,0,1,553.769,92.547Z" transform="translate(3.451 -12.482)" fill="#b37f27"/>
  </g>
  <g id="Warstwa_1-2-2" data-name="Warstwa_1-2" transform="translate(2.891 9.052)">
    <path id="Path_9-2" data-name="Path 9" d="M557.2,81.954c-2.827,9.02-8.482,8.224-12.993,8.047C379.148,77.8,216.563,93.892,62.968,84.342c-4.67-.265-38.82,0-43.489.8-9.753,1.68-14.454.265-16.868-7.87-1.112-3.8-.731-11.485-.6-20.151.1-7.6.6-20.162.6-20.162S2.039,12.1,5.12,6.348C8.615-.284,76.758.149,78.283.591c83.731,8.461,104.393-4.766,182.6,5.757,27.256,3.626,85.817,1.5,109.961,0,74.431-4.51,95.5,8.578,169.9,2.83,3.3-.265,13.946-1.238,17.472,15.033,1.112,5.217,1.271,10.877,1.4,18.3A242.881,242.881,0,0,1,557.2,81.954Z" transform="translate(0 0)" fill="#b37f27"/>
  </g>
</svg>
