<svg id="tabliczka_W" xmlns="http://www.w3.org/2000/svg" width="560.828" height="116.655" viewBox="0 0 560.828 116.655">
  <g id="Warstwa_1-2" transform="matrix(0.999, -0.035, 0.035, 0.999, -0.58, 18.955)" opacity="0.41">
    <path id="Path_9" data-name="Path 9" d="M551.315,88.938c-2.8,9.792-8.392,8.928-12.855,8.736C375.143,84.426,214.278,101.9,62.308,91.53c-4.62-.288-38.409,0-43.029.864-9.649,1.824-14.3.288-16.69-8.544-1.1-4.128-2.137-9.792-2.012-19.2.094-8.256.377-13.536.6-21.888C1.552,30,2.023,13.1,5.072,6.86,8.529-.34,75.952.13,77.461.61c82.845,9.185,91.965-3.062,169.349,8.362,26.968,3.936,43.375,6.432,67.263,4.8,73.643-4.9,147.35,2.4,220.961-3.84,3.269-.288,13.8-1.344,17.287,16.32,1.1,5.664,1.257,11.808,1.383,19.872A288.91,288.91,0,0,1,551.315,88.938Z" transform="translate(0 0)" fill="#b37f27"/>
  </g>
  <g id="Warstwa_1-2-2" data-name="Warstwa_1-2" transform="translate(1.159 17.417)">
    <path id="Path_9-2" data-name="Path 9" d="M557.2,76.782c-2.827,8.448-8.482,7.7-12.993,7.537-165.063-11.429-327.648,3.644-481.243-5.3-4.67-.248-38.82,0-43.489.745-9.753,1.574-14.454.248-16.868-7.371C1.5,68.831.45,63.944.577,55.828c.1-7.123.381-11.678.6-18.883.381-11.015.858-25.592,3.939-30.975C8.615-.243,78.744-3.411,80.268-3c83.731,7.924,112.794-.89,191,8.966,27.256,3.4,71.359-7.558,95.5-8.966,74.431-4.224,91.613,14.35,166.012,8.966,3.3-.248,21.907,1.491,25.433,16.73,1.112,4.886,1.271,10.187,1.4,17.144A213.3,213.3,0,0,1,557.2,76.782Z" transform="translate(0 0)" fill="#b37f27"/>
  </g>
</svg>
