<?xml version="1.0" encoding="UTF-8"?><svg id="Warstwa_2" xmlns="http://www.w3.org/2000/svg" xmlns:xlink="http://www.w3.org/1999/xlink" viewBox="0 0 182.106 43.26"><defs><style>.cls-1{letter-spacing:.05em;}.cls-2{letter-spacing:.022em;}.cls-3{fill:#ecbc76;font-family:Hobeaux-Bold, Hobeaux;font-size:25px;font-weight:700;}.cls-4{fill:url(#MENU_BORDER_SQUARE-2);}.cls-5{fill:url(#MENU_BORDER_SQUARE);}.cls-6{fill:url(#GradientSpecialIcon);}</style><radialGradient id="GradientSpecialIcon" cx="-197.067" cy="-304.187" fx="-197.067" fy="-304.187" r="35.885" gradientTransform="translate(517.133 3968.543) scale(2.163 12.975) skewX(-.015)" gradientUnits="userSpaceOnUse"><stop offset=".005" stop-color="#914918"/><stop offset=".39" stop-color="#8e4716"/><stop offset=".636" stop-color="#854311"/><stop offset=".843" stop-color="#763b09"/><stop offset="1" stop-color="#630"/></radialGradient><radialGradient id="MENU_BORDER_SQUARE" cx="91.053" cy="21.63" fx="91.053" fy="21.63" r="66.176" gradientTransform="translate(-95.672 -36.326) rotate(-45) scale(1 7.999)" gradientUnits="userSpaceOnUse"><stop offset="0" stop-color="#ffcb7e"/><stop offset=".262" stop-color="#fbc87c"/><stop offset=".483" stop-color="#f1c077"/><stop offset=".688" stop-color="#dfb26e"/><stop offset=".883" stop-color="#c79e62"/><stop offset="1" stop-color="#b59059"/></radialGradient><radialGradient id="MENU_BORDER_SQUARE-2" cx="91.053" cy="21.63" fx="91.053" fy="21.63" r="62.813" gradientTransform="translate(-95.684 -36.338) rotate(-45) scale(1 8)" xlink:href="#MENU_BORDER_SQUARE"/></defs><g id="PlayerMenu"><g id="fastAction1TextFrame"><rect class="cls-6" x="1.457" y="1.458" width="179.192" height="40.345"/><path class="cls-5" d="M180.111,1.996v39.268s-178.115,0-178.115,0V1.996s178.115,0,178.115,0M182.106,0H.001s-.001,43.26-.001,43.26h182.105s.001-43.26.001-43.26h0Z"/><path class="cls-4" d="M177.517,4.59v34.08H4.59V4.591s172.927,0,172.927,0M178.115,3.992H3.992s0,35.277,0,35.277h174.123V3.992h0Z"/></g><text class="cls-3" transform="translate(44.528 31.831)"><tspan class="cls-1" x="0" y="0">PO</tspan><tspan class="cls-2" x="32.725" y="0">S</tspan><tspan x="48.049" y="0">T</tspan><tspan class="cls-1" x="61.399" y="0">AĆ</tspan></text></g></svg>