<?xml version="1.0" encoding="UTF-8"?><svg id="Warstwa_2" xmlns="http://www.w3.org/2000/svg" xmlns:xlink="http://www.w3.org/1999/xlink" viewBox="0 0 162.853 30.222"><defs><style>.cls-1{fill:#c89f63;}.cls-2{fill:#fff;font-family:Hobeaux-Regular, Hobeaux;font-size:20px;}.cls-2,.cls-3{isolation:isolate;}.cls-4{letter-spacing:.014em;}.cls-5{fill:url(#Nowa_próbka_gradientu_3);}.cls-6{fill:url(#MENU_BORDER_SQUARE);}.cls-7{letter-spacing:0em;}.cls-8{letter-spacing:-.01em;}</style><radialGradient id="Nowa_próbka_gradientu_3" cx="-97.975" cy="191.741" fx="-97.975" fy="191.741" r="121.882" gradientTransform="translate(128.263 -76.55) scale(.478)" gradientUnits="userSpaceOnUse"><stop offset=".005" stop-color="#8c6239"/><stop offset=".481" stop-color="#895f36"/><stop offset=".786" stop-color="#80572e"/><stop offset="1" stop-color="#754c24"/></radialGradient><radialGradient id="MENU_BORDER_SQUARE" cx="81.427" cy="15.111" fx="81.427" fy="15.111" r="58.56" gradientTransform="translate(0 -105.776) scale(1 8)" gradientUnits="userSpaceOnUse"><stop offset="0" stop-color="#ffcb7e"/><stop offset=".262" stop-color="#fbc87c"/><stop offset=".483" stop-color="#f1c077"/><stop offset=".688" stop-color="#dfb26e"/><stop offset=".883" stop-color="#c79e62"/><stop offset="1" stop-color="#b59059"/></radialGradient></defs><g id="PlayerMenu"><g id="fastAction1Frame"><path class="cls-5" d="M3.418,29.864c-.167-1.609-1.45-2.892-3.059-3.06V3.418c1.609-.168,2.892-1.45,3.059-3.06h156.018c.167,1.609,1.45,2.892,3.06,3.06v23.386c-1.609.168-2.892,1.45-3.06,3.06H3.418Z"/><path class="cls-6" d="M158.95.936c.351,1.463,1.505,2.617,2.968,2.968v22.415c-1.463.351-2.617,1.505-2.968,2.968H3.903c-.351-1.463-1.505-2.617-2.968-2.968V3.904c1.463-.351,2.617-1.505,2.968-2.968h155.046M159.775,0H3.078c0,1.7-1.378,3.078-3.078,3.078v24.066c1.7,0,3.078,1.378,3.078,3.078h156.697c0-1.7,1.378-3.078,3.078-3.078V3.078c-1.7,0-3.078-1.378-3.078-3.078h0Z"/><path class="cls-1" d="M158.087,2.152c.523,1.153,1.462,2.091,2.615,2.615v20.689c-1.153.523-2.092,1.462-2.615,2.615H4.766c-.523-1.153-1.461-2.091-2.614-2.615V4.767c1.153-.523,2.091-1.462,2.614-2.615h153.32M158.271,1.871H4.582c-.502,1.227-1.484,2.208-2.71,2.711v21.058c1.227.503,2.208,1.484,2.71,2.711h153.689c.503-1.227,1.484-2.208,2.711-2.711V4.582c-1.227-.503-2.208-1.484-2.711-2.711h0Z"/></g><g id="DOŚWIADCZENIE" class="cls-3"><text class="cls-2" transform="translate(7.758 23.391)"><tspan x="0" y="0">DO</tspan><tspan class="cls-8" x="25.06" y="0">Ś</tspan><tspan x="36.199" y="0">WIAD</tspan><tspan class="cls-4" x="83.779" y="0">C</tspan><tspan class="cls-7" x="95.298" y="0">ZENIE</tspan></text></g></g></svg>