<?xml version="1.0" encoding="UTF-8"?><svg id="Warstwa_2" xmlns="http://www.w3.org/2000/svg" xmlns:xlink="http://www.w3.org/1999/xlink" viewBox="0 0 59.948 59.948"><defs><style>.cls-1{fill:url(#Nowa_próbka_gradientu_9-2);}.cls-2{filter:url(#drop-shadow-1);}.cls-3{fill:url(#Gradient_bez_nazwy_687-2);}.cls-4{fill:url(#Nowa_próbka_gradientu_9);}.cls-5{fill:url(#Nowa_próbka_gradientu_3);}.cls-6{fill:url(#MENU_BORDER_SQUARE);}.cls-7{fill:url(#Gradient_bez_nazwy_687);}.cls-8{fill:url(#Nowa_próbka_gradientu_3-2);}</style><filter id="drop-shadow-1" x="-34.85" y="-34.466" width="130" height="130" filterUnits="userSpaceOnUse"><feOffset dx="0" dy="0"/><feGaussianBlur result="blur" stdDeviation="11.388"/><feFlood flood-color="#000" flood-opacity=".15"/><feComposite in2="blur" operator="in"/><feComposite in="SourceGraphic"/></filter><radialGradient id="Gradient_bez_nazwy_687" cx="30.106" cy="30.106" fx="30.106" fy="30.106" r="29.481" gradientUnits="userSpaceOnUse"><stop offset="0" stop-color="#b59059"/><stop offset=".222" stop-color="#b9935b"/><stop offset=".462" stop-color="#c69d61"/><stop offset=".711" stop-color="#dbaf6c"/><stop offset=".964" stop-color="#fac77b"/><stop offset="1" stop-color="#ffcb7e"/></radialGradient><radialGradient id="Nowa_próbka_gradientu_9" cx="30.106" cy="30.106" fx="30.106" fy="30.106" r="29.841" gradientTransform="translate(0 15.053) scale(1 .5)" gradientUnits="userSpaceOnUse"><stop offset=".005" stop-color="#8c6239"/><stop offset=".481" stop-color="#895f36"/><stop offset=".786" stop-color="#80572e"/><stop offset="1" stop-color="#754c24"/></radialGradient><radialGradient id="Gradient_bez_nazwy_687-2" cx="30.102" cy="30.106" fx="30.102" fy="30.106" r="29.483" xlink:href="#Gradient_bez_nazwy_687"/><radialGradient id="Nowa_próbka_gradientu_9-2" cx="30.106" cy="30.106" fx="30.106" fy="30.106" r="29.841" gradientTransform="translate(15.053 60.212) rotate(-90) scale(1 .5)" xlink:href="#Nowa_próbka_gradientu_9"/><radialGradient id="MENU_BORDER_SQUARE" cx="29.894" cy="29.894" fx="29.894" fy="29.894" r="27.881" gradientTransform="translate(135.587 -118.075) rotate(45) scale(1 6)" gradientUnits="userSpaceOnUse"><stop offset="0" stop-color="#ffcb7e"/><stop offset=".262" stop-color="#fbc87c"/><stop offset=".483" stop-color="#f1c077"/><stop offset=".688" stop-color="#dfb26e"/><stop offset=".883" stop-color="#c79e62"/><stop offset="1" stop-color="#b59059"/></radialGradient><radialGradient id="Nowa_próbka_gradientu_3" cx="29.894" cy="29.894" fx="29.894" fy="29.894" r="29.894" gradientUnits="userSpaceOnUse"><stop offset=".005" stop-color="#8c6239"/><stop offset=".481" stop-color="#895f36"/><stop offset=".786" stop-color="#80572e"/><stop offset="1" stop-color="#754c24"/></radialGradient><radialGradient id="Nowa_próbka_gradientu_3-2" cx="29.894" cy="29.894" fx="29.894" fy="29.894" r="24.378" xlink:href="#Nowa_próbka_gradientu_3"/></defs><g id="PlayerMenu"><g id="levelDetails" class="cls-2"><g id="layer1"><g id="g4923"><g id="path4939"><path class="cls-7" d="M12.752,59.591c-1.38,0-2.682-.541-3.665-1.524-1.051-1.054-1.598-2.511-1.501-3.995l.104-1.551-1.551.106c-.111.008-.224.012-.336.012-1.38,0-2.68-.537-3.658-1.513-2.021-2.021-2.021-5.31,0-7.33.983-.983,2.285-1.524,3.666-1.524s2.682.541,3.665,1.524l.964.963L44.753,10.437l-.964-.962c-2.021-2.021-2.021-5.31,0-7.33.97-.971,2.251-1.51,3.612-1.523h.059c1.38,0,2.682.543,3.665,1.526,1.051,1.054,1.598,2.51,1.501,3.992l-.104,1.551,1.55-.104c.111-.008.224-.011.335-.011,1.383,0,2.683.536,3.659,1.51,2.021,2.021,2.021,5.31,0,7.33-.983.983-2.285,1.524-3.665,1.524s-2.682-.541-3.666-1.524l-.963-.963L15.453,49.772l.964.964c2.021,2.021,2.021,5.31,0,7.33-.983.983-2.285,1.524-3.666,1.524Z"/><path class="cls-4" d="M47.459,1.241c1.216,0,2.362.477,3.227,1.342.926.93,1.408,2.212,1.323,3.516l-.076,1.144-.074,1.11,1.11-.074,1.142-.076c.1-.006.199-.01.298-.01,1.217,0,2.361.472,3.221,1.329,1.78,1.78,1.78,4.677,0,6.457-.866.866-2.013,1.344-3.229,1.344s-2.362-.477-3.229-1.344l-.712-.712-.688-.688-.688.688L15.268,49.084l-.688.688.688.688.712.712c.867.866,1.344,2.013,1.344,3.228s-.477,2.362-1.344,3.228c-.866.866-2.013,1.344-3.229,1.344s-2.362-.477-3.227-1.342c-.926-.929-1.408-2.212-1.323-3.518l.076-1.144.074-1.113-1.113.077-1.14.079c-.099.006-.198.01-.297.01-1.216,0-2.361-.473-3.222-1.331-1.78-1.78-1.78-4.677,0-6.457.866-.866,2.013-1.344,3.229-1.344s2.362.477,3.228,1.343l.712.712.688.688.688-.688,12.725-12.725,8.36-8.365,12.727-12.73.689-.69-.691-.688-.711-.708c-.866-.866-1.344-2.013-1.344-3.229s.477-2.362,1.344-3.228c.832-.832,1.922-1.305,3.084-1.341h.15M47.454.265c-1.416,0-2.831.543-3.917,1.628-2.172,2.172-2.172,5.662,0,7.834l.712.71-12.727,12.73-8.36,8.365-12.724,12.724-.712-.712c-1.086-1.086-2.501-1.629-3.917-1.629s-2.831.543-3.917,1.629c-2.171,2.172-2.171,5.662,0,7.834,1.042,1.039,2.449,1.616,3.91,1.616.12,0,.24-.004.36-.012l1.144-.079-.076,1.144c-.104,1.589.481,3.143,1.605,4.27,1.086,1.086,2.501,1.629,3.917,1.629s2.831-.543,3.917-1.629c2.172-2.172,2.172-5.662,0-7.834l-.712-.712L49.773,15.956l.712.712c1.086,1.086,2.501,1.629,3.917,1.629s2.831-.543,3.917-1.629c2.172-2.172,2.172-5.662,0-7.834-1.042-1.039-2.448-1.614-3.909-1.614-.12,0-.241.004-.361.012l-1.144.076.076-1.144c.103-1.588-.482-3.14-1.605-4.268-1.086-1.086-2.501-1.629-3.917-1.629l-.005-.002h0Z"/></g><g id="path4939-2"><path class="cls-3" d="M47.461,59.593c-1.38,0-2.682-.542-3.666-1.525-2.021-2.021-2.021-5.31,0-7.33l.964-.964L10.436,15.458l-.961.966c-.982.982-2.284,1.523-3.665,1.523s-2.682-.541-3.666-1.524c-.968-.968-1.508-2.246-1.523-3.604l.002-.066c0-1.381.541-2.683,1.524-3.664.979-.976,2.278-1.514,3.656-1.514.112,0,.224.004.337.012l1.55.103-.104-1.549c-.096-1.486.45-2.942,1.5-3.996.983-.982,2.284-1.524,3.665-1.524s2.682.542,3.665,1.525c2.021,2.021,2.021,5.31,0,7.33l-.964.964,34.32,34.319.963-.963c.983-.983,2.285-1.525,3.666-1.525s2.682.542,3.666,1.525c2.021,2.021,2.021,5.309,0,7.329-.979.976-2.278,1.514-3.659,1.514-.112,0-.225-.004-.337-.012l-1.55-.103.107,1.55c.096,1.483-.451,2.94-1.502,3.995-.983.982-2.284,1.524-3.665,1.524Z"/><path class="cls-1" d="M12.751,1.237c1.215,0,2.362.477,3.228,1.344,1.78,1.78,1.78,4.677,0,6.457l-.712.712-.688.688.688.688,33.817,33.816.688.688.688-.688.712-.712c.866-.866,2.013-1.344,3.228-1.344s2.362.477,3.228,1.344c1.78,1.78,1.78,4.677.001,6.456-.862.859-2.006,1.333-3.222,1.333-.099,0-.198-.003-.296-.01l-1.144-.076-1.113-.074.077,1.113.079,1.14c.085,1.308-.397,2.591-1.322,3.519-.866.866-2.013,1.344-3.229,1.344s-2.362-.477-3.228-1.343c-1.78-1.78-1.78-4.677,0-6.457l.712-.712.688-.688-.688-.688-12.725-12.725-8.365-8.36-12.73-12.727-.69-.689-.688.691-.708.711c-.866.866-2.013,1.344-3.229,1.344s-2.362-.477-3.228-1.344c-.832-.832-1.304-1.921-1.341-3.083v-.151c0-1.216.477-2.362,1.342-3.227.863-.859,2.007-1.333,3.221-1.333.099,0,.197.003.295.01l1.144.076,1.11.074-.074-1.11-.076-1.142c-.085-1.31.396-2.593,1.319-3.519.866-.866,2.013-1.344,3.228-1.344M12.751.264c-1.416,0-2.831.543-3.917,1.629-1.124,1.127-1.706,2.682-1.602,4.27l.076,1.144-1.144-.076c-.12-.008-.24-.012-.36-.012-1.461,0-2.866.579-3.908,1.617-1.086,1.086-1.629,2.501-1.629,3.917l-.002.005c0,1.416.543,2.831,1.629,3.917,1.086,1.086,2.501,1.629,3.917,1.629s2.831-.543,3.917-1.629l.71-.712,12.73,12.727,8.365,8.36,12.724,12.724-.712.712c-2.171,2.172-2.171,5.662,0,7.834,1.086,1.086,2.501,1.629,3.917,1.629s2.831-.543,3.917-1.629c1.124-1.127,1.708-2.682,1.605-4.27l-.079-1.144,1.144.076c.121.008.241.012.361.012,1.461,0,2.868-.578,3.909-1.617,2.171-2.172,2.171-5.662,0-7.834-1.086-1.086-2.501-1.629-3.917-1.629s-2.831.543-3.917,1.629l-.712.712L15.955,10.438l.712-.712c2.171-2.172,2.171-5.662,0-7.834-1.086-1.086-2.501-1.629-3.917-1.629h0Z"/></g></g></g></g><g id="levelFrame"><rect class="cls-6" x="10.179" y="10.18" width="39.429" height="39.429" transform="translate(-12.383 29.894) rotate(-45)"/><path class="cls-5" d="M29.894,2.758l27.136,27.136-27.136,27.136L2.758,29.894,29.894,2.758M29.894,0L0,29.894l29.894,29.894,29.894-29.894L29.894,0h0Z"/><path class="cls-8" d="M29.894,6.344l23.551,23.551-23.551,23.551L6.343,29.894,29.894,6.344M29.894,5.517L5.516,29.894l24.378,24.378,24.378-24.378L29.894,5.517h0Z"/></g></g></svg>