<?xml version="1.0" encoding="UTF-8"?><svg id="Warstwa_2" xmlns="http://www.w3.org/2000/svg" xmlns:xlink="http://www.w3.org/1999/xlink" viewBox="0 0 231.753421 46.227339"><defs><style>.cls-1{fill:url(#MENU_BORDER_SQUARE-4);}.cls-2{fill:url(#MENU_BORDER_SQUARE-2);}.cls-3{fill:url(#MENU_BORDER_SQUARE);}.cls-4{fill:url(#MENU_BORDER_SQUARE-3);}.cls-5{fill:url(#MENU_BORDER_SQUARE-5);}.cls-6{fill:#754c24;}</style><radialGradient id="MENU_BORDER_SQUARE" cx="67.122861" cy="85.220661" fx="67.122861" fy="85.220661" r="108.023014" gradientTransform="translate(-236.864513 -139.760794) rotate(-60) scale(.565012 4.520099)" gradientUnits="userSpaceOnUse"><stop offset="0" stop-color="#ffcb7e"/><stop offset=".262059" stop-color="#fbc87c"/><stop offset=".482601" stop-color="#f1c077"/><stop offset=".688148" stop-color="#dfb26e"/><stop offset=".883389" stop-color="#c79e62"/><stop offset="1" stop-color="#b59059"/></radialGradient><radialGradient id="MENU_BORDER_SQUARE-2" cx="-103.650129" cy="91.881905" fx="-103.650129" fy="91.881905" r="36.990025" gradientTransform="translate(77.770928 -28.152825) scale(.565012)" xlink:href="#MENU_BORDER_SQUARE"/><radialGradient id="MENU_BORDER_SQUARE-3" cx="-68.930622" cy="65.671899" fx="-68.930622" fy="65.671899" r="12.637563" gradientTransform="translate(77.770928 -28.152825) scale(.565012)" xlink:href="#MENU_BORDER_SQUARE"/><radialGradient id="MENU_BORDER_SQUARE-4" cx="238.53488" cy="91.882905" fx="238.53488" fy="91.882905" r="36.990028" gradientTransform="translate(77.770928 -28.152825) scale(.565012)" xlink:href="#MENU_BORDER_SQUARE"/><radialGradient id="MENU_BORDER_SQUARE-5" cx="203.81639" cy="65.671899" fx="203.81639" fy="65.671899" r="12.637563" gradientTransform="translate(77.770928 -28.152825) scale(.565012)" xlink:href="#MENU_BORDER_SQUARE"/></defs><g id="Warstwa_4"><g id="statystyki"><path class="cls-3" d="M197.086228,17.428085s-.005087-.00339-.007345-.00452c-.479126-.177979-.962787-.362738-1.450948-.554842-3.465219-1.330604-7.286398-2.799072-11.438105-4.281664-.203396-.071757-.406241-.142384-.609654-.21301-.203396-.070627-.403982-.145773-.607395-.21527C165.197494,5.761707,141.348323-.123463,115.700142.001969c-25.656648-.124868-49.505258,5.762563-67.279988,12.160199-.203405.069496-.40681.139558-.610214.210185-.200581.075712-.403417.146903-.606822.218659-4.144366,1.479203-7.9582,2.942585-11.412685,4.273189-.480827.187019-.964477.371778-1.432871.550323-.498341.19719-.984817.383078-1.467337.561622-.002261.001695-.005084.00339-.007345.00452-.392119.155944-.773502.298891-1.153755.443535,3.494038,5.227495,6.987509,10.454992,10.481545,15.682487.087012.130517.174023.26047.261035.390989.090404.135604.180804.270641.271208.406245,1.134547,1.697296,2.269089,3.394597,3.403636,5.091893,15.030459-5.128054,40.774688-14.287473,69.553595-13.955243,28.778907-.332793,54.522011,8.82832,69.547379,13.95129l2.856703-4.274886c.180808-.270641.362168-.541282.542976-.812488.089266-.133908.178549-.267251.267815-.401158.088145-.132214.176291-.26386.264419-.396074,3.494601-5.229191,6.989201-10.458383,10.483802-15.688137-.373479-.140124-.750907-.288155-1.135681-.439015-.475177-.174024-.950924-.359912-1.441913-.553147l.000586.001126Z"/><path class="cls-2" d="M38.272249,1.296978c-2.540862,2.489445-5.19755,4.571516-8.152565,6.393116-4.049444,2.500745-8.147478,4.187308-12.119517,6.024163-3.946048,1.825555-7.668348,3.740948-11.107015,6.735515-2.806982,2.449329-5.100932,5.395304-6.893152,8.878607,5.093587-.837348,8.688196-.743555,15.464956.302282.201145.03277.402289.066671.602868.100006-.00113.202275-.001695.405113-.00226.607389.010735,6.13773.257081,9.647587,1.56452,15.888718,1.258283-2.143092,2.790031-4.01498,4.591855-5.62583,3.702527-3.297412,7.91187-4.97211,11.929109-6.347916,1.456602-.498341,2.879304-.957131,4.263583-1.443607-3.723997-5.467627-7.447994-10.934687-11.171992-16.402314.007345-.005086.018646-.005086.025425-.01017h-.021469c4.807126-5.282867,7.55478-8.002272,11.025655-15.100524v.000565Z"/><path class="cls-4" d="M32.345834,15.928542c4.001983-1.529489,8.604008-3.329619,13.754099-5.16704-1.530054-2.936935-3.060672-5.874435-4.590726-8.81137-3.293459,6.633812-5.947322,9.675275-9.960603,14.004965.269512-.009605.538456-.01808.797232-.02599l-.000002-.000565Z"/><path class="cls-1" d="M231.753421,29.328944c-5.093595-.837348-8.688204-.743555-15.464957.302282-.201137.03277-.402292.066671-.60286.100006.001138.202275.00169.405113.002259.607389-.010742,6.13773-.257073,9.647591-1.564526,15.888718-1.258277-2.143092-2.790025-4.01498-4.591864-5.62583-3.702532-3.297412-7.911864-4.97211-11.929111-6.347916-1.456604-.498341-2.879308-.957131-4.263578-1.443607,3.723999-5.467627,7.447998-10.934687,11.171997-16.402314-.007345-.005086-.018639-.005086-.025433-.01017h.021467c-4.807123-5.282867-7.554783-8.002272-11.025657-15.100524,2.540866,2.489445,5.197552,4.571516,8.152556,6.393116,4.04944,2.500745,8.147487,4.187308,12.119524,6.024163,3.946052,1.825555,7.668344,3.740948,11.107009,6.735515"/><path class="cls-5" d="M199.408149,15.928542c-4.001988-1.529489-8.604577-3.329619-13.754091-5.16704,1.530058-2.936935,3.060668-5.874435,4.590726-8.81137,3.293463,6.633812,5.947322,9.675275,9.960603,14.004965-.269505-.009605-.539028-.01808-.797239-.02599v-.000565Z"/></g><path class="cls-6" d="M64.25954,15.293236c-.88623.246094-1.157227.84082-.991211,1.4375.225098.80957.901855,1.078125,2.40918,1.199219,3.325684.238281,5.119141,1.088867,5.826172,3.632812.690918,2.486328-.387695,5.02832-4.145996,6.073242-3.102539.862305-5.524902-.083984-6.21582-2.570312-.283691-1.021484-.167969-1.800781.124023-2.318359.050293-.117188.116699-.177734.193848-.199219.134766-.037109.233398.018555.342773.112305,1.350098,1.347656,3.162109,1.96582,4.626465,1.558594.98291-.273438,1.483887-.786133,1.280273-1.518555-.198242-.712891-.888672-.957031-2.487305-1.03125-2.63916-.15918-4.898438-.819336-5.643066-3.498047-.690918-2.485352.51123-4.958008,3.826172-5.878906,1.850098-.514648,3.580078-.414062,4.84082.086914.210938.086914.330566.219727.378906.392578.160645.578125-.125,2.089844-.504883,2.963867-.050293.118164-.130859.202148-.246582.234375-.096191.027344-.203125.015625-.301758-.040039-1.220703-.657227-2.444336-.87793-3.312012-.636719Z"/><path class="cls-6" d="M76.179462,25.065697c-.296875.046875-.561523-.036133-.707031-.495117-.265625-.71875-.530273-1.705078-.769043-2.757812-.937988-4.134766-.992188-6.541992-1.187012-7.399414-.062012-.273438-.179688-.430664-.530762-.351562-1.189453.270508-1.938965,1.035156-2.367676,1.131836-.15625.036133-.29541-.035156-.353027-.289062-.12793-.56543-.318848-2.490234-.32666-3.24707.024902-.251953.145508-.443359.416016-.607422.575195-.355469,2.146973-1.020508,4.311523-1.511719,2.047363-.463867,3.665039-.564453,4.533691-.351562.42334.149414.530762.350586.608398.78418.184082.901367.322266,2.141602.320801,2.859375-.029297.232422-.089355.328125-.226074.359375-.390137.087891-1.229004-.356445-2.262695-.12207-.312012.070312-.41748.238281-.406738.645508.057129.705078.173828,1.580078.38623,2.516602.849609,3.744141,2.396973,6.858398,2.529785,7.443359.062012.273438-.023926.436523-.303223.560547-.337891.138672-1.03125.336914-1.791504.509766-.604492.136719-1.330566.28125-1.875.322266Z"/><path class="cls-6" d="M83.351337,23.469017c-.377441.043945-.587891-.001953-.6875-.349609-.228516-.874023-.44043-1.771484-.600098-2.717773-.778809-4.612305-.480469-9.93457,3.26709-12.957031.180664-.131836.308594-.213867.446777-.237305.157715-.026367.285645.012695.47998.078125,4.151367,1.773438,6.279785,5.854492,7.164551,11.098633.143066.847656.253418,1.741211.314453,2.704102.030273.420898-.166504.576172-.534668.678711-.446777.116211-.995117.228516-1.527344.318359-.650879.110352-1.285156.196289-1.705566.227539-.263184.00293-.420898-.091797-.464355-.347656-.073242-.433594.089355-1.394531-.113281-2.59668-.133301-.788086-.583984-1.057617-1.45166-.911133-1.163086.196289-2.091797.819336-1.902344,1.943359.149902.886719.489746,1.580078.576172,2.092773.056152.212891-.002441.344727-.252441.427734-.426758.112305-1.015137.232422-1.645996.338867-.492676.083008-.906738.152344-1.36377.208984ZM87.346454,15.901634c.466309-.119141.77832-.192383,1.008301-.271484.226562-.098633.282227-.25.23584-.526367-.209961-1.242188-1.123535-2.811523-1.85791-3.557617-.118652-.101562-.190918-.169922-.269531-.157227-.098633.016602-.16748.088867-.262695.245117-.795898,1.290039-.936523,3.462891-.723633,4.724609.030273.177734.119141.223633.237305.204102.236328-.040039.794434-.458984,1.632324-.661133Z"/><path class="cls-6" d="M97.374286,21.316673c-.300781.011719-.553711-.103516-.643066-.576172-.177734-.746094-.322754-1.756836-.433594-2.831055-.437012-4.21875-.202637-6.616211-.292969-7.491211-.028809-.27832-.126953-.449219-.485352-.412109-1.213867.125-2.049316.794922-2.487305.84082-.15918.015625-.288574-.071289-.31543-.330078-.05957-.577148-.018555-2.511719.064453-3.264648.054688-.246094.197266-.421875.485352-.552734.614258-.285156,2.254883-.755859,4.463379-.984375,2.089355-.216797,3.708008-.123047,4.544922.192383.402832.200195.484863.413086.510742.852539.074707.916992.062988,2.165039-.023926,2.87793-.057129.227539-.128418.31543-.267578.330078-.397949.041016-1.178223-.501953-2.23291-.392578-.318359.033203-.442871.186523-.481445.592773-.027344.707031-.016113,1.589844.08252,2.544922.395508,3.820312,1.55957,7.098633,1.621094,7.696289.028809.27832-.076172.429688-.368164.520508-.352051.09668-1.064453.210938-1.840332.291016-.616699.063477-1.35498.120117-1.900391.095703Z"/><path class="cls-6" d="M107.760028,20.485618c-.540527-.005859-.628906-.34375-.641113-.802734-.049316-1.899414.791016-3.441406,1.049805-4.248047.037109-.121094.054688-.22168.051758-.321289-.003418-.139648-.086914-.27832-.252441-.473633-.989258-1.134766-3.354004-3.613281-3.484375-8.630859-.014648-.579102.182617-.68457.601074-.735352.478516-.072266,1.038086-.086914,1.617676-.102539.57959-.014648,1.119629-.008789,1.460449.00293.700195.021484.76709.279297.73584.620117-.049316.401367-.163086,1.424805-.135742,2.463867.050781,1.958984.770508,3.500977,1.36377,4.005859.143555.135742.245117.193359.385254.189453.099609-.001953.198242-.064453.295898-.147461.583008-.655273,1.108398-2.769531,1.061523-4.568359-.03125-1.21875-.16748-1.835938-.17627-2.175781-.007812-.299805.148926-.423828.427734-.470703.299316-.02832.818359-.061523,1.338379-.075195.639648-.016602,1.299805-.013672,1.700684.016602.640625.022461.78418.15918.800293.779297.081055,3.118164-1.009766,5.026367-2.041992,6.873047-.916504,1.68457-1.793945,3.327148-1.729492,5.805664.015137.580078.147461,1.056641.156738,1.416016.005859.220703-.068359.442383-.527832.474609-.479004.032227-1.238281.071289-1.997559.091797-.779785.019531-1.540039.019531-2.060059.012695Z"/><path class="cls-6" d="M122.837176,8.010033c-.919434-.032227-1.356934.452148-1.379395,1.072266-.030273.838867.533691,1.299805,1.93457,1.870117,3.098145,1.232422,4.550293,2.584961,4.456055,5.223633-.092773,2.579102-1.88916,4.675781-5.787109,4.536133-3.218262-.115234-5.241211-1.749023-5.148438-4.328125.037598-1.05957.383301-1.767578.818359-2.171875.083496-.097656.165039-.134766.244629-.131836.140137.005859.217285.087891.292969.210938.879883,1.692383,2.42041,2.829102,3.939453,2.883789,1.019531.036133,1.651855-.301758,1.679199-1.060547.026367-.740234-.558105-1.181641-2.059082-1.735352-2.468262-.949219-4.422363-2.260742-4.322754-5.039062.092285-2.578125,1.985352-4.572266,5.42334-4.448242,1.918945.068359,3.538086.686523,4.587891,1.544922.175293.146484.249512.30957.242676.489258-.021484.599609-.750488,1.955078-1.376465,2.672852-.083496.09668-.186035.15332-.305664.149414-.100098-.003906-.19873-.047852-.275879-.129883-.964844-.996094-2.064941-1.575195-2.964355-1.608398Z"/><path class="cls-6" d="M131.217059,21.021751c-.296387-.051758-.52002-.21582-.508789-.697266-.019043-.766602.049316-1.78418.164062-2.858398.449707-4.214844,1.177246-6.509766,1.270508-7.384766.029785-.27832-.030762-.46582-.388672-.503906-1.212891-.129883-2.168945.351562-2.606445.304688-.15918-.016602-.268066-.128906-.240234-.387695.061523-.576172.503906-2.458984.741211-3.177734.10498-.230469.280762-.373047.589844-.44043.659668-.150391,2.361328-.270508,4.568359-.035156,2.087891.222656,3.650879.650391,4.40332,1.132812.352539.279297.388672.504883.322266.939453-.117188.913086-.388184,2.130859-.621582,2.80957-.102539.209961-.19043.28125-.330078.266602-.397461-.042969-1.047363-.735352-2.101074-.847656-.318359-.03418-.472168.089844-.594238.479492-.173828.685547-.34668,1.551758-.448242,2.505859-.407227,3.817383.049316,7.264648-.01416,7.861328-.029785.27832-.163574.404297-.468262.432617-.364258.021484-1.084473-.015625-1.859863-.098633-.616211-.06543-1.349609-.164062-1.87793-.300781Z"/><path class="cls-6" d="M141.564715,22.356712c-.52832-.113281-.54834-.461914-.46875-.915039.329102-1.871094,1.458984-3.21582,1.873535-3.955078.060059-.111328.097168-.207031.114258-.305664.024414-.137695-.030273-.289062-.152832-.513672-.744629-1.308594-2.570312-4.208984-1.701172-9.15332.100586-.571289.314941-.635742.735352-.602539.483398.024414,1.035156.121094,1.606445.22168s1.099609.213867,1.431152.292969c.682129.160156.696289.426758.598145.754883-.128418.383789-.442871,1.363281-.623047,2.387695-.339355,1.930664.060059,3.584961.541504,4.198242.113281.162109.20166.238281.339355.262695.098633.016602.20752-.024414.319824-.085938.70166-.526367,1.636719-2.495117,1.94873-4.267578.210938-1.202148.200195-1.833008.259277-2.167969.051758-.295898.22998-.385742.512695-.376953.299316.032227.814941.102539,1.327148.192383.630371.111328,1.276855.245117,1.664062.353516.623047.150391.736816.3125.629395.922852-.540039,3.073242-1.98877,4.727539-3.367676,6.333008-1.23291,1.46875-2.419922,2.905273-2.849121,5.347656-.100586.571289-.06543,1.06543-.12793,1.419922-.038086.216797-.154785.419922-.611328.359375-.476562-.063477-1.228516-.174805-1.977051-.306641-.768066-.135742-1.513184-.286133-2.021973-.396484Z"/><path class="cls-6" d="M152.017352,24.308861c-.384277-.114258-.555664-.34082-.476562-.918945.223633-1.427734.553223-3.036133.945801-4.649414.813965-3.34375,1.875-6.689453,2.610352-8.527344.258301-.637695.446777-.736328.942383-.662109.374023.071289.864746.169922,1.370117.292969.48584.118164.986816.260742,1.487305.408203.364746.109375.530762.272461.397461.652344-.26123.904297-1.617676,3.600586-2.019531,5.25293-.042969.174805-.008301.287109.108398.31543s.300781-.050781.590332-.30957c1.59082-.869141,3.111328-2.887695,3.979004-4.591797.191895-.365234.361328-.467773.637695-.425781.456543.069336.986328.177734,1.51123.305664.563965.136719,1.103516.289062,1.463379.422852.306152.094727.40918.264648.347656.516602-.354492,1.458008-1.950195,3.953125-4.081055,5.34668-.164551.083008-.227051.170898-.260254.307617-.033203.135742-.003418.266602.089844.394531,1.195801,1.856445,1.677734,5.206055,1.043945,7.811523-.099609.408203-.302246.564453-.656738.499023-.413086-.080078-.903809-.178711-1.486816-.321289-.505859-.123047-1.025879-.269531-1.521484-.431641-.45752-.152344-.526855-.375-.452148-.851562.422363-3.850586.038574-5.488281-.933594-5.724609-.466797-.113281-1.152344.419922-1.393555,1.411133-.307617,1.263672-.286133,3.12207-.446777,3.783203-.094727.388672-.331543.516602-.686035.450195-.417969-.060547-.92334-.183594-1.467773-.31543-.602539-.146484-1.205078-.293945-1.642578-.441406Z"/><path class="cls-6" d="M166.64284,28.143822c-.634277-.182617-1.268066-.365234-1.822266-.608398-.257812-.116211-.345215-.245117-.347168-.599609.042969-.798828.56543-3.333008,1.302246-5.887695,1.257324-4.361328,2.485352-6.961914,2.929688-7.707031.17627-.324219.401855-.383789.662598-.34668.548828.117188,1.130859.263672,1.707031.429688.614746.177734,1.224121.374023,1.750977.563477.224609.085938.3125.214844.226562.44043-.149414.518555-1.77002,2.818359-2.905273,6.756836-1.10791,3.841797-1.106445,6.796875-1.217285,7.181641-.066406.230469-.204102.274414-.439941.226562-.617676-.094727-1.232422-.272461-1.847168-.449219Z"/></g></svg>