<?xml version="1.0" encoding="UTF-8"?><svg id="Warstwa_2" xmlns="http://www.w3.org/2000/svg" xmlns:xlink="http://www.w3.org/1999/xlink" viewBox="0 0 231.753 46.227"><defs><style>.cls-1{fill:url(#MENU_BORDER_SQUARE-4);}.cls-2{fill:url(#MENU_BORDER_SQUARE-2);}.cls-3{fill:url(#MENU_BORDER_SQUARE);}.cls-4{fill:url(#MENU_BORDER_SQUARE-3);}.cls-5{fill:url(#MENU_BORDER_SQUARE-5);}</style><radialGradient id="MENU_BORDER_SQUARE" cx="67.123" cy="85.221" fx="67.123" fy="85.221" r="108.023" gradientTransform="translate(-236.865 -139.761) rotate(-60) scale(.565 4.52)" gradientUnits="userSpaceOnUse"><stop offset="0" stop-color="#ffcb7e"/><stop offset=".262" stop-color="#fbc87c"/><stop offset=".483" stop-color="#f1c077"/><stop offset=".688" stop-color="#dfb26e"/><stop offset=".883" stop-color="#c79e62"/><stop offset="1" stop-color="#b59059"/></radialGradient><radialGradient id="MENU_BORDER_SQUARE-2" cx="-103.65" cy="91.882" fx="-103.65" fy="91.882" r="36.99" gradientTransform="translate(77.771 -28.153) scale(.565)" xlink:href="#MENU_BORDER_SQUARE"/><radialGradient id="MENU_BORDER_SQUARE-3" cx="-68.931" cy="65.672" fx="-68.931" fy="65.672" r="12.638" gradientTransform="translate(77.771 -28.153) scale(.565)" xlink:href="#MENU_BORDER_SQUARE"/><radialGradient id="MENU_BORDER_SQUARE-4" cx="238.535" cy="91.883" fx="238.535" fy="91.883" r="36.99" gradientTransform="translate(77.771 -28.153) scale(.565)" xlink:href="#MENU_BORDER_SQUARE"/><radialGradient id="MENU_BORDER_SQUARE-5" cx="203.816" cy="65.672" fx="203.816" fy="65.672" r="12.638" gradientTransform="translate(77.771 -28.153) scale(.565)" xlink:href="#MENU_BORDER_SQUARE"/></defs><g id="Warstwa_4"><g id="statystyki"><path class="cls-3" d="M197.086,17.428s-.005-.003-.007-.005c-.479-.178-.963-.363-1.451-.555-3.465-1.331-7.286-2.799-11.438-4.282-.203-.072-.406-.142-.61-.213-.203-.071-.404-.146-.607-.215C165.197,5.762,141.348-.123,115.7.002c-25.657-.125-49.505,5.763-67.28,12.16-.203.069-.407.14-.61.21-.201.076-.403.147-.607.219-4.144,1.479-7.958,2.943-11.413,4.273-.481.187-.964.372-1.433.55-.498.197-.985.383-1.467.562-.002.002-.005.003-.007.005-.392.156-.774.299-1.154.444,3.494,5.227,6.988,10.455,10.482,15.682.087.131.174.26.261.391.09.136.181.271.271.406,1.135,1.697,2.269,3.395,3.404,5.092,15.03-5.128,40.775-14.287,69.554-13.955,28.779-.333,54.522,8.828,69.547,13.951l2.857-4.275c.181-.271.362-.541.543-.812.089-.134.179-.267.268-.401.088-.132.176-.264.264-.396,3.495-5.229,6.989-10.458,10.484-15.688-.373-.14-.751-.288-1.136-.439-.475-.174-.951-.36-1.442-.553h0Z"/><path class="cls-2" d="M38.272,1.297c-2.541,2.489-5.198,4.572-8.153,6.393-4.049,2.501-8.147,4.187-12.12,6.024-3.946,1.826-7.668,3.741-11.107,6.736-2.807,2.449-5.101,5.395-6.893,8.879,5.094-.837,8.688-.744,15.465.302.201.033.402.067.603.1-.001.202-.002.405-.002.607.011,6.138.257,9.648,1.565,15.889,1.258-2.143,2.79-4.015,4.592-5.626,3.703-3.297,7.912-4.972,11.929-6.348,1.457-.498,2.879-.957,4.264-1.444-3.724-5.468-7.448-10.935-11.172-16.402.007-.005.019-.005.025-.01h-.021c4.807-5.283,7.555-8.002,11.026-15.101h0Z"/><path class="cls-4" d="M32.346,15.929c4.002-1.529,8.604-3.33,13.754-5.167-1.53-2.937-3.061-5.874-4.591-8.811-3.293,6.634-5.947,9.675-9.961,14.005.27-.01.538-.018.797-.026h0Z"/><path class="cls-1" d="M231.753,29.329c-5.094-.837-8.688-.744-15.465.302-.201.033-.402.067-.603.1.001.202.002.405.002.607-.011,6.138-.257,9.648-1.565,15.889-1.258-2.143-2.79-4.015-4.592-5.626-3.703-3.297-7.912-4.972-11.929-6.348-1.457-.498-2.879-.957-4.264-1.444,3.724-5.468,7.448-10.935,11.172-16.402-.007-.005-.019-.005-.025-.01h.021c-4.807-5.283-7.555-8.002-11.026-15.101,2.541,2.489,5.198,4.572,8.153,6.393,4.049,2.501,8.147,4.187,12.12,6.024,3.946,1.826,7.668,3.741,11.107,6.736"/><path class="cls-5" d="M199.408,15.929c-4.002-1.529-8.605-3.33-13.754-5.167,1.53-2.937,3.061-5.874,4.591-8.811,3.293,6.634,5.947,9.675,9.961,14.005-.27-.01-.539-.018-.797-.026h0Z"/></g></g></svg>