<?xml version="1.0" encoding="UTF-8"?><svg id="Warstwa_2" xmlns="http://www.w3.org/2000/svg" xmlns:xlink="http://www.w3.org/1999/xlink" viewBox="0 0 24.367 21.601"><defs><style>.cls-1{fill:url(#Gradient_bez_nazwy_13-8);}.cls-2{fill:url(#Gradient_bez_nazwy_13-9);}.cls-3{fill:url(#Gradient_bez_nazwy_13);}.cls-4{fill:url(#Gradient_bez_nazwy_13-2);}.cls-5{fill:url(#Gradient_bez_nazwy_13-3);}.cls-6{fill:url(#Gradient_bez_nazwy_13-7);}.cls-7{fill:url(#Gradient_bez_nazwy_13-6);}.cls-8{fill:url(#Gradient_bez_nazwy_13-5);}.cls-9{fill:url(#Gradient_bez_nazwy_13-4);}</style><radialGradient id="Gradient_bez_nazwy_13" cx="7.39" cy="3.31" fx="7.39" fy="3.31" r="5.725" gradientTransform="translate(0 -23.171) scale(1 8)" gradientUnits="userSpaceOnUse"><stop offset="0" stop-color="#f2c744"/><stop offset=".285" stop-color="#eec345"/><stop offset=".525" stop-color="#e4ba48"/><stop offset=".748" stop-color="#d2aa4e"/><stop offset=".96" stop-color="#ba9457"/><stop offset="1" stop-color="#b59059"/></radialGradient><radialGradient id="Gradient_bez_nazwy_13-2" cy="7.115" fy="7.115" r="5.499" gradientTransform="translate(0 -49.804) scale(1 8)" xlink:href="#Gradient_bez_nazwy_13"/><radialGradient id="Gradient_bez_nazwy_13-3" cx="16.896" cy="15.488" fx="16.896" fy="15.488" r="6.113" gradientTransform="translate(0 -108.418) scale(1 8)" xlink:href="#Gradient_bez_nazwy_13"/><radialGradient id="Gradient_bez_nazwy_13-4" cx="6.203" cy="12.927" fx="6.203" fy="12.927" r="3.688" gradientTransform="translate(0 -90.487) scale(1 8)" xlink:href="#Gradient_bez_nazwy_13"/><radialGradient id="Gradient_bez_nazwy_13-5" cx="16.894" cy="15.487" fx="16.894" fy="15.487" r="4.512" gradientTransform="translate(0 -108.411) scale(1 8)" xlink:href="#Gradient_bez_nazwy_13"/><radialGradient id="Gradient_bez_nazwy_13-6" cx="6.329" cy="19.173" fx="6.329" fy="19.173" r="4.793" gradientTransform="translate(0 -134.214) scale(1 8)" xlink:href="#Gradient_bez_nazwy_13"/><radialGradient id="Gradient_bez_nazwy_13-7" cx="22.201" cy="15.489" fx="22.201" fy="15.489" r="4.41" gradientTransform="translate(0 -108.42) scale(1 8)" xlink:href="#Gradient_bez_nazwy_13"/><radialGradient id="Gradient_bez_nazwy_13-8" cx="5.441" cy="16.022" fx="5.441" fy="16.022" r="4.281" gradientTransform="translate(0 -112.154) scale(1 8)" xlink:href="#Gradient_bez_nazwy_13"/><radialGradient id="Gradient_bez_nazwy_13-9" cx="8.963" cy="9.839" fx="8.963" fy="9.839" r="5.529" gradientTransform="translate(0 -68.875) scale(1 8)" xlink:href="#Gradient_bez_nazwy_13"/></defs><g id="PlayerMenu"><path class="cls-3" d="M7.388,6.62c4.006,0,7.39-1.516,7.39-3.31S11.394,0,7.388,0,.002,1.516.002,3.31s3.383,3.31,7.386,3.31Z"/><path class="cls-4" d="M7.388,9.542c4.006,0,7.39-1.516,7.39-3.31v-1.544c-1.121,1.446-3.965,2.451-7.39,2.451S1.122,6.134.002,4.688v1.543C.002,8.026,3.384,9.542,7.388,9.542Z"/><path class="cls-5" d="M10.784,15.488c0,3.371,2.742,6.113,6.113,6.113.232,0,.45-.012.649-.035,2.726-.287,4.865-2.324,5.357-4.93.07-.372.107-.756.107-1.148,0-3.136-2.348-5.749-5.461-6.078-.201-.023-.414-.034-.652-.034-3.37,0-6.113,2.742-6.113,6.112ZM20.452,11.929c.95.95,1.473,2.213,1.473,3.557,0,2.774-2.257,5.03-5.03,5.031-2.774,0-5.03-2.257-5.03-5.03s2.257-5.03,5.03-5.03h.001c1.343,0,2.606.523,3.556,1.473Z"/><path class="cls-9" d="M8.974,12.953c-3.424,0-6.267-1.006-7.388-2.452v1.545c0,1.793,3.383,3.308,7.388,3.308.432,0,.869-.019,1.301-.053.025-.872.215-1.703.546-2.46-.607.069-1.224.113-1.847.113Z"/><path class="cls-8" d="M20.085,12.294c-.85-.85-1.986-1.317-3.188-1.317-2.489,0-4.516,2.022-4.516,4.511s2.027,4.511,4.516,4.511,4.511-2.027,4.511-4.511c0-1.208-.472-2.338-1.322-3.194Z"/><path class="cls-7" d="M11.124,18.74c-1.133.294-2.416.455-3.736.455-3.424,0-6.267-1.004-7.388-2.449v1.542c0,1.796,3.383,3.313,7.388,3.313,1.992,0,3.88-.371,5.27-1.018-.617-.514-1.136-1.139-1.534-1.842Z"/><path class="cls-6" d="M20.89,10.189c.047.036.094.072.141.109.106.085.209.173.31.263.032.029.066.057.097.086.128.12.25.245.368.374.031.034.059.069.089.103.089.102.175.207.258.314.034.044.067.088.1.133.087.119.17.241.249.365.017.027.036.053.052.08.093.151.178.307.259.466.021.042.041.086.061.128.059.123.114.248.166.375.02.05.041.1.06.151.057.152.11.306.156.463.005.018.012.036.017.054.05.175.091.353.127.533.01.051.018.102.027.153.024.137.043.276.059.415.006.055.012.109.017.164.016.187.026.376.026.567s-.011.38-.026.567c-.005.055-.011.109-.017.163-.015.14-.035.279-.059.417-.009.051-.017.102-.027.152-.036.18-.077.359-.127.534-.005.018-.012.035-.017.052-.047.158-.099.314-.157.467-.019.049-.039.098-.058.147-.052.129-.108.256-.168.381-.02.041-.038.083-.059.123-.081.16-.168.317-.261.47-.015.024-.031.047-.046.071-.081.129-.167.254-.256.376-.031.042-.062.084-.094.125-.086.112-.175.22-.268.327-.027.031-.052.062-.08.092-.12.132-.244.259-.374.381-.027.025-.055.048-.082.073-.107.097-.216.19-.329.28-.042.033-.083.065-.126.097-.116.087-.234.171-.356.251-.03.02-.059.041-.09.061-.136.086-.274.168-.416.244,2.505-.764,4.332-3.097,4.332-5.849s-1.827-5.083-4.331-5.847c.14.075.276.155.409.239.04.025.078.053.117.078.112.074.221.151.328.231Z"/><path class="cls-1" d="M7.388,18.676c1.234,0,2.431-.146,3.495-.411-.349-.752-.558-1.578-.601-2.448-.435.034-.873.055-1.308.055-3.467,0-6.338-1.03-7.429-2.504-.995.581-1.545,1.286-1.545,2.001,0,1.793,3.383,3.308,7.388,3.308Z"/><path class="cls-2" d="M15.018,7.244c-.897,1.639-3.924,2.816-7.63,2.816-2.305,0-4.345-.458-5.777-1.196-.015.085-.025.171-.025.257,0,1.796,3.383,3.313,7.388,3.313.715,0,1.426-.051,2.117-.144,1.046-1.89,2.987-3.215,5.248-3.404-.1-.583-.56-1.151-1.321-1.641Z"/></g></svg>