<?xml version="1.0" encoding="UTF-8"?><svg id="Warstwa_2" xmlns="http://www.w3.org/2000/svg" viewBox="0 0 480 480"><defs><style>.cls-1{fill:none;stroke:#ecbc76;stroke-miterlimit:10;stroke-width:1.877px;}.cls-2{fill:#ecbc76;}</style></defs><g id="PlayerMenu"><path class="cls-2" d="M478.123,1.877v476.247H1.876V1.877h476.247M480,0H0v480h480V0h0Z"/><line class="cls-1" y1="436.364" x2="480" y2="436.364"/><line class="cls-1" y1="392.727" x2="480" y2="392.727"/><line class="cls-1" y1="349.091" x2="480" y2="349.091"/><line class="cls-1" y1="305.455" x2="480" y2="305.455"/><line class="cls-1" y1="261.818" x2="480" y2="261.818"/><line class="cls-1" y1="218.182" x2="480" y2="218.182"/><line class="cls-1" y1="174.545" x2="480" y2="174.545"/><line class="cls-1" y1="130.909" x2="480" y2="130.909"/><line class="cls-1" y1="87.273" x2="480" y2="87.273"/><line class="cls-1" y1="43.636" x2="480" y2="43.636"/><line class="cls-1" x1="436.364" x2="436.364" y2="480"/><line class="cls-1" x1="392.727" x2="392.727" y2="480"/><line class="cls-1" x1="349.091" x2="349.091" y2="480"/><line class="cls-1" x1="305.455" x2="305.455" y2="480"/><line class="cls-1" x1="261.818" x2="261.818" y2="480"/><line class="cls-1" x1="218.182" x2="218.182" y2="480"/><line class="cls-1" x1="174.545" x2="174.545" y2="480"/><line class="cls-1" x1="130.909" x2="130.909" y2="480"/><line class="cls-1" x1="87.273" x2="87.273" y2="480"/><line class="cls-1" x1="43.636" x2="43.636" y2="480"/></g></svg>