<?xml version="1.0" encoding="UTF-8"?><svg id="Warstwa_2" xmlns="http://www.w3.org/2000/svg" xmlns:xlink="http://www.w3.org/1999/xlink" viewBox="0 0 82.799 30.222"><defs><style>.cls-1{fill:#c89f63;}.cls-2{fill:url(#Nowa_próbka_gradientu_3);}.cls-3{fill:url(#MENU_BORDER_SQUARE);}</style><radialGradient id="Nowa_próbka_gradientu_3" cx="599.514" cy="694.296" fx="599.514" fy="694.296" r="64.509" gradientTransform="translate(-245.197 -316.796) scale(.478)" gradientUnits="userSpaceOnUse"><stop offset=".005" stop-color="#8c6239"/><stop offset=".481" stop-color="#895f36"/><stop offset=".786" stop-color="#80572e"/><stop offset="1" stop-color="#754c24"/></radialGradient><radialGradient id="MENU_BORDER_SQUARE" cx="41.4" cy="15.111" fx="41.4" fy="15.111" r="31.163" gradientTransform="translate(0 -105.776) scale(1 8)" gradientUnits="userSpaceOnUse"><stop offset="0" stop-color="#ffcb7e"/><stop offset=".262" stop-color="#fbc87c"/><stop offset=".483" stop-color="#f1c077"/><stop offset=".688" stop-color="#dfb26e"/><stop offset=".883" stop-color="#c79e62"/><stop offset="1" stop-color="#b59059"/></radialGradient></defs><g id="PlayerMenu"><g id="fastAction1Frame"><path class="cls-2" d="M3.418,29.863c-.167-1.609-1.45-2.892-3.06-3.06V3.418c1.609-.168,2.892-1.45,3.06-3.06h75.963c.167,1.609,1.45,2.892,3.06,3.06v23.386c-1.609.168-2.892,1.45-3.06,3.06H3.418Z"/><path class="cls-3" d="M78.896.936c.351,1.463,1.505,2.617,2.968,2.968v22.415c-1.463.351-2.617,1.505-2.968,2.968H3.904c-.351-1.463-1.505-2.617-2.968-2.968V3.903c1.463-.351,2.617-1.505,2.968-2.968h74.992M79.721,0H3.078c0,1.7-1.378,3.078-3.078,3.078v24.066c1.7,0,3.078,1.378,3.078,3.078h76.643c0-1.7,1.378-3.078,3.078-3.078V3.078c-1.7,0-3.078-1.378-3.078-3.078h0Z"/><path class="cls-1" d="M78.033,2.152c.523,1.153,1.462,2.092,2.615,2.615v20.689c-1.153.523-2.091,1.462-2.615,2.615H4.767c-.523-1.153-1.462-2.092-2.615-2.615V4.766c1.153-.523,2.091-1.462,2.615-2.615h73.266M78.217,1.871H4.582c-.503,1.227-1.484,2.208-2.711,2.711v21.058c1.227.503,2.208,1.484,2.711,2.711h73.635c.503-1.227,1.484-2.208,2.711-2.711V4.582c-1.227-.503-2.208-1.484-2.711-2.711h0Z"/></g></g></svg>