<svg xmlns="http://www.w3.org/2000/svg" width="521.592" height="123.592" viewBox="0 0 521.592 123.592">
  <g id="tabliczka_ekwipunek" transform="translate(-672.203 -172.424)">
    <g id="Warstwa_1-2" transform="translate(677.258 189.414)">
      <g id="Warstwa_1-2-2" data-name="Warstwa_1-2" transform="translate(-3.37)" opacity="0.41">
        <path id="Path_9" data-name="Path 9" d="M516.506,96.36c-2.621,10.612-7.862,9.676-12.043,9.468C351.469,91.47,200.771,110.405,58.406,99.169c-4.328-.312-35.981,0-40.31.936-9.04,1.977-13.4.312-15.635-9.26C1.431,86.372.459,80.233.577,70.037c.088-8.948.353-14.67.559-23.722.353-13.838.8-32.149,3.651-38.912C8.026-.4,71.187.109,72.6.63c77.609,9.954,86.153-3.318,158.645,9.063,25.263,4.266,40.634,6.971,63.012,5.2,68.989-5.306,138.037,2.6,207-4.162,3.062-.312,12.926-1.457,16.195,17.687,1.031,6.139,1.178,12.8,1.3,21.537A361.638,361.638,0,0,1,516.506,96.36Z" transform="matrix(0.999, -0.035, 0.035, 0.999, -2.264, 0.745)" fill="#b37f27"/>
      </g>
      <path id="Path_9-2" data-name="Path 9" d="M503.378,80.225c-2.554,8.829-7.662,8.05-11.736,7.876C342.54,76.157,195.677,91.91,56.934,82.562c-4.218-.26-35.066,0-39.284.779-8.809,1.645-13.056.26-15.237-7.7-1-3.722-1.951-8.828-1.837-17.311.086-7.444.344-12.2.545-19.734C1.466,27.081,1.9,11.847,4.68,6.221c3.156-6.492,67.4-.433,68.778,0,75.634,8.281,61.605-4.068,132.253,6.232,24.621,3.549,59.265,1.471,81.074,0,67.233-4.414,134.524,2.164,201.729-3.462,2.984-.26,12.6-1.212,15.783,14.714,1,5.107,1.148,10.646,1.263,17.917A257.3,257.3,0,0,1,503.378,80.225Z" transform="translate(-0.567 -0.371)" fill="#b37f27"/>
    </g>
  </g>
</svg>
