<svg xmlns="http://www.w3.org/2000/svg" width="506.663" height="106.391" viewBox="0 0 506.663 106.391">
  <g id="tabliczka_rozgrywka" transform="translate(-675.632 -177.525)">
    <g id="Warstwa_1-2" transform="translate(677.258 183.486)">
      <path id="Path_9" data-name="Path 9" d="M497.787,80.876c-2.526,8.9-7.577,8.115-11.606,7.941C338.737,76.775,193.507,92.656,56.307,83.232c-4.171-.262-34.676,0-38.847.785-8.712,1.658-12.911.262-15.068-7.766C1.4,72.5.463,67.351.576,58.8c.085-7.5.341-12.3.539-19.9C1.456,27.3,1.882,11.941,4.634,6.269,7.756-.275,68.625.152,69.987.588c74.793,8.349,83.027-2.783,152.889,7.6,24.347,3.578,39.159,5.846,60.725,4.363,66.486-4.45,133.028,2.181,199.486-3.49C486.039,8.8,495.545,7.84,498.695,23.9c.993,5.148,1.135,10.733,1.249,18.063A264.384,264.384,0,0,1,497.787,80.876Z" transform="translate(5.049 -0.371)" fill="#b37f27"/>
    </g>
    <g id="Warstwa_1-2-2" data-name="Warstwa_1-2" transform="matrix(1, 0.017, -0.017, 1, 672.335, 177.525)" opacity="0.41">
      <path id="Path_9-2" data-name="Path 9" d="M503.378,89.1c-2.554,9.81-7.662,8.945-11.736,8.752C342.54,84.584,195.677,102.089,56.934,91.7c-4.218-.289-35.066,0-39.284.866-8.809,1.827-13.056.289-15.237-8.56C1.409,79.872.462,74.2.576,64.772.663,56.5.921,51.21,1.122,42.843,1.466,30.051,1.9,13.124,4.68,6.872,7.836-.342,69.391.129,70.768.61c75.634,9.2,83.96-3.067,154.609,8.378,24.621,3.943,39.6,6.444,61.408,4.809,67.233-4.905,134.524,2.4,201.729-3.847C491.5,9.661,501.111,8.6,504.3,26.3c1,5.675,1.148,11.83,1.263,19.909A317.285,317.285,0,0,1,503.378,89.1Z" transform="translate(4.432 -0.458)" fill="#b37f27"/>
    </g>
  </g>
</svg>
