<svg id="tabliczka_resetuj" xmlns="http://www.w3.org/2000/svg" width="180.727" height="73.044" viewBox="0 0 180.727 73.044">
  <g id="Warstwa_1-2" transform="translate(0 0)">
    <path id="Path_9" data-name="Path 9" d="M170.872,58.925c-.865,6.335-2.6,5.776-3.975,5.652C116.4,56.006,66.652,67.31,19.659,60.6c-1.429-.186-11.877,0-13.306.559-2.984,1.18-4.422.186-5.161-5.528A90.035,90.035,0,0,1,.57,43.211C.6,37.87.687,34.454.755,29.05.872,20.789,1.017,9.858,1.96,5.821c1.069-4.658,22.4.591,44.538,0,22.772-3.168,96.576,6.025,119.339,1.988,1.011-.186,4.267-.87,5.346,10.559.34,3.664.389,7.64.428,12.857C171.717,43.273,171.241,53.024,170.872,58.925Z" transform="translate(6.768 3.021)" fill="#f2f2f2"/>
    <g id="Warstwa_1-2-2" data-name="Warstwa_1-2" transform="matrix(0.999, -0.035, 0.035, 0.999, 0, 6.23)" opacity="0.41">
      <path id="Path_9-2" data-name="Path 9" d="M177.716,60.562c-.9,6.97-2.708,6.355-4.148,6.218-52.7-9.43-104.607,3.007-153.645-4.373-1.491-.2-12.394,0-13.885.615-3.114,1.3-4.615.2-5.386-6.081A104.369,104.369,0,0,1,0,43.275C.034,37.4.125,33.64.2,27.7.318,18.608.47,6.581,1.454,2.14c1.116-5.125,23.37.65,46.476,0C71.693-1.345,148.709,8.768,172.462,4.327c1.055-.2,4.452-.957,5.578,11.616.355,4.031.406,8.4.446,14.144C178.6,43.343,178.1,54.071,177.716,60.562Z" transform="translate(0 0)" fill="#f2f2f2"/>
    </g>
  </g>
</svg>
