<svg xmlns="http://www.w3.org/2000/svg" width="510.089" height="113.478" viewBox="0 0 510.089 113.478">
  <g id="tabliczka_mapa" transform="translate(-672.206 -176.833)">
    <g id="Warstwa_1-2" transform="translate(677.258 189.414)">
      <path id="Path_9" data-name="Path 9" d="M503.378,80.225c-2.554,8.829-7.662,8.05-11.736,7.876C342.54,76.157,195.677,91.91,56.934,82.562c-4.218-.26-35.066,0-39.284.779-8.809,1.645-13.056.26-15.237-7.7-1-3.722-1.951-8.828-1.837-17.311.086-7.444.344-12.2.545-19.734C1.466,27.081,1.9,11.847,4.68,6.221,7.836-.27,69.391.153,70.768.586c75.634,8.281,83.96-2.76,154.609,7.539,24.621,3.549,39.6,5.8,61.408,4.328,67.233-4.414,134.524,2.164,201.729-3.462,2.984-.26,12.6-1.212,15.783,14.714,1,5.107,1.148,10.646,1.263,17.917A257.3,257.3,0,0,1,503.378,80.225Z" transform="translate(-0.567 -0.371)" fill="#b37f27"/>
    </g>
    <g id="Warstwa_1-2-2" data-name="Warstwa_1-2" transform="matrix(0.999, -0.035, 0.035, 0.999, 672.206, 194.459)" opacity="0.41">
      <path id="Path_9-2" data-name="Path 9" d="M503.378,87.576c-2.554,9.641-7.662,8.791-11.736,8.6-149.1-13.044-295.965,4.159-434.707-6.049-4.218-.284-35.066,0-39.284.851-8.809,1.8-13.056.284-15.237-8.412-1-4.064-1.951-9.641-1.837-18.9.086-8.129.344-13.328.545-21.551C1.466,29.54,1.9,12.9,4.68,6.76,7.836-.329,69.391.133,70.768.606c75.634,9.044,83.96-3.015,154.609,8.234,24.621,3.875,39.6,6.333,61.408,4.726,67.233-4.821,134.524,2.363,201.729-3.781,2.984-.284,12.6-1.323,15.783,16.069,1,5.577,1.148,11.626,1.263,19.566A306.51,306.51,0,0,1,503.378,87.576Z" transform="translate(-0.567 -0.371)" fill="#b37f27"/>
    </g>
  </g>
</svg>
