<?xml version="1.0" encoding="UTF-8"?><svg id="Warstwa_2" xmlns="http://www.w3.org/2000/svg" xmlns:xlink="http://www.w3.org/1999/xlink" viewBox="0 0 37.981602 36.173999"><defs><style>.cls-1{stroke:url(#Nowa_próbka_gradientu_3-2);stroke-width:.538213px;}.cls-1,.cls-2{fill:none;}.cls-3{fill:url(#Gradient_bez_nazwy_188);}.cls-4{isolation:isolate;}.cls-5{fill:#ecbc76;}.cls-2{stroke:url(#Nowa_próbka_gradientu_3);stroke-width:.134553px;}</style><radialGradient id="Gradient_bez_nazwy_188" cx="-12.629853" cy="55.261347" fx="-12.629853" fy="55.261347" r="33.067779" gradientTransform="translate(26.073621 -229.837481) scale(.5608 4.4864)" gradientUnits="userSpaceOnUse"><stop offset="0" stop-color="#ffcb7e"/><stop offset=".477789" stop-color="#fdc97d"/><stop offset=".649896" stop-color="#f6c479"/><stop offset=".772573" stop-color="#eaba73"/><stop offset=".8717" stop-color="#d9ad6b"/><stop offset=".955672" stop-color="#c39b60"/><stop offset="1" stop-color="#b59059"/></radialGradient><radialGradient id="Nowa_próbka_gradientu_3" cx="-12.630645" cy="55.260863" fx="-12.630645" fy="55.260863" r="31.629319" gradientTransform="translate(26.073621 -229.835579) scale(.5608 4.4864)" gradientUnits="userSpaceOnUse"><stop offset=".00455" stop-color="#8c6239"/><stop offset=".48127" stop-color="#895f36"/><stop offset=".786046" stop-color="#80572e"/><stop offset="1" stop-color="#754c24"/></radialGradient><radialGradient id="Nowa_próbka_gradientu_3-2" cx="-12.629853" cy="55.261347" fx="-12.629853" fy="55.261347" r="33.067779" gradientTransform="translate(26.073621 -229.837481) scale(.5608 4.4864)" xlink:href="#Nowa_próbka_gradientu_3"/></defs><g id="Warstwa_4"><g id="kotwica" class="cls-4"><path id="anchorPath" class="cls-5" d="M37.937369,25.8409c-.114606-.718754-.301553-1.424086-.557997-2.105244-.281987-1.097428-.63357-2.175785-1.052621-3.228525-.636509-1.429479-1.885409-1.036919-2.91616-.290495-1.060472.70717-2.120946,1.429479-3.173567,2.152351-1.036918.612953-1.68913,1.885409-.504721,2.718197.471072.384709,1.248902.416114,1.508551.934853.102065.306198-.164874.628656-.384709.856342-1.827792,1.714896-4.31006,2.5518-6.803064,2.293672-1.068323-.078512-2.262267-.557995-2.631834-1.642023-.133855-.424051-.197503-.867128-.188428-1.311711-.007851-2.592579,0-5.184595,0-7.777174-.047107-1.013365.45537-1.327414,1.405925-1.272456.632921-.033726,1.267634.000491,1.89326.102065,1.390223.44864,2.364332,1.350967,3.865032.400412,1.126959-.797746,1.39384-2.358027.596096-3.484987-.178305-.251888-.401706-.468585-.658905-.639136-1.791195-1.091878-2.561174.274792-4.139825.526591-.397014.034004-.795691.044491-1.193944.031405-.9113.039256-1.738479,0-1.75979-1.068324-.196279-1.885409.9113-2.058136,2.018879-3.181418,2.163571-2.184311,2.171424-6.143558-.140754-8.217397-2.28582-2.160201-6.315729-2.262267-8.452936.164875-2.211858,2.443696-2.023916,6.217769.419781,8.429628.204155.184786.420853.355221.648544.510084.297603.184736.549987.433861.738573.729039.263238.67238.293643,1.413562.086363,2.105243-.274792.667913-1.021216.495186-1.689129.526591-1.869707.133471-2.042433-.628657-3.503878-.934853-1.302361-.162841-2.509298.708035-2.765304,1.995326-.246824,1.344959.64339,2.635353,1.988349,2.882177.240737.04418.486694.052419.729848.02445.809235-.078512,1.43733-.691466,2.21516-.872044.605897-.090855,1.220683-.106677,1.830451-.047107.9113-.023553,1.358818.361155,1.30386,1.30386-.062809,2.883072.117767,5.789699-.078512,8.657069-.219834,1.43733-1.744088,2.058137-3.055798,2.089542-2.40805.186928-4.781078-.66497-6.52042-2.340779-.2804-.290495-.597252-.746425-.211982-1.04477.526591-.353305,1.547808-.722872,1.885409-1.225349.903449-1.350967-1.602766-2.5236-2.828114-3.472474-4.230676-3.345172-4.19142-.957286-5.519394,3.136553-.384709,1.1216-.809234,3.267781.974109,3.19656.699317,0,1.358818-.439667,1.995326-.188428.390898.257546.69486.627186.872044,1.060472.587214.987807,1.285664,1.905088,2.081689,2.7339,3.511728,3.786521,8.876901,5.40499,13.943728,5.074681,6.033085-.251237,11.154872-3.605944,14.313295-8.774836.573698-.361156,1.225346.031405,1.89326.056079.702544.156621,1.399039-.285936,1.55566-.988483.041635-.186766-.031405-.584003-.031405-.584003ZM20.748852,8.10392c-3.19656,2.514066-6.755957-2.686793-3.244227-4.784184,1.274051-.779873,2.936742-.412451,3.763529.831666.95403,1.193781.759674,2.934927-.434107,3.888957-.023243.018575-.085195.063561-.085195.063561Z"/><path id="anchorPath-2" class="cls-3" d="M37.937369,25.8409c-.114606-.718754-.301553-1.424086-.557997-2.105244-.281987-1.097428-.63357-2.175785-1.052621-3.228525-.636509-1.429479-1.885409-1.036919-2.91616-.290495-1.060472.70717-2.120946,1.429479-3.173567,2.152351-1.036918.612953-1.68913,1.885409-.504721,2.718197.471072.384709,1.248902.416114,1.508551.934853.102065.306198-.164874.628656-.384709.856342-1.827792,1.714896-4.31006,2.5518-6.803064,2.293672-1.068323-.078512-2.262267-.557995-2.631834-1.642023-.133855-.424051-.197503-.867128-.188428-1.311711-.007851-2.592579,0-5.184595,0-7.777174-.047107-1.013365.45537-1.327414,1.405925-1.272456.632921-.033726,1.267634.000491,1.89326.102065,1.390223.44864,2.364332,1.350967,3.865032.400412,1.126959-.797746,1.39384-2.358027.596096-3.484987-.178305-.251888-.401706-.468585-.658905-.639136-1.791195-1.091878-2.561174.274792-4.139825.526591-.397014.034004-.795691.044491-1.193944.031405-.9113.039256-1.738479,0-1.75979-1.068324-.196279-1.885409.9113-2.058136,2.018879-3.181418,2.163571-2.184311,2.171424-6.143558-.140754-8.217397-2.28582-2.160201-6.315729-2.262267-8.452936.164875-2.211858,2.443696-2.023916,6.217769.419781,8.429628.204155.184786.420853.355221.648544.510084.297603.184736.549987.433861.738573.729039.263238.67238.293643,1.413562.086363,2.105243-.274792.667913-1.021216.495186-1.689129.526591-1.869707.133471-2.042433-.628657-3.503878-.934853-1.302361-.162841-2.509298.708035-2.765304,1.995326-.246824,1.344959.64339,2.635353,1.988349,2.882177.240737.04418.486694.052419.729848.02445.809235-.078512,1.43733-.691466,2.21516-.872044.605897-.090855,1.220683-.106677,1.830451-.047107.9113-.023553,1.358818.361155,1.30386,1.30386-.062809,2.883072.117767,5.789699-.078512,8.657069-.219834,1.43733-1.744088,2.058137-3.055798,2.089542-2.40805.186928-4.781078-.66497-6.52042-2.340779-.2804-.290495-.597252-.746425-.211982-1.04477.526591-.353305,1.547808-.722872,1.885409-1.225349.903449-1.350967-1.602766-2.5236-2.828114-3.472474-4.230676-3.345172-4.19142-.957286-5.519394,3.136553-.384709,1.1216-.809234,3.267781.974109,3.19656.699317,0,1.358818-.439667,1.995326-.188428.390898.257546.69486.627186.872044,1.060472.587214.987807,1.285664,1.905088,2.081689,2.7339,3.511728,3.786521,8.876901,5.40499,13.943728,5.074681,6.033085-.251237,11.154872-3.605944,14.313295-8.774836.573698-.361156,1.225346.031405,1.89326.056079.702544.156621,1.399039-.285936,1.55566-.988483.041635-.186766-.031405-.584003-.031405-.584003ZM20.748852,8.10392c-3.19656,2.514066-6.755957-2.686793-3.244227-4.784184,1.274051-.779873,2.936742-.412451,3.763529.831666.95403,1.193781.759674,2.934927-.434107,3.888957-.023243.018575-.085195.063561-.085195.063561Z"/><path class="cls-2" d="M18.920202,35.366513c-4.804688,0-9.202148-1.770508-12.06543-4.857422-.749023-.780273-1.402344-1.634766-1.952148-2.550781-.241211-.560547-.637695-1.033203-1.149414-1.369141l-.070312-.046875-.078125-.030273c-.224609-.088867-.46875-.133789-.723633-.133789-.348633,0-.669922.082031-.953125.154297-.225586.057617-.438477.111328-.614258.111328h-.011719c-.323242,0-.37207-.068359-.387695-.09082-.170898-.239258-.161133-1.015625.189453-2.036133.172852-.533203.320312-1.026367.457031-1.485352.429688-1.443359.800781-2.689453,1.301758-2.689453.325195,0,1.022461.244141,2.495117,1.40918.270508.209961.591797.425781.926758.649414.5625.375977,1.199219.801758,1.554688,1.202148.306641.345703.237305.448242.176758.539062-.110352.164062-.632812.435547-.944336.598633-.269531.139648-.524414.274414-.719727.40625-.333984.254883-.507812.570312-.532227.917969-.033203.445312.173828.901367.614258,1.356445,1.754883,1.692383,4.036133,2.613281,6.444336,2.613281.239258,0,.478516-.009766.71875-.02832,1.660156-.038086,3.506836-.912109,3.791016-2.771484.128906-1.842773.108398-3.645508.088867-5.389648-.012695-1.125-.025391-2.250977-.000977-3.37207.038086-.643555-.124023-1.177734-.482422-1.557617-.357422-.379883-.879883-.572266-1.551758-.572266-.266602-.021484-.53418-.03418-.802734-.03418-.40918,0-.821289.030273-1.224609.09082-.512695.117188-.900391.320312-1.241211.500977-.345703.181641-.643555.337891-.932617.366211-.076172.008789-.140625.012695-.205078.012695-.100586,0-.201172-.009766-.301758-.027344-.90332-.166016-1.504883-1.038086-1.338867-1.943359.155273-.779297.853516-1.352539,1.658203-1.352539.070312,0,.141602.003906.212891.012695.397461.085938.704102.240234,1.02832.40332.518555.259766,1.106445.553711,2.164062.553711.145508,0,.300781-.004883.469727-.016602h.516602c.393555,0,1.439453,0,1.861328-1.026367.28418-.932617.246094-1.867188-.081055-2.705078l-.02832-.073242-.042969-.066406c-.250977-.394531-.594727-.733398-.993164-.981445-.169922-.116211-.357422-.263672-.53418-.422852-1.021484-.924805-1.621094-2.192383-1.689453-3.569336-.069336-1.376953.40332-2.698242,1.328125-3.719727.875-.995117,2.152344-1.538086,3.603516-1.538086,1.395508,0,2.742188.516602,3.695312,1.417969.916016.821289,1.455078,2.051758,1.494141,3.388672.041992,1.412109-.458008,2.750977-1.37207,3.673828-.251953.254883-.510742.459961-.760742.65918-.787109.624023-1.679688,1.333008-1.487305,3.173828.012695.785156.408203,1.800781,2.196289,1.800781.129883,0,.264648-.003906.400391-.009766.05957.003906.180664.006836.302734.006836.308594,0,.618164-.013672.926758-.040039.707031-.111328,1.220703-.358398,1.672852-.576172.424805-.204102.759766-.365234,1.099609-.365234.259766,0,.546875.098633.87793.299805.149414.099609.299805.246094.420898.416016.260742.368164.362305.817383.286133,1.262695-.076172.446289-.322266.835938-.691406,1.09668-.28125.177734-.560547.270508-.84375.270508-.396484,0-.824219-.183594-1.319336-.395508-.313477-.133789-.638672-.272461-.987305-.384766l-.058594-.018555-.05957-.009766c-.511719-.083008-1.035156-.125-1.554688-.125-.169922,0-.339844.003906-.509766.012695.003906-.003906-.077148-.006836-.15625-.006836-.672852,0-1.172852.180664-1.52832.552734-.353516.371094-.517578.898438-.486328,1.570312l-.001953,2.554688c-.001953,1.729492-.003906,3.458008.000977,5.1875-.009766.516602.06543,1.044922.226562,1.552734.430664,1.263672,1.677734,2.081055,3.341797,2.204102.301758.032227.625977.048828.949219.048828,2.411133,0,4.708008-.90918,6.46582-2.558594.234375-.241211.868164-.893555.597656-1.701172l-.018555-.054688-.025391-.050781c-.290039-.580078-.848633-.805664-1.255859-.970703-.179688-.073242-.366211-.148438-.462891-.227539-.34668-.246094-.339844-.407227-.337891-.467773.010742-.25.268555-.650391.742188-.929688,1.095703-.751953,2.15332-1.470703,3.210938-2.175781.479492-.347656.90625-.536133,1.194336-.536133.104492,0,.321289,0,.536133.482422.391602.987305.735352,2.041016,1.007812,3.101562.262695.709961.436523,1.366211.543945,2.032227.021484.123047.036133.272461.033203.322266-.042969.182617-.24707.345703-.476562.345703h0c-.036133,0-.072266-.003906-.108398-.011719l-.072266-.015625-.074219-.00293c-.174805-.006836-.347656-.049805-.517578-.087891-.253906-.056641-.541016-.120117-.84668-.120117-.365234,0-.697266.092773-.988281.275391l-.160156.101562-.098633.161133c-3.116211,5.099609-8.094727,8.157227-13.658203,8.388672-.429688.027344-.84082.041016-1.25293.041016ZM18.952429,2.103818c-.65918,0-1.305664.182617-1.869141.527344-1.491211.890625-2.146484,2.446289-1.703125,4.054688.463867,1.678711,1.96875,2.897461,3.580078,2.897461.793945,0,1.585938-.291992,2.288086-.844727l.086914-.06543c1.542969-1.233398,1.793945-3.486328.563477-5.025391-.624023-.945312-1.741211-1.543945-2.946289-1.543945Z"/><path id="anchorPath-3" class="cls-1" d="M37.937369,25.8409c-.114606-.718754-.301553-1.424086-.557997-2.105244-.281987-1.097428-.63357-2.175785-1.052621-3.228525-.636509-1.429479-1.885409-1.036919-2.91616-.290495-1.060472.70717-2.120946,1.429479-3.173567,2.152351-1.036918.612953-1.68913,1.885409-.504721,2.718197.471072.384709,1.248902.416114,1.508551.934853.102065.306198-.164874.628656-.384709.856342-1.827792,1.714896-4.31006,2.5518-6.803064,2.293672-1.068323-.078512-2.262267-.557995-2.631834-1.642023-.133855-.424051-.197503-.867128-.188428-1.311711-.007851-2.592579,0-5.184595,0-7.777174-.047107-1.013365.45537-1.327414,1.405925-1.272456.632921-.033726,1.267634.000491,1.89326.102065,1.390223.44864,2.364332,1.350967,3.865032.400412,1.126959-.797746,1.39384-2.358027.596096-3.484987-.178305-.251888-.401706-.468585-.658905-.639136-1.791195-1.091878-2.561174.274792-4.139825.526591-.397014.034004-.795691.044491-1.193944.031405-.9113.039256-1.738479,0-1.75979-1.068324-.196279-1.885409.9113-2.058136,2.018879-3.181418,2.163571-2.184311,2.171424-6.143558-.140754-8.217397-2.28582-2.160201-6.315729-2.262267-8.452936.164875-2.211858,2.443696-2.023916,6.217769.419781,8.429628.204155.184786.420853.355221.648544.510084.297603.184736.549987.433861.738573.729039.263238.67238.293643,1.413562.086363,2.105243-.274792.667913-1.021216.495186-1.689129.526591-1.869707.133471-2.042433-.628657-3.503878-.934853-1.302361-.162841-2.509298.708035-2.765304,1.995326-.246824,1.344959.64339,2.635353,1.988349,2.882177.240737.04418.486694.052419.729848.02445.809235-.078512,1.43733-.691466,2.21516-.872044.605897-.090855,1.220683-.106677,1.830451-.047107.9113-.023553,1.358818.361155,1.30386,1.30386-.062809,2.883072.117767,5.789699-.078512,8.657069-.219834,1.43733-1.744088,2.058137-3.055798,2.089542-2.40805.186928-4.781078-.66497-6.52042-2.340779-.2804-.290495-.597252-.746425-.211982-1.04477.526591-.353305,1.547808-.722872,1.885409-1.225349.903449-1.350967-1.602766-2.5236-2.828114-3.472474-4.230676-3.345172-4.19142-.957286-5.519394,3.136553-.384709,1.1216-.809234,3.267781.974109,3.19656.699317,0,1.358818-.439667,1.995326-.188428.390898.257546.69486.627186.872044,1.060472.587214.987807,1.285664,1.905088,2.081689,2.7339,3.511728,3.786521,8.876901,5.40499,13.943728,5.074681,6.033085-.251237,11.154872-3.605944,14.313295-8.774836.573698-.361156,1.225346.031405,1.89326.056079.702544.156621,1.399039-.285936,1.55566-.988483.041635-.186766-.031405-.584003-.031405-.584003ZM20.748852,8.10392c-3.19656,2.514066-6.755957-2.686793-3.244227-4.784184,1.274051-.779873,2.936742-.412451,3.763529.831666.95403,1.193781.759674,2.934927-.434107,3.888957-.023243.018575-.085195.063561-.085195.063561Z"/></g></g></svg>