<?xml version="1.0" encoding="UTF-8"?><svg id="Warstwa_2" xmlns="http://www.w3.org/2000/svg" xmlns:xlink="http://www.w3.org/1999/xlink" viewBox="0 0 1061.26 1061.262"><defs><style>.cls-1{fill:#c89f63;}.cls-2{fill:url(#Nowa_próbka_gradientu_3);}.cls-3{fill:url(#MENU_BORDER_SQUARE);}</style><radialGradient id="Nowa_próbka_gradientu_3" cx="530.63" cy="530.631" fx="530.63" fy="530.631" r="530.631" gradientTransform="translate(0 -3714.423) scale(1 8)" gradientUnits="userSpaceOnUse"><stop offset=".005" stop-color="#8c6239"/><stop offset=".481" stop-color="#895f36"/><stop offset=".786" stop-color="#80572e"/><stop offset="1" stop-color="#754c24"/></radialGradient><radialGradient id="MENU_BORDER_SQUARE" cx="530.63" cy="530.631" fx="530.63" fy="530.631" r="530.631" gradientTransform="translate(0 -3714.423) scale(1 8)" gradientUnits="userSpaceOnUse"><stop offset="0" stop-color="#ffcb7e"/><stop offset=".262" stop-color="#fbc87c"/><stop offset=".483" stop-color="#f1c077"/><stop offset=".688" stop-color="#dfb26e"/><stop offset=".883" stop-color="#c79e62"/><stop offset="1" stop-color="#b59059"/></radialGradient></defs><g id="Warstwa_4"><g id="fastAction1Frame"><path class="cls-2" d="M1013.517,21c5.256,11.902,14.841,21.487,26.743,26.743v965.776c-11.902,5.256-21.487,14.841-26.743,26.743H47.743c-5.256-11.902-14.841-21.487-26.743-26.743V47.743c11.905-5.256,21.486-14.839,26.743-26.743h965.774M1030.102,0H31.159c0,17.208-13.95,31.159-31.159,31.159v998.945c17.208,0,31.159,13.95,31.159,31.159h998.943c0-17.208,13.95-31.159,31.159-31.159V31.159c-17.208,0-31.159-13.95-31.159-31.159h0Z"/><path class="cls-3" d="M1021.745,9.472c3.55,14.811,15.233,26.494,30.044,30.044v982.23c-14.811,3.55-26.495,15.233-30.044,30.044H39.516c-3.55-14.811-15.233-26.494-30.044-30.044V39.516c14.811-3.55,26.495-15.233,30.044-30.044h982.229M1030.102,0H31.159c0,17.208-13.95,31.159-31.159,31.159v998.945c17.208,0,31.159,13.95,31.159,31.159h998.943c0-17.208,13.95-31.159,31.159-31.159V31.159c-17.208,0-31.159-13.95-31.159-31.159h0Z"/><path class="cls-1" d="M1010.401,25.943c5.47,10.66,14.256,19.447,24.917,24.916v959.543c-10.66,5.47-19.447,14.256-24.917,24.917H50.859c-5.47-10.661-14.256-19.447-24.917-24.916V50.859c10.661-5.47,19.447-14.256,24.917-24.916h959.541M1014.877,18.943H46.384c-5.089,12.417-15.025,22.352-27.441,27.44v968.496c12.417,5.089,22.352,15.023,27.441,27.44h968.493c5.089-12.417,15.024-22.353,27.44-27.441V46.383c-12.416-5.089-22.352-15.024-27.44-27.44h0Z"/></g></g></svg>