<?xml version="1.0" encoding="UTF-8"?><svg id="Warstwa_2" xmlns="http://www.w3.org/2000/svg" xmlns:xlink="http://www.w3.org/1999/xlink" viewBox="0 0 42.277 42.277"><defs><style>.cls-1{fill:url(#Nowa_próbka_gradientu_2);}.cls-2{fill:url(#MENU_BORDER_SQUARE-2);}.cls-3{fill:url(#MENU_BORDER_SQUARE);}.cls-4{fill:url(#MENU_BORDER_SQUARE-3);}</style><radialGradient id="Nowa_próbka_gradientu_2" cx="22.87" cy="1724.515" fx="22.87" fy="1724.515" r="27.881" gradientTransform="translate(-7311.54 -7279.179) rotate(-45) scale(1 6)" gradientUnits="userSpaceOnUse"><stop offset=".005" stop-color="#921c1f"/><stop offset=".381" stop-color="#8f1b1e"/><stop offset=".622" stop-color="#86191c"/><stop offset=".824" stop-color="#771619"/><stop offset="1" stop-color="#641315"/></radialGradient><radialGradient id="MENU_BORDER_SQUARE" cx="21.138" cy="21.138" fx="21.138" fy="21.138" r="21.138" gradientUnits="userSpaceOnUse"><stop offset="0" stop-color="#ffcb7e"/><stop offset=".262" stop-color="#fbc87c"/><stop offset=".483" stop-color="#f1c077"/><stop offset=".688" stop-color="#dfb26e"/><stop offset=".883" stop-color="#c79e62"/><stop offset="1" stop-color="#b59059"/></radialGradient><radialGradient id="MENU_BORDER_SQUARE-2" cy="21.138" fy="21.138" r="17.238" xlink:href="#MENU_BORDER_SQUARE"/><radialGradient id="MENU_BORDER_SQUARE-3" cx="-1185.364" cy="-1182.657" fx="-1185.364" fy="-1182.657" r="9.777" gradientTransform="translate(-5830.786 7549.453) rotate(45) scale(1 8)" xlink:href="#MENU_BORDER_SQUARE"/></defs><g id="Warstwa_4"><g id="levelFrame"><rect class="cls-1" x="1.424" y="1.424" width="39.43" height="39.43"/><path class="cls-3" d="M40.327,1.95v38.376H1.95s0-38.376,0-38.376h38.376M42.277,0H0s0,42.277,0,42.277h42.277V0h0Z"/><path class="cls-2" d="M37.792,4.486v33.305H4.485V4.486h33.307M38.377,3.901H3.9v34.476h34.477V3.901h0Z"/></g><polygon class="cls-4" points="29.663 26.44 24.362 21.138 29.663 15.837 26.44 12.613 21.138 17.915 15.837 12.614 12.614 15.837 17.915 21.138 12.614 26.44 15.837 29.663 21.138 24.362 26.44 29.663 29.663 26.44"/></g></svg>