<?xml version="1.0" encoding="UTF-8"?><svg id="Warstwa_2" xmlns="http://www.w3.org/2000/svg" xmlns:xlink="http://www.w3.org/1999/xlink" viewBox="0 0 25.314941 34.602402"><defs><style>.cls-1{fill:url(#Nowa_próbka_gradientu_3-4);}.cls-2{stroke:url(#MENU_BORDER_SQUARE-4);}.cls-2,.cls-3{fill:none;stroke-width:.600006px;}.cls-4{fill:url(#Nowa_próbka_gradientu_3-3);}.cls-5{fill:url(#MENU_BORDER_SQUARE-2);}.cls-6{fill:url(#Nowa_próbka_gradientu_3);}.cls-7{fill:url(#MENU_BORDER_SQUARE);}.cls-8{fill:url(#MENU_BORDER_SQUARE-3);}.cls-9{fill:url(#Nowa_próbka_gradientu_3-2);}.cls-3{stroke:url(#MENU_BORDER_SQUARE-5);}</style><radialGradient id="MENU_BORDER_SQUARE" cx="65.600377" cy="68.498951" fx="65.600377" fy="68.498951" r="8.450402" gradientTransform="translate(-528.794028 66.254633) rotate(-90) scale(.844454 7.992315) skewX(.050386)" gradientUnits="userSpaceOnUse"><stop offset="0" stop-color="#ffcb7e"/><stop offset=".262059" stop-color="#fbc87c"/><stop offset=".482601" stop-color="#f1c077"/><stop offset=".688148" stop-color="#dfb26e"/><stop offset=".883389" stop-color="#c79e62"/><stop offset="1" stop-color="#b59059"/></radialGradient><radialGradient id="Nowa_próbka_gradientu_3" cx="18.444214" cy="10.541428" fx="18.444214" fy="10.541428" r="8.897432" gradientTransform="translate(5.973076 28.985641) rotate(-90) scale(1 1.18306)" gradientUnits="userSpaceOnUse"><stop offset=".00455" stop-color="#8c6239"/><stop offset=".48127" stop-color="#895f36"/><stop offset=".786046" stop-color="#80572e"/><stop offset="1" stop-color="#754c24"/></radialGradient><radialGradient id="MENU_BORDER_SQUARE-2" cx="45.959813" cy="57.946103" fx="45.959813" fy="57.946103" r="5.80038" gradientTransform="translate(-454.995049 66.247775) rotate(-90) scale(.844454 7.992315) skewX(.050386)" xlink:href="#MENU_BORDER_SQUARE"/><radialGradient id="Nowa_próbka_gradientu_3-2" cx="8.768428" cy="27.322433" fx="8.768428" fy="27.322433" r="6.241547" gradientTransform="translate(-23.55564 36.090862) rotate(-90) scale(1 1.18306)" xlink:href="#Nowa_próbka_gradientu_3"/><radialGradient id="MENU_BORDER_SQUARE-3" cx="57.509109" cy="61.016025" fx="57.509109" fy="61.016025" r="14.998487" gradientTransform="translate(-476.463864 66.24977) rotate(-90) scale(.844454 7.992315) skewX(.050386)" xlink:href="#MENU_BORDER_SQUARE"/><radialGradient id="Nowa_próbka_gradientu_3-3" cx="10.769165" cy="17.303154" fx="10.769165" fy="17.303154" r="14.408282" gradientTransform="translate(-9.701498 28.072319) rotate(-90) scale(1 1.18306)" xlink:href="#Nowa_próbka_gradientu_3"/><radialGradient id="Nowa_próbka_gradientu_3-4" cx="116.818821" cy="63.627047" fx="116.818821" fy="63.627047" r="20.264819" gradientTransform="translate(-35.375826 -126.306762) rotate(-5.171558) scale(.296085 2.368642)" xlink:href="#Nowa_próbka_gradientu_3"/><radialGradient id="MENU_BORDER_SQUARE-4" cx="116.818821" cy="63.627047" fx="116.818821" fy="63.627047" r="20.564822" gradientTransform="translate(-23.489205 5.027472) rotate(-5.171558) scale(.296085)" xlink:href="#MENU_BORDER_SQUARE"/><radialGradient id="MENU_BORDER_SQUARE-5" cx="116.818492" cy="63.627234" fx="116.818492" fy="63.627234" r="15.161209" gradientTransform="translate(-138.053608 55.260065) rotate(-90) scale(.296085 2.368641)" xlink:href="#MENU_BORDER_SQUARE"/></defs><g id="Warstwa_4"><path class="cls-7" d="M23.541908,7.330598l-2.021773.000189c-.291287.000027-.52742.199645-.52742.44586l-.000021,7.05273c-.000005,1.717858-1.327349,3.400919-3.94599,5.003111-.104898.063909-.209503.126828-.313816.188755-.937626-.530397-1.917433-1.005478-2.932444-1.421863.4738-.234838,1.008251-.520207,1.539188-.847928.99155-.61234,2.656439-1.805039,2.656443-2.919566l.000021-7.054957c0-.246215-.236131-.445789-.527418-.445762l-2.021773.000189,4.043563-5.737965,4.051439,5.737206Z"/><path class="cls-6" d="M19.490479,1.593399l4.051514,5.737198-2.021973.000183c-.29126.000031-.527344.199646-.527344.445862v7.052734c0,1.717865-1.327393,3.400925-3.946045,5.003113-.104736.063904-.209473.126831-.313721.188751-.937744-.530396-1.91748-1.005478-2.932373-1.42186.473633-.234833,1.008057-.520203,1.539062-.847931.991699-.612335,2.656494-1.805038,2.656494-2.919556v-7.054962c0-.246201-.236084-.44577-.527344-.44577h0l-2.021729.000198,4.043457-5.737961M19.489746,0l-.75,1.064316-4.043457,5.737961-1.020264,1.447769,1.770996-.000183,1.630615-.000168v6.582199c0,.265259-.464111,1.053482-2.220703,2.138031-.439453.271347-.932373.54274-1.464355.806549l-1.819092.901962,1.878418.770706c.97583.400345,1.92749.861816,2.828857,1.371582l.463379.262131.457764-.271912.323242-.194366c2.910645-1.780914,4.385986-3.727814,4.385986-5.787201v-6.580124l1.630859-.000168,1.772949-.000168-1.022705-1.448166-4.051514-5.737183-.750977-1.063568h0Z"/><path class="cls-5" d="M8.595689,21.103839c.906956.494458,1.85296.935767,2.831358,1.320823,0,0,.050105.019313.134492.053485-.377105.194706-.79113.424338-1.211308.681461-.992428.613083-2.656439,1.806525-2.656443,2.92031l-.000019,6.366923c-.02005.699867-.707515,1.253546-1.535494,1.236677-.799772-.016294-1.44352-.560376-1.462883-1.236397l.000019-6.366924c-.00351-1.708198,1.309768-3.381598,3.900278-4.976358Z"/><path class="cls-9" d="M8.595703,21.103836c.906982.494461,1.853027.935776,2.831299,1.320831,0,0,.050049.019302.134521.053482-.377197.194702-.791016.424332-1.211182.681458-.992432.613083-2.656494,1.806519-2.656494,2.920303v6.366928c-.019775.689453-.687256,1.237045-1.498779,1.237045-.012207,0-.024658-.000122-.036865-.000366-.799805-.016296-1.443359-.560379-1.462891-1.236404v-6.366913c-.003418-1.708206,1.309814-3.381607,3.900391-4.976364M8.567627,20.042465l-.453369.279205c-2.882324,1.774261-4.341553,3.712326-4.337402,5.760361v6.365082c.033936,1.193619,1.071777,2.128418,2.362549,2.154709l.009521.000198.046143.000381c1.321045,0,2.382812-.935303,2.416992-2.129303l.000244-6.393188c0-.265289.464111-1.053741,2.220703-2.138885.367676-.224945.755615-.443207,1.149902-.646713l1.7771-.917404-1.854004-.750198-.148438-.059036c-.933838-.367569-1.851807-.795731-2.722168-1.270279l-.467773-.254929h0Z"/><path class="cls-8" d="M9.864174,7.331877l-2.021773.000189c-.291285.000027-.52742.199645-.52742.44586l-.000021,7.05273c-.000003,1.114527,1.663999,2.306915,2.655545,2.919071.776805.473444,1.593883.897792,2.444583,1.269589.38941.171601.641691.268912.668064.278569,1.168117.461418,2.287395,1.006446,3.34559,1.629126.080872.048288.162621.09732.24437.148581,2.619509,1.601702,3.946842,3.284514,3.946837,5.002373l-.000019,6.367666c-.020036.699867-.707486,1.253557-1.535466,1.236701-.799793-.016282-1.443563-.560382-1.462913-1.23642l.000019-6.366924c.000003-1.114527-1.663999-2.306916-2.656425-2.919071-.653057-.399733-1.335698-.763749-2.043743-1.089815l-.030767-.014115c-.592467-.274119-1.002094-.430857-1.035498-.445714-1.024805-.404135-2.012116-.872976-2.953543-1.402543h0c-.014065-.007429-.029008-.015601-.043952-.024516-.002324-.000363-.004708-.000362-.007032,0-.192508-.109206-.388531-.222869-.584555-.343963-2.61863-1.601702-3.945963-3.285257-3.945958-5.002373l.000021-7.054957c0-.246215-.236132-.445789-.527418-.445762l-2.021773.000189L5.814492,1.598385l4.049682,5.733492Z"/><path class="cls-4" d="M5.814453,1.598389l4.049805,5.73349-2.021973.000183c-.29126.000031-.527344.199646-.527344.445862v7.052734c0,1.114532,1.664062,2.306915,2.655518,2.919067.776855.47345,1.593994.897797,2.44458,1.269592.389404.1716.641846.268906.668213.278564,1.167969.461426,2.287354,1.006454,3.345459,1.629135.080811.048279.162598.097321.244385.148575,2.619629,1.6017,3.946777,3.284515,3.946777,5.00238v6.367661c-.019775.689438-.687256,1.237076-1.498535,1.237076-.012207,0-.024414-.000122-.036865-.000381-.799805-.016281-1.443604-.560379-1.462891-1.23642v-6.366913c0-1.114532-1.664062-2.306915-2.656494-2.919083-.653076-.399734-1.335693-.763748-2.043701-1.089813l-.030762-.014114c-.592529-.274109-1.002197-.430847-1.0354-.445709-1.024902-.404144-2.012207-.872986-2.953613-1.402542-.01416-.007431-.029053-.01561-.043945-.024521-.001221-.000183-.002441-.000275-.003662-.000275-.000977,0-.002197.000092-.003418.000275-.192383-.109207-.388428-.22287-.584473-.343964-2.618652-1.6017-3.946045-3.285248-3.946045-5.002365v-7.054962c0-.246185-.236084-.445755-.527344-.445755h0l-2.021729.000183L5.814453,1.598389M5.813477.005112l-.749756,1.064194L1.020264,6.807266l-1.020264,1.447739,1.770996-.000153,1.630615-.000153v6.582184c0,2.059433,1.475342,4.006088,4.385254,5.785919.202393.125061.408203.244522.610352.359192l.274902.156006.010254-.001526c.893066.490601,1.852295.940369,2.835938,1.328278l.043945.017914c.123535.049576.473145.189682.942627.406937.705078.324631,1.360596.674179,1.980713,1.053711,1.753418,1.081619,2.217529,1.870102,2.217529,2.135681v6.366913c.033691,1.193481,1.071289,2.128448,2.362549,2.154724l.009521.000198.046143.000366c1.321045,0,2.382568-.935303,2.416748-2.129303l.000244-6.393921c0-2.059814-1.475586-4.006516-4.385986-5.786011-.078857-.049423-.16626-.101868-.252441-.153427-1.101074-.647949-2.269775-1.217148-3.479248-1.694901-.056396-.021362-.286621-.111221-.635254-.264832-.812744-.35524-1.598145-.763123-2.336914-1.213394-1.751221-1.081223-2.215088-1.869415-2.215088-2.13475v-6.580139l1.630859-.000137,1.773193-.000168-1.022949-1.448242L6.564697,1.068481,5.813477.005112h0Z"/><circle class="cls-1" cx="12.656418" cy="20.671725" r="6.000127" transform="translate(-9.071985 31.41331) rotate(-84.828442)"/><circle class="cls-2" cx="12.656418" cy="20.671725" r="6.000127" transform="translate(-9.071985 31.41331) rotate(-84.828442)"/><circle class="cls-3" cx="12.656473" cy="20.671823" r="4.400146"/></g></svg>