<svg xmlns="http://www.w3.org/2000/svg" width="2150.057" height="374.493" viewBox="0 0 2150.057 374.493">
  <g id="nakładka" transform="translate(2150.057 374.493) rotate(180)" opacity="0.31">
    <path id="Path_6" data-name="Path 6" d="M4,320.61c25.9,64.959,168.4,43.1,519,40.8,129.8-.837,235.8,2.2,448,8.368,341.5,9.937,686.8-49.478,1025,1.674,16.2,2.406,69.5,11.506,110.5-19.979,3-2.3,36.1-28.452,42.5-71.34,9.4-62.867-46.4-116.424-67-139.646C1906.4-57.534,1633.8,2.4,1308,32.949,856.5,75.313,630.8,96.443,535,66.631,430.7,34.2,288.7,18.409,161,97.176,68.8,153.976-20.1,260.149,4,320.61Z" transform="translate(-0.001 -0.031)"/>
  </g>
</svg>
